<svg width="256" height="255" viewBox="0 0 256 255" fill="none" xmlns="http://www.w3.org/2000/svg">
<ellipse cx="128" cy="127.5" rx="128" ry="127.5" fill="#192841"/>
<path d="M179.076 76.6969C165.175 62.8503 145.829 57.6179 127.829 61.0636C117.195 63.1055 107.073 68.2103 98.8098 76.2502C98.6817 76.314 75.6844 99.2853 61.9116 113.004C58.1961 116.705 60.8226 123.086 66.0754 123.15L95.1584 123.341C96.7599 123.341 98.2973 122.703 99.3863 121.619L123.985 97.1796C133.658 87.7997 149.032 87.8635 158.513 97.3073C167.674 106.432 167.994 121.044 159.538 130.743L134.555 155.437C133.466 156.522 132.825 158.054 132.825 159.649V188.81C132.825 194.106 139.231 196.722 143.011 193.021L178.948 157.224C179.012 157.16 179.012 157.16 179.076 157.16C187.596 148.674 192.849 138.209 194.835 127.298C198.102 109.431 192.849 90.4159 179.076 76.6969Z" fill="white"/>
<path d="M65.0507 182.62L76.3252 152.758L65.0507 182.62Z" fill="white"/>
<path d="M72.7376 190.277L102.717 179.046L72.7376 190.277Z" fill="white"/>
<path d="M100.603 148.929C103.871 148.929 106.561 151.609 106.561 154.864V173.56C106.561 176.048 105.024 178.218 102.717 179.111L72.2252 190.341C67.4207 192.128 62.7444 187.406 64.6021 182.621L76.2609 152.822C77.1577 150.525 79.3358 148.993 81.8341 148.993H100.603V148.929Z" fill="white"/>
</svg>
