<svg width="20" height="20" viewBox="0 0 20 20" fill="none" xmlns="http://www.w3.org/2000/svg">
<circle cx="10" cy="10" r="10" fill="white"/>
<path d="M14.3129 6.30995C13.2242 5.22121 11.709 4.80979 10.2991 5.08072C9.46623 5.24127 8.6735 5.64266 8.02627 6.27483C8.01624 6.27985 6.21504 8.08607 5.13632 9.16479C4.84532 9.45579 5.05103 9.95751 5.46245 9.96253L7.74029 9.97758C7.86572 9.97758 7.98614 9.92741 8.07143 9.84212L9.99807 7.9205C10.7557 7.18296 11.9598 7.18798 12.7024 7.93053C13.4198 8.64801 13.4449 9.79696 12.7827 10.5596L10.8259 12.5013C10.7406 12.5866 10.6904 12.707 10.6904 12.8324V15.1253C10.6904 15.5417 11.1922 15.7475 11.4882 15.4565L14.3029 12.6418C14.3079 12.6367 14.3079 12.6367 14.3129 12.6367C14.9802 11.9694 15.3916 11.1466 15.5472 10.2887C15.8031 8.88382 15.3916 7.38867 14.3129 6.30995Z" fill="#192841"/>
<path d="M5.3822 14.6386L6.26524 12.2905L5.3822 14.6386Z" fill="#192841"/>
<path d="M5.98425 15.241L8.33234 14.3579L5.98425 15.241Z" fill="#192841"/>
<path d="M8.16681 11.9897C8.42269 11.9897 8.63341 12.2005 8.63341 12.4564V13.9264C8.63341 14.1221 8.513 14.2927 8.33238 14.3629L5.94415 15.246C5.56786 15.3864 5.2016 15.0152 5.3471 14.6389L6.26024 12.2958C6.33048 12.1152 6.50107 11.9948 6.69674 11.9948H8.16681V11.9897Z" fill="#192841"/>
</svg>
