<svg width="862" height="909" viewBox="0 0 862 909" fill="none" xmlns="http://www.w3.org/2000/svg">
<path d="M0.5 20C0.5 9.23047 9.23045 0.5 20 0.5H842C852.77 0.5 861.5 9.23045 861.5 20V889C861.5 899.77 852.77 908.5 842 908.5H20C9.23047 908.5 0.5 899.77 0.5 889V20Z" fill="white" stroke="#E3E3E3"/>
<path opacity="0.56" d="M376.126 50.08C373.006 48.352 370.726 45.208 370.726 40.864V39.736H375.07V37.744H363.718V39.736H368.182V40.864C368.182 45.16 366.046 48.616 362.638 50.512L364.174 52.336C366.766 50.92 368.902 48.088 369.454 45.808C370.126 48.016 372.718 50.752 374.71 51.856L376.126 50.08ZM379.726 35.512H377.254V56.896H379.726V45.952H382.966V43.888H379.726V35.512ZM400.9 43.408V41.416H388.9V38.104H400.732V36.088H386.428V43.408H392.284V45.64H383.884V47.632H403.204V45.64H394.732V43.408H400.9ZM400.972 53.008C400.972 50.656 398.26 49.12 393.532 49.12C388.828 49.12 386.14 50.656 386.14 53.008C386.14 55.408 388.828 56.92 393.556 56.92C398.26 56.92 400.972 55.408 400.972 53.008ZM398.428 53.032C398.428 54.256 396.556 54.928 393.532 54.928C390.532 54.928 388.66 54.256 388.66 53.032C388.66 51.808 390.532 51.088 393.532 51.088C396.556 51.088 398.428 51.808 398.428 53.032ZM429.194 52.672C429.194 50.104 426.458 48.424 421.802 48.424C417.194 48.424 414.434 50.104 414.434 52.672C414.434 55.192 417.194 56.872 421.802 56.872C426.458 56.872 429.194 55.192 429.194 52.672ZM428.978 48.544V35.512H426.626V40.864H424.562V35.896H422.234V47.632H424.562V42.928H426.626V48.544H428.978ZM421.706 45.232C419.714 44.248 417.554 42.184 417.554 39.088V36.832H415.178V39.16C415.178 42.232 413.306 44.632 410.834 46L412.25 47.728C414.122 46.792 415.85 44.824 416.426 43.12C417.002 44.608 419.018 46.384 420.458 47.056L421.706 45.232ZM426.65 52.672C426.65 54.064 424.802 54.904 421.802 54.904C418.802 54.904 416.978 54.064 416.978 52.672C416.978 51.256 418.802 50.44 421.802 50.44C424.802 50.44 426.65 51.256 426.65 52.672ZM449.336 48.088V35.512H446.888V40.024H442.976V42.04H446.888V48.088H449.336ZM449.528 52.672C449.528 50.104 446.888 48.4 442.232 48.4C437.624 48.4 434.984 50.104 434.984 52.672C434.984 55.192 437.624 56.896 442.232 56.896C446.888 56.896 449.528 55.192 449.528 52.672ZM446.984 52.672C446.984 54.064 445.256 54.928 442.232 54.928C439.28 54.928 437.528 54.064 437.528 52.672C437.528 51.256 439.28 50.392 442.232 50.392C445.256 50.392 446.984 51.256 446.984 52.672ZM444.344 45.208C441.92 44.368 439.304 41.896 439.304 38.56V36.52H436.784V38.656C436.784 41.968 434.6 44.536 431.528 45.76L433.016 47.656C435.176 46.816 437.408 44.776 438.056 42.568C438.992 44.632 441.176 46.384 442.928 47.128L444.344 45.208ZM475.542 36.64H461.334V44.272H475.542V36.64ZM469.734 52.288V48.352H478.11V46.36H458.79V48.352H467.286V52.288H469.734ZM475.854 56.272V54.328H463.758V50.224H461.286V56.272H475.854ZM473.07 42.304H463.806V38.608H473.07V42.304ZM497.172 56.896V35.512H494.724V42.88H490.548V44.944H494.724V56.896H497.172ZM492.564 50.2C489.42 48.232 487.284 44.824 487.284 40.72V37.336H484.764V40.864C484.764 44.944 482.676 48.472 479.364 50.632L480.9 52.408C483.204 51.016 485.34 48.328 486.084 45.784C486.852 48.136 489.252 50.872 491.076 52.024L492.564 50.2Z" fill="#2E2E2E"/>
<path d="M2 92H861" stroke="#E3E3E3"/>
<path d="M370.59 165.528V137.016H367.326V165.528H370.59ZM347.966 149.208C347.966 155.224 350.686 159.192 355.262 159.192C359.838 159.192 362.494 155.224 362.494 149.24C362.494 143.192 359.838 139.224 355.262 139.224C350.686 139.224 347.966 143.192 347.966 149.208ZM359.39 149.208C359.39 153.784 357.694 156.536 355.262 156.536C352.862 156.536 351.198 153.784 351.198 149.208C351.198 144.632 352.862 141.912 355.262 141.912C357.694 141.912 359.39 144.632 359.39 149.208ZM396.486 137.016H393.19V165.528H396.486V150.904H400.774V148.152H396.486V137.016ZM391.398 156.088C387.206 153.464 384.294 148.92 384.294 143.448V139.48H380.934V143.64C380.934 149.08 378.118 153.784 373.67 156.664L375.686 159.064C378.822 157.176 381.67 153.592 382.662 150.2C383.686 153.336 387.014 156.984 389.446 158.552L391.398 156.088ZM420.493 157.592C418.381 157.88 415.373 158.072 412.461 158.2V155.704C415.693 155.256 417.869 153.432 417.869 151C417.869 148.152 414.989 146.168 410.893 146.168C406.861 146.168 403.981 148.152 403.981 151C403.981 153.368 406.061 155.192 409.197 155.672V158.328C406.573 158.392 403.949 158.392 401.517 158.392L402.029 161.112C408.493 161.048 414.797 160.856 420.749 160.152L420.493 157.592ZM425.389 137.016H422.093V165.528H425.389V137.016ZM419.245 145.144V142.584H402.509V145.144H419.245ZM414.509 151C414.509 152.312 413.005 153.24 410.893 153.24C408.877 153.24 407.341 152.312 407.341 151C407.341 149.656 408.877 148.728 410.893 148.728C413.005 148.728 414.509 149.656 414.509 151ZM406.733 141.048H415.021V138.424H406.733V141.048ZM453.131 146.072C453.131 142.072 449.899 139.256 445.675 139.256C441.547 139.256 438.379 142.136 438.379 146.072C438.379 149.944 441.515 152.568 445.675 152.568C449.867 152.568 453.131 150.008 453.131 146.072ZM449.835 146.04C449.835 148.312 447.915 149.784 445.675 149.784C443.499 149.784 441.579 148.312 441.579 146.04C441.579 143.672 443.467 142.072 445.675 142.072C447.979 142.072 449.835 143.576 449.835 146.04ZM460.523 137.016H457.259V165.528H460.523V137.016ZM455.659 155.608C453.195 155.864 449.995 156.088 445.931 156.248C442.603 156.44 439.499 156.44 436.459 156.408L436.971 159.224C443.659 159.192 449.803 158.904 455.915 158.232L455.659 155.608ZM486.035 137.016H482.739V165.528H486.035V150.904H490.323V148.152H486.035V137.016ZM480.947 156.088C476.755 153.464 473.843 148.92 473.843 143.448V139.48H470.483V143.64C470.483 149.08 467.667 153.784 463.219 156.664L465.235 159.064C468.371 157.176 471.219 153.592 472.211 150.2C473.235 153.336 476.563 156.984 478.995 158.552L480.947 156.088ZM514.106 149.816V147.256H497.786V145.016H513.402V137.976H494.394V140.504H510.106V142.648H494.49V149.816H502.298V152.088H491.098V154.712H516.858V152.088H505.562V149.816H514.106ZM494.106 156.664V159.288H510.234V165.624H513.498V156.664H494.106Z" fill="#2E2E2E"/>
<path d="M84.6304 247.176C84.6304 244.272 82.3024 242.28 79.1824 242.28C76.0624 242.28 73.7344 244.32 73.7344 247.176C73.7344 250.08 76.1584 251.88 79.1824 251.88C82.3024 251.88 84.6304 250.008 84.6304 247.176ZM82.2064 247.152C82.2064 248.616 81.0064 249.84 79.1824 249.84C77.4544 249.84 76.1584 248.712 76.1584 247.152C76.1584 245.568 77.5264 244.32 79.1824 244.32C81.0544 244.32 82.2064 245.544 82.2064 247.152ZM91.4464 262.728V260.784H79.3024V258.96H90.7504V253.392H76.7344V255.384H88.3024V257.136H76.8304V262.728H91.4464ZM90.7264 252.288V241.512H88.2784V252.288H90.7264ZM111.156 262.896V241.512H108.708V262.896H111.156ZM106.572 256.104C103.452 254.136 101.46 250.824 101.46 246.72V243.36H98.916V246.864C98.916 250.944 96.804 254.472 93.492 256.632L95.004 258.432C97.356 257.016 99.492 254.328 100.212 251.784C101.004 254.136 103.284 256.776 105.108 257.952L106.572 256.104Z" fill="#2E2E2E"/>
<path d="M90.2968 386.728V384.88H77.6488V383.488H89.4808V378.616H83.5768V377.224H92.0488V375.328H72.7288V377.224H81.1288V378.616H75.1528V380.488H87.0088V381.736H75.2008V386.728H90.2968ZM91.1848 372.64C88.1608 372.592 84.8728 371.56 83.8888 370.072H90.1048V368.176H74.6728V370.072H80.9608C80.0488 371.584 76.8328 372.64 73.5448 372.664L74.5768 374.632C78.0568 374.344 81.2248 373.12 82.3768 371.416C83.5768 373.072 86.8648 374.272 90.1768 374.632L91.1848 372.64ZM78.8728 367.24H85.8808V365.344H78.8728V367.24ZM96.3744 379.072V381.04H108.326V386.92H110.774V379.072H96.3744ZM110.75 377.992V365.512H108.302V370.072H104.39V372.088H108.302V377.992H110.75ZM105.758 375.04C103.334 374.224 100.718 371.728 100.718 368.392V366.4H98.1984V368.512C98.1984 371.8 95.9904 374.368 92.9424 375.568L94.4544 377.536C96.6624 376.552 98.8224 374.632 99.4704 372.4C100.406 374.44 102.59 376.216 104.342 376.96L105.758 375.04ZM130.148 365.512H127.676V386.896H130.148V375.928H133.364V373.864H130.148V365.512ZM126.332 379.816C123.188 377.848 121.004 374.44 121.004 370.336V367.36H118.484V370.48C118.484 374.56 116.372 378.088 113.036 380.248L114.548 382.048C116.9 380.632 119.036 377.944 119.78 375.4C120.548 377.752 123.044 380.488 124.868 381.664L126.332 379.816ZM153.722 373.408V371.344H150.554V365.512H148.082V378.952H150.554V373.408H153.722ZM146.162 370.816V368.872H133.778V370.816H146.162ZM145.01 375.088C145.01 373 142.826 371.56 139.994 371.56C137.114 371.56 134.93 373 134.93 375.064C134.93 377.152 137.138 378.592 139.994 378.592C142.826 378.592 145.01 377.152 145.01 375.088ZM142.634 375.064C142.634 376.12 141.362 376.768 139.994 376.768C138.626 376.768 137.306 376.12 137.306 375.064C137.306 374.008 138.602 373.384 139.994 373.384C141.362 373.384 142.634 374.008 142.634 375.064ZM136.874 367.648H143.138V365.704H136.874V367.648ZM150.77 383.152C150.77 380.872 148.178 379.36 143.57 379.36C138.986 379.36 136.394 380.872 136.394 383.152C136.394 385.48 138.986 386.968 143.57 386.968C148.178 386.968 150.77 385.48 150.77 383.152ZM143.57 381.256C146.57 381.256 148.25 382.024 148.25 383.176C148.25 384.328 146.57 385.096 143.57 385.096C140.594 385.096 138.914 384.328 138.914 383.176C138.914 382.048 140.594 381.256 143.57 381.256Z" fill="#2E2E2E"/>
<path d="M83.304 746.152C80.904 744.76 79.2 741.712 79.2 737.464V735.952H82.704V733.96H73.032V735.952H76.8V737.536C76.8 741.76 75.096 744.88 72.264 746.752L73.8 748.408C75.648 747.256 77.496 744.808 77.976 742.696C78.552 744.736 80.424 747.016 81.864 747.928L83.304 746.152ZM86.496 751.888V731.944H84.192V739.12H81.264V741.16H84.192V751.888H86.496ZM90.744 752.896V731.512H88.392V752.896H90.744ZM96.2936 750.088H98.7896V733.576H97.4696L93.4136 735.4V736.864L96.2936 736.24V750.088ZM121.109 750.352V748.36H112.637V745.96C116.021 745.72 118.157 744.304 118.157 742.192C118.157 739.864 115.541 738.352 111.461 738.352C107.405 738.352 104.765 739.864 104.765 742.192C104.765 744.28 106.853 745.672 110.189 745.96V748.36H101.789V750.352H121.109ZM119.909 737.464V735.472H102.989V737.464H119.909ZM115.661 742.192C115.661 743.512 113.693 744.16 111.461 744.16C109.229 744.16 107.261 743.512 107.261 742.192C107.261 740.872 109.229 740.248 111.461 740.248C113.693 740.248 115.661 740.872 115.661 742.192ZM107.645 734.128H115.229V732.16H107.645V734.128ZM140.475 738.304C140.475 735.304 138.051 733.192 134.883 733.192C131.787 733.192 129.411 735.352 129.411 738.304C129.411 741.208 131.763 743.176 134.883 743.176C138.027 743.176 140.475 741.256 140.475 738.304ZM138.003 738.28C138.003 739.984 136.563 741.088 134.883 741.088C133.251 741.088 131.811 739.984 131.811 738.28C131.811 736.504 133.227 735.304 134.883 735.304C136.611 735.304 138.003 736.432 138.003 738.28ZM146.019 731.512H143.571V752.896H146.019V731.512ZM142.371 745.456C140.523 745.648 138.123 745.816 135.075 745.936C132.579 746.08 130.251 746.08 127.971 746.056L128.355 748.168C133.371 748.144 137.979 747.928 142.563 747.424L142.371 745.456ZM165.153 731.512H162.705V747.016H165.153V739.672H168.321V737.608H165.153V731.512ZM165.777 752.248V750.256H153.921V745.456H151.449V752.248H165.777ZM159.969 738.376C159.969 735.328 157.761 733.12 154.473 733.12C151.185 733.12 148.977 735.352 148.977 738.376C148.977 741.424 151.209 743.608 154.473 743.608C157.761 743.608 159.969 741.4 159.969 738.376ZM157.497 738.376C157.497 740.128 156.345 741.52 154.473 741.52C152.649 741.52 151.425 740.128 151.425 738.376C151.425 736.552 152.649 735.184 154.473 735.184C156.345 735.184 157.497 736.48 157.497 738.376ZM170.199 739.936H172.815V737.392H170.199V739.936ZM170.199 748.792H172.815V746.248H170.199V748.792ZM198.858 748.696C198.858 746.128 196.194 744.448 191.562 744.448C186.954 744.448 184.314 746.128 184.314 748.696C184.314 751.216 186.954 752.896 191.562 752.896C196.194 752.896 198.858 751.216 198.858 748.696ZM181.818 734.92H186.258V735.112C186.258 738.28 183.978 740.848 180.978 741.952L182.466 743.872C184.602 743.056 186.906 740.968 187.53 738.88C188.442 740.872 190.554 742.552 192.306 743.248L193.674 741.304C191.178 740.536 188.802 738.184 188.802 734.992V734.92H193.074V732.88H181.818V734.92ZM192.738 738.736H196.218V744.376H198.69V731.512H196.218V736.696H192.738V738.736ZM191.562 746.464C194.586 746.464 196.338 747.28 196.338 748.696C196.338 750.088 194.586 750.904 191.562 750.904C188.61 750.904 186.858 750.088 186.858 748.696C186.858 747.28 188.61 746.464 191.562 746.464ZM219.096 752.896V731.512H216.648V752.896H219.096ZM212.544 733.768H202.632V735.784H209.904C209.496 740.272 206.304 744.76 201.384 747.016L202.92 748.888C209.088 745.504 212.4 740.392 212.544 733.768ZM239.406 734.368V732.376H223.662V734.368H230.262C229.83 737.032 226.038 739.048 222.75 739.384L223.926 741.328C227.07 740.848 230.526 738.904 231.558 736.816C232.638 738.784 236.19 740.8 239.19 741.232L240.294 739.288C237.102 738.952 233.334 737.008 232.902 734.368H239.406ZM232.734 752.872V745.264H241.206V743.296H221.886V745.264H230.286V752.872H232.734ZM259.811 734.368V732.376H244.067V734.368H250.667C250.235 737.032 246.443 739.048 243.155 739.384L244.331 741.328C247.475 740.848 250.931 738.904 251.963 736.816C253.043 738.784 256.595 740.8 259.595 741.232L260.699 739.288C257.507 738.952 253.739 737.008 253.307 734.368H259.811ZM253.139 752.872V745.264H261.611V743.296H242.291V745.264H250.691V752.872H253.139ZM279.785 749.344C279.785 747.184 277.385 745.624 272.345 745.624C267.353 745.624 264.953 747.184 264.953 749.344C264.953 751.528 267.353 753.088 272.369 753.088C277.385 753.088 279.785 751.528 279.785 749.344ZM281.129 739.432C278.009 739.336 274.601 738.112 273.785 736.432H280.073V734.464H264.617V736.432H270.977C270.185 738.136 266.945 739.36 263.513 739.432L264.545 741.424C267.953 741.184 271.169 739.864 272.345 737.992C273.569 739.816 276.953 741.16 280.121 741.424L281.129 739.432ZM282.017 744.712V742.72H273.545V740.248H271.097V742.72H262.697V744.712H282.017ZM277.241 749.344C277.241 750.472 275.393 751.12 272.345 751.12C269.345 751.12 267.473 750.472 267.473 749.344C267.473 748.24 269.345 747.64 272.345 747.64C275.393 747.64 277.241 748.24 277.241 749.344ZM268.841 733.384H275.849V731.464H268.841V733.384ZM297.311 746.944C295.727 747.16 293.471 747.304 291.287 747.4V745.528C293.711 745.192 295.343 743.824 295.343 742C295.343 739.864 293.183 738.376 290.111 738.376C287.087 738.376 284.927 739.864 284.927 742C284.927 743.776 286.487 745.144 288.839 745.504V747.496C286.871 747.544 284.903 747.544 283.079 747.544L283.463 749.584C288.311 749.536 293.039 749.392 297.503 748.864L297.311 746.944ZM300.983 731.512H298.511V752.896H300.983V731.512ZM296.375 737.608V735.688H283.823V737.608H296.375ZM292.823 742C292.823 742.984 291.695 743.68 290.111 743.68C288.599 743.68 287.447 742.984 287.447 742C287.447 740.992 288.599 740.296 290.111 740.296C291.695 740.296 292.823 740.992 292.823 742ZM286.991 734.536H293.207V732.568H286.991V734.536ZM328.149 741.208C324.933 740.608 320.421 737.632 320.421 734.008V732.736H317.853V734.008C317.853 737.68 313.629 740.56 310.125 741.112L311.325 743.104C314.565 742.336 318.117 739.888 319.101 737.224C320.205 739.864 323.685 742.288 326.877 743.104L328.149 741.208ZM328.773 750.208V748.216H320.301V742.96H317.853V748.216H309.453V750.208H328.773ZM347.498 752.632V744.112H345.026V746.44H336.002V744.16H333.506V752.632H347.498ZM330.818 734.632H335.306C335.282 737.8 332.978 740.344 330.002 741.448L331.49 743.368C333.626 742.528 335.93 740.512 336.554 738.376C337.49 740.368 339.578 742.096 341.354 742.792L342.698 740.824C340.226 740.032 337.898 737.752 337.826 734.632H342.098V732.688H330.818V734.632ZM347.474 743.008V731.512H345.002V743.008H347.474ZM345.026 750.64H336.002V748.36H345.026V750.64ZM362.6 738.304C362.6 735.304 360.176 733.192 357.008 733.192C353.912 733.192 351.536 735.352 351.536 738.304C351.536 741.208 353.888 743.176 357.008 743.176C360.152 743.176 362.6 741.256 362.6 738.304ZM360.128 738.28C360.128 739.984 358.688 741.088 357.008 741.088C355.376 741.088 353.936 739.984 353.936 738.28C353.936 736.504 355.352 735.304 357.008 735.304C358.736 735.304 360.128 736.432 360.128 738.28ZM368.144 731.512H365.696V752.896H368.144V731.512ZM364.496 745.456C362.648 745.648 360.248 745.816 357.2 745.936C354.704 746.08 352.376 746.08 350.096 746.056L350.48 748.168C355.496 748.144 360.104 747.928 364.688 747.424L364.496 745.456ZM394.206 747.016V731.512H391.758V737.992H387.558V740.008H391.758V747.016H394.206ZM387.534 733.168H377.694V735.232H384.87C384.222 739.12 380.622 741.76 376.686 742.6L377.958 744.568C383.598 742.84 387.342 739.12 387.534 733.168ZM394.71 752.344V750.376H382.686V745.6H380.214V752.344H394.71Z" fill="#2E2E2E"/>
<path d="M73.92 307.992H84.024V306.216H76.824L79.224 303.792C81.864 301.128 83.712 299.064 83.712 296.232C83.712 293.352 81.936 291.552 78.624 291.552C76.8 291.552 75.144 292.32 74.136 292.992L74.64 294.624C75.576 294 76.872 293.352 78.216 293.352C80.472 293.352 81.48 294.36 81.48 296.448C81.48 298.704 79.896 300.528 77.616 302.904L73.92 306.744V307.992ZM92.4077 308.28C95.6957 308.28 98.2877 306.072 98.2877 300.552V299.16C98.2877 293.544 95.6237 291.576 92.4317 291.576C89.2157 291.576 86.4077 293.544 86.4077 299.256V300.528C86.4077 306.024 89.0237 308.28 92.4077 308.28ZM92.4077 306.552C89.9357 306.552 88.6637 304.656 88.6637 300.696V298.992C88.6637 295.032 89.9837 293.304 92.4317 293.304C94.8317 293.304 96.1037 295.128 96.1037 299.16V300.816C96.1037 304.92 94.8077 306.552 92.4077 306.552ZM100.716 307.992H110.82V306.216H103.62L106.02 303.792C108.66 301.128 110.508 299.064 110.508 296.232C110.508 293.352 108.732 291.552 105.42 291.552C103.596 291.552 101.94 292.32 100.932 292.992L101.436 294.624C102.372 294 103.668 293.352 105.012 293.352C107.268 293.352 108.276 294.36 108.276 296.448C108.276 298.704 106.692 300.528 104.412 302.904L100.716 306.744V307.992ZM119.203 308.28C122.491 308.28 125.083 306.072 125.083 300.552V299.16C125.083 293.544 122.419 291.576 119.227 291.576C116.011 291.576 113.203 293.544 113.203 299.256V300.528C113.203 306.024 115.819 308.28 119.203 308.28ZM119.203 306.552C116.731 306.552 115.459 304.656 115.459 300.696V298.992C115.459 295.032 116.779 293.304 119.227 293.304C121.627 293.304 122.899 295.128 122.899 299.16V300.816C122.899 304.92 121.603 306.552 119.203 306.552ZM145.095 310.08V308.376H133.071V303.768H130.959V310.08H145.095ZM139.047 301.272C138.975 300.696 138.855 300.144 138.735 299.592C136.335 300.096 133.359 300.288 130.551 300.288V291.168H128.463V302.088C129.279 302.088 130.143 302.088 131.031 302.064C133.623 302.016 136.911 301.728 139.047 301.272ZM142.407 294.384V296.472H135.975V298.176H142.407V304.92H144.543V289.704H142.407V292.704H135.975V294.384H142.407ZM158.389 308.232C161.989 308.232 164.269 306.288 164.269 303.432C164.269 300.936 162.733 299.76 160.645 299.376C162.469 298.752 163.693 297.552 163.693 295.608C163.693 293.04 161.725 291.576 158.797 291.576C157.357 291.576 155.485 292.152 154.501 292.776L154.813 294.456C155.797 293.904 157.045 293.352 158.341 293.352C160.261 293.352 161.509 294.024 161.509 295.944C161.509 297.672 160.117 298.68 158.077 298.704H156.661V300.456H158.221C160.597 300.456 162.109 301.392 162.109 303.384C162.109 305.376 160.669 306.504 158.101 306.504C156.901 306.504 155.269 306.048 154.381 305.448L153.949 307.08C154.861 307.704 156.493 308.232 158.389 308.232ZM184.336 310.656V309.048H171.376V307.584H183.544V303.12H169.24V304.704H181.432V306.12H169.24V310.656H184.336ZM177.976 293.664C177.976 291.456 175.72 290.184 172.768 290.184C169.816 290.184 167.536 291.504 167.536 293.64C167.536 295.848 169.816 297.12 172.768 297.12C175.72 297.12 177.976 295.848 177.976 293.664ZM183.544 302.28V289.704H181.456V299.928H176.968V301.44H181.456V302.28H183.544ZM173.728 302.304V299.616C175.984 299.472 178.432 299.28 179.896 299.088L179.704 297.504C177.712 297.744 175.648 297.864 172.96 297.984C170.656 298.08 168.424 298.104 166 298.104L166.312 299.856C168.04 299.832 169.72 299.784 171.616 299.736V302.304H173.728ZM175.84 293.664C175.84 294.84 174.52 295.44 172.768 295.44C171.016 295.44 169.72 294.84 169.72 293.664C169.72 292.488 170.992 291.84 172.768 291.84C174.592 291.84 175.84 292.488 175.84 293.664ZM193.071 307.992H203.175V306.216H195.975L198.375 303.792C201.015 301.128 202.863 299.064 202.863 296.232C202.863 293.352 201.087 291.552 197.775 291.552C195.951 291.552 194.295 292.32 193.287 292.992L193.791 294.624C194.727 294 196.023 293.352 197.367 293.352C199.623 293.352 200.631 294.36 200.631 296.448C200.631 298.704 199.047 300.528 196.767 302.904L193.071 306.744V307.992ZM209.348 308.28C212.9 308.28 215.06 305.856 215.06 302.952C215.06 299.544 213.068 297.96 209.828 297.96C209.132 297.96 208.196 298.128 207.572 298.296L207.884 293.592H214.436V291.84H206.204L205.628 300.384C206.372 300.048 207.884 299.592 208.988 299.592C211.436 299.592 212.876 300.528 212.876 302.904C212.876 305.136 211.388 306.528 208.892 306.528C207.596 306.528 206.084 305.976 205.196 305.4L204.788 307.08C205.772 307.752 207.476 308.28 209.348 308.28ZM233.874 300.384V289.704H231.738V300.384H233.874ZM234.618 310.536V308.784H222.354V306.72H233.874V301.464H220.17V303.192H231.738V305.136H220.242V310.536H234.618ZM222.618 290.4C219.594 290.4 217.242 292.392 217.242 295.2C217.242 298.056 219.666 299.832 222.618 299.832C225.618 299.832 227.97 297.984 227.97 295.176C227.97 292.344 225.618 290.4 222.618 290.4ZM222.618 292.224C224.61 292.224 225.882 293.448 225.882 295.176C225.882 296.808 224.586 298.056 222.618 298.056C220.746 298.056 219.33 296.88 219.33 295.176C219.33 293.448 220.794 292.224 222.618 292.224Z" fill="#666666"/>
<path d="M335.292 310.68V289.704H333.156V297.072H328.476V298.872H333.156V310.68H335.292ZM330.612 304.104C327.66 302.28 325.308 298.968 325.308 295.032V291.504H323.124V295.128C323.124 298.992 320.892 302.64 317.724 304.632L319.068 306.192C321.42 304.632 323.508 301.968 324.228 299.4C325.02 301.848 327.468 304.464 329.34 305.688L330.612 304.104ZM355.817 310.536V308.784H342.713V307.176H355.025V302.328H348.881V300.36H357.329V298.632H338.393V300.36H346.745V302.328H340.553V304.056H352.913V305.592H340.601V310.536H355.817ZM355.361 293.832C355.361 291.48 352.577 290.136 347.873 290.136C343.241 290.136 340.409 291.48 340.409 293.832C340.409 296.208 343.241 297.528 347.873 297.528C352.577 297.528 355.361 296.208 355.361 293.832ZM347.873 291.816C351.113 291.816 353.153 292.608 353.153 293.832C353.153 295.08 351.113 295.872 347.873 295.872C344.681 295.872 342.641 295.08 342.641 293.832C342.641 292.608 344.681 291.816 347.873 291.816ZM376.151 310.68V289.704H374.039V310.68H376.151ZM371.543 304.056C368.639 302.376 366.287 298.968 366.287 295.032V291.552H364.079V295.128C364.079 298.992 361.847 302.64 358.703 304.632L360.023 306.192C362.399 304.632 364.463 301.968 365.207 299.4C365.975 301.848 368.399 304.344 370.271 305.64L371.543 304.056ZM404.469 296.736V294.984H401.349V289.704H399.213V302.28H401.349V296.736H404.469ZM401.637 306.552C401.637 304.008 398.997 302.448 394.557 302.448C390.117 302.448 387.477 304.008 387.477 306.552C387.477 309.072 390.117 310.656 394.557 310.656C398.997 310.656 401.637 309.072 401.637 306.552ZM394.557 304.176C397.581 304.176 399.453 305.04 399.453 306.552C399.453 308.04 397.581 308.928 394.557 308.928C391.533 308.928 389.685 308.04 389.685 306.552C389.685 305.04 391.533 304.176 394.557 304.176ZM386.037 291.288V293.04H393.165C392.589 296.712 388.893 299.568 384.957 300.408L386.061 302.136C391.509 300.504 395.325 296.856 395.517 291.288H386.037ZM424.875 296.136V294.384H421.755V289.704H419.619V301.296H421.755V296.136H424.875ZM421.755 310.392V302.544H408.459V310.392H421.755ZM419.643 308.688H410.571V304.248H419.643V308.688ZM418.011 299.184L417.675 297.432C415.203 297.984 411.363 298.368 408.243 298.32V290.928H406.155V300.12H408.099C411.195 300.096 415.515 299.76 418.011 299.184ZM442.496 291.24H428.144V292.992H440.336C440.336 295.272 440.168 298.296 439.64 300.432H425.96V302.136H434.336V310.68H436.472V302.136H444.896V300.432H441.728C442.328 297.48 442.496 294.312 442.496 291.24ZM455.455 308.088H457.567V291.6H456.415L452.527 293.4V294.624L455.455 293.976V308.088ZM461.291 307.992H471.395V306.216H464.195L466.595 303.792C469.235 301.128 471.083 299.064 471.083 296.232C471.083 293.352 469.307 291.552 465.995 291.552C464.171 291.552 462.515 292.32 461.507 292.992L462.011 294.624C462.947 294 464.243 293.352 465.587 293.352C467.843 293.352 468.851 294.36 468.851 296.448C468.851 298.704 467.267 300.528 464.987 302.904L461.291 306.744V307.992ZM474.646 308.064H477.022L483.238 293.232V291.888H472.894V293.664H480.91L474.646 308.064ZM492.09 308.064H494.466L500.682 293.232V291.888H490.338V293.664H498.354L492.09 308.064ZM518.805 307.128C518.805 304.896 516.285 303.528 511.365 303.528C506.445 303.528 503.949 304.968 503.949 307.128C503.949 309.336 506.445 310.704 511.365 310.704C516.285 310.704 518.805 309.36 518.805 307.128ZM519.909 297.72C516.957 297.552 513.477 296.376 512.637 294.576H518.877V292.896H503.853V294.576H510.165C509.397 296.376 506.085 297.552 502.821 297.72L503.757 299.472C507.021 299.16 510.237 297.816 511.365 295.92C512.517 297.768 515.949 299.136 519.021 299.472L519.909 297.72ZM520.845 302.184V300.456H501.909V302.184H520.845ZM511.365 305.28C514.581 305.28 516.597 305.952 516.597 307.128C516.597 308.304 514.581 308.976 511.365 308.976C508.197 308.976 506.205 308.304 506.205 307.128C506.205 305.952 508.197 305.28 511.365 305.28ZM514.749 291.432V289.704H507.957V291.432H514.749ZM542.396 306.672L542.204 304.992C540.764 305.184 538.46 305.352 536.228 305.448V303.672C538.676 303.384 540.308 302.04 540.308 300.168C540.308 298.008 538.22 296.64 535.22 296.64C532.268 296.64 530.156 298.032 530.156 300.168C530.156 302.016 531.74 303.336 534.116 303.648V305.568C532.052 305.664 530.012 305.712 528.284 305.712L528.644 307.488C530.396 307.488 532.94 307.368 535.244 307.272C537.812 307.128 540.62 306.888 542.396 306.672ZM545.612 310.68V289.704H543.5V310.68H545.612ZM541.532 295.56V293.856H529.028V295.56H541.532ZM538.1 300.168C538.1 301.2 536.9 302.016 535.22 302.016C533.564 302.016 532.388 301.2 532.388 300.168C532.388 299.112 533.564 298.32 535.22 298.32C536.9 298.32 538.1 299.112 538.1 300.168ZM538.148 292.416V290.712H532.076V292.416H538.148ZM563.929 289.704V310.68H566.017V289.704H563.929ZM560.905 296.328C560.905 293.328 558.505 291.384 555.409 291.384C552.337 291.384 549.937 293.424 549.937 296.328C549.937 299.16 552.313 301.104 555.409 301.104C558.457 301.104 560.905 299.232 560.905 296.328ZM558.817 296.304C558.817 298.128 557.233 299.328 555.409 299.328C553.561 299.328 552.049 298.104 552.049 296.304C552.049 294.48 553.561 293.16 555.409 293.16C557.305 293.16 558.817 294.384 558.817 296.304ZM562.801 305.376L562.585 303.696C560.905 303.888 558.433 304.056 555.457 304.176C552.985 304.296 550.537 304.32 548.521 304.32L548.857 306.144C550.537 306.12 552.745 306.072 555.121 305.952C557.785 305.808 560.881 305.616 562.801 305.376ZM586.399 300.408V289.704H584.263V300.408H586.399ZM581.719 298.512C579.415 297.768 576.535 295.464 576.535 292.104V290.4H574.351V292.2C574.351 295.512 571.807 298.104 568.975 299.208L570.247 300.816C572.575 299.76 574.831 297.672 575.479 295.512C576.439 297.624 578.647 299.376 580.519 300.12L581.719 298.512ZM586.999 310.44V308.712H574.711V306.696H586.399V301.536H572.527V303.264H584.263V305.088H572.575V310.44H586.999Z" fill="#666666"/>
<path d="M335.03 258.672C335.03 256.08 332.342 254.424 327.758 254.424C323.198 254.424 320.534 256.08 320.534 258.672C320.534 261.216 323.198 262.896 327.758 262.896C332.342 262.896 335.03 261.216 335.03 258.672ZM318.398 244.92H322.862V245.088C322.862 248.256 320.606 250.824 317.606 251.928L319.046 253.848C321.206 253.032 323.486 250.944 324.11 248.856C325.046 250.848 327.086 252.528 328.886 253.248L330.23 251.304C327.758 250.512 325.382 248.136 325.382 244.992V244.92H329.654V242.88H318.398V244.92ZM337.91 248.832V246.792H334.742V241.512H332.27V254.16H334.742V248.832H337.91ZM332.51 258.672C332.51 260.064 330.758 260.904 327.758 260.904C324.782 260.904 323.054 260.064 323.054 258.672C323.054 257.232 324.782 256.416 327.758 256.416C330.758 256.416 332.51 257.232 332.51 258.672ZM357.236 251.208C354.02 250.608 349.508 247.632 349.508 244.008V242.736H346.94V244.008C346.94 247.68 342.716 250.56 339.212 251.112L340.412 253.104C343.652 252.336 347.204 249.888 348.188 247.224C349.292 249.864 352.772 252.288 355.964 253.104L357.236 251.208ZM357.86 260.208V258.216H349.388V252.96H346.94V258.216H338.54V260.208H357.86Z" fill="#2E2E2E"/>
<rect x="73.5" y="414.5" width="719" height="78" fill="white" stroke="#E3E3E3"/>
<rect x="73.5" y="414.5" width="719" height="40.2" fill="#EDF2FD" stroke="#E3E3E3"/>
<path d="M106.761 441.422V425.384H104.925V441.422H106.761ZM94.0353 432.242C94.0353 435.626 95.5653 437.858 98.1393 437.858C100.713 437.858 102.207 435.626 102.207 432.26C102.207 428.858 100.713 426.626 98.1393 426.626C95.5653 426.626 94.0353 428.858 94.0353 432.242ZM100.461 432.242C100.461 434.816 99.5073 436.364 98.1393 436.364C96.7893 436.364 95.8533 434.816 95.8533 432.242C95.8533 429.668 96.7893 428.138 98.1393 428.138C99.5073 428.138 100.461 429.668 100.461 432.242ZM121.328 425.384H119.474V441.422H121.328V433.196H123.74V431.648H121.328V425.384ZM118.466 436.112C116.108 434.636 114.47 432.08 114.47 429.002V426.77H112.58V429.11C112.58 432.17 110.996 434.816 108.494 436.436L109.628 437.786C111.392 436.724 112.994 434.708 113.552 432.8C114.128 434.564 116 436.616 117.368 437.498L118.466 436.112ZM141.45 438.758C141.45 437.138 139.65 435.968 135.87 435.968C132.126 435.968 130.326 437.138 130.326 438.758C130.326 440.396 132.126 441.566 135.888 441.566C139.65 441.566 141.45 440.396 141.45 438.758ZM142.458 431.324C140.118 431.252 137.562 430.334 136.95 429.074H141.666V427.598H130.074V429.074H134.844C134.25 430.352 131.82 431.27 129.246 431.324L130.02 432.818C132.576 432.638 134.988 431.648 135.87 430.244C136.788 431.612 139.326 432.62 141.702 432.818L142.458 431.324ZM143.124 435.284V433.79H136.77V431.936H134.934V433.79H128.634V435.284H143.124ZM139.542 438.758C139.542 439.604 138.156 440.09 135.87 440.09C133.62 440.09 132.216 439.604 132.216 438.758C132.216 437.93 133.62 437.48 135.87 437.48C138.156 437.48 139.542 437.93 139.542 438.758ZM133.242 426.788H138.498V425.348H133.242V426.788ZM152.074 441.44V435.608H158.428V434.15H143.938V435.608H150.238V441.44H152.074ZM157.816 431.072C155.224 430.82 152.182 428.858 152.182 426.554V425.744H150.238V426.554C150.238 428.858 147.484 430.748 144.64 431.072L145.45 432.584C147.88 432.152 150.49 430.604 151.192 428.822C152.002 430.604 154.594 432.17 156.97 432.566L157.816 431.072Z" fill="#2E2E2E"/>
<path d="M97.2903 480.46C99.9543 480.46 101.574 478.642 101.574 476.464C101.574 473.908 100.08 472.72 97.6503 472.72C97.1283 472.72 96.4263 472.846 95.9583 472.972L96.1923 469.444H101.106V468.13H94.9323L94.5003 474.538C95.0583 474.286 96.1923 473.944 97.0203 473.944C98.8563 473.944 99.9363 474.646 99.9363 476.428C99.9363 478.102 98.8203 479.146 96.9483 479.146C95.9763 479.146 94.8423 478.732 94.1763 478.3L93.8703 479.56C94.6083 480.064 95.8863 480.46 97.2903 480.46ZM115.775 479.2C115.775 477.328 113.849 476.122 110.411 476.122C107.027 476.122 105.065 477.328 105.065 479.2C105.065 481.09 107.027 482.26 110.411 482.26C113.849 482.26 115.775 481.09 115.775 479.2ZM110.411 477.436C112.787 477.436 114.155 478.102 114.155 479.2C114.155 480.298 112.787 480.946 110.411 480.946C108.107 480.946 106.721 480.298 106.721 479.2C106.721 478.102 108.107 477.436 110.411 477.436ZM111.527 470.29H114.083V472.252H111.527V473.53H114.083V476.176H115.685V466.528H114.083V469.012H111.527V470.29ZM110.735 474.916V467.752H103.481V474.916H110.735ZM109.151 473.656H105.065V469.012H109.151V473.656Z" fill="#666666"/>
<path d="M264.96 480.46C267.624 480.46 269.244 478.642 269.244 476.464C269.244 473.908 267.75 472.72 265.32 472.72C264.798 472.72 264.096 472.846 263.628 472.972L263.862 469.444H268.776V468.13H262.602L262.17 474.538C262.728 474.286 263.862 473.944 264.69 473.944C266.526 473.944 267.606 474.646 267.606 476.428C267.606 478.102 266.49 479.146 264.618 479.146C263.646 479.146 262.512 478.732 261.846 478.3L261.54 479.56C262.278 480.064 263.556 480.46 264.96 480.46ZM283.445 479.2C283.445 477.328 281.519 476.122 278.081 476.122C274.697 476.122 272.735 477.328 272.735 479.2C272.735 481.09 274.697 482.26 278.081 482.26C281.519 482.26 283.445 481.09 283.445 479.2ZM278.081 477.436C280.457 477.436 281.825 478.102 281.825 479.2C281.825 480.298 280.457 480.946 278.081 480.946C275.777 480.946 274.391 480.298 274.391 479.2C274.391 478.102 275.777 477.436 278.081 477.436ZM279.197 470.29H281.753V472.252H279.197V473.53H281.753V476.176H283.355V466.528H281.753V469.012H279.197V470.29ZM278.405 474.916V467.752H271.151V474.916H278.405ZM276.821 473.656H272.735V469.012H276.821V473.656Z" fill="#666666"/>
<path d="M274.862 441.296V439.91H265.376V438.866H274.25V435.212H269.822V434.168H276.176V432.746H261.686V434.168H267.986V435.212H263.504V436.616H272.396V437.552H263.54V441.296H274.862ZM275.528 430.73C273.26 430.694 270.794 429.92 270.056 428.804H274.718V427.382H263.144V428.804H267.86C267.176 429.938 264.764 430.73 262.298 430.748L263.072 432.224C265.682 432.008 268.058 431.09 268.922 429.812C269.822 431.054 272.288 431.954 274.772 432.224L275.528 430.73ZM266.294 426.68H271.55V425.258H266.294V426.68ZM279.42 435.554V437.03H288.384V441.44H290.22V435.554H279.42ZM290.202 434.744V425.384H288.366V428.804H285.432V430.316H288.366V434.744H290.202ZM286.458 432.53C284.64 431.918 282.678 430.046 282.678 427.544V426.05H280.788V427.634C280.788 430.1 279.132 432.026 276.846 432.926L277.98 434.402C279.636 433.664 281.256 432.224 281.742 430.55C282.444 432.08 284.082 433.412 285.396 433.97L286.458 432.53ZM309.947 441.422V425.384H308.111V441.422H309.947ZM297.221 432.242C297.221 435.626 298.751 437.858 301.325 437.858C303.899 437.858 305.393 435.626 305.393 432.26C305.393 428.858 303.899 426.626 301.325 426.626C298.751 426.626 297.221 428.858 297.221 432.242ZM303.647 432.242C303.647 434.816 302.693 436.364 301.325 436.364C299.975 436.364 299.039 434.816 299.039 432.242C299.039 429.668 299.975 428.138 301.325 428.138C302.693 428.138 303.647 429.668 303.647 432.242ZM324.513 425.384H322.659V441.422H324.513V433.196H326.925V431.648H324.513V425.384ZM321.651 436.112C319.293 434.636 317.655 432.08 317.655 429.002V426.77H315.765V429.11C315.765 432.17 314.181 434.816 311.679 436.436L312.813 437.786C314.577 436.724 316.179 434.708 316.737 432.8C317.313 434.564 319.185 436.616 320.553 437.498L321.651 436.112ZM339.956 441.44V435.608H346.31V434.15H331.82V435.608H338.12V441.44H339.956ZM345.698 431.072C343.106 430.82 340.064 428.858 340.064 426.554V425.744H338.12V426.554C338.12 428.858 335.366 430.748 332.522 431.072L333.332 432.584C335.762 432.152 338.372 430.604 339.074 428.822C339.884 430.604 342.476 432.17 344.852 432.566L345.698 431.072Z" fill="#2E2E2E"/>
<path d="M446.042 480.316H447.626V467.95H446.762L443.846 469.3V470.218L446.042 469.732V480.316ZM463.019 479.2C463.019 477.328 461.093 476.122 457.655 476.122C454.271 476.122 452.309 477.328 452.309 479.2C452.309 481.09 454.271 482.26 457.655 482.26C461.093 482.26 463.019 481.09 463.019 479.2ZM457.655 477.436C460.031 477.436 461.399 478.102 461.399 479.2C461.399 480.298 460.031 480.946 457.655 480.946C455.351 480.946 453.965 480.298 453.965 479.2C453.965 478.102 455.351 477.436 457.655 477.436ZM458.771 470.29H461.327V472.252H458.771V473.53H461.327V476.176H462.929V466.528H461.327V469.012H458.771V470.29ZM457.979 474.916V467.752H450.725V474.916H457.979ZM456.395 473.656H452.309V469.012H456.395V473.656Z" fill="#666666"/>
<path d="M458.381 430.73V429.182H456.023V425.384H454.169V434.384H456.023V430.73H458.381ZM451.559 426.41H444.197V427.94H449.525C449.075 430.712 446.195 432.494 443.405 433.016L444.341 434.474C448.535 433.412 451.451 430.766 451.559 426.41ZM456.023 441.224V435.176H445.763V441.224H456.023ZM454.169 439.766H447.617V436.634H454.169V439.766ZM471.328 425.384H469.474V441.422H471.328V433.196H473.74V431.648H471.328V425.384ZM468.466 436.112C466.108 434.636 464.47 432.08 464.47 429.002V426.77H462.58V429.11C462.58 432.17 460.996 434.816 458.494 436.436L459.628 437.786C461.392 436.724 462.994 434.708 463.552 432.8C464.128 434.564 466 436.616 467.368 437.498L468.466 436.112ZM491.45 438.758C491.45 437.138 489.65 435.968 485.87 435.968C482.126 435.968 480.326 437.138 480.326 438.758C480.326 440.396 482.126 441.566 485.888 441.566C489.65 441.566 491.45 440.396 491.45 438.758ZM492.458 431.324C490.118 431.252 487.562 430.334 486.95 429.074H491.666V427.598H480.074V429.074H484.844C484.25 430.352 481.82 431.27 479.246 431.324L480.02 432.818C482.576 432.638 484.988 431.648 485.87 430.244C486.788 431.612 489.326 432.62 491.702 432.818L492.458 431.324ZM493.124 435.284V433.79H486.77V431.936H484.934V433.79H478.634V435.284H493.124ZM489.542 438.758C489.542 439.604 488.156 440.09 485.87 440.09C483.62 440.09 482.216 439.604 482.216 438.758C482.216 437.93 483.62 437.48 485.87 437.48C488.156 437.48 489.542 437.93 489.542 438.758ZM483.242 426.788H488.498V425.348H483.242V426.788ZM502.074 441.44V435.608H508.428V434.15H493.938V435.608H500.238V441.44H502.074ZM507.816 431.072C505.224 430.82 502.182 428.858 502.182 426.554V425.744H500.238V426.554C500.238 428.858 497.484 430.748 494.64 431.072L495.45 432.584C497.88 432.152 500.49 430.604 501.192 428.822C502.002 430.604 504.594 432.17 506.97 432.566L507.816 431.072Z" fill="#2E2E2E"/>
<path d="M648.085 480.316H649.669V467.95H648.805L645.889 469.3V470.218L648.085 469.732V480.316ZM665.063 479.2C665.063 477.328 663.137 476.122 659.699 476.122C656.315 476.122 654.353 477.328 654.353 479.2C654.353 481.09 656.315 482.26 659.699 482.26C663.137 482.26 665.063 481.09 665.063 479.2ZM659.699 477.436C662.075 477.436 663.443 478.102 663.443 479.2C663.443 480.298 662.075 480.946 659.699 480.946C657.395 480.946 656.009 480.298 656.009 479.2C656.009 478.102 657.395 477.436 659.699 477.436ZM660.815 470.29H663.371V472.252H660.815V473.53H663.371V476.176H664.973V466.528H663.371V469.012H660.815V470.29ZM660.023 474.916V467.752H652.769V474.916H660.023ZM658.439 473.656H654.353V469.012H658.439V473.656Z" fill="#666666"/>
<path d="M658.862 441.296V439.91H649.376V438.866H658.25V435.212H653.822V434.168H660.176V432.746H645.686V434.168H651.986V435.212H647.504V436.616H656.396V437.552H647.54V441.296H658.862ZM659.528 430.73C657.26 430.694 654.794 429.92 654.056 428.804H658.718V427.382H647.144V428.804H651.86C651.176 429.938 648.764 430.73 646.298 430.748L647.072 432.224C649.682 432.008 652.058 431.09 652.922 429.812C653.822 431.054 656.288 431.954 658.772 432.224L659.528 430.73ZM650.294 426.68H655.55V425.258H650.294V426.68ZM663.42 435.554V437.03H672.384V441.44H674.22V435.554H663.42ZM674.202 434.744V425.384H672.366V428.804H669.432V430.316H672.366V434.744H674.202ZM670.458 432.53C668.64 431.918 666.678 430.046 666.678 427.544V426.05H664.788V427.634C664.788 430.1 663.132 432.026 660.846 432.926L661.98 434.402C663.636 433.664 665.256 432.224 665.742 430.55C666.444 432.08 668.082 433.412 669.396 433.97L670.458 432.53ZM695.567 430.73V429.182H693.209V425.384H691.355V434.384H693.209V430.73H695.567ZM688.745 426.41H681.383V427.94H686.711C686.261 430.712 683.381 432.494 680.591 433.016L681.527 434.474C685.721 433.412 688.637 430.766 688.745 426.41ZM693.209 441.224V435.176H682.949V441.224H693.209ZM691.355 439.766H684.803V436.634H691.355V439.766ZM708.513 425.384H706.659V441.422H708.513V433.196H710.925V431.648H708.513V425.384ZM705.651 436.112C703.293 434.636 701.655 432.08 701.655 429.002V426.77H699.765V429.11C699.765 432.17 698.181 434.816 695.679 436.436L696.813 437.786C698.577 436.724 700.179 434.708 700.737 432.8C701.313 434.564 703.185 436.616 704.553 437.498L705.651 436.112ZM723.956 441.44V435.608H730.31V434.15H715.82V435.608H722.12V441.44H723.956ZM729.698 431.072C727.106 430.82 724.064 428.858 724.064 426.554V425.744H722.12V426.554C722.12 428.858 719.366 430.748 716.522 431.072L717.332 432.584C719.762 432.152 722.372 430.604 723.074 428.822C723.884 430.604 726.476 432.17 728.852 432.566L729.698 431.072Z" fill="#2E2E2E"/>
<line x1="241.5" y1="414" x2="241.5" y2="493" stroke="#E3E3E3"/>
<line x1="423.5" y1="414" x2="423.5" y2="493" stroke="#E3E3E3"/>
<line x1="625.5" y1="414" x2="625.5" y2="493" stroke="#E3E3E3"/>
<path d="M88.176 552.704V573.68H90.264V552.704H88.176ZM85.152 559.328C85.152 556.328 82.752 554.384 79.656 554.384C76.584 554.384 74.184 556.424 74.184 559.328C74.184 562.16 76.56 564.104 79.656 564.104C82.704 564.104 85.152 562.232 85.152 559.328ZM83.064 559.304C83.064 561.128 81.48 562.328 79.656 562.328C77.808 562.328 76.296 561.104 76.296 559.304C76.296 557.48 77.808 556.16 79.656 556.16C81.552 556.16 83.064 557.384 83.064 559.304ZM87.048 568.376L86.832 566.696C85.152 566.888 82.68 567.056 79.704 567.176C77.232 567.296 74.784 567.32 72.768 567.32L73.104 569.144C74.784 569.12 76.992 569.072 79.368 568.952C82.032 568.808 85.128 568.616 87.048 568.376ZM109.206 569.6C109.206 567.056 106.566 565.496 102.126 565.496C97.6856 565.496 95.0456 567.056 95.0456 569.6C95.0456 572.12 97.6856 573.656 102.126 573.656C106.566 573.656 109.206 572.12 109.206 569.6ZM92.7656 555.896H97.4696V556.52C97.4696 559.448 94.9496 562.136 92.2136 563.12L93.4856 564.776C95.6456 563.888 97.9016 561.752 98.5736 559.736C99.4616 561.656 101.478 563.456 103.35 564.2L104.526 562.496C102.15 561.776 99.6296 559.448 99.6296 556.472V555.896H104.214V554.144H92.7656V555.896ZM107.022 569.6C107.022 571.064 105.15 571.928 102.126 571.928C99.1016 571.928 97.2536 571.064 97.2536 569.6C97.2536 568.088 99.1016 567.248 102.126 567.248C105.15 567.248 107.022 568.088 107.022 569.6ZM112.086 560V558.224H108.918V552.704H106.806V565.616H108.918V560H112.086ZM129.731 567.944V552.704H127.595V567.944H129.731ZM130.211 573.032V571.328H118.067V566.504H115.931V573.032H130.211ZM118.595 554.12C115.379 554.12 113.003 556.352 113.003 559.376C113.003 562.376 115.379 564.464 118.595 564.464C121.835 564.464 124.211 562.376 124.211 559.352C124.211 556.352 121.835 554.12 118.595 554.12ZM118.595 555.944C120.659 555.944 121.955 557.36 121.955 559.352C121.955 561.272 120.659 562.688 118.595 562.688C116.627 562.688 115.235 561.248 115.235 559.328C115.235 557.384 116.627 555.944 118.595 555.944ZM155.386 573.68V552.704H153.346V560.768H150.85V553.16H148.81V572.648H150.85V562.496H153.346V573.68H155.386ZM140.434 566.624V557.024H146.506V555.296H138.322V568.4H140.338C142.954 568.4 145.978 568.208 147.802 567.824L147.514 566.072C145.882 566.432 143.266 566.624 140.818 566.624H140.434ZM176.415 571.016V569.288H171.375V565.064H169.239V569.288H164.583V565.064H162.447V569.288H157.479V571.016H176.415ZM174.495 564.032V562.304H171.423L172.143 557.6L170.055 557.24L169.479 562.304H164.439L164.103 557.192L161.967 557.48L162.423 562.304H159.279V564.032H174.495ZM174.519 556.208V554.48H159.255V556.208H174.519ZM194.589 573.68V552.704H192.453V573.68H194.589ZM178.029 561.68C178.029 565.856 179.709 569.12 183.429 569.12C187.149 569.12 188.805 565.856 188.805 561.704C188.805 557.528 187.149 554.288 183.429 554.288C179.709 554.288 178.029 557.528 178.029 561.68ZM186.693 561.704C186.693 564.944 185.589 567.272 183.429 567.272C181.293 567.272 180.189 564.944 180.189 561.704C180.189 558.464 181.293 556.112 183.429 556.112C185.589 556.112 186.693 558.464 186.693 561.704ZM216.554 562.808V561.056H213.29V552.704H211.178V573.68H213.29V562.808H216.554ZM209.45 566.984C206.498 565.16 204.146 561.848 204.146 557.912V554.504H201.962V558.008C201.962 561.872 199.73 565.52 196.562 567.512L197.882 569.096C200.258 567.512 202.346 564.848 203.066 562.304C203.858 564.728 206.306 567.344 208.178 568.568L209.45 566.984ZM241.561 559.832V558.08H238.441V552.704H236.305V565.256H238.441V559.832H241.561ZM232.801 563.912V554H230.665V557.36H225.049V554.024H222.937V563.912H232.801ZM230.665 562.208H225.049V559.04H230.665V562.208ZM238.441 573.704V566.264H224.833V568.016H236.305V573.704H238.441ZM259.758 573.68V552.704H257.718V561.224H255.366V553.16H253.35V572.648H255.366V562.952H257.718V573.68H259.758ZM252.606 566.912C250.206 565.424 248.286 562.304 248.286 558.248V554.648H246.198V558.272C246.198 562.496 244.086 565.928 241.638 567.512L242.958 569C245.022 567.584 246.774 565.088 247.278 562.76C247.902 565.04 249.75 567.344 251.286 568.4L252.606 566.912ZM280.788 571.016V569.288H272.34V565.976H279.012V564.248H266.244V560.96H278.436V554.432H264.084V556.16H276.324V559.232H264.132V565.976H270.204V569.288H261.852V571.016H280.788ZM298.962 573.68V552.704H296.826V573.68H298.962ZM282.402 561.68C282.402 565.856 284.082 569.12 287.802 569.12C291.522 569.12 293.178 565.856 293.178 561.704C293.178 557.528 291.522 554.288 287.802 554.288C284.082 554.288 282.402 557.528 282.402 561.68ZM291.066 561.704C291.066 564.944 289.962 567.272 287.802 567.272C285.666 567.272 284.562 564.944 284.562 561.704C284.562 558.464 285.666 556.112 287.802 556.112C289.962 556.112 291.066 558.464 291.066 561.704ZM320.399 565.112V563.384H301.463V565.112H320.399ZM318.407 573.224V571.472H306.095V567.008H303.983V573.224H318.407ZM318.311 560.912V559.184H306.167V553.568H304.055V560.912H318.311ZM341.878 552.704V573.68H343.966V552.704H341.878ZM338.854 559.328C338.854 556.328 336.454 554.384 333.358 554.384C330.286 554.384 327.886 556.424 327.886 559.328C327.886 562.16 330.262 564.104 333.358 564.104C336.406 564.104 338.854 562.232 338.854 559.328ZM336.766 559.304C336.766 561.128 335.182 562.328 333.358 562.328C331.51 562.328 329.998 561.104 329.998 559.304C329.998 557.48 331.51 556.16 333.358 556.16C335.254 556.16 336.766 557.384 336.766 559.304ZM340.75 568.376L340.534 566.696C338.854 566.888 336.382 567.056 333.406 567.176C330.934 567.296 328.486 567.32 326.47 567.32L326.806 569.144C328.486 569.12 330.694 569.072 333.07 568.952C335.734 568.808 338.83 568.616 340.75 568.376ZM362.907 569.6C362.907 567.056 360.267 565.496 355.827 565.496C351.387 565.496 348.747 567.056 348.747 569.6C348.747 572.12 351.387 573.656 355.827 573.656C360.267 573.656 362.907 572.12 362.907 569.6ZM346.467 555.896H351.171V556.52C351.171 559.448 348.651 562.136 345.915 563.12L347.187 564.776C349.347 563.888 351.603 561.752 352.275 559.736C353.163 561.656 355.179 563.456 357.051 564.2L358.227 562.496C355.851 561.776 353.331 559.448 353.331 556.472V555.896H357.915V554.144H346.467V555.896ZM360.723 569.6C360.723 571.064 358.851 571.928 355.827 571.928C352.803 571.928 350.955 571.064 350.955 569.6C350.955 568.088 352.803 567.248 355.827 567.248C358.851 567.248 360.723 568.088 360.723 569.6ZM365.787 560V558.224H362.619V552.704H360.507V565.616H362.619V560H365.787ZM381.297 559.088V564.992H383.433V552.704H381.297V557.36H377.241V559.088H381.297ZM383.433 573.704V566.072H369.393V567.776H381.297V573.704H383.433ZM378.345 562.184C375.969 561.344 373.401 558.92 373.401 555.608V553.664H371.217V555.704C371.217 558.992 368.985 561.56 366.009 562.808L367.329 564.464C369.729 563.264 371.721 561.368 372.345 559.208C373.233 561.272 375.225 563 377.121 563.84L378.345 562.184ZM391.022 554.36C387.902 554.36 386.414 557.504 386.414 561.68C386.414 565.88 387.902 569.072 391.022 569.072C393.926 569.072 395.438 566.36 395.63 562.64H397.67V572.696H399.686V553.112H397.67V560.888H395.63C395.462 557.12 393.95 554.36 391.022 554.36ZM393.566 561.704C393.566 564.992 392.726 567.248 391.022 567.248C389.366 567.248 388.502 564.992 388.502 561.704C388.502 558.44 389.366 556.16 391.022 556.16C392.726 556.16 393.566 558.44 393.566 561.704ZM403.742 573.68V552.704H401.726V573.68H403.742ZM430.117 564.464V562.736H411.181V564.464H430.117ZM427.885 569.888C427.885 567.488 425.245 566.12 420.637 566.12C416.053 566.12 413.413 567.56 413.413 569.888C413.413 572.24 416.053 573.656 420.637 573.656C425.245 573.656 427.885 572.264 427.885 569.888ZM420.637 567.848C423.781 567.848 425.725 568.616 425.725 569.888C425.725 571.208 423.781 571.928 420.637 571.928C417.541 571.928 415.597 571.208 415.597 569.888C415.597 568.616 417.541 567.848 420.637 567.848ZM427.813 560.648V558.92H415.573V555.32H427.669V553.592H413.461V560.648H427.813ZM450.306 560.432V558.656H447.186V552.704H445.05V567.896H447.186V560.432H450.306ZM447.906 572.984V571.28H436.194V566.504H434.058V572.984H447.906ZM433.77 562.664V556.304H441.258V554.552H431.682V564.392H433.794C437.514 564.32 441.114 564.128 443.202 563.648L442.938 561.968C440.922 562.4 437.322 562.664 434.274 562.664H433.77ZM470.328 563.216V561.44H466.992V552.704H464.856V573.68H466.992V563.216H470.328ZM460.056 555.8V554.072H453.792V555.8H460.056ZM463.104 559.4V557.696H450.672V559.4H463.104ZM461.928 565.016C461.928 562.496 459.96 560.576 456.984 560.576C454.008 560.576 452.016 562.544 452.016 565.016C452.016 567.536 454.008 569.408 456.984 569.408C459.96 569.408 461.928 567.488 461.928 565.016ZM459.84 565.016C459.84 566.552 458.712 567.632 456.984 567.632C455.328 567.632 454.152 566.552 454.152 565.016C454.152 563.456 455.352 562.352 456.984 562.352C458.616 562.352 459.84 563.456 459.84 565.016ZM485.67 558.944V564.08H481.83L481.806 565.856H485.67V573.68H487.782V552.704H485.67V557.144H481.806L481.83 558.944H485.67ZM470.742 561.608C470.742 565.76 472.374 569.024 475.974 569.024C479.598 569.024 481.182 565.76 481.182 561.632C481.182 557.456 479.598 554.192 475.974 554.192C472.374 554.192 470.742 557.456 470.742 561.608ZM479.142 561.632C479.142 564.848 478.062 567.2 475.974 567.2C473.91 567.2 472.854 564.848 472.854 561.632C472.854 558.368 473.91 556.016 475.974 556.016C478.062 556.016 479.142 558.368 479.142 561.632ZM508.036 558.248C508.036 555.56 505.756 553.712 502.492 553.712C499.204 553.712 496.948 555.56 496.948 558.248C496.948 560.864 499.204 562.736 502.492 562.736C505.708 562.736 508.036 560.864 508.036 558.248ZM513.1 573.68V552.704H510.988V573.68H513.1ZM503.524 573.056V565.904C505.828 565.76 508.372 565.616 509.98 565.376L509.74 563.696C507.772 563.912 505.372 564.056 502.588 564.176C500.284 564.272 497.932 564.296 495.46 564.296L495.772 566.144C497.572 566.12 499.396 566.096 501.412 566.024V573.056H503.524ZM505.852 558.224C505.852 559.832 504.412 560.888 502.492 560.888C500.596 560.888 499.132 559.832 499.132 558.224C499.132 556.592 500.596 555.512 502.492 555.512C504.388 555.512 505.852 556.592 505.852 558.224ZM521.746 554.072C518.578 554.072 516.034 556.16 516.034 559.184C516.034 561.896 518.074 563.72 520.786 564.056V567.584C518.746 567.656 516.802 567.656 515.146 567.656L515.458 569.48C517.162 569.48 519.154 569.408 521.41 569.264C523.906 569.144 526.882 568.928 528.634 568.688L528.418 566.984C527.05 567.2 525.13 567.32 522.898 567.464V564.032C525.538 563.624 527.53 561.848 527.53 559.16C527.53 556.136 524.962 554.072 521.746 554.072ZM535.09 563.144V561.368H531.85V552.704H529.762V573.68H531.85V563.144H535.09ZM521.746 555.872C523.786 555.872 525.274 557.12 525.274 559.16C525.274 561.128 523.762 562.328 521.746 562.328C519.826 562.328 518.218 561.104 518.218 559.16C518.218 557.168 519.802 555.872 521.746 555.872ZM560.024 559.52V557.768H556.904V552.704H554.768V563.984H556.904V559.52H560.024ZM557.48 573.416V571.832H545.744V569.984H556.592V568.4H545.744V566.672H557.024V565.064H543.632V573.416H557.48ZM541.496 553.976V555.752H548.72C548.096 559.088 544.544 562.184 540.488 562.904L541.568 564.656C546.512 563.36 550.88 559.712 551.072 553.976H541.496ZM579.446 565.112V563.384H560.51V565.112H579.446ZM577.19 573.056V571.352H565.07V566.96H562.958V573.056H577.19ZM577.31 557.48C577.31 554.888 574.574 553.352 569.966 553.352C565.406 553.352 562.67 554.888 562.67 557.48C562.67 560.072 565.382 561.632 569.966 561.632C574.55 561.632 577.31 560.072 577.31 557.48ZM569.966 555.08C573.062 555.08 575.078 555.992 575.078 557.48C575.078 558.968 573.062 559.88 569.966 559.88C566.918 559.88 564.95 558.968 564.95 557.48C564.95 555.992 566.918 555.08 569.966 555.08ZM602.988 569.624C602.988 567.128 600.444 565.544 595.908 565.544C591.42 565.544 588.852 567.128 588.852 569.624C588.852 572.144 591.42 573.68 595.908 573.68C600.444 573.68 602.988 572.144 602.988 569.624ZM586.14 556.136H590.868V556.88C590.868 559.808 588.228 562.544 585.492 563.528L586.692 565.208C588.852 564.32 591.3 562.112 591.972 560.12C592.836 562.016 594.996 563.864 596.868 564.608L598.044 562.904C595.668 562.184 593.028 559.808 593.028 556.832V556.136H597.612V554.408H586.14V556.136ZM595.908 567.296C599.028 567.296 600.828 568.16 600.828 569.624C600.828 571.088 599.028 571.952 595.908 571.952C592.836 571.952 591.012 571.088 591.012 569.624C591.012 568.16 592.836 567.296 595.908 567.296ZM600.732 559.736V565.712H602.868V552.704H600.732V557.984H596.82V559.736H600.732ZM623.537 559.64C620.537 559.4 616.625 557.792 616.097 555.224H622.625V553.472H607.241V555.224H613.769C613.337 557.792 609.785 559.376 606.401 559.664L607.337 561.32C610.913 560.864 614.033 559.088 614.921 557.12C616.025 559.04 619.289 560.864 622.601 561.32L623.537 559.64ZM624.401 564.704V563H615.953V559.976H613.817V563H605.465V564.704H624.401ZM607.649 566.744V568.448H619.841V573.776H621.977V566.744H607.649ZM635.759 573.704V566.168H644.207V564.464H625.271V566.168H633.623V573.704H635.759ZM643.487 560.648C640.079 560.312 635.855 557.6 635.855 554.672V553.352H633.623V554.672C633.623 557.6 629.831 560.168 626.039 560.672L626.999 562.4C630.191 561.8 633.791 559.712 634.727 557.384C635.831 559.712 639.383 561.8 642.479 562.376L643.487 560.648ZM664.637 562.784V561.032H661.277V552.704H659.141V573.68H661.277V562.784H664.637ZM645.389 561.608C645.389 565.76 647.021 569.024 650.717 569.024C654.413 569.024 656.021 565.76 656.021 561.632C656.021 557.456 654.413 554.192 650.717 554.192C647.021 554.192 645.389 557.456 645.389 561.608ZM653.933 561.632C653.933 564.848 652.829 567.2 650.717 567.2C648.605 567.2 647.525 564.848 647.525 561.632C647.525 558.368 648.605 556.016 650.717 556.016C652.829 556.016 653.933 558.368 653.933 561.632ZM686.427 573.392V566.288H673.011V573.392H686.427ZM682.179 563.24C679.875 562.664 677.619 560.912 677.307 558.392H681.771V556.664H670.467V558.392H675.051C674.763 560.984 672.531 563.048 669.867 563.888L671.019 565.496C673.323 564.704 675.483 562.76 676.179 560.864C677.115 562.76 679.299 564.344 681.075 564.92L682.179 563.24ZM684.315 571.712H675.147V567.992H684.315V571.712ZM689.547 559.952V558.2H686.427V552.704H684.315V565.184H686.427V559.952H689.547ZM679.083 554.984V553.256H673.251V554.984H679.083ZM705.105 558.944V564.08H701.265L701.241 565.856H705.105V573.68H707.217V552.704H705.105V557.144H701.241L701.265 558.944H705.105ZM690.177 561.608C690.177 565.76 691.809 569.024 695.409 569.024C699.033 569.024 700.617 565.76 700.617 561.632C700.617 557.456 699.033 554.192 695.409 554.192C691.809 554.192 690.177 557.456 690.177 561.608ZM698.577 561.632C698.577 564.848 697.497 567.2 695.409 567.2C693.345 567.2 692.289 564.848 692.289 561.632C692.289 558.368 693.345 556.016 695.409 556.016C697.497 556.016 698.577 558.368 698.577 561.632ZM729.374 563.216V561.44H726.038V552.704H723.902V573.68H726.038V563.216H729.374ZM719.102 555.8V554.072H712.838V555.8H719.102ZM722.15 559.4V557.696H709.718V559.4H722.15ZM720.974 565.016C720.974 562.496 719.006 560.576 716.03 560.576C713.054 560.576 711.062 562.544 711.062 565.016C711.062 567.536 713.054 569.408 716.03 569.408C719.006 569.408 720.974 567.488 720.974 565.016ZM718.886 565.016C718.886 566.552 717.758 567.632 716.03 567.632C714.374 567.632 713.198 566.552 713.198 565.016C713.198 563.456 714.398 562.352 716.03 562.352C717.662 562.352 718.886 563.456 718.886 565.016ZM744.716 558.944V564.08H740.876L740.852 565.856H744.716V573.68H746.828V552.704H744.716V557.144H740.852L740.876 558.944H744.716ZM729.788 561.608C729.788 565.76 731.42 569.024 735.02 569.024C738.644 569.024 740.228 565.76 740.228 561.632C740.228 557.456 738.644 554.192 735.02 554.192C731.42 554.192 729.788 557.456 729.788 561.608ZM738.188 561.632C738.188 564.848 737.108 567.2 735.02 567.2C732.956 567.2 731.9 564.848 731.9 561.632C731.9 558.368 732.956 556.016 735.02 556.016C737.108 556.016 738.188 558.368 738.188 561.632ZM771.282 561.896V553.4H769.146V556.088H759.378V553.424H757.266V561.896H763.146V564.296H754.794V566.024H773.73V564.296H765.282V561.896H771.282ZM771.474 573.032V571.304H759.306V567.344H757.17V573.032H771.474ZM769.146 560.144H759.378V557.816H769.146V560.144ZM794.08 569.672L793.888 567.992C792.448 568.184 790.144 568.352 787.912 568.448V566.672C790.36 566.384 791.992 565.04 791.992 563.168C791.992 561.008 789.904 559.64 786.904 559.64C783.952 559.64 781.84 561.032 781.84 563.168C781.84 565.016 783.424 566.336 785.8 566.648V568.568C783.736 568.664 781.696 568.712 779.968 568.712L780.328 570.488C782.08 570.488 784.624 570.368 786.928 570.272C789.496 570.128 792.304 569.888 794.08 569.672ZM797.296 573.68V552.704H795.184V573.68H797.296ZM793.216 558.56V556.856H780.712V558.56H793.216ZM789.784 563.168C789.784 564.2 788.584 565.016 786.904 565.016C785.248 565.016 784.072 564.2 784.072 563.168C784.072 562.112 785.248 561.32 786.904 561.32C788.584 561.32 789.784 562.112 789.784 563.168ZM789.832 555.416V553.712H783.76V555.416H789.832ZM88.176 592.704V613.68H90.264V592.704H88.176ZM85.152 599.328C85.152 596.328 82.752 594.384 79.656 594.384C76.584 594.384 74.184 596.424 74.184 599.328C74.184 602.16 76.56 604.104 79.656 604.104C82.704 604.104 85.152 602.232 85.152 599.328ZM83.064 599.304C83.064 601.128 81.48 602.328 79.656 602.328C77.808 602.328 76.296 601.104 76.296 599.304C76.296 597.48 77.808 596.16 79.656 596.16C81.552 596.16 83.064 597.384 83.064 599.304ZM87.048 608.376L86.832 606.696C85.152 606.888 82.68 607.056 79.704 607.176C77.232 607.296 74.784 607.32 72.768 607.32L73.104 609.144C74.784 609.12 76.992 609.072 79.368 608.952C82.032 608.808 85.128 608.616 87.048 608.376ZM108.918 592.704H106.806V613.68H108.918V603.072H112.278V601.296H108.918V592.704ZM103.398 594.936H93.6536V596.736H101.118C100.734 601.248 97.6856 605.64 92.7416 608.016L94.0376 609.624C99.7736 606.504 103.278 601.608 103.398 594.936ZM118.348 595.992H123.076V596.88C123.076 599.808 120.436 602.544 117.7 603.528L118.9 605.208C121.06 604.32 123.508 602.112 124.18 600.12C125.044 602.016 127.204 603.864 129.076 604.608L130.252 602.904C127.876 602.184 125.236 599.808 125.236 596.832V595.992H129.82V594.264H118.348V595.992ZM121.036 606.24V607.968H132.94V613.68H135.1V606.24H121.036ZM135.076 605.136V592.704H132.94V598.104H129.052V599.832H132.94V605.136H135.076ZM152.746 599.304V604.128H154.882V592.704H152.746V597.504H149.362V599.304H152.746ZM154.906 613.416V605.136H152.746V607.608H143.506V605.208H141.37V613.416H154.906ZM152.746 611.712H143.506V609.264H152.746V611.712ZM148.258 603.6V593.88H146.146V597H140.65V593.904H138.514V603.6H148.258ZM146.146 601.872H140.65V598.704H146.146V601.872ZM177.015 603.216V601.44H173.679V592.704H171.543V613.68H173.679V603.216H177.015ZM166.743 595.8V594.072H160.479V595.8H166.743ZM169.791 599.4V597.696H157.359V599.4H169.791ZM168.615 605.016C168.615 602.496 166.647 600.576 163.671 600.576C160.695 600.576 158.703 602.544 158.703 605.016C158.703 607.536 160.695 609.408 163.671 609.408C166.647 609.408 168.615 607.488 168.615 605.016ZM166.527 605.016C166.527 606.552 165.399 607.632 163.671 607.632C162.015 607.632 160.839 606.552 160.839 605.016C160.839 603.456 162.039 602.352 163.671 602.352C165.303 602.352 166.527 603.456 166.527 605.016ZM194.997 613.68V592.704H192.957V613.68H194.997ZM190.845 612.648V593.184H188.829V601.2H185.757V602.928H188.829V612.648H190.845ZM186.093 595.224H177.837V596.976H183.981C183.621 601.248 181.245 605.28 176.925 607.8L178.365 609.36C183.525 605.928 186.021 601.44 186.093 595.224ZM217.507 599.136V605.52H219.643V592.704H217.507V597.408H213.475V599.136H217.507ZM219.811 609.624C219.811 607.128 217.267 605.544 212.731 605.544C208.243 605.544 205.675 607.128 205.675 609.624C205.675 612.12 208.243 613.68 212.731 613.68C217.267 613.68 219.811 612.12 219.811 609.624ZM212.731 607.248C215.851 607.248 217.651 608.16 217.651 609.624C217.651 611.088 215.851 611.976 212.731 611.976C209.659 611.976 207.835 611.088 207.835 609.624C207.835 608.16 209.659 607.248 212.731 607.248ZM214.459 602.472C212.059 601.632 209.515 599.208 209.515 595.896V593.88H207.355V595.992C207.355 599.28 205.123 601.8 202.099 603.096L203.419 604.752C205.675 603.72 207.811 601.68 208.459 599.496C209.299 601.584 211.339 603.288 213.211 604.128L214.459 602.472ZM239.449 613.392V605.352H237.337V607.752H227.905V605.4H225.793V613.392H239.449ZM237.337 611.688H227.905V609.456H237.337V611.688ZM239.449 604.32V592.704H237.313V604.32H239.449ZM234.673 601.368C232.681 601.896 227.905 602.088 225.409 602.016V599.376H232.801V593.712H223.201V595.416H230.689V597.744H223.297V603.768C224.401 603.768 225.481 603.744 226.513 603.744C229.417 603.696 232.921 603.48 234.961 603.096L234.673 601.368ZM255.99 608.856L255.846 607.176C254.406 607.368 252.222 607.512 250.014 607.632V603.432H254.622V601.704H245.67V596.448H254.502V594.72H243.558V603.432H247.902V607.704C245.838 607.776 243.774 607.8 242.07 607.8L242.382 609.6C243.87 609.6 246.918 609.528 249.222 609.408C251.79 609.264 254.238 609.072 255.99 608.856ZM259.398 613.68V592.704H257.286V613.68H259.398ZM276.924 599.592V604.392H279.06V592.704H276.924V597.864H273.564V599.592H276.924ZM267.372 593.856C264.444 593.856 262.044 595.92 262.044 598.848C262.044 601.824 264.468 603.696 267.372 603.696C270.3 603.696 272.7 601.8 272.7 598.848C272.7 595.896 270.276 593.856 267.372 593.856ZM267.372 595.656C269.364 595.656 270.588 597.024 270.588 598.848C270.588 600.672 269.292 601.992 267.372 601.992C265.476 601.992 264.132 600.696 264.132 598.824C264.132 597.024 265.476 595.656 267.372 595.656ZM279.732 613.776L281.052 612.264C279.012 611.52 276.996 609.192 276.996 606.6V605.496H274.908V606.672C274.908 609.24 273.156 611.496 270.828 612.624L272.172 614.04C273.9 613.248 275.508 611.328 275.988 609.816C276.492 611.28 278.34 613.104 279.708 613.776H279.732ZM272.196 610.488C270.66 609.888 269.268 608.448 269.268 606.384V605.496H267.156V606.504C267.156 609.096 265.188 611.328 263.004 612.312L264.252 613.8C266.004 612.984 267.852 610.992 268.332 609.408C268.788 610.416 269.844 611.448 270.78 611.904L272.196 610.488ZM300.594 604.464V602.736H281.658V604.464H300.594ZM298.29 613.392V606.504H283.962V613.392H298.29ZM296.178 611.712H286.098V608.184H296.178V611.712ZM298.338 597.216C298.338 594.816 295.698 593.232 291.114 593.232C286.554 593.232 283.914 594.816 283.914 597.216C283.914 599.616 286.554 601.224 291.114 601.224C295.698 601.224 298.338 599.616 298.338 597.216ZM296.13 597.216C296.13 598.584 294.162 599.496 291.114 599.496C288.042 599.496 286.146 598.584 286.146 597.216C286.146 595.848 288.042 594.936 291.114 594.936C294.21 594.936 296.13 595.848 296.13 597.216ZM320.399 603.384V601.656H301.463V603.384H320.399ZM318.815 613.536V611.784H305.735V609.984H318.023V605.16H303.575V606.888H315.911V608.4H303.623V613.536H318.815ZM318.215 596.712C318.215 594.336 315.503 592.992 310.943 592.992C306.431 592.992 303.719 594.336 303.719 596.712C303.719 599.064 306.431 600.408 310.943 600.408C315.503 600.408 318.215 599.064 318.215 596.712ZM310.943 594.696C314.063 594.696 316.031 595.512 316.031 596.712C316.031 597.888 314.063 598.704 310.943 598.704C307.871 598.704 305.927 597.888 305.927 596.712C305.927 595.512 307.871 594.696 310.943 594.696ZM345.934 598.992V597.24H342.814V592.704H340.678V603.36H342.814V598.992H345.934ZM343.558 613.488V611.76H331.486V609.744H342.814V604.584H329.326V606.288H340.678V608.16H329.35V613.488H343.558ZM332.302 593.496C329.278 593.496 326.854 595.488 326.854 598.272C326.854 601.176 329.326 602.952 332.302 602.952C335.374 602.952 337.798 601.104 337.798 598.248C337.798 595.44 335.374 593.496 332.302 593.496ZM332.302 595.32C334.342 595.32 335.638 596.568 335.638 598.248C335.638 599.88 334.318 601.152 332.302 601.152C330.43 601.152 329.038 599.952 329.038 598.248C329.038 596.568 330.502 595.32 332.302 595.32ZM359.763 606.288C357.219 606.768 353.163 606.936 350.235 606.936H349.611V602.184H357.459V594.6H347.403V596.328H355.347V600.48H347.499V608.736H350.115C354.363 608.688 357.795 608.4 359.979 608.04L359.763 606.288ZM361.587 592.704V613.68H363.723V592.704H361.587ZM385.161 610.632V608.88H375.561V601.824H373.425V608.88H366.225V610.632H385.161ZM382.713 594.648H368.169V596.376H380.529V598.896C380.529 601.368 380.241 604.296 379.785 606.096C380.481 606.192 381.153 606.312 381.825 606.432C382.425 603.888 382.665 601.224 382.713 597.864V594.648ZM385.67 614.232H387.446L388.934 609.384H386.51L385.67 614.232ZM413.986 613.68V592.704H411.946V600.792H409.474V593.184H407.482V612.648H409.474V602.52H411.946V613.68H413.986ZM405.13 595.272H396.874V597.024H403.018C402.658 601.296 400.282 605.328 395.938 607.848L397.402 609.408C402.514 605.976 405.058 601.488 405.13 595.272ZM430.216 609.672L430.024 607.992C428.584 608.184 426.28 608.352 424.048 608.448V606.672C426.496 606.384 428.128 605.04 428.128 603.168C428.128 601.008 426.04 599.64 423.04 599.64C420.088 599.64 417.976 601.032 417.976 603.168C417.976 605.016 419.56 606.336 421.936 606.648V608.568C419.872 608.664 417.832 608.712 416.104 608.712L416.464 610.488C418.216 610.488 420.76 610.368 423.064 610.272C425.632 610.128 428.44 609.888 430.216 609.672ZM433.432 613.68V592.704H431.32V613.68H433.432ZM429.352 598.56V596.856H416.848V598.56H429.352ZM425.92 603.168C425.92 604.2 424.72 605.016 423.04 605.016C421.384 605.016 420.208 604.2 420.208 603.168C420.208 602.112 421.384 601.32 423.04 601.32C424.72 601.32 425.92 602.112 425.92 603.168ZM425.968 595.416V593.712H419.896V595.416H425.968ZM454.822 604.032V602.4H435.886V604.032H454.822ZM453.31 613.296V611.688H440.158V610.152H452.638V605.496H438.046V607.104H450.526V608.664H438.046V613.296H453.31ZM452.95 600.912V599.328H440.398V597.912H452.518V593.424H438.286V595.008H450.406V596.472H438.262V600.912H452.95ZM478.244 607.944V592.704H476.108V597.768H471.932V599.496H476.108V607.944H478.244ZM478.7 613.056V611.352H466.748V606.576H464.66V613.056H478.7ZM473.252 603.12C470.804 602.28 468.212 599.808 468.212 596.4V593.88H466.052V596.496C466.052 599.808 463.676 602.64 460.796 603.84L462.116 605.496C464.276 604.512 466.532 602.232 467.156 600.024C468.068 602.136 470.084 603.96 472.028 604.8L473.252 603.12ZM495.914 600.144V607.992H498.05V592.704H495.914V598.416H492.578V600.144H495.914ZM498.482 613.032V611.328H486.554V606.48H484.442V613.032H498.482ZM486.506 594.024C483.338 594.024 481.034 596.28 481.034 599.376C481.034 602.424 483.338 604.56 486.506 604.56C489.674 604.56 491.954 602.424 491.954 599.352C491.954 596.28 489.674 594.024 486.506 594.024ZM486.506 595.824C488.546 595.824 489.818 597.288 489.818 599.352C489.818 601.344 488.546 602.76 486.506 602.76C484.538 602.76 483.17 601.32 483.17 599.328C483.17 597.312 484.538 595.824 486.506 595.824ZM519.991 601.536V599.736H516.847V592.704H514.735V608.16H516.847V601.536H519.991ZM517.567 613.056V611.352H505.687V607.56H503.575V613.056H517.567ZM509.623 595.08V593.352H503.527V595.08H509.623ZM512.839 598.224V596.52H500.527V598.224H512.839ZM511.663 602.976C511.663 600.6 509.551 599.208 506.695 599.208C503.863 599.208 501.751 600.6 501.751 602.976C501.751 605.304 503.887 606.72 506.695 606.72C509.551 606.72 511.663 605.28 511.663 602.976ZM509.551 602.976C509.551 604.248 508.231 605.016 506.695 605.016C505.183 605.016 503.863 604.248 503.863 602.976C503.863 601.632 505.183 600.912 506.695 600.912C508.231 600.912 509.551 601.632 509.551 602.976ZM541.734 601.896C541.734 599.736 539.118 598.608 535.278 598.608C531.462 598.608 528.846 599.736 528.846 601.896C528.846 604.056 531.462 605.16 535.278 605.16C539.118 605.16 541.734 604.056 541.734 601.896ZM536.31 613.68V607.968H544.734V606.24H525.798V607.968H534.174V613.68H536.31ZM543.63 597.72V595.992H526.95V597.72H543.63ZM539.55 601.896C539.55 603 537.366 603.48 535.278 603.48C533.238 603.48 531.03 603 531.03 601.896C531.03 600.768 533.238 600.312 535.278 600.312C537.366 600.312 539.55 600.768 539.55 601.896ZM538.878 594.768V593.016H531.678V594.768H538.878ZM553.948 606.792V596.664H561.748V594.912H551.836V608.568H554.188C558.004 608.544 561.604 608.304 563.788 607.848L563.548 606.12C561.436 606.576 557.572 606.792 554.812 606.792H553.948ZM567.148 592.704H565.036V613.68H567.148V602.664H570.412V600.888H567.148V592.704ZM589.69 604.464V602.736H570.754V604.464H589.69ZM587.386 613.392V606.504H573.058V613.392H587.386ZM585.274 611.712H575.194V608.184H585.274V611.712ZM587.434 597.216C587.434 594.816 584.794 593.232 580.21 593.232C575.65 593.232 573.01 594.816 573.01 597.216C573.01 599.616 575.65 601.224 580.21 601.224C584.794 601.224 587.434 599.616 587.434 597.216ZM585.226 597.216C585.226 598.584 583.258 599.496 580.21 599.496C577.138 599.496 575.242 598.584 575.242 597.216C575.242 595.848 577.138 594.936 580.21 594.936C583.306 594.936 585.226 595.848 585.226 597.216ZM611.168 592.704V613.68H613.256V592.704H611.168ZM608.144 599.328C608.144 596.328 605.744 594.384 602.648 594.384C599.576 594.384 597.176 596.424 597.176 599.328C597.176 602.16 599.552 604.104 602.648 604.104C605.696 604.104 608.144 602.232 608.144 599.328ZM606.056 599.304C606.056 601.128 604.472 602.328 602.648 602.328C600.8 602.328 599.288 601.104 599.288 599.304C599.288 597.48 600.8 596.16 602.648 596.16C604.544 596.16 606.056 597.384 606.056 599.304ZM610.04 608.376L609.824 606.696C608.144 606.888 605.672 607.056 602.696 607.176C600.224 607.296 597.776 607.32 595.76 607.32L596.096 609.144C597.776 609.12 599.984 609.072 602.36 608.952C605.024 608.808 608.12 608.616 610.04 608.376ZM635.053 600.6V598.824H631.909V592.704H629.797V607.944H631.909V600.6H635.053ZM632.605 613.008V611.28H620.749V606.432H618.637V613.008H632.605ZM621.613 594.216C618.373 594.216 615.997 596.448 615.997 599.544C615.997 602.616 618.373 604.704 621.637 604.704C624.853 604.704 627.229 602.616 627.229 599.52C627.229 596.448 624.853 594.216 621.613 594.216ZM621.613 596.016C623.701 596.016 625.045 597.48 625.045 599.52C625.045 601.536 623.701 602.904 621.637 602.904C619.597 602.904 618.181 601.512 618.181 599.496C618.181 597.48 619.573 596.016 621.613 596.016ZM654.451 603.384V601.656H635.515V603.384H654.451ZM652.867 613.536V611.784H639.787V609.984H652.075V605.16H637.627V606.888H649.963V608.4H637.675V613.536H652.867ZM652.267 596.712C652.267 594.336 649.555 592.992 644.995 592.992C640.483 592.992 637.771 594.336 637.771 596.712C637.771 599.064 640.483 600.408 644.995 600.408C649.555 600.408 652.267 599.064 652.267 596.712ZM644.995 594.696C648.115 594.696 650.083 595.512 650.083 596.712C650.083 597.888 648.115 598.704 644.995 598.704C641.923 598.704 639.979 597.888 639.979 596.712C639.979 595.512 641.923 594.696 644.995 594.696ZM677.273 602.76V593.496H675.161V596.472H665.081V593.496H662.945V602.76H677.273ZM671.153 613.704V606.888H679.601V605.136H660.665V606.888H669.017V613.704H671.153ZM675.161 601.056H665.081V598.2H675.161V601.056ZM695.735 592.704V613.68H697.823V592.704H695.735ZM692.711 599.328C692.711 596.328 690.311 594.384 687.215 594.384C684.143 594.384 681.743 596.424 681.743 599.328C681.743 602.16 684.119 604.104 687.215 604.104C690.263 604.104 692.711 602.232 692.711 599.328ZM690.623 599.304C690.623 601.128 689.039 602.328 687.215 602.328C685.367 602.328 683.855 601.104 683.855 599.304C683.855 597.48 685.367 596.16 687.215 596.16C689.111 596.16 690.623 597.384 690.623 599.304ZM694.607 608.376L694.391 606.696C692.711 606.888 690.239 607.056 687.263 607.176C684.791 607.296 682.343 607.32 680.327 607.32L680.663 609.144C682.343 609.12 684.551 609.072 686.927 608.952C689.591 608.808 692.687 608.616 694.607 608.376ZM719.813 603.216V601.44H716.477V592.704H714.341V613.68H716.477V603.216H719.813ZM709.541 595.8V594.072H703.277V595.8H709.541ZM712.589 599.4V597.696H700.157V599.4H712.589ZM711.413 605.016C711.413 602.496 709.445 600.576 706.469 600.576C703.493 600.576 701.501 602.544 701.501 605.016C701.501 607.536 703.493 609.408 706.469 609.408C709.445 609.408 711.413 607.488 711.413 605.016ZM709.325 605.016C709.325 606.552 708.197 607.632 706.469 607.632C704.813 607.632 703.637 606.552 703.637 605.016C703.637 603.456 704.837 602.352 706.469 602.352C708.101 602.352 709.325 603.456 709.325 605.016ZM739.018 610.632V608.88H729.418V601.824H727.282V608.88H720.082V610.632H739.018ZM736.57 594.648H722.026V596.376H734.386V598.896C734.386 601.368 734.098 604.296 733.642 606.096C734.338 606.192 735.01 606.312 735.682 606.432C736.282 603.888 736.522 601.224 736.57 597.864V594.648ZM762.441 604.704V592.704H760.305V604.704H762.441ZM762.441 613.392V605.952H748.641V613.392H762.441ZM760.305 611.712H750.753V607.632H760.305V611.712ZM757.929 602.352C755.529 601.512 752.721 598.992 752.721 595.512V593.568H750.537V595.608C750.537 599.04 748.041 601.728 745.089 603L746.385 604.632C748.785 603.456 751.017 601.248 751.641 599.088C752.529 601.176 754.809 603.144 756.681 603.984L757.929 602.352ZM780.302 592.704V613.68H782.39V592.704H780.302ZM777.278 599.328C777.278 596.328 774.878 594.384 771.782 594.384C768.71 594.384 766.31 596.424 766.31 599.328C766.31 602.16 768.686 604.104 771.782 604.104C774.83 604.104 777.278 602.232 777.278 599.328ZM775.19 599.304C775.19 601.128 773.606 602.328 771.782 602.328C769.934 602.328 768.422 601.104 768.422 599.304C768.422 597.48 769.934 596.16 771.782 596.16C773.678 596.16 775.19 597.384 775.19 599.304ZM779.174 608.376L778.958 606.696C777.278 606.888 774.806 607.056 771.83 607.176C769.358 607.296 766.91 607.32 764.894 607.32L765.23 609.144C766.91 609.12 769.118 609.072 771.494 608.952C774.158 608.808 777.254 608.616 779.174 608.376ZM91.848 644.032V642.4H72.912V644.032H91.848ZM90.336 653.296V651.688H77.184V650.152H89.664V645.496H75.072V647.104H87.552V648.664H75.072V653.296H90.336ZM89.976 640.912V639.328H77.424V637.912H89.544V633.424H75.312V635.008H87.432V636.472H75.288V640.912H89.976ZM114.598 634.24H100.246V635.992H112.438C112.438 638.272 112.27 641.296 111.742 643.432H98.0623V645.136H106.438V653.68H108.574V645.136H116.998V643.432H113.83C114.43 640.48 114.598 637.312 114.598 634.24ZM137.212 641.536V639.736H134.068V632.704H131.956V648.16H134.068V641.536H137.212ZM134.788 653.056V651.352H122.908V647.56H120.796V653.056H134.788ZM126.844 635.08V633.352H120.748V635.08H126.844ZM130.06 638.224V636.52H117.748V638.224H130.06ZM128.884 642.976C128.884 640.6 126.772 639.208 123.916 639.208C121.084 639.208 118.972 640.6 118.972 642.976C118.972 645.304 121.108 646.72 123.916 646.72C126.772 646.72 128.884 645.28 128.884 642.976ZM126.772 642.976C126.772 644.248 125.452 645.016 123.916 645.016C122.404 645.016 121.084 644.248 121.084 642.976C121.084 641.632 122.404 640.912 123.916 640.912C125.452 640.912 126.772 641.632 126.772 642.976ZM140.674 646.792V636.664H148.474V634.912H138.562V648.568H140.914C144.73 648.544 148.33 648.304 150.514 647.848L150.274 646.12C148.162 646.576 144.298 646.792 141.538 646.792H140.674ZM153.874 632.704H151.762V653.68H153.874V642.664H157.138V640.888H153.874V632.704ZM157.623 651.544H159.951V649.192H157.623V651.544Z" fill="#666666"/>
<path d="M88.176 787.704V808.68H90.264V787.704H88.176ZM85.152 794.328C85.152 791.328 82.752 789.384 79.656 789.384C76.584 789.384 74.184 791.424 74.184 794.328C74.184 797.16 76.56 799.104 79.656 799.104C82.704 799.104 85.152 797.232 85.152 794.328ZM83.064 794.304C83.064 796.128 81.48 797.328 79.656 797.328C77.808 797.328 76.296 796.104 76.296 794.304C76.296 792.48 77.808 791.16 79.656 791.16C81.552 791.16 83.064 792.384 83.064 794.304ZM87.048 803.376L86.832 801.696C85.152 801.888 82.68 802.056 79.704 802.176C77.232 802.296 74.784 802.32 72.768 802.32L73.104 804.144C74.784 804.12 76.992 804.072 79.368 803.952C82.032 803.808 85.128 803.616 87.048 803.376ZM109.206 804.6C109.206 802.056 106.566 800.496 102.126 800.496C97.6856 800.496 95.0456 802.056 95.0456 804.6C95.0456 807.12 97.6856 808.656 102.126 808.656C106.566 808.656 109.206 807.12 109.206 804.6ZM92.7656 790.896H97.4696V791.52C97.4696 794.448 94.9496 797.136 92.2136 798.12L93.4856 799.776C95.6456 798.888 97.9016 796.752 98.5736 794.736C99.4616 796.656 101.478 798.456 103.35 799.2L104.526 797.496C102.15 796.776 99.6296 794.448 99.6296 791.472V790.896H104.214V789.144H92.7656V790.896ZM107.022 804.6C107.022 806.064 105.15 806.928 102.126 806.928C99.1016 806.928 97.2536 806.064 97.2536 804.6C97.2536 803.088 99.1016 802.248 102.126 802.248C105.15 802.248 107.022 803.088 107.022 804.6ZM112.086 795V793.224H108.918V787.704H106.806V800.616H108.918V795H112.086ZM131.459 800.112V798.384H112.523V800.112H131.459ZM129.203 808.056V806.352H117.083V801.96H114.971V808.056H129.203ZM129.323 792.48C129.323 789.888 126.587 788.352 121.979 788.352C117.419 788.352 114.683 789.888 114.683 792.48C114.683 795.072 117.395 796.632 121.979 796.632C126.563 796.632 129.323 795.072 129.323 792.48ZM121.979 790.08C125.075 790.08 127.091 790.992 127.091 792.48C127.091 793.968 125.075 794.88 121.979 794.88C118.931 794.88 116.963 793.968 116.963 792.48C116.963 790.992 118.931 790.08 121.979 790.08ZM140.674 801.792V791.664H148.474V789.912H138.562V803.568H140.914C144.73 803.544 148.33 803.304 150.514 802.848L150.274 801.12C148.162 801.576 144.298 801.792 141.538 801.792H140.674ZM153.874 787.704H151.762V808.68H153.874V797.664H157.138V795.888H153.874V787.704ZM176.415 799.464V797.736H157.479V799.464H176.415ZM174.111 808.392V801.504H159.783V808.392H174.111ZM171.999 806.712H161.919V803.184H171.999V806.712ZM174.159 792.216C174.159 789.816 171.519 788.232 166.935 788.232C162.375 788.232 159.735 789.816 159.735 792.216C159.735 794.616 162.375 796.224 166.935 796.224C171.519 796.224 174.159 794.616 174.159 792.216ZM171.951 792.216C171.951 793.584 169.983 794.496 166.935 794.496C163.863 794.496 161.967 793.584 161.967 792.216C161.967 790.848 163.863 789.936 166.935 789.936C170.031 789.936 171.951 790.848 171.951 792.216ZM196.821 798.24V796.488H193.605V787.704H191.493V808.68H193.605V798.24H196.821ZM190.365 803.544L190.101 801.888C188.325 802.152 186.045 802.296 183.381 802.416V795.84H181.317V802.488C179.781 802.536 178.077 802.536 176.805 802.536L177.117 804.312C178.821 804.312 181.029 804.264 183.141 804.168C185.301 804.048 188.373 803.832 190.365 803.544ZM188.997 789.816H178.053V791.544H186.861C186.861 794.328 186.669 797.376 186.261 799.176L188.301 799.44C188.781 797.376 188.997 793.608 188.997 789.816ZM221.755 794.52V792.768H218.635V787.704H216.499V798.984H218.635V794.52H221.755ZM219.211 808.416V806.832H207.475V804.984H218.323V803.4H207.475V801.672H218.755V800.064H205.363V808.416H219.211ZM203.227 788.976V790.752H210.451C209.827 794.088 206.275 797.184 202.219 797.904L203.299 799.656C208.243 798.36 212.611 794.712 212.803 788.976H203.227ZM239.545 808.68V787.704H237.409V808.68H239.545ZM222.985 796.68C222.985 800.856 224.665 804.12 228.385 804.12C232.105 804.12 233.761 800.856 233.761 796.704C233.761 792.528 232.105 789.288 228.385 789.288C224.665 789.288 222.985 792.528 222.985 796.68ZM231.649 796.704C231.649 799.944 230.545 802.272 228.385 802.272C226.249 802.272 225.145 799.944 225.145 796.704C225.145 793.464 226.249 791.112 228.385 791.112C230.545 791.112 231.649 793.464 231.649 796.704ZM264.719 804.624C264.719 802.128 262.175 800.544 257.639 800.544C253.151 800.544 250.583 802.128 250.583 804.624C250.583 807.144 253.151 808.68 257.639 808.68C262.175 808.68 264.719 807.144 264.719 804.624ZM247.871 791.136H252.599V791.88C252.599 794.808 249.959 797.544 247.223 798.528L248.423 800.208C250.583 799.32 253.031 797.112 253.703 795.12C254.567 797.016 256.727 798.864 258.599 799.608L259.775 797.904C257.399 797.184 254.759 794.808 254.759 791.832V791.136H259.343V789.408H247.871V791.136ZM257.639 802.296C260.759 802.296 262.559 803.16 262.559 804.624C262.559 806.088 260.759 806.952 257.639 806.952C254.567 806.952 252.743 806.088 252.743 804.624C252.743 803.16 254.567 802.296 257.639 802.296ZM262.463 794.736V800.712H264.599V787.704H262.463V792.984H258.551V794.736H262.463ZM284.405 808.68V787.704H282.269V808.68H284.405ZM278.261 789.936H268.157V791.736H275.957C275.573 796.248 272.165 800.64 267.221 803.016L268.517 804.624C274.253 801.504 278.141 796.608 278.261 789.936ZM310.443 795.936C307.299 795.6 303.291 793.608 302.955 790.944H309.579V789.192H294.099V790.944H300.699C300.387 793.608 296.523 795.672 293.211 796.032L294.219 797.712C297.555 797.184 300.891 795.192 301.803 793.224C302.835 795.12 306.291 797.136 309.483 797.64L310.443 795.936ZM302.835 808.68V801.336H311.283V799.608H292.347V801.336H300.699V808.68H302.835ZM330.249 795.936C327.105 795.6 323.097 793.608 322.761 790.944H329.385V789.192H313.905V790.944H320.505C320.193 793.608 316.329 795.672 313.017 796.032L314.025 797.712C317.361 797.184 320.697 795.192 321.609 793.224C322.641 795.12 326.097 797.136 329.289 797.64L330.249 795.936ZM322.641 808.68V801.336H331.089V799.608H312.153V801.336H320.505V808.68H322.641ZM348.662 805.176C348.662 802.896 346.238 801.528 341.414 801.528C336.614 801.528 334.19 802.968 334.19 805.176C334.19 807.408 336.614 808.824 341.414 808.824C346.238 808.824 348.662 807.432 348.662 805.176ZM349.958 795.792C346.934 795.624 343.334 794.376 342.614 792.504H348.926V790.824H333.902V792.504H340.262C339.566 794.376 336.206 795.624 332.87 795.792L333.806 797.544C337.07 797.232 340.286 795.864 341.414 793.992C342.566 795.84 345.998 797.208 349.07 797.544L349.958 795.792ZM350.894 800.568V798.84H342.446V796.176H340.31V798.84H331.958V800.568H350.894ZM341.414 803.28C344.558 803.28 346.502 803.976 346.502 805.176C346.502 806.4 344.558 807.072 341.414 807.072C338.318 807.072 336.374 806.4 336.374 805.176C336.374 803.976 338.318 803.28 341.414 803.28ZM344.798 789.624V787.92H338.006V789.624H344.798ZM365.9 804.672L365.708 802.992C364.268 803.184 361.964 803.352 359.732 803.448V801.672C362.18 801.384 363.812 800.04 363.812 798.168C363.812 796.008 361.724 794.64 358.724 794.64C355.772 794.64 353.66 796.032 353.66 798.168C353.66 800.016 355.244 801.336 357.62 801.648V803.568C355.556 803.664 353.516 803.712 351.788 803.712L352.148 805.488C353.9 805.488 356.444 805.368 358.748 805.272C361.316 805.128 364.124 804.888 365.9 804.672ZM369.116 808.68V787.704H367.004V808.68H369.116ZM365.036 793.56V791.856H352.532V793.56H365.036ZM361.604 798.168C361.604 799.2 360.404 800.016 358.724 800.016C357.068 800.016 355.892 799.2 355.892 798.168C355.892 797.112 357.068 796.32 358.724 796.32C360.404 796.32 361.604 797.112 361.604 798.168ZM361.652 790.416V788.712H355.58V790.416H361.652ZM394.626 808.68V787.704H392.586V795.792H390.114V788.184H388.122V807.648H390.114V797.52H392.586V808.68H394.626ZM385.77 790.272H377.514V792.024H383.658C383.298 796.296 380.922 800.328 376.578 802.848L378.042 804.408C383.154 800.976 385.698 796.488 385.77 790.272ZM397.704 793.8H402.576C402.48 796.128 399.888 798.264 396.984 798.984L398.064 800.712C400.536 799.992 402.984 798.144 403.68 796.32C404.616 798.12 406.824 799.512 409.08 800.208L410.136 798.504C407.592 798.024 404.808 796.08 404.688 793.8H409.536V792.048H397.704V793.8ZM414.096 808.68V787.704H411.984V808.68H414.096ZM410.952 804.144L410.76 802.464C409.344 802.656 406.968 802.8 404.712 802.92V799.08H402.6V803.016C400.512 803.088 398.472 803.112 396.744 803.112L397.104 804.888C398.856 804.912 401.4 804.84 403.704 804.696C406.272 804.576 409.152 804.36 410.952 804.144ZM400.776 790.176H406.56V788.4H400.776V790.176ZM435.461 799.032V797.4H416.525V799.032H435.461ZM433.949 808.296V806.688H420.797V805.152H433.277V800.496H418.685V802.104H431.165V803.664H418.685V808.296H433.949ZM433.589 795.912V794.328H421.037V792.912H433.157V788.424H418.925V790.008H431.045V791.472H418.901V795.912H433.589ZM458.284 797.76V788.496H456.172V791.472H446.092V788.496H443.956V797.76H458.284ZM452.164 808.704V801.888H460.612V800.136H441.676V801.888H450.028V808.704H452.164ZM456.172 796.056H446.092V793.2H456.172V796.056ZM476.745 787.704V808.68H478.833V787.704H476.745ZM473.721 794.328C473.721 791.328 471.321 789.384 468.225 789.384C465.153 789.384 462.753 791.424 462.753 794.328C462.753 797.16 465.129 799.104 468.225 799.104C471.273 799.104 473.721 797.232 473.721 794.328ZM471.633 794.304C471.633 796.128 470.049 797.328 468.225 797.328C466.377 797.328 464.865 796.104 464.865 794.304C464.865 792.48 466.377 791.16 468.225 791.16C470.121 791.16 471.633 792.384 471.633 794.304ZM475.617 803.376L475.401 801.696C473.721 801.888 471.249 802.056 468.273 802.176C465.801 802.296 463.353 802.32 461.337 802.32L461.673 804.144C463.353 804.12 465.561 804.072 467.937 803.952C470.601 803.808 473.697 803.616 475.617 803.376ZM500.631 796.536V794.736H497.487V787.704H495.375V803.16H497.487V796.536H500.631ZM498.207 808.056V806.352H486.327V802.56H484.215V808.056H498.207ZM490.263 790.08V788.352H484.167V790.08H490.263ZM493.479 793.224V791.52H481.167V793.224H493.479ZM492.303 797.976C492.303 795.6 490.191 794.208 487.335 794.208C484.503 794.208 482.391 795.6 482.391 797.976C482.391 800.304 484.527 801.72 487.335 801.72C490.191 801.72 492.303 800.28 492.303 797.976ZM490.191 797.976C490.191 799.248 488.871 800.016 487.335 800.016C485.823 800.016 484.503 799.248 484.503 797.976C484.503 796.632 485.823 795.912 487.335 795.912C488.871 795.912 490.191 796.632 490.191 797.976ZM525.973 797.688V795.912H522.637V787.704H520.525V808.68H522.637V797.688H525.973ZM516.949 803.472V789.456H514.813V794.712H509.197V789.48H507.109V803.472H516.949ZM514.813 801.768H509.197V796.416H514.813V801.768ZM525.883 809.232H527.659L529.147 804.384H526.723L525.883 809.232ZM553.815 808.272V806.616H540.951V805.152H553.119V800.616H546.975V799.08H555.423V797.424H536.487V799.08H544.839V800.616H538.743V802.272H551.007V803.616H538.815V808.272H553.815ZM554.487 794.952C551.607 794.856 548.319 793.752 547.311 792.264H553.431V790.608H538.455V792.264H544.623C543.663 793.776 540.447 794.88 537.399 794.952L538.335 796.68C541.791 796.344 544.935 795.024 545.943 793.344C547.047 794.976 550.191 796.296 553.599 796.68L554.487 794.952ZM549.327 789.384V787.704H542.535V789.384H549.327ZM571.365 794.088V799.992H573.501V787.704H571.365V792.36H567.309V794.088H571.365ZM573.501 808.704V801.072H559.461V802.776H571.365V808.704H573.501ZM568.413 797.184C566.037 796.344 563.469 793.92 563.469 790.608V788.664H561.285V790.704C561.285 793.992 559.053 796.56 556.077 797.808L557.397 799.464C559.797 798.264 561.789 796.368 562.413 794.208C563.301 796.272 565.293 798 567.189 798.84L568.413 797.184ZM598.747 808.68V787.704H596.611V808.68H598.747ZM582.187 796.68C582.187 800.856 583.867 804.12 587.587 804.12C591.307 804.12 592.963 800.856 592.963 796.704C592.963 792.528 591.307 789.288 587.587 789.288C583.867 789.288 582.187 792.528 582.187 796.68ZM590.851 796.704C590.851 799.944 589.747 802.272 587.587 802.272C585.451 802.272 584.347 799.944 584.347 796.704C584.347 793.464 585.451 791.112 587.587 791.112C589.747 791.112 590.851 793.464 590.851 796.704ZM620.713 797.808V796.056H617.449V787.704H615.337V808.68H617.449V797.808H620.713ZM613.609 801.984C610.657 800.16 608.305 796.848 608.305 792.912V789.504H606.121V793.008C606.121 796.872 603.889 800.52 600.721 802.512L602.041 804.096C604.417 802.512 606.505 799.848 607.225 797.304C608.017 799.728 610.465 802.344 612.337 803.568L613.609 801.984ZM626.975 791.256H631.607V792.288C631.607 795.216 629.063 798.096 626.351 799.08L627.599 800.76C629.783 799.872 632.039 797.616 632.711 795.6C633.575 797.52 635.615 799.416 637.487 800.16L638.663 798.456C636.287 797.736 633.767 795.216 633.767 792.24V791.256H638.279V789.504H626.975V791.256ZM643.607 803.016V787.704H641.471V793.416H637.439V795.144H641.471V803.016H643.607ZM644.063 808.032V806.304H631.919V801.528H629.807V808.032H644.063ZM658.444 792.6C658.444 790.224 656.116 788.688 652.876 788.688C649.66 788.688 647.308 790.224 647.308 792.576C647.308 795 649.66 796.464 652.876 796.464C656.116 796.464 658.444 794.976 658.444 792.6ZM663.556 803.832V787.704H661.468V800.016H657.34V801.6H661.468V803.832H663.556ZM663.964 808.152V806.424H650.86V802.032H648.748V808.152H663.964ZM654.124 802.92V799.08C656.212 798.96 658.396 798.792 659.788 798.576L659.644 796.992C657.676 797.208 655.612 797.352 652.924 797.472C650.62 797.568 648.364 797.592 645.94 797.592L646.276 799.344C648.124 799.296 649.948 799.272 651.988 799.2V802.92H654.124ZM656.164 792.6C656.164 793.848 654.868 794.76 652.876 794.76C650.884 794.76 649.588 793.848 649.588 792.6C649.588 791.352 650.884 790.392 652.876 790.392C654.868 790.392 656.164 791.352 656.164 792.6ZM681.274 787.704V808.68H683.362V787.704H681.274ZM678.25 794.328C678.25 791.328 675.85 789.384 672.754 789.384C669.682 789.384 667.282 791.424 667.282 794.328C667.282 797.16 669.658 799.104 672.754 799.104C675.802 799.104 678.25 797.232 678.25 794.328ZM676.162 794.304C676.162 796.128 674.578 797.328 672.754 797.328C670.906 797.328 669.394 796.104 669.394 794.304C669.394 792.48 670.906 791.16 672.754 791.16C674.65 791.16 676.162 792.384 676.162 794.304ZM680.146 803.376L679.93 801.696C678.25 801.888 675.778 802.056 672.802 802.176C670.33 802.296 667.882 802.32 665.866 802.32L666.202 804.144C667.882 804.12 670.09 804.072 672.466 803.952C675.13 803.808 678.226 803.616 680.146 803.376ZM703.112 799.32C700.664 798.72 698.24 796.656 698.192 793.872H702.632V792.144H691.376V793.872H696.008C695.96 796.656 693.632 799.08 690.8 799.968L691.952 801.576C694.256 800.784 696.44 798.696 697.112 796.824C697.976 798.696 700.232 800.424 702.008 801L703.112 799.32ZM710.504 795.84V794.04H707.36V787.704H705.248V802.944H707.36V795.84H710.504ZM708.08 808.056V806.352H696.2V801.864H694.088V808.056H708.08ZM699.992 790.32V788.616H694.184V790.32H699.992ZM726.038 794.136V800.52H728.174V787.704H726.038V792.408H722.006V794.136H726.038ZM728.342 804.624C728.342 802.128 725.798 800.544 721.262 800.544C716.774 800.544 714.206 802.128 714.206 804.624C714.206 807.12 716.774 808.68 721.262 808.68C725.798 808.68 728.342 807.12 728.342 804.624ZM721.262 802.248C724.382 802.248 726.182 803.16 726.182 804.624C726.182 806.088 724.382 806.976 721.262 806.976C718.19 806.976 716.366 806.088 716.366 804.624C716.366 803.16 718.19 802.248 721.262 802.248ZM722.99 797.472C720.59 796.632 718.046 794.208 718.046 790.896V788.88H715.886V790.992C715.886 794.28 713.654 796.8 710.63 798.096L711.95 799.752C714.206 798.72 716.342 796.68 716.99 794.496C717.83 796.584 719.87 798.288 721.742 799.128L722.99 797.472ZM749.708 805.848V804.12H730.772V805.848H749.708ZM747.812 794.928C747.812 791.712 744.812 789.48 740.228 789.48C735.692 789.48 732.692 791.712 732.692 794.928C732.692 798.168 735.692 800.376 740.228 800.376C744.788 800.376 747.812 798.168 747.812 794.928ZM745.652 794.928C745.652 797.064 743.492 798.504 740.228 798.504C736.988 798.504 734.852 797.064 734.852 794.928C734.852 792.816 736.988 791.352 740.228 791.352C743.516 791.352 745.652 792.816 745.652 794.928ZM769.513 806.016V804.288H761.065V800.976H767.737V799.248H754.969V795.96H767.161V789.432H752.809V791.16H765.049V794.232H752.857V800.976H758.929V804.288H750.577V806.016H769.513ZM791.928 787.704H789.816V808.68H791.928V798.072H795.288V796.296H791.928V787.704ZM786.408 789.936H776.664V791.736H784.128C783.744 796.248 780.696 800.64 775.752 803.016L777.048 804.624C782.784 801.504 786.288 796.608 786.408 789.936ZM90.84 848.56V846.832H78.672V844.744H90.12V839.464H76.392V841.168H87.984V843.16H76.56V848.56H90.84ZM83.64 828.784H74.088V830.56H81.24C80.448 833.776 77.352 836.272 73.032 837.232L74.184 838.912C79.2 837.52 83.28 834.28 83.64 828.784ZM83.88 832.36H87.984V834.544H83.616V836.2H87.984V838.336H90.12V827.704H87.984V830.704H83.88V832.36ZM106.662 843.856L106.518 842.176C105.078 842.368 102.894 842.512 100.686 842.632V838.432H105.294V836.704H96.3416V831.448H105.174V829.72H94.2296V838.432H98.5736V842.704C96.5096 842.776 94.4456 842.8 92.7416 842.8L93.0536 844.6C94.5416 844.6 97.5896 844.528 99.8936 844.408C102.462 844.264 104.91 844.072 106.662 843.856ZM110.07 848.68V827.704H107.958V848.68H110.07ZM115.523 841.792V831.664H123.323V829.912H113.411V843.568H115.763C119.579 843.544 123.179 843.304 125.363 842.848L125.123 841.12C123.011 841.576 119.147 841.792 116.387 841.792H115.523ZM128.723 827.704H126.611V848.68H128.723V837.664H131.987V835.888H128.723V827.704ZM132.473 846.544H134.801V844.192H132.473V846.544Z" fill="#666666"/>
</svg>
