<svg width="862" height="909" viewBox="0 0 862 909" fill="none" xmlns="http://www.w3.org/2000/svg">
<path d="M20 0.5H842C852.77 0.5 861.5 9.23045 861.5 20V889C861.5 899.77 852.77 908.5 842 908.5H20C9.23047 908.5 0.5 899.77 0.5 889V20C0.5 9.23046 9.23045 0.5 20 0.5Z" fill="white" stroke="#E3E3E3"/>
<path opacity="0.56" d="M376.126 50.08C373.006 48.352 370.726 45.208 370.726 40.864V39.736H375.07V37.744H363.718V39.736H368.182V40.864C368.182 45.16 366.046 48.616 362.638 50.512L364.174 52.336C366.766 50.92 368.902 48.088 369.454 45.808C370.126 48.016 372.718 50.752 374.71 51.856L376.126 50.08ZM379.726 35.512H377.254V56.896H379.726V45.952H382.966V43.888H379.726V35.512ZM400.9 43.408V41.416H388.9V38.104H400.732V36.088H386.428V43.408H392.284V45.64H383.884V47.632H403.204V45.64H394.732V43.408H400.9ZM400.972 53.008C400.972 50.656 398.26 49.12 393.532 49.12C388.828 49.12 386.14 50.656 386.14 53.008C386.14 55.408 388.828 56.92 393.556 56.92C398.26 56.92 400.972 55.408 400.972 53.008ZM398.428 53.032C398.428 54.256 396.556 54.928 393.532 54.928C390.532 54.928 388.66 54.256 388.66 53.032C388.66 51.808 390.532 51.088 393.532 51.088C396.556 51.088 398.428 51.808 398.428 53.032ZM429.194 52.672C429.194 50.104 426.458 48.424 421.802 48.424C417.194 48.424 414.434 50.104 414.434 52.672C414.434 55.192 417.194 56.872 421.802 56.872C426.458 56.872 429.194 55.192 429.194 52.672ZM428.978 48.544V35.512H426.626V40.864H424.562V35.896H422.234V47.632H424.562V42.928H426.626V48.544H428.978ZM421.706 45.232C419.714 44.248 417.554 42.184 417.554 39.088V36.832H415.178V39.16C415.178 42.232 413.306 44.632 410.834 46L412.25 47.728C414.122 46.792 415.85 44.824 416.426 43.12C417.002 44.608 419.018 46.384 420.458 47.056L421.706 45.232ZM426.65 52.672C426.65 54.064 424.802 54.904 421.802 54.904C418.802 54.904 416.978 54.064 416.978 52.672C416.978 51.256 418.802 50.44 421.802 50.44C424.802 50.44 426.65 51.256 426.65 52.672ZM449.336 48.088V35.512H446.888V40.024H442.976V42.04H446.888V48.088H449.336ZM449.528 52.672C449.528 50.104 446.888 48.4 442.232 48.4C437.624 48.4 434.984 50.104 434.984 52.672C434.984 55.192 437.624 56.896 442.232 56.896C446.888 56.896 449.528 55.192 449.528 52.672ZM446.984 52.672C446.984 54.064 445.256 54.928 442.232 54.928C439.28 54.928 437.528 54.064 437.528 52.672C437.528 51.256 439.28 50.392 442.232 50.392C445.256 50.392 446.984 51.256 446.984 52.672ZM444.344 45.208C441.92 44.368 439.304 41.896 439.304 38.56V36.52H436.784V38.656C436.784 41.968 434.6 44.536 431.528 45.76L433.016 47.656C435.176 46.816 437.408 44.776 438.056 42.568C438.992 44.632 441.176 46.384 442.928 47.128L444.344 45.208ZM475.542 36.64H461.334V44.272H475.542V36.64ZM469.734 52.288V48.352H478.11V46.36H458.79V48.352H467.286V52.288H469.734ZM475.854 56.272V54.328H463.758V50.224H461.286V56.272H475.854ZM473.07 42.304H463.806V38.608H473.07V42.304ZM497.172 56.896V35.512H494.724V42.88H490.548V44.944H494.724V56.896H497.172ZM492.564 50.2C489.42 48.232 487.284 44.824 487.284 40.72V37.336H484.764V40.864C484.764 44.944 482.676 48.472 479.364 50.632L480.9 52.408C483.204 51.016 485.34 48.328 486.084 45.784C486.852 48.136 489.252 50.872 491.076 52.024L492.564 50.2Z" fill="#2E2E2E"/>
<path d="M2 92H861" stroke="#E3E3E3"/>
<path d="M325.72 140.824V138.168H304.728V140.824H313.528C312.952 144.376 307.896 147.064 303.512 147.512L305.08 150.104C309.272 149.464 313.88 146.872 315.256 144.088C316.696 146.712 321.432 149.4 325.432 149.976L326.904 147.384C322.648 146.936 317.624 144.344 317.048 140.824H325.72ZM316.824 165.496V155.352H328.12V152.728H302.36V155.352H313.56V165.496H316.824ZM352.927 140.824V138.168H331.935V140.824H340.735C340.159 144.376 335.103 147.064 330.719 147.512L332.287 150.104C336.479 149.464 341.087 146.872 342.463 144.088C343.903 146.712 348.639 149.4 352.639 149.976L354.111 147.384C349.855 146.936 344.831 144.344 344.255 140.824H352.927ZM344.031 165.496V155.352H355.327V152.728H329.567V155.352H340.767V165.496H344.031ZM379.559 160.792C379.559 157.912 376.359 155.832 369.639 155.832C362.983 155.832 359.783 157.912 359.783 160.792C359.783 163.704 362.983 165.784 369.671 165.784C376.359 165.784 379.559 163.704 379.559 160.792ZM381.351 147.576C377.191 147.448 372.647 145.816 371.559 143.576H379.943V140.952H359.335V143.576H367.815C366.759 145.848 362.439 147.48 357.863 147.576L359.239 150.232C363.783 149.912 368.071 148.152 369.639 145.656C371.271 148.088 375.783 149.88 380.007 150.232L381.351 147.576ZM382.535 154.616V151.96H371.239V148.664H367.975V151.96H356.775V154.616H382.535ZM376.167 160.792C376.167 162.296 373.703 163.16 369.639 163.16C365.639 163.16 363.143 162.296 363.143 160.792C363.143 159.32 365.639 158.52 369.639 158.52C373.703 158.52 376.167 159.32 376.167 160.792ZM364.967 139.512H374.311V136.952H364.967V139.512ZM402.926 157.592C400.814 157.88 397.806 158.072 394.894 158.2V155.704C398.126 155.256 400.302 153.432 400.302 151C400.302 148.152 397.422 146.168 393.326 146.168C389.294 146.168 386.414 148.152 386.414 151C386.414 153.368 388.494 155.192 391.63 155.672V158.328C389.006 158.392 386.382 158.392 383.95 158.392L384.462 161.112C390.926 161.048 397.23 160.856 403.182 160.152L402.926 157.592ZM407.822 137.016H404.526V165.528H407.822V137.016ZM401.678 145.144V142.584H384.942V145.144H401.678ZM396.942 151C396.942 152.312 395.438 153.24 393.326 153.24C391.31 153.24 389.774 152.312 389.774 151C389.774 149.656 391.31 148.728 393.326 148.728C395.438 148.728 396.942 149.656 396.942 151ZM389.166 141.048H397.454V138.424H389.166V141.048ZM444.044 149.944C439.756 149.144 433.74 145.176 433.74 140.344V138.648H430.316V140.344C430.316 145.24 424.684 149.08 420.012 149.816L421.612 152.472C425.932 151.448 430.668 148.184 431.98 144.632C433.452 148.152 438.092 151.384 442.348 152.472L444.044 149.944ZM444.876 161.944V159.288H433.58V152.28H430.316V159.288H419.116V161.944H444.876ZM469.844 165.176V153.816H466.548V156.92H454.516V153.88H451.188V165.176H469.844ZM447.604 141.176H453.588C453.556 145.4 450.484 148.792 446.516 150.264L448.5 152.824C451.348 151.704 454.42 149.016 455.252 146.168C456.5 148.824 459.284 151.128 461.652 152.056L463.444 149.432C460.148 148.376 457.044 145.336 456.948 141.176H462.644V138.584H447.604V141.176ZM469.812 152.344V137.016H466.516V152.344H469.812ZM466.548 162.52H454.516V159.48H466.548V162.52ZM504.113 149.304V146.744H488.177V144.76H502.897V142.296H488.177V140.44H503.889V137.816H484.881V149.304H492.657V151.608H481.457V154.232H507.217V151.608H495.921V149.304H504.113ZM504.241 160.728C504.241 157.784 501.041 155.736 494.321 155.736C487.665 155.736 484.465 157.784 484.465 160.728C484.465 163.704 487.665 165.752 494.353 165.752C501.041 165.752 504.241 163.704 504.241 160.728ZM500.849 160.728C500.849 162.232 498.385 163.128 494.321 163.128C490.321 163.128 487.825 162.232 487.825 160.728C487.825 159.256 490.321 158.36 494.321 158.36C498.385 158.36 500.849 159.256 500.849 160.728ZM526.489 156.248C522.297 153.976 519.225 149.72 519.225 143.96V142.584H525.017V139.992H509.881V142.584H515.833V143.992C515.833 149.752 512.985 154.264 508.441 156.824L510.521 159.224C513.913 157.432 516.793 153.656 517.529 150.584C518.457 153.528 521.913 157.176 524.569 158.648L526.489 156.248ZM532.153 165.528V137.016H528.889V165.528H532.153ZM559.36 165.528V137.016H556.096V146.84H550.528V149.592H556.096V165.528H559.36ZM553.216 156.6C549.024 153.976 546.176 149.432 546.176 143.96V139.448H542.816V144.152C542.816 149.592 540.032 154.296 535.616 157.176L537.664 159.544C540.736 157.688 543.584 154.104 544.576 150.712C545.6 153.848 548.8 157.496 551.232 159.032L553.216 156.6Z" fill="#2E2E2E"/>
<path d="M91.008 257.936C87.864 257.6 83.856 255.608 83.52 252.944H90.144V251.192H74.664V252.944H81.264C80.952 255.608 77.088 257.672 73.776 258.032L74.784 259.712C78.12 259.184 81.456 257.192 82.368 255.224C83.4 257.12 86.856 259.136 90.048 259.64L91.008 257.936ZM83.4 270.68V263.336H91.848V261.608H72.912V263.336H81.264V270.68H83.4ZM111.414 257.936C108.27 257.6 104.262 255.608 103.926 252.944H110.55V251.192H95.0696V252.944H101.67C101.358 255.608 97.4936 257.672 94.1816 258.032L95.1896 259.712C98.5256 259.184 101.862 257.192 102.774 255.224C103.806 257.12 107.262 259.136 110.454 259.64L111.414 257.936ZM103.806 270.68V263.336H112.254V261.608H93.3176V263.336H101.67V270.68H103.806ZM130.931 270.392V262.568H117.275V270.392H130.931ZM128.795 268.688H119.387V264.248H128.795V268.688ZM128.795 249.704V261.32H130.931V249.704H128.795ZM127.163 258.872C127.043 258.272 126.947 257.696 126.851 257.12C124.211 257.696 119.891 258.008 117.011 258.008V250.832H114.875V259.832C115.715 259.832 116.579 259.808 117.515 259.784C120.443 259.712 124.739 259.4 127.163 258.872ZM149.393 249.704V270.68H151.481V249.704H149.393ZM146.369 256.328C146.369 253.328 143.969 251.384 140.873 251.384C137.801 251.384 135.401 253.424 135.401 256.328C135.401 259.16 137.777 261.104 140.873 261.104C143.921 261.104 146.369 259.232 146.369 256.328ZM144.281 256.304C144.281 258.128 142.697 259.328 140.873 259.328C139.025 259.328 137.513 258.104 137.513 256.304C137.513 254.48 139.025 253.16 140.873 253.16C142.769 253.16 144.281 254.384 144.281 256.304ZM148.265 265.376L148.049 263.696C146.369 263.888 143.897 264.056 140.921 264.176C138.449 264.296 136.001 264.32 133.985 264.32L134.321 266.144C136.001 266.12 138.209 266.072 140.585 265.952C143.249 265.808 146.345 265.616 148.265 265.376ZM178.167 270.152V268.424H166.119V263.528H163.983V270.152H178.167ZM175.551 257.912V264.944H177.687V249.704H175.551V256.16H171.183V257.912H175.551ZM161.607 251.36V253.112H168.687C168.087 256.784 164.943 259.784 160.599 260.864L161.679 262.592C167.175 260.984 170.823 257.072 171.015 251.36H161.607ZM198.885 256.496C195.813 256.256 191.445 253.928 191.445 250.904V250.28H189.261V250.904C189.261 253.928 185.205 256.112 181.869 256.472L182.805 258.152C185.949 257.6 189.381 255.704 190.341 253.448C191.397 255.68 194.901 257.648 197.901 258.176L198.885 256.496ZM199.821 261.512V259.76H180.885V261.512H199.821ZM197.589 266.888C197.589 264.488 194.949 263.144 190.341 263.144C185.757 263.144 183.117 264.56 183.117 266.888C183.117 269.24 185.757 270.656 190.341 270.656C194.949 270.656 197.589 269.264 197.589 266.888ZM195.429 266.888C195.429 268.208 193.485 268.928 190.341 268.928C187.245 268.928 185.301 268.208 185.301 266.888C185.301 265.616 187.245 264.848 190.341 264.848C193.485 264.848 195.429 265.616 195.429 266.888ZM220.826 260.24V258.488H217.61V249.704H215.498V270.68H217.61V260.24H220.826ZM214.37 265.544L214.106 263.888C212.33 264.152 210.05 264.296 207.386 264.416V257.84H205.322V264.488C203.786 264.536 202.082 264.536 200.81 264.536L201.122 266.312C202.826 266.312 205.034 266.264 207.146 266.168C209.306 266.048 212.378 265.832 214.37 265.544ZM213.002 251.816H202.058V253.544H210.866C210.866 256.328 210.674 259.376 210.266 261.176L212.306 261.44C212.786 259.376 213.002 255.608 213.002 251.816ZM246.961 256.016V254.264H243.841V249.704H241.705V260.552H243.841V256.016H246.961ZM244.585 270.536V268.808H232.609V266.792H243.841V261.68H230.329V263.408H241.705V265.184H230.497V270.536H244.585ZM238.225 259.856V250.496H236.113V253.448H230.425V250.52H228.313V259.856H238.225ZM236.113 258.152H230.425V255.152H236.113V258.152ZM248.622 253.256H253.254V254.288C253.254 257.216 250.71 260.096 247.998 261.08L249.246 262.76C251.43 261.872 253.686 259.616 254.358 257.6C255.222 259.52 257.262 261.416 259.134 262.16L260.31 260.456C257.934 259.736 255.414 257.216 255.414 254.24V253.256H259.926V251.504H248.622V253.256ZM265.254 265.016V249.704H263.118V255.416H259.086V257.144H263.118V265.016H265.254ZM265.71 270.032V268.304H253.566V263.528H251.454V270.032H265.71ZM287.388 260.384V258.656H268.452V260.384H287.388ZM285.804 270.536V268.784H272.724V266.984H285.012V262.16H270.564V263.888H282.9V265.4H270.612V270.536H285.804ZM285.204 253.712C285.204 251.336 282.492 249.992 277.932 249.992C273.42 249.992 270.708 251.336 270.708 253.712C270.708 256.064 273.42 257.408 277.932 257.408C282.492 257.408 285.204 256.064 285.204 253.712ZM277.932 251.696C281.052 251.696 283.02 252.512 283.02 253.712C283.02 254.888 281.052 255.704 277.932 255.704C274.86 255.704 272.916 254.888 272.916 253.712C272.916 252.512 274.86 251.696 277.932 251.696ZM312.01 270.68V249.704H309.874V270.68H312.01ZM305.866 251.936H295.762V253.736H303.562C303.178 258.248 299.77 262.64 294.826 265.016L296.122 266.624C301.858 263.504 305.746 258.608 305.866 251.936ZM327.448 254.6C327.448 252.224 325.12 250.688 321.88 250.688C318.664 250.688 316.312 252.224 316.312 254.576C316.312 257 318.664 258.464 321.88 258.464C325.12 258.464 327.448 256.976 327.448 254.6ZM332.56 265.832V249.704H330.472V262.016H326.344V263.6H330.472V265.832H332.56ZM332.968 270.152V268.424H319.864V264.032H317.752V270.152H332.968ZM323.128 264.92V261.08C325.216 260.96 327.4 260.792 328.792 260.576L328.648 258.992C326.68 259.208 324.616 259.352 321.928 259.472C319.624 259.568 317.368 259.592 314.944 259.592L315.28 261.344C317.128 261.296 318.952 261.272 320.992 261.2V264.92H323.128ZM325.168 254.6C325.168 255.848 323.872 256.76 321.88 256.76C319.888 256.76 318.592 255.848 318.592 254.6C318.592 253.352 319.888 252.392 321.88 252.392C323.872 252.392 325.168 253.352 325.168 254.6ZM354.934 257.384V255.608H351.814V249.704H349.702V261.824H351.814V257.384H354.934ZM351.814 270.464V262.856H349.702V264.944H340.606V262.88H338.494V270.464H351.814ZM349.702 268.76H340.606V266.624H349.702V268.76ZM344.59 251.576V249.896H338.638V251.576H344.59ZM347.686 254.528V252.872H335.494V254.528H347.686ZM346.558 258.776C346.558 256.736 344.59 255.392 341.686 255.392C338.782 255.392 336.838 256.736 336.838 258.776C336.838 260.792 338.782 262.136 341.686 262.136C344.59 262.136 346.558 260.768 346.558 258.776ZM344.446 258.776C344.446 259.832 343.15 260.528 341.686 260.528C340.222 260.528 338.926 259.832 338.926 258.776C338.926 257.696 340.198 257 341.686 257C343.15 257 344.446 257.696 344.446 258.776ZM373.203 249.704H371.091V270.68H373.203V249.704ZM369.123 262.76C366.699 263.336 362.163 263.672 359.403 263.672V251.888H357.267V265.496H359.235C362.211 265.448 366.939 265.088 369.387 264.488L369.123 262.76ZM379.425 263.792V253.664H387.225V251.912H377.313V265.568H379.665C383.481 265.544 387.081 265.304 389.265 264.848L389.025 263.12C386.913 263.576 383.049 263.792 380.289 263.792H379.425ZM392.625 249.704H390.513V270.68H392.625V259.664H395.889V257.888H392.625V249.704ZM396.974 268.544H399.302V266.192H396.974V268.544ZM75.72 298.992V293.04H83.136V291.336H73.632V300.768H75.744C79.44 300.768 82.92 300.504 85.128 300.048L84.84 298.344C82.8 298.8 79.536 298.992 76.656 298.992H75.72ZM92.232 296.832V295.08H89.112V289.704H86.976V302.16H89.112V296.832H92.232ZM89.376 306.552C89.376 304.104 86.88 302.448 82.344 302.448C77.808 302.448 75.336 304.08 75.336 306.552C75.336 309 77.808 310.632 82.344 310.632C86.88 310.632 89.376 308.976 89.376 306.552ZM87.192 306.552C87.192 307.992 85.368 308.88 82.344 308.88C79.32 308.88 77.52 307.992 77.52 306.552C77.52 305.136 79.32 304.2 82.344 304.2C85.368 304.2 87.192 305.112 87.192 306.552ZM112.782 299.808V298.056H109.518V289.704H107.406V310.68H109.518V299.808H112.782ZM105.678 303.984C102.726 302.16 100.374 298.848 100.374 294.912V291.504H98.1896V295.008C98.1896 298.872 95.9576 302.52 92.7896 304.512L94.1096 306.096C96.4856 304.512 98.5736 301.848 99.2936 299.304C100.086 301.728 102.534 304.344 104.406 305.568L105.678 303.984ZM132.659 302.112V300.384H113.723V302.112H132.659ZM130.667 310.224V308.472H118.355V304.008H116.243V310.224H130.667ZM130.571 297.912V296.184H118.427V290.568H116.315V297.912H130.571ZM151.978 299.16C149.578 298.344 147.01 295.92 147.01 292.608V290.688H144.85V292.68C144.85 295.992 142.642 298.512 139.642 299.784L140.938 301.464C143.218 300.384 145.354 298.416 145.978 296.208C146.866 298.248 148.834 299.976 150.73 300.84L151.978 299.16ZM156.562 306.576C156.562 304.056 153.922 302.472 149.482 302.472C145.042 302.472 142.402 304.056 142.402 306.576C142.402 309.12 145.042 310.68 149.482 310.68C153.922 310.68 156.562 309.12 156.562 306.576ZM149.482 304.224C152.506 304.224 154.378 305.088 154.378 306.576C154.378 308.064 152.506 308.952 149.482 308.952C146.458 308.952 144.61 308.064 144.61 306.576C144.61 305.088 146.458 304.224 149.482 304.224ZM159.394 296.952V295.2H156.274V289.704H154.138V302.496H156.274V296.952H159.394ZM175.551 296.304V301.128H177.687V289.704H175.551V294.504H172.167V296.304H175.551ZM177.711 310.416V302.136H175.551V304.608H166.311V302.208H164.175V310.416H177.711ZM175.551 308.712H166.311V306.264H175.551V308.712ZM171.063 300.6V290.88H168.951V294H163.455V290.904H161.319V300.6H171.063ZM168.951 298.872H163.455V295.704H168.951V298.872ZM197.534 304.344C195.254 302.952 193.07 300.096 193.07 295.8V293.904H196.934V292.2H186.902V293.904H190.982V295.872C190.982 299.976 189.062 303.144 186.446 304.824L187.79 306.288C189.71 304.992 191.558 302.616 192.014 300.408C192.59 302.496 194.798 304.896 196.262 305.856L197.534 304.344ZM200.39 309.648V290.184H198.374V297.24H195.254V298.992H198.374V309.648H200.39ZM204.542 310.68V289.704H202.502V310.68H204.542ZM217.884 308.232C221.484 308.232 223.764 306.288 223.764 303.432C223.764 300.936 222.228 299.76 220.14 299.376C221.964 298.752 223.188 297.552 223.188 295.608C223.188 293.04 221.22 291.576 218.292 291.576C216.852 291.576 214.98 292.152 213.996 292.776L214.308 294.456C215.292 293.904 216.54 293.352 217.836 293.352C219.756 293.352 221.004 294.024 221.004 295.944C221.004 297.672 219.612 298.68 217.572 298.704H216.156V300.456H217.716C220.092 300.456 221.604 301.392 221.604 303.384C221.604 305.376 220.164 306.504 217.596 306.504C216.396 306.504 214.764 306.048 213.876 305.448L213.444 307.08C214.356 307.704 215.988 308.232 217.884 308.232ZM231.735 308.28C235.071 308.28 237.015 305.88 237.015 302.784C237.015 299.736 234.903 297.864 232.167 297.864C230.415 297.864 229.095 298.68 228.231 299.544C228.447 294.696 230.007 293.352 232.695 293.352C233.727 293.352 235.119 293.736 235.743 294.096L236.271 292.536C235.623 292.128 234.111 291.576 232.479 291.576C228.735 291.576 226.095 294.024 226.095 299.808V301.056C226.095 305.616 228.039 308.28 231.735 308.28ZM231.687 306.576C229.191 306.576 228.231 304.656 228.231 301.704V301.536C228.879 300.624 230.223 299.592 231.711 299.592C233.583 299.592 234.927 300.528 234.927 303C234.927 305.256 233.703 306.576 231.687 306.576ZM243.078 308.28C246.63 308.28 248.79 305.856 248.79 302.952C248.79 299.544 246.798 297.96 243.558 297.96C242.862 297.96 241.926 298.128 241.302 298.296L241.614 293.592H248.166V291.84H239.934L239.358 300.384C240.102 300.048 241.614 299.592 242.718 299.592C245.166 299.592 246.606 300.528 246.606 302.904C246.606 305.136 245.118 306.528 242.622 306.528C241.326 306.528 239.814 305.976 238.926 305.4L238.518 307.08C239.502 307.752 241.206 308.28 243.078 308.28ZM267.797 293.472V291.768H251.957V293.472H258.749V293.736C258.749 297.168 254.381 300.048 251.093 300.552L252.149 302.304C255.413 301.488 258.941 299.112 259.853 296.616C260.933 299.064 264.365 301.44 267.605 302.304L268.661 300.624C265.517 300.048 260.981 297.12 260.981 293.736V293.472H267.797ZM269.333 308.016V306.288H260.885V301.368H258.749V306.288H250.397V308.016H269.333ZM279.555 298.992V293.04H286.971V291.336H277.467V300.768H279.579C283.275 300.768 286.755 300.504 288.963 300.048L288.675 298.344C286.635 298.8 283.371 298.992 280.491 298.992H279.555ZM296.067 296.832V295.08H292.947V289.704H290.811V302.16H292.947V296.832H296.067ZM293.211 306.552C293.211 304.104 290.715 302.448 286.179 302.448C281.643 302.448 279.171 304.08 279.171 306.552C279.171 309 281.643 310.632 286.179 310.632C290.715 310.632 293.211 308.976 293.211 306.552ZM291.027 306.552C291.027 307.992 289.203 308.88 286.179 308.88C283.155 308.88 281.355 307.992 281.355 306.552C281.355 305.136 283.155 304.2 286.179 304.2C289.203 304.2 291.027 305.112 291.027 306.552ZM316.617 299.808V298.056H313.353V289.704H311.241V310.68H313.353V299.808H316.617ZM309.513 303.984C306.561 302.16 304.209 298.848 304.209 294.912V291.504H302.025V295.008C302.025 298.872 299.793 302.52 296.625 304.512L297.945 306.096C300.321 304.512 302.409 301.848 303.129 299.304C303.921 301.728 306.369 304.344 308.241 305.568L309.513 303.984ZM340.831 306.624C340.831 304.128 338.287 302.544 333.751 302.544C329.263 302.544 326.695 304.128 326.695 306.624C326.695 309.144 329.263 310.68 333.751 310.68C338.287 310.68 340.831 309.144 340.831 306.624ZM323.983 293.136H328.711V293.88C328.711 296.808 326.071 299.544 323.335 300.528L324.535 302.208C326.695 301.32 329.143 299.112 329.815 297.12C330.679 299.016 332.839 300.864 334.711 301.608L335.887 299.904C333.511 299.184 330.871 296.808 330.871 293.832V293.136H335.455V291.408H323.983V293.136ZM333.751 304.296C336.871 304.296 338.671 305.16 338.671 306.624C338.671 308.088 336.871 308.952 333.751 308.952C330.679 308.952 328.855 308.088 328.855 306.624C328.855 305.16 330.679 304.296 333.751 304.296ZM338.575 296.736V302.712H340.711V289.704H338.575V294.984H334.663V296.736H338.575ZM363.325 298.08V296.304H360.205V289.704H358.117V305.4H360.205V298.08H363.325ZM360.949 310.152V308.424H348.949V304.032H346.837V310.152H360.949ZM356.941 301.632L356.701 300C355.093 300.24 352.357 300.456 350.005 300.528V296.088H347.893V300.576C346.381 300.624 344.677 300.624 343.477 300.624L343.789 302.4C345.373 302.4 347.989 302.352 350.245 302.232C352.285 302.16 355.189 301.896 356.941 301.632ZM355.237 291.288H344.917V293.016H353.101C353.101 295.224 352.957 297 352.573 298.296L354.637 298.632C355.093 296.928 355.237 294.696 355.237 291.288ZM369.306 291.36C366.186 291.36 364.698 294.504 364.698 298.68C364.698 302.88 366.186 306.072 369.306 306.072C372.21 306.072 373.722 303.36 373.914 299.64H375.954V309.696H377.97V290.112H375.954V297.888H373.914C373.746 294.12 372.234 291.36 369.306 291.36ZM371.85 298.704C371.85 301.992 371.01 304.248 369.306 304.248C367.65 304.248 366.786 301.992 366.786 298.704C366.786 295.44 367.65 293.16 369.306 293.16C371.01 293.16 371.85 295.44 371.85 298.704ZM382.026 310.68V289.704H380.01V310.68H382.026ZM405.929 289.704V310.68H408.017V289.704H405.929ZM402.905 296.328C402.905 293.328 400.505 291.384 397.409 291.384C394.337 291.384 391.937 293.424 391.937 296.328C391.937 299.16 394.313 301.104 397.409 301.104C400.457 301.104 402.905 299.232 402.905 296.328ZM400.817 296.304C400.817 298.128 399.233 299.328 397.409 299.328C395.561 299.328 394.049 298.104 394.049 296.304C394.049 294.48 395.561 293.16 397.409 293.16C399.305 293.16 400.817 294.384 400.817 296.304ZM404.801 305.376L404.585 303.696C402.905 303.888 400.433 304.056 397.457 304.176C394.985 304.296 392.537 304.32 390.521 304.32L390.857 306.144C392.537 306.12 394.745 306.072 397.121 305.952C399.785 305.808 402.881 305.616 404.801 305.376ZM426.142 299.88V310.68H428.254V289.704H426.142V298.104H421.63V299.88H426.142ZM421.582 291.936H411.958V293.736H419.326C418.942 298.248 415.894 302.688 410.902 305.04L412.222 306.672C417.934 303.552 421.438 298.608 421.582 291.936ZM440.42 303.792V293.664H448.22V291.912H438.308V305.568H440.66C444.476 305.544 448.076 305.304 450.26 304.848L450.02 303.12C447.908 303.576 444.044 303.792 441.284 303.792H440.42ZM453.62 289.704H451.508V310.68H453.62V299.664H456.884V297.888H453.62V289.704ZM476.762 301.464V299.736H457.826V301.464H476.762ZM474.458 310.392V303.504H460.13V310.392H474.458ZM472.346 308.712H462.266V305.184H472.346V308.712ZM474.506 294.216C474.506 291.816 471.866 290.232 467.282 290.232C462.722 290.232 460.082 291.816 460.082 294.216C460.082 296.616 462.722 298.224 467.282 298.224C471.866 298.224 474.506 296.616 474.506 294.216ZM472.298 294.216C472.298 295.584 470.33 296.496 467.282 296.496C464.21 296.496 462.314 295.584 462.314 294.216C462.314 292.848 464.21 291.936 467.282 291.936C470.378 291.936 472.298 292.848 472.298 294.216ZM497.768 300.24V298.488H494.552V289.704H492.44V310.68H494.552V300.24H497.768ZM491.312 305.544L491.048 303.888C489.272 304.152 486.992 304.296 484.328 304.416V297.84H482.264V304.488C480.728 304.536 479.024 304.536 477.752 304.536L478.064 306.312C479.768 306.312 481.976 306.264 484.088 306.168C486.248 306.048 489.32 305.832 491.312 305.544ZM489.944 291.816H479V293.544H487.808C487.808 296.328 487.616 299.376 487.208 301.176L489.248 301.44C489.728 299.376 489.944 295.608 489.944 291.816ZM523.902 296.52V294.768H520.782V289.704H518.646V300.984H520.782V296.52H523.902ZM521.358 310.416V308.832H509.622V306.984H520.47V305.4H509.622V303.672H520.902V302.064H507.51V310.416H521.358ZM505.374 290.976V292.752H512.598C511.974 296.088 508.422 299.184 504.366 299.904L505.446 301.656C510.39 300.36 514.758 296.712 514.95 290.976H505.374ZM542.292 310.68V289.704H540.156V310.68H542.292ZM525.732 298.68C525.732 302.856 527.412 306.12 531.132 306.12C534.852 306.12 536.508 302.856 536.508 298.704C536.508 294.528 534.852 291.288 531.132 291.288C527.412 291.288 525.732 294.528 525.732 298.68ZM534.396 298.704C534.396 301.944 533.292 304.272 531.132 304.272C528.996 304.272 527.892 301.944 527.892 298.704C527.892 295.464 528.996 293.112 531.132 293.112C533.292 293.112 534.396 295.464 534.396 298.704ZM568.666 306.624C568.666 304.128 566.122 302.544 561.586 302.544C557.098 302.544 554.53 304.128 554.53 306.624C554.53 309.144 557.098 310.68 561.586 310.68C566.122 310.68 568.666 309.144 568.666 306.624ZM551.818 293.136H556.546V293.88C556.546 296.808 553.906 299.544 551.17 300.528L552.37 302.208C554.53 301.32 556.978 299.112 557.65 297.12C558.514 299.016 560.674 300.864 562.546 301.608L563.722 299.904C561.346 299.184 558.706 296.808 558.706 293.832V293.136H563.29V291.408H551.818V293.136ZM561.586 304.296C564.706 304.296 566.506 305.16 566.506 306.624C566.506 308.088 564.706 308.952 561.586 308.952C558.514 308.952 556.69 308.088 556.69 306.624C556.69 305.16 558.514 304.296 561.586 304.296ZM566.41 296.736V302.712H568.546V289.704H566.41V294.984H562.498V296.736H566.41ZM588.952 310.68V289.704H586.816V310.68H588.952ZM582.808 291.936H572.704V293.736H580.504C580.12 298.248 576.712 302.64 571.768 305.016L573.064 306.624C578.8 303.504 582.688 298.608 582.808 291.936ZM616.19 297.936C613.046 297.6 609.038 295.608 608.702 292.944H615.326V291.192H599.846V292.944H606.446C606.134 295.608 602.27 297.672 598.958 298.032L599.966 299.712C603.302 299.184 606.638 297.192 607.55 295.224C608.582 297.12 612.038 299.136 615.23 299.64L616.19 297.936ZM608.582 310.68V303.336H617.03V301.608H598.094V303.336H606.446V310.68H608.582ZM636.596 297.936C633.452 297.6 629.444 295.608 629.108 292.944H635.732V291.192H620.252V292.944H626.852C626.54 295.608 622.676 297.672 619.364 298.032L620.372 299.712C623.708 299.184 627.044 297.192 627.956 295.224C628.988 297.12 632.444 299.136 635.636 299.64L636.596 297.936ZM628.988 310.68V303.336H637.436V301.608H618.5V303.336H626.852V310.68H628.988ZM655.609 307.176C655.609 304.896 653.185 303.528 648.361 303.528C643.561 303.528 641.137 304.968 641.137 307.176C641.137 309.408 643.561 310.824 648.361 310.824C653.185 310.824 655.609 309.432 655.609 307.176ZM656.905 297.792C653.881 297.624 650.281 296.376 649.561 294.504H655.873V292.824H640.849V294.504H647.209C646.513 296.376 643.153 297.624 639.817 297.792L640.753 299.544C644.017 299.232 647.233 297.864 648.361 295.992C649.513 297.84 652.945 299.208 656.017 299.544L656.905 297.792ZM657.841 302.568V300.84H649.393V298.176H647.257V300.84H638.905V302.568H657.841ZM648.361 305.28C651.505 305.28 653.449 305.976 653.449 307.176C653.449 308.4 651.505 309.072 648.361 309.072C645.265 309.072 643.321 308.4 643.321 307.176C643.321 305.976 645.265 305.28 648.361 305.28ZM651.745 291.624V289.92H644.953V291.624H651.745ZM673.447 306.672L673.255 304.992C671.815 305.184 669.511 305.352 667.279 305.448V303.672C669.727 303.384 671.359 302.04 671.359 300.168C671.359 298.008 669.271 296.64 666.271 296.64C663.319 296.64 661.207 298.032 661.207 300.168C661.207 302.016 662.791 303.336 665.167 303.648V305.568C663.103 305.664 661.063 305.712 659.335 305.712L659.695 307.488C661.447 307.488 663.991 307.368 666.295 307.272C668.863 307.128 671.671 306.888 673.447 306.672ZM676.663 310.68V289.704H674.551V310.68H676.663ZM672.583 295.56V293.856H660.079V295.56H672.583ZM669.151 300.168C669.151 301.2 667.951 302.016 666.271 302.016C664.615 302.016 663.439 301.2 663.439 300.168C663.439 299.112 664.615 298.32 666.271 298.32C667.951 298.32 669.151 299.112 669.151 300.168ZM669.199 292.416V290.712H663.127V292.416H669.199ZM698.652 301.032V299.4H679.716V301.032H698.652ZM697.14 310.296V308.688H683.988V307.152H696.468V302.496H681.876V304.104H694.356V305.664H681.876V310.296H697.14ZM696.78 297.912V296.328H684.228V294.912H696.348V290.424H682.116V292.008H694.236V293.472H682.092V297.912H696.78ZM723.779 310.68V289.704H721.739V297.792H719.267V290.184H717.275V309.648H719.267V299.52H721.739V310.68H723.779ZM714.923 292.272H706.667V294.024H712.811C712.451 298.296 710.075 302.328 705.731 304.848L707.195 306.408C712.307 302.976 714.851 298.488 714.923 292.272ZM727.456 295.8H732.328C732.232 298.128 729.64 300.264 726.736 300.984L727.816 302.712C730.288 301.992 732.736 300.144 733.432 298.32C734.368 300.12 736.576 301.512 738.832 302.208L739.888 300.504C737.344 300.024 734.56 298.08 734.44 295.8H739.288V294.048H727.456V295.8ZM743.848 310.68V289.704H741.736V310.68H743.848ZM740.704 306.144L740.512 304.464C739.096 304.656 736.72 304.8 734.464 304.92V301.08H732.352V305.016C730.264 305.088 728.224 305.112 726.496 305.112L726.856 306.888C728.608 306.912 731.152 306.84 733.456 306.696C736.024 306.576 738.904 306.36 740.704 306.144ZM730.528 292.176H736.312V290.4H730.528V292.176ZM766.414 300.216V298.44H763.078V289.704H760.942V310.68H763.078V300.216H766.414ZM756.142 292.8V291.072H749.878V292.8H756.142ZM759.19 296.4V294.696H746.758V296.4H759.19ZM758.014 302.016C758.014 299.496 756.046 297.576 753.07 297.576C750.094 297.576 748.102 299.544 748.102 302.016C748.102 304.536 750.094 306.408 753.07 306.408C756.046 306.408 758.014 304.488 758.014 302.016ZM755.926 302.016C755.926 303.552 754.798 304.632 753.07 304.632C751.414 304.632 750.238 303.552 750.238 302.016C750.238 300.456 751.438 299.352 753.07 299.352C754.702 299.352 755.926 300.456 755.926 302.016ZM784.564 296.832C784.564 293.328 781.468 291 776.74 291C772.06 291 768.94 293.328 768.94 296.832C768.94 300.096 771.58 302.304 775.66 302.64V306.216H767.284V307.968H786.22V306.216H777.796V302.664C781.9 302.352 784.564 300.096 784.564 296.832ZM782.38 296.832C782.38 299.232 780.124 300.888 776.74 300.888C773.356 300.888 771.124 299.232 771.124 296.832C771.124 294.456 773.356 292.776 776.74 292.776C780.148 292.776 782.38 294.456 782.38 296.832ZM804.873 289.704H802.761V310.68H804.873V289.704ZM800.793 302.76C798.369 303.336 793.833 303.672 791.073 303.672V291.888H788.937V305.496H790.905C793.881 305.448 798.609 305.088 801.057 304.488L800.793 302.76ZM89.112 350.392V343.288H75.696V350.392H89.112ZM84.864 340.24C82.56 339.664 80.304 337.912 79.992 335.392H84.456V333.664H73.152V335.392H77.736C77.448 337.984 75.216 340.048 72.552 340.888L73.704 342.496C76.008 341.704 78.168 339.76 78.864 337.864C79.8 339.76 81.984 341.344 83.76 341.92L84.864 340.24ZM87 348.712H77.832V344.992H87V348.712ZM92.232 336.952V335.2H89.112V329.704H87V342.184H89.112V336.952H92.232ZM81.768 331.984V330.256H75.936V331.984H81.768ZM108.39 336.088V341.992H110.526V329.704H108.39V334.36H104.334V336.088H108.39ZM110.526 350.704V343.072H96.4856V344.776H108.39V350.704H110.526ZM105.438 339.184C103.062 338.344 100.494 335.92 100.494 332.608V330.664H98.3096V332.704C98.3096 335.992 96.0776 338.56 93.1016 339.808L94.4216 341.464C96.8216 340.264 98.8136 338.368 99.4376 336.208C100.326 338.272 102.318 340 104.214 340.84L105.438 339.184ZM133.259 340.216V338.44H129.923V329.704H127.787V350.68H129.923V340.216H133.259ZM122.987 332.8V331.072H116.723V332.8H122.987ZM126.035 336.4V334.696H113.603V336.4H126.035ZM124.859 342.016C124.859 339.496 122.891 337.576 119.915 337.576C116.939 337.576 114.947 339.544 114.947 342.016C114.947 344.536 116.939 346.408 119.915 346.408C122.891 346.408 124.859 344.488 124.859 342.016ZM122.771 342.016C122.771 343.552 121.643 344.632 119.915 344.632C118.259 344.632 117.083 343.552 117.083 342.016C117.083 340.456 118.283 339.352 119.915 339.352C121.547 339.352 122.771 340.456 122.771 342.016ZM149.201 335.944V341.08H145.361L145.337 342.856H149.201V350.68H151.313V329.704H149.201V334.144H145.337L145.361 335.944H149.201ZM134.273 338.608C134.273 342.76 135.905 346.024 139.505 346.024C143.129 346.024 144.713 342.76 144.713 338.632C144.713 334.456 143.129 331.192 139.505 331.192C135.905 331.192 134.273 334.456 134.273 338.608ZM142.673 338.632C142.673 341.848 141.593 344.2 139.505 344.2C137.441 344.2 136.385 341.848 136.385 338.632C136.385 335.368 137.441 333.016 139.505 333.016C141.593 333.016 142.673 335.368 142.673 338.632ZM178.575 337.936C175.431 337.6 171.423 335.608 171.087 332.944H177.711V331.192H162.231V332.944H168.831C168.519 335.608 164.655 337.672 161.343 338.032L162.351 339.712C165.687 339.184 169.023 337.192 169.935 335.224C170.967 337.12 174.423 339.136 177.615 339.64L178.575 337.936ZM170.967 350.68V343.336H179.415V341.608H160.479V343.336H168.831V350.68H170.967ZM198.237 350.68V329.704H196.125V350.68H198.237ZM193.629 344.056C190.725 342.376 188.373 338.968 188.373 335.032V331.552H186.165V335.128C186.165 338.992 183.933 342.64 180.789 344.632L182.109 346.192C184.485 344.632 186.549 341.968 187.293 339.4C188.061 341.848 190.485 344.344 192.357 345.64L193.629 344.056ZM218.498 350.68V329.704H216.362V350.68H218.498ZM212.354 331.936H202.25V333.736H210.05C209.666 338.248 206.258 342.64 201.314 345.016L202.61 346.624C208.346 343.504 212.234 338.608 212.354 331.936ZM247.177 339.688V337.912H243.841V329.704H241.729V350.68H243.841V339.688H247.177ZM238.153 345.472V331.456H236.017V336.712H230.401V331.48H228.313V345.472H238.153ZM236.017 343.768H230.401V338.416H236.017V343.768ZM267.366 336.496V334.744H264.246V329.704H262.134V341.248H264.246V336.496H267.366ZM264.246 350.392V342.376H262.134V344.728H253.062V342.424H250.95V350.392H264.246ZM262.134 348.688H253.062V346.432H262.134V348.688ZM260.334 340.12L260.07 338.44C257.838 338.92 253.878 339.088 251.382 339.088H250.974V336.424H258.222V330.688H248.79V332.392H256.086V334.768H248.838V340.84H251.334C254.238 340.84 258.294 340.528 260.334 340.12ZM285.636 329.704H283.524V350.68H285.636V329.704ZM281.556 342.76C279.132 343.336 274.596 343.672 271.836 343.672V331.888H269.7V345.496H271.668C274.644 345.448 279.372 345.088 281.82 344.488L281.556 342.76ZM291.858 343.792V333.664H299.658V331.912H289.746V345.568H292.098C295.914 345.544 299.514 345.304 301.698 344.848L301.458 343.12C299.346 343.576 295.482 343.792 292.722 343.792H291.858ZM305.058 329.704H302.946V350.68H305.058V339.664H308.322V337.888H305.058V329.704ZM309.407 348.544H311.735V346.192H309.407V348.544Z" fill="#666666"/>
<path d="M83.6304 419.176C83.6304 416.272 81.3024 414.28 78.1824 414.28C75.0624 414.28 72.7344 416.32 72.7344 419.176C72.7344 422.08 75.1584 423.88 78.1824 423.88C81.3024 423.88 83.6304 422.008 83.6304 419.176ZM81.2064 419.152C81.2064 420.616 80.0064 421.84 78.1824 421.84C76.4544 421.84 75.1584 420.712 75.1584 419.152C75.1584 417.568 76.5264 416.32 78.1824 416.32C80.0544 416.32 81.2064 417.544 81.2064 419.152ZM90.4464 434.728V432.784H78.3024V430.96H89.7504V425.392H75.7344V427.384H87.3024V429.136H75.8304V434.728H90.4464ZM89.7264 424.288V413.512H87.2784V424.288H89.7264ZM110.156 434.896V413.512H107.708V434.896H110.156ZM105.572 428.104C102.452 426.136 100.46 422.824 100.46 418.72V415.36H97.916V418.864C97.916 422.944 95.804 426.472 92.492 428.632L94.004 430.432C96.356 429.016 98.492 426.328 99.212 423.784C100.004 426.136 102.284 428.776 104.108 429.952L105.572 428.104Z" fill="#2E2E2E"/>
<path d="M84.9584 552.92C83.5424 553.088 81.7424 553.232 79.6064 553.376V551.504C81.8624 551.096 83.3504 549.728 83.3504 547.976C83.3504 545.864 81.2144 544.376 78.1664 544.376C75.1424 544.376 72.9824 545.864 72.9824 547.976C72.9824 549.824 74.6624 551.24 77.1344 551.552V553.472C75.1424 553.544 73.1984 553.544 71.3744 553.544L71.7104 555.584C76.1744 555.56 80.8064 555.392 85.1504 554.816L84.9584 552.92ZM88.6544 537.512H86.2064V558.896H88.6544V548.648H91.7024V546.608H88.6544V537.512ZM84.2864 543.608V541.688H71.9264V543.608H84.2864ZM80.8064 547.976C80.8064 548.96 79.7024 549.656 78.1664 549.656C76.6544 549.656 75.5264 548.96 75.5264 547.976C75.5264 546.992 76.6544 546.272 78.1664 546.272C79.7024 546.272 80.8064 546.992 80.8064 547.976ZM75.0224 540.488H81.2624V538.568H75.0224V540.488ZM104.62 544.304C104.62 541.304 102.196 539.192 99.0281 539.192C95.9321 539.192 93.5561 541.352 93.5561 544.304C93.5561 547.208 95.9081 549.176 99.0281 549.176C102.172 549.176 104.62 547.256 104.62 544.304ZM102.148 544.28C102.148 545.984 100.708 547.088 99.0281 547.088C97.3961 547.088 95.9561 545.984 95.9561 544.28C95.9561 542.504 97.3721 541.304 99.0281 541.304C100.756 541.304 102.148 542.432 102.148 544.28ZM110.164 537.512H107.716V558.896H110.164V537.512ZM106.516 551.456C104.668 551.648 102.268 551.816 99.2201 551.936C96.7241 552.08 94.3961 552.08 92.1161 552.056L92.5001 554.168C97.5161 554.144 102.124 553.928 106.708 553.424L106.516 551.456ZM135.386 545.504V538.064H121.202V545.504H127.034V547.784H118.634V549.776H137.954V547.784H129.482V545.504H135.386ZM120.89 551.72V553.712H133.01V558.968H135.458V551.72H120.89ZM132.914 543.536H123.674V540.056H132.914V543.536ZM139.784 540.92H144.224V541.28C144.224 544.424 141.944 546.992 138.944 548.12L140.432 550.04C142.568 549.224 144.872 547.136 145.496 545.048C146.408 547.016 148.496 548.72 150.248 549.416L151.616 547.472C149.12 546.68 146.768 544.376 146.768 541.184V540.92H151.016V538.88H139.784V540.92ZM142.256 551.216V553.184H154.232V558.92H156.68V551.216H142.256ZM156.656 550.112V537.512H154.208V542.84H150.728V544.88H154.208V550.112H156.656ZM181.998 537.512H179.526V558.896H181.998V547.928H185.214V545.864H181.998V537.512ZM178.182 551.816C175.038 549.848 172.854 546.44 172.854 542.336V539.36H170.334V542.48C170.334 546.56 168.222 550.088 164.886 552.248L166.398 554.048C168.75 552.632 170.886 549.944 171.63 547.4C172.398 549.752 174.894 552.488 176.718 553.664L178.182 551.816ZM205.572 545.408V543.344H202.404V537.512H199.932V550.952H202.404V545.408H205.572ZM198.012 542.816V540.872H185.628V542.816H198.012ZM196.86 547.088C196.86 545 194.676 543.56 191.844 543.56C188.964 543.56 186.78 545 186.78 547.064C186.78 549.152 188.988 550.592 191.844 550.592C194.676 550.592 196.86 549.152 196.86 547.088ZM194.484 547.064C194.484 548.12 193.212 548.768 191.844 548.768C190.476 548.768 189.156 548.12 189.156 547.064C189.156 546.008 190.452 545.384 191.844 545.384C193.212 545.384 194.484 546.008 194.484 547.064ZM188.724 539.648H194.988V537.704H188.724V539.648ZM202.62 555.152C202.62 552.872 200.028 551.36 195.42 551.36C190.836 551.36 188.244 552.872 188.244 555.152C188.244 557.48 190.836 558.968 195.42 558.968C200.028 558.968 202.62 557.48 202.62 555.152ZM195.42 553.256C198.42 553.256 200.1 554.024 200.1 555.176C200.1 556.328 198.42 557.096 195.42 557.096C192.444 557.096 190.764 556.328 190.764 555.176C190.764 554.048 192.444 553.256 195.42 553.256Z" fill="#2E2E2E"/>
<path d="M72.92 479.992H83.024V478.216H75.824L78.224 475.792C80.864 473.128 82.712 471.064 82.712 468.232C82.712 465.352 80.936 463.552 77.624 463.552C75.8 463.552 74.144 464.32 73.136 464.992L73.64 466.624C74.576 466 75.872 465.352 77.216 465.352C79.472 465.352 80.48 466.36 80.48 468.448C80.48 470.704 78.896 472.528 76.616 474.904L72.92 478.744V479.992ZM91.4077 480.28C94.6957 480.28 97.2877 478.072 97.2877 472.552V471.16C97.2877 465.544 94.6237 463.576 91.4317 463.576C88.2157 463.576 85.4077 465.544 85.4077 471.256V472.528C85.4077 478.024 88.0237 480.28 91.4077 480.28ZM91.4077 478.552C88.9357 478.552 87.6637 476.656 87.6637 472.696V470.992C87.6637 467.032 88.9837 465.304 91.4317 465.304C93.8317 465.304 95.1037 467.128 95.1037 471.16V472.816C95.1037 476.92 93.8077 478.552 91.4077 478.552ZM99.7156 479.992H109.82V478.216H102.62L105.02 475.792C107.66 473.128 109.508 471.064 109.508 468.232C109.508 465.352 107.732 463.552 104.42 463.552C102.596 463.552 100.94 464.32 99.9316 464.992L100.436 466.624C101.372 466 102.668 465.352 104.012 465.352C106.268 465.352 107.276 466.36 107.276 468.448C107.276 470.704 105.692 472.528 103.412 474.904L99.7156 478.744V479.992ZM118.203 480.28C121.491 480.28 124.083 478.072 124.083 472.552V471.16C124.083 465.544 121.419 463.576 118.227 463.576C115.011 463.576 112.203 465.544 112.203 471.256V472.528C112.203 478.024 114.819 480.28 118.203 480.28ZM118.203 478.552C115.731 478.552 114.459 476.656 114.459 472.696V470.992C114.459 467.032 115.779 465.304 118.227 465.304C120.627 465.304 121.899 467.128 121.899 471.16V472.816C121.899 476.92 120.603 478.552 118.203 478.552ZM144.095 482.08V480.376H132.071V475.768H129.959V482.08H144.095ZM138.047 473.272C137.975 472.696 137.855 472.144 137.735 471.592C135.335 472.096 132.359 472.288 129.551 472.288V463.168H127.463V474.088C128.279 474.088 129.143 474.088 130.031 474.064C132.623 474.016 135.911 473.728 138.047 473.272ZM141.407 466.384V468.472H134.975V470.176H141.407V476.92H143.543V461.704H141.407V464.704H134.975V466.384H141.407ZM157.389 480.232C160.989 480.232 163.269 478.288 163.269 475.432C163.269 472.936 161.733 471.76 159.645 471.376C161.469 470.752 162.693 469.552 162.693 467.608C162.693 465.04 160.725 463.576 157.797 463.576C156.357 463.576 154.485 464.152 153.501 464.776L153.813 466.456C154.797 465.904 156.045 465.352 157.341 465.352C159.261 465.352 160.509 466.024 160.509 467.944C160.509 469.672 159.117 470.68 157.077 470.704H155.661V472.456H157.221C159.597 472.456 161.109 473.392 161.109 475.384C161.109 477.376 159.669 478.504 157.101 478.504C155.901 478.504 154.269 478.048 153.381 477.448L152.949 479.08C153.861 479.704 155.493 480.232 157.389 480.232ZM183.336 482.656V481.048H170.376V479.584H182.544V475.12H168.24V476.704H180.432V478.12H168.24V482.656H183.336ZM176.976 465.664C176.976 463.456 174.72 462.184 171.768 462.184C168.816 462.184 166.536 463.504 166.536 465.64C166.536 467.848 168.816 469.12 171.768 469.12C174.72 469.12 176.976 467.848 176.976 465.664ZM182.544 474.28V461.704H180.456V471.928H175.968V473.44H180.456V474.28H182.544ZM172.728 474.304V471.616C174.984 471.472 177.432 471.28 178.896 471.088L178.704 469.504C176.712 469.744 174.648 469.864 171.96 469.984C169.656 470.08 167.424 470.104 165 470.104L165.312 471.856C167.04 471.832 168.72 471.784 170.616 471.736V474.304H172.728ZM174.84 465.664C174.84 466.84 173.52 467.44 171.768 467.44C170.016 467.44 168.72 466.84 168.72 465.664C168.72 464.488 169.992 463.84 171.768 463.84C173.592 463.84 174.84 464.488 174.84 465.664ZM192.071 479.992H202.175V478.216H194.975L197.375 475.792C200.015 473.128 201.863 471.064 201.863 468.232C201.863 465.352 200.087 463.552 196.775 463.552C194.951 463.552 193.295 464.32 192.287 464.992L192.791 466.624C193.727 466 195.023 465.352 196.367 465.352C198.623 465.352 199.631 466.36 199.631 468.448C199.631 470.704 198.047 472.528 195.767 474.904L192.071 478.744V479.992ZM208.348 480.28C211.9 480.28 214.06 477.856 214.06 474.952C214.06 471.544 212.068 469.96 208.828 469.96C208.132 469.96 207.196 470.128 206.572 470.296L206.884 465.592H213.436V463.84H205.204L204.628 472.384C205.372 472.048 206.884 471.592 207.988 471.592C210.436 471.592 211.876 472.528 211.876 474.904C211.876 477.136 210.388 478.528 207.892 478.528C206.596 478.528 205.084 477.976 204.196 477.4L203.788 479.08C204.772 479.752 206.476 480.28 208.348 480.28ZM232.874 472.384V461.704H230.738V472.384H232.874ZM233.618 482.536V480.784H221.354V478.72H232.874V473.464H219.17V475.192H230.738V477.136H219.242V482.536H233.618ZM221.618 462.4C218.594 462.4 216.242 464.392 216.242 467.2C216.242 470.056 218.666 471.832 221.618 471.832C224.618 471.832 226.97 469.984 226.97 467.176C226.97 464.344 224.618 462.4 221.618 462.4ZM221.618 464.224C223.61 464.224 224.882 465.448 224.882 467.176C224.882 468.808 223.586 470.056 221.618 470.056C219.746 470.056 218.33 468.88 218.33 467.176C218.33 465.448 219.794 464.224 221.618 464.224Z" fill="#666666"/>
<path d="M75.056 604.088H77.168V587.6H76.016L72.128 589.4V590.624L75.056 589.976V604.088ZM80.5085 604.544H82.8365V602.192H80.5085V604.544ZM108.441 598.256V587.168H106.329V590.984H96.2246V587.168H94.0886V598.256H100.161V602.384H91.8086V604.112H110.745V602.384H102.297V598.256H108.441ZM106.329 596.504H96.2246V592.712H106.329V596.504ZM131.15 603.632V601.88H121.55V594.824H119.414V601.88H112.214V603.632H131.15ZM128.702 587.648H114.158V589.376H126.518V591.896C126.518 594.368 126.23 597.296 125.774 599.096C126.47 599.192 127.142 599.312 127.814 599.432C128.414 596.888 128.654 594.224 128.702 590.864V587.648ZM158.028 595.808V594.056H154.764V585.704H152.652V606.68H154.764V595.808H158.028ZM150.924 599.984C147.972 598.16 145.62 594.848 145.62 590.912V587.504H143.436V591.008C143.436 594.872 141.204 598.52 138.036 600.512L139.356 602.096C141.732 600.512 143.82 597.848 144.54 595.304C145.332 597.728 147.78 600.344 149.652 601.568L150.924 599.984ZM178.338 593.792V592.016H175.17V585.704H173.058V599.288H175.17V593.792H178.338ZM175.41 603.032C175.41 600.728 172.914 599.336 168.402 599.336C163.866 599.336 161.394 600.704 161.394 603.032C161.394 605.336 163.866 606.704 168.402 606.704C172.914 606.704 175.41 605.336 175.41 603.032ZM168.402 601.016C171.426 601.016 173.25 601.784 173.25 603.032C173.25 604.28 171.426 605.024 168.402 605.024C165.354 605.024 163.554 604.256 163.554 603.032C163.554 601.808 165.354 601.016 168.402 601.016ZM167.946 587.768V586.016H161.85V587.768H167.946ZM170.922 590.768V589.064H158.85V590.768H170.922ZM169.722 595.04C169.722 592.928 167.634 591.584 164.874 591.584C162.066 591.584 160.026 592.904 160.026 595.04C160.026 597.152 162.09 598.496 164.874 598.496C167.634 598.496 169.722 597.152 169.722 595.04ZM167.61 595.04C167.61 596.144 166.338 596.888 164.874 596.888C163.41 596.888 162.114 596.144 162.114 595.04C162.114 593.912 163.386 593.192 164.874 593.192C166.338 593.192 167.61 593.912 167.61 595.04ZM180.768 593.792H183.096V591.44H180.768V593.792ZM180.768 602.528H183.096V600.2H180.768V602.528ZM209.273 602.72C209.273 600.248 206.633 598.736 202.001 598.736C197.393 598.736 194.753 600.248 194.753 602.72C194.753 605.144 197.393 606.656 202.001 606.656C206.633 606.656 209.273 605.144 209.273 602.72ZM202.889 592.064C202.889 589.064 200.417 587.024 197.465 587.024C194.465 587.024 192.017 589.088 192.017 592.064C192.017 595.112 194.489 597.032 197.465 597.032C200.441 597.032 202.889 595.088 202.889 592.064ZM203.465 595.232H207.017V598.712H209.153V585.704H207.017V588.464H203.465C203.465 589.064 203.489 589.664 203.489 590.264H207.017V593.456H203.489C203.489 594.032 203.465 594.632 203.465 595.232ZM207.065 602.72C207.065 604.112 205.193 604.952 202.001 604.952C198.857 604.952 196.985 604.112 196.985 602.72C196.985 601.304 198.857 600.44 202.001 600.44C205.193 600.44 207.065 601.304 207.065 602.72ZM200.729 592.064C200.729 593.96 199.409 595.304 197.465 595.304C195.521 595.304 194.153 593.96 194.153 592.04C194.153 590.216 195.521 588.848 197.465 588.848C199.481 588.848 200.729 590.216 200.729 592.064ZM227.422 592.376V596.912H229.558V585.704H227.422V590.648H224.086V592.376H227.422ZM229.558 606.416V598.016H227.422V600.56H218.182V598.064H216.07V606.416H229.558ZM227.422 604.712H218.182V602.24H227.422V604.712ZM217.894 586.712C214.894 586.712 212.566 588.704 212.566 591.608C212.566 594.512 214.918 596.36 217.894 596.36C220.87 596.36 223.222 594.512 223.222 591.584C223.222 588.656 220.87 586.712 217.894 586.712ZM217.894 588.512C219.742 588.512 221.062 589.688 221.062 591.584C221.062 593.408 219.742 594.56 217.894 594.56C216.094 594.56 214.678 593.408 214.678 591.56C214.678 589.712 216.07 588.512 217.894 588.512ZM255.333 598.256V587.168H253.221V590.984H243.117V587.168H240.981V598.256H247.053V602.384H238.701V604.112H257.637V602.384H249.189V598.256H255.333ZM253.221 596.504H243.117V592.712H253.221V596.504ZM278.042 603.632V601.88H268.442V594.824H266.306V601.88H259.106V603.632H278.042ZM275.594 587.648H261.05V589.376H273.41V591.896C273.41 594.368 273.122 597.296 272.666 599.096C273.362 599.192 274.034 599.312 274.706 599.432C275.306 596.888 275.546 594.224 275.594 590.864V587.648ZM296.545 595.784V587.264H286.441V595.784H296.545ZM303.913 605.384C301.273 605.192 298.033 603.8 297.265 601.952H303.289V600.248H288.865V601.952H294.769C294.049 603.8 290.905 605.192 287.977 605.36L289.033 607.016C291.961 606.632 295.129 605.168 295.993 603.488C296.977 605.168 299.833 606.56 302.857 607.04L303.913 605.384ZM294.457 594.104H288.529V588.968H294.457V594.104ZM302.665 597.104V585.704H300.529V597.104H302.665ZM299.281 598.856V597.104H292.729V598.856H299.281ZM331.127 592.784V591.032H328.007V585.704H325.871V597.776H328.007V592.784H331.127ZM328.007 606.392V598.832H314.711V606.392H328.007ZM325.895 604.712H316.823V600.536H325.895V604.712ZM312.695 587.264V589.04H319.847C319.271 592.664 315.503 595.544 311.615 596.312L312.719 598.016C318.143 596.552 321.959 592.856 322.199 587.264H312.695ZM351.677 595.808V594.056H348.413V585.704H346.301V606.68H348.413V595.808H351.677ZM344.573 599.984C341.621 598.16 339.269 594.848 339.269 590.912V587.504H337.085V591.008C337.085 594.872 334.853 598.52 331.685 600.512L333.005 602.096C335.381 600.512 337.469 597.848 338.189 595.304C338.981 597.728 341.429 600.344 343.301 601.568L344.573 599.984ZM375.195 598.256V587.168H373.083V590.984H362.979V587.168H360.843V598.256H366.915V602.384H358.563V604.112H377.499V602.384H369.051V598.256H375.195ZM373.083 596.504H362.979V592.712H373.083V596.504ZM397.905 603.632V601.88H388.305V594.824H386.169V601.88H378.969V603.632H397.905ZM395.457 587.648H380.913V589.376H393.273V591.896C393.273 594.368 392.985 597.296 392.529 599.096C393.225 599.192 393.897 599.312 394.569 599.432C395.169 596.888 395.409 594.224 395.457 590.864V587.648Z" fill="#666666"/>
<path d="M72.44 647.992H82.544V646.216H75.344L77.744 643.792C80.384 641.128 82.232 639.064 82.232 636.232C82.232 633.352 80.456 631.552 77.144 631.552C75.32 631.552 73.664 632.32 72.656 632.992L73.16 634.624C74.096 634 75.392 633.352 76.736 633.352C78.992 633.352 80 634.36 80 636.448C80 638.704 78.416 640.528 76.136 642.904L72.44 646.744V647.992ZM84.4929 648.544H86.8209V646.192H84.4929V648.544ZM112.401 639.76V630.496H110.289V633.472H100.209V630.496H98.0729V639.76H112.401ZM106.281 650.704V643.888H114.729V642.136H95.7929V643.888H104.145V650.704H106.281ZM110.289 638.056H100.209V635.2H110.289V638.056ZM131.463 629.704V650.68H133.551V629.704H131.463ZM128.439 636.328C128.439 633.328 126.039 631.384 122.943 631.384C119.871 631.384 117.471 633.424 117.471 636.328C117.471 639.16 119.847 641.104 122.943 641.104C125.991 641.104 128.439 639.232 128.439 636.328ZM126.351 636.304C126.351 638.128 124.767 639.328 122.943 639.328C121.095 639.328 119.583 638.104 119.583 636.304C119.583 634.48 121.095 633.16 122.943 633.16C124.839 633.16 126.351 634.384 126.351 636.304ZM130.335 645.376L130.119 643.696C128.439 643.888 125.967 644.056 122.991 644.176C120.519 644.296 118.071 644.32 116.055 644.32L116.391 646.144C118.071 646.12 120.279 646.072 122.655 645.952C125.319 645.808 128.415 645.616 130.335 645.376ZM161.893 637.6V635.824H158.749V629.704H156.637V644.944H158.749V637.6H161.893ZM159.445 650.008V648.28H147.589V643.432H145.477V650.008H159.445ZM148.453 631.216C145.213 631.216 142.837 633.448 142.837 636.544C142.837 639.616 145.213 641.704 148.477 641.704C151.693 641.704 154.069 639.616 154.069 636.52C154.069 633.448 151.693 631.216 148.453 631.216ZM148.453 633.016C150.541 633.016 151.885 634.48 151.885 636.52C151.885 638.536 150.541 639.904 148.477 639.904C146.437 639.904 145.021 638.512 145.021 636.496C145.021 634.48 146.413 633.016 148.453 633.016ZM180.643 650.152V648.424H168.595V643.528H166.459V650.152H180.643ZM178.027 637.912V644.944H180.163V629.704H178.027V636.16H173.659V637.912H178.027ZM164.083 631.36V633.112H171.163C170.563 636.784 167.419 639.784 163.075 640.864L164.155 642.592C169.651 640.984 173.299 637.072 173.491 631.36H164.083Z" fill="#666666"/>
<path d="M107.472 694.44H109.248V674.472H107.472V694.44ZM112.446 692.544H114.774V690.192H112.446V692.544ZM134.45 688.344C132.17 686.952 129.986 684.096 129.986 679.8V677.904H133.85V676.2H123.818V677.904H127.898V679.872C127.898 683.976 125.978 687.144 123.362 688.824L124.706 690.288C126.626 688.992 128.474 686.616 128.93 684.408C129.506 686.496 131.714 688.896 133.178 689.856L134.45 688.344ZM137.306 693.648V674.184H135.29V681.24H132.17V682.992H135.29V693.648H137.306ZM141.458 694.68V673.704H139.418V694.68H141.458ZM153.24 692.088H155.352V675.6H154.2L150.312 677.4V678.624L153.24 677.976V692.088ZM174.821 684.288C174.821 681.96 172.157 680.592 168.053 680.592C163.925 680.592 161.237 681.96 161.237 684.288C161.237 686.376 163.445 687.672 166.925 687.888V690.504H158.549V692.208H177.485V690.504H169.061V687.912C172.589 687.72 174.821 686.4 174.821 684.288ZM172.565 684.288C172.565 685.656 170.429 686.28 168.053 686.28C165.677 686.28 163.493 685.656 163.493 684.288C163.493 682.896 165.677 682.248 168.053 682.248C170.405 682.248 172.565 682.896 172.565 684.288ZM176.549 679.656V677.952H159.461V679.656H176.549ZM171.749 676.392V674.664H164.237V676.392H171.749ZM200.163 673.704V694.68H202.251V673.704H200.163ZM197.139 680.328C197.139 677.328 194.739 675.384 191.643 675.384C188.571 675.384 186.171 677.424 186.171 680.328C186.171 683.16 188.547 685.104 191.643 685.104C194.691 685.104 197.139 683.232 197.139 680.328ZM195.051 680.304C195.051 682.128 193.467 683.328 191.643 683.328C189.795 683.328 188.283 682.104 188.283 680.304C188.283 678.48 189.795 677.16 191.643 677.16C193.539 677.16 195.051 678.384 195.051 680.304ZM199.035 689.376L198.819 687.696C197.139 687.888 194.667 688.056 191.691 688.176C189.219 688.296 186.771 688.32 184.755 688.32L185.091 690.144C186.771 690.12 188.979 690.072 191.355 689.952C194.019 689.808 197.115 689.616 199.035 689.376ZM224.649 681.6V679.824H221.505V673.704H219.393V688.944H221.505V681.6H224.649ZM222.201 694.008V692.28H210.345V687.432H208.233V694.008H222.201ZM211.209 675.216C207.969 675.216 205.593 677.448 205.593 680.544C205.593 683.616 207.969 685.704 211.233 685.704C214.449 685.704 216.825 683.616 216.825 680.52C216.825 677.448 214.449 675.216 211.209 675.216ZM211.209 677.016C213.297 677.016 214.641 678.48 214.641 680.52C214.641 682.536 213.297 683.904 211.233 683.904C209.193 683.904 207.777 682.512 207.777 680.496C207.777 678.48 209.169 677.016 211.209 677.016ZM227.102 681.792H229.43V679.44H227.102V681.792ZM227.102 690.528H229.43V688.2H227.102V690.528ZM248.983 688.344C246.703 686.952 244.519 684.096 244.519 679.8V677.904H248.383V676.2H238.351V677.904H242.431V679.872C242.431 683.976 240.511 687.144 237.895 688.824L239.239 690.288C241.159 688.992 243.007 686.616 243.463 684.408C244.039 686.496 246.247 688.896 247.711 689.856L248.983 688.344ZM251.839 693.648V674.184H249.823V681.24H246.703V682.992H249.823V693.648H251.839ZM255.991 694.68V673.704H253.951V694.68H255.991ZM270.102 675.576C266.742 675.576 264.822 678.12 264.822 681.192C264.822 684.288 267.006 686.256 269.742 686.256C271.494 686.256 272.814 685.488 273.678 684.528C273.51 688.992 271.974 690.528 269.382 690.528C268.11 690.528 266.79 690.144 266.094 689.736L265.566 691.272C266.31 691.776 267.846 692.28 269.502 692.28C273.414 692.28 275.814 689.472 275.814 683.712V682.656C275.814 678.072 273.75 675.576 270.102 675.576ZM270.126 677.28C272.622 677.28 273.678 679.224 273.678 682.152V682.608C273.03 683.496 271.686 684.528 270.222 684.528C268.326 684.528 266.91 683.472 266.91 681.024C266.91 678.84 268.086 677.28 270.126 677.28ZM294.861 694.68V673.704H292.725V694.68H294.861ZM288.717 675.936H278.613V677.736H286.413C286.029 682.248 282.621 686.64 277.677 689.016L278.973 690.624C284.709 687.504 288.597 682.608 288.717 675.936ZM308.611 694.44H310.411C308.275 692.04 306.499 688.296 306.499 684.672V684.048C306.499 680.304 308.275 676.848 310.411 674.472H308.611C306.331 676.704 304.387 680.016 304.387 684.24V684.648C304.387 688.848 306.331 692.208 308.611 694.44ZM311.812 691.992H321.916V690.216H314.716L317.116 687.792C319.756 685.128 321.604 683.064 321.604 680.232C321.604 677.352 319.828 675.552 316.516 675.552C314.692 675.552 313.036 676.32 312.028 676.992L312.532 678.624C313.468 678 314.764 677.352 316.108 677.352C318.364 677.352 319.372 678.36 319.372 680.448C319.372 682.704 317.788 684.528 315.508 686.904L311.812 690.744V691.992ZM330.299 692.28C333.587 692.28 336.179 690.072 336.179 684.552V683.16C336.179 677.544 333.515 675.576 330.323 675.576C327.107 675.576 324.299 677.544 324.299 683.256V684.528C324.299 690.024 326.915 692.28 330.299 692.28ZM330.299 690.552C327.827 690.552 326.555 688.656 326.555 684.696V682.992C326.555 679.032 327.875 677.304 330.323 677.304C332.723 677.304 333.995 679.128 333.995 683.16V684.816C333.995 688.92 332.699 690.552 330.299 690.552ZM341.34 692.088H343.452V675.6H342.3L338.412 677.4V678.624L341.34 677.976V692.088ZM352.121 675.576C348.761 675.576 346.841 678.12 346.841 681.192C346.841 684.288 349.025 686.256 351.761 686.256C353.513 686.256 354.833 685.488 355.697 684.528C355.529 688.992 353.993 690.528 351.401 690.528C350.129 690.528 348.809 690.144 348.113 689.736L347.585 691.272C348.329 691.776 349.865 692.28 351.521 692.28C355.433 692.28 357.833 689.472 357.833 683.712V682.656C357.833 678.072 355.769 675.576 352.121 675.576ZM352.145 677.28C354.641 677.28 355.697 679.224 355.697 682.152V682.608C355.049 683.496 353.705 684.528 352.241 684.528C350.345 684.528 348.929 683.472 348.929 681.024C348.929 678.84 350.105 677.28 352.145 677.28ZM359.816 692.544H362.144V690.192H359.816V692.544ZM371.867 692.28C375.155 692.28 377.747 690.072 377.747 684.552V683.16C377.747 677.544 375.083 675.576 371.891 675.576C368.675 675.576 365.867 677.544 365.867 683.256V684.528C365.867 690.024 368.483 692.28 371.867 692.28ZM371.867 690.552C369.395 690.552 368.123 688.656 368.123 684.696V682.992C368.123 679.032 369.443 677.304 371.891 677.304C374.291 677.304 375.563 679.128 375.563 683.16V684.816C375.563 688.92 374.267 690.552 371.867 690.552ZM382.908 692.088H385.02V675.6H383.868L379.98 677.4V678.624L382.908 677.976V692.088ZM388.361 692.544H390.689V690.192H388.361V692.544ZM400.412 692.28C403.7 692.28 406.292 690.072 406.292 684.552V683.16C406.292 677.544 403.628 675.576 400.436 675.576C397.22 675.576 394.412 677.544 394.412 683.256V684.528C394.412 690.024 397.028 692.28 400.412 692.28ZM400.412 690.552C397.94 690.552 396.668 688.656 396.668 684.696V682.992C396.668 679.032 397.988 677.304 400.436 677.304C402.836 677.304 404.108 679.128 404.108 683.16V684.816C404.108 688.92 402.812 690.552 400.412 690.552ZM411.453 692.088H413.565V675.6H412.413L408.525 677.4V678.624L411.453 677.976V692.088ZM422.738 683.4C422.114 682.872 421.202 682.2 420.242 682.176C418.778 682.176 417.53 683.04 416.978 685.584L418.514 686.112C418.874 684.792 419.306 684 420.05 684C420.698 684 421.178 684.384 421.874 684.96C421.97 685.056 422.042 685.176 422.09 685.2C422.93 685.872 423.794 686.328 424.73 686.328C425.906 686.328 427.49 685.224 427.826 682.872L426.314 682.416C426.146 683.712 425.594 684.504 424.826 684.504C424.13 684.504 423.602 684.168 422.93 683.592C422.858 683.544 422.81 683.448 422.738 683.4ZM430.289 691.992H440.393V690.216H433.193L435.593 687.792C438.233 685.128 440.081 683.064 440.081 680.232C440.081 677.352 438.305 675.552 434.993 675.552C433.169 675.552 431.513 676.32 430.505 676.992L431.009 678.624C431.945 678 433.241 677.352 434.585 677.352C436.841 677.352 437.849 678.36 437.849 680.448C437.849 682.704 436.265 684.528 433.985 686.904L430.289 690.744V691.992ZM448.777 692.28C452.065 692.28 454.657 690.072 454.657 684.552V683.16C454.657 677.544 451.993 675.576 448.801 675.576C445.585 675.576 442.777 677.544 442.777 683.256V684.528C442.777 690.024 445.393 692.28 448.777 692.28ZM448.777 690.552C446.305 690.552 445.033 688.656 445.033 684.696V682.992C445.033 679.032 446.353 677.304 448.801 677.304C451.201 677.304 452.473 679.128 452.473 683.16V684.816C452.473 688.92 451.177 690.552 448.777 690.552ZM459.818 692.088H461.93V675.6H460.778L456.89 677.4V678.624L459.818 677.976V692.088ZM470.598 675.576C467.238 675.576 465.318 678.12 465.318 681.192C465.318 684.288 467.502 686.256 470.238 686.256C471.99 686.256 473.31 685.488 474.174 684.528C474.006 688.992 472.47 690.528 469.878 690.528C468.606 690.528 467.286 690.144 466.59 689.736L466.062 691.272C466.806 691.776 468.342 692.28 469.998 692.28C473.91 692.28 476.31 689.472 476.31 683.712V682.656C476.31 678.072 474.246 675.576 470.598 675.576ZM470.622 677.28C473.118 677.28 474.174 679.224 474.174 682.152V682.608C473.526 683.496 472.182 684.528 470.718 684.528C468.822 684.528 467.406 683.472 467.406 681.024C467.406 678.84 468.582 677.28 470.622 677.28ZM478.293 692.544H480.621V690.192H478.293V692.544ZM486.793 692.088H488.905V675.6H487.753L483.865 677.4V678.624L486.793 677.976V692.088ZM492.629 691.992H502.733V690.216H495.533L497.933 687.792C500.573 685.128 502.421 683.064 502.421 680.232C502.421 677.352 500.645 675.552 497.333 675.552C495.509 675.552 493.853 676.32 492.845 676.992L493.349 678.624C494.285 678 495.581 677.352 496.925 677.352C499.181 677.352 500.189 678.36 500.189 680.448C500.189 682.704 498.605 684.528 496.325 686.904L492.629 690.744V691.992ZM504.682 692.544H507.01V690.192H504.682V692.544ZM514.741 692.232C518.341 692.232 520.621 690.288 520.621 687.432C520.621 684.936 519.085 683.76 516.997 683.376C518.821 682.752 520.045 681.552 520.045 679.608C520.045 677.04 518.077 675.576 515.149 675.576C513.709 675.576 511.837 676.152 510.853 676.776L511.165 678.456C512.149 677.904 513.397 677.352 514.693 677.352C516.613 677.352 517.861 678.024 517.861 679.944C517.861 681.672 516.469 682.68 514.429 682.704H513.013V684.456H514.573C516.949 684.456 518.461 685.392 518.461 687.384C518.461 689.376 517.021 690.504 514.453 690.504C513.253 690.504 511.621 690.048 510.733 689.448L510.301 691.08C511.213 691.704 512.845 692.232 514.741 692.232ZM525.689 692.088H527.801V675.6H526.649L522.761 677.4V678.624L525.689 677.976V692.088ZM530.349 694.44H532.173C534.453 692.208 536.421 688.872 536.421 684.648V684.24C536.421 680.04 534.453 676.704 532.173 674.472H530.349C532.533 676.872 534.285 680.616 534.285 684.216V684.864C534.285 688.608 532.533 692.064 530.349 694.44ZM561.934 694.68V673.704H559.894V682.248H557.59V674.16H555.574V693.648H557.59V683.952H559.894V694.68H561.934ZM554.662 688.176C552.382 686.76 550.462 683.832 550.462 679.704V678.024H554.35V676.272H544.366V678.024H548.374V679.776C548.374 683.88 546.454 687.024 543.838 688.704L545.182 690.168C547.102 688.896 548.95 686.496 549.406 684.288C549.982 686.376 551.926 688.704 553.366 689.688L554.662 688.176ZM581.212 683.376V674.88H566.932V683.376H581.212ZM579.1 681.672H569.068V676.608H579.1V681.672ZM575.116 694.704V687.648H583.564V685.92H564.628V687.648H572.98V694.704H575.116ZM595.738 688.344C593.458 686.952 591.274 684.096 591.274 679.8V677.904H595.138V676.2H585.106V677.904H589.186V679.872C589.186 683.976 587.266 687.144 584.65 688.824L585.994 690.288C587.914 688.992 589.762 686.616 590.218 684.408C590.794 686.496 593.002 688.896 594.466 689.856L595.738 688.344ZM598.594 693.648V674.184H596.578V681.24H593.458V682.992H596.578V693.648H598.594ZM602.746 694.68V673.704H600.706V694.68H602.746ZM624.375 692.016V690.288H619.335V686.064H617.199V690.288H612.543V686.064H610.407V690.288H605.439V692.016H624.375ZM622.455 685.032V683.304H619.383L620.103 678.6L618.015 678.24L617.439 683.304H612.399L612.063 678.192L609.927 678.48L610.383 683.304H607.239V685.032H622.455ZM622.479 677.208V675.48H607.215V677.208H622.479ZM649.79 680.496C646.718 680.256 642.35 677.928 642.35 674.904V674.28H640.166V674.904C640.166 677.928 636.11 680.112 632.774 680.472L633.71 682.152C636.854 681.6 640.286 679.704 641.246 677.448C642.302 679.68 645.806 681.648 648.806 682.176L649.79 680.496ZM650.726 685.512V683.76H631.79V685.512H650.726ZM648.494 690.888C648.494 688.488 645.854 687.144 641.246 687.144C636.662 687.144 634.022 688.56 634.022 690.888C634.022 693.24 636.662 694.656 641.246 694.656C645.854 694.656 648.494 693.264 648.494 690.888ZM646.334 690.888C646.334 692.208 644.39 692.928 641.246 692.928C638.15 692.928 636.206 692.208 636.206 690.888C636.206 689.616 638.15 688.848 641.246 688.848C644.39 688.848 646.334 689.616 646.334 690.888ZM669.403 688.944V673.704H667.267V688.944H669.403ZM669.883 694.032V692.328H657.739V687.504H655.603V694.032H669.883ZM658.267 675.12C655.051 675.12 652.675 677.352 652.675 680.376C652.675 683.376 655.051 685.464 658.267 685.464C661.507 685.464 663.883 683.376 663.883 680.352C663.883 677.352 661.507 675.12 658.267 675.12ZM658.267 676.944C660.331 676.944 661.627 678.36 661.627 680.352C661.627 682.272 660.331 683.688 658.267 683.688C656.299 683.688 654.907 682.248 654.907 680.328C654.907 678.384 656.299 676.944 658.267 676.944ZM687.865 673.704V694.68H689.953V673.704H687.865ZM684.841 680.328C684.841 677.328 682.441 675.384 679.345 675.384C676.273 675.384 673.873 677.424 673.873 680.328C673.873 683.16 676.249 685.104 679.345 685.104C682.393 685.104 684.841 683.232 684.841 680.328ZM682.753 680.304C682.753 682.128 681.169 683.328 679.345 683.328C677.497 683.328 675.985 682.104 675.985 680.304C675.985 678.48 677.497 677.16 679.345 677.16C681.241 677.16 682.753 678.384 682.753 680.304ZM686.737 689.376L686.521 687.696C684.841 687.888 682.369 688.056 679.393 688.176C676.921 688.296 674.473 688.32 672.457 688.32L672.793 690.144C674.473 690.12 676.681 690.072 679.057 689.952C681.721 689.808 684.817 689.616 686.737 689.376ZM716.639 694.152V692.424H704.591V687.528H702.455V694.152H716.639ZM714.023 681.912V688.944H716.159V673.704H714.023V680.16H709.655V681.912H714.023ZM700.079 675.36V677.112H707.159C706.559 680.784 703.415 683.784 699.071 684.864L700.151 686.592C705.647 684.984 709.295 681.072 709.487 675.36H700.079Z" fill="#666666"/>
<path d="M107.472 738.44H109.248V718.472H107.472V738.44ZM113.862 738.44H115.638V718.472H113.862V738.44ZM118.836 736.544H121.164V734.192H118.836V736.544ZM140.84 732.344C138.56 730.952 136.376 728.096 136.376 723.8V721.904H140.24V720.2H130.208V721.904H134.288V723.872C134.288 727.976 132.368 731.144 129.752 732.824L131.096 734.288C133.016 732.992 134.864 730.616 135.32 728.408C135.896 730.496 138.104 732.896 139.568 733.856L140.84 732.344ZM143.696 737.648V718.184H141.68V725.24H138.56V726.992H141.68V737.648H143.696ZM147.848 738.68V717.704H145.808V738.68H147.848ZM157.014 735.992H167.118V734.216H159.918L162.318 731.792C164.958 729.128 166.806 727.064 166.806 724.232C166.806 721.352 165.03 719.552 161.718 719.552C159.894 719.552 158.238 720.32 157.23 720.992L157.734 722.624C158.67 722 159.966 721.352 161.31 721.352C163.566 721.352 164.574 722.36 164.574 724.448C164.574 726.704 162.99 728.528 160.71 730.904L157.014 734.744V735.992ZM185.195 728.288C185.195 725.96 182.531 724.592 178.427 724.592C174.299 724.592 171.611 725.96 171.611 728.288C171.611 730.376 173.819 731.672 177.299 731.888V734.504H168.923V736.208H187.859V734.504H179.435V731.912C182.963 731.72 185.195 730.4 185.195 728.288ZM182.939 728.288C182.939 729.656 180.803 730.28 178.427 730.28C176.051 730.28 173.867 729.656 173.867 728.288C173.867 726.896 176.051 726.248 178.427 726.248C180.779 726.248 182.939 726.896 182.939 728.288ZM186.923 723.656V721.952H169.835V723.656H186.923ZM182.123 720.392V718.664H174.611V720.392H182.123ZM210.538 717.704V738.68H212.626V717.704H210.538ZM207.514 724.328C207.514 721.328 205.114 719.384 202.018 719.384C198.946 719.384 196.546 721.424 196.546 724.328C196.546 727.16 198.922 729.104 202.018 729.104C205.066 729.104 207.514 727.232 207.514 724.328ZM205.426 724.304C205.426 726.128 203.842 727.328 202.018 727.328C200.17 727.328 198.658 726.104 198.658 724.304C198.658 722.48 200.17 721.16 202.018 721.16C203.914 721.16 205.426 722.384 205.426 724.304ZM209.41 733.376L209.194 731.696C207.514 731.888 205.042 732.056 202.066 732.176C199.594 732.296 197.146 732.32 195.13 732.32L195.466 734.144C197.146 734.12 199.354 734.072 201.73 733.952C204.394 733.808 207.49 733.616 209.41 733.376ZM235.023 725.6V723.824H231.879V717.704H229.767V732.944H231.879V725.6H235.023ZM232.575 738.008V736.28H220.719V731.432H218.607V738.008H232.575ZM221.583 719.216C218.343 719.216 215.967 721.448 215.967 724.544C215.967 727.616 218.343 729.704 221.607 729.704C224.823 729.704 227.199 727.616 227.199 724.52C227.199 721.448 224.823 719.216 221.583 719.216ZM221.583 721.016C223.671 721.016 225.015 722.48 225.015 724.52C225.015 726.536 223.671 727.904 221.607 727.904C219.567 727.904 218.151 726.512 218.151 724.496C218.151 722.48 219.543 721.016 221.583 721.016ZM237.477 725.792H239.805V723.44H237.477V725.792ZM237.477 734.528H239.805V732.2H237.477V734.528ZM268.118 727.808V726.056H264.854V717.704H262.742V738.68H264.854V727.808H268.118ZM261.014 731.984C258.062 730.16 255.71 726.848 255.71 722.912V719.504H253.526V723.008C253.526 726.872 251.294 730.52 248.126 732.512L249.446 734.096C251.822 732.512 253.91 729.848 254.63 727.304C255.422 729.728 257.87 732.344 259.742 733.568L261.014 731.984ZM286.772 738.68V717.704H284.732V725.888H282.164V718.16H280.148V737.648H282.164V727.64H284.732V738.68H286.772ZM278.996 732.392C278.9 731.816 278.804 731.216 278.684 730.64C277.244 731.048 274.052 731.264 272.012 731.264V720.032H269.876V733.064H271.892C274.46 733.016 277.484 732.752 278.996 732.392ZM306.769 738.68V717.704H304.633V738.68H306.769ZM290.209 726.68C290.209 730.856 291.889 734.12 295.609 734.12C299.329 734.12 300.985 730.856 300.985 726.704C300.985 722.528 299.329 719.288 295.609 719.288C291.889 719.288 290.209 722.528 290.209 726.68ZM298.873 726.704C298.873 729.944 297.769 732.272 295.609 732.272C293.473 732.272 292.369 729.944 292.369 726.704C292.369 723.464 293.473 721.112 295.609 721.112C297.769 721.112 298.873 723.464 298.873 726.704ZM329.335 727.808V726.056H326.071V717.704H323.959V738.68H326.071V727.808H329.335ZM322.231 731.984C319.279 730.16 316.927 726.848 316.927 722.912V719.504H314.743V723.008C314.743 726.872 312.511 730.52 309.343 732.512L310.663 734.096C313.039 732.512 315.127 729.848 315.847 727.304C316.639 729.728 319.087 732.344 320.959 733.568L322.231 731.984ZM355.541 724.832V723.08H352.421V717.704H350.285V730.256H352.421V724.832H355.541ZM346.781 728.912V719H344.645V722.36H339.029V719.024H336.917V728.912H346.781ZM344.645 727.208H339.029V724.04H344.645V727.208ZM352.421 738.704V731.264H338.813V733.016H350.285V738.704H352.421ZM374.339 738.68V717.704H372.299V726.224H369.947V718.16H367.931V737.648H369.947V727.952H372.299V738.68H374.339ZM367.187 731.912C364.787 730.424 362.867 727.304 362.867 723.248V719.648H360.779V723.272C360.779 727.496 358.667 730.928 356.219 732.512L357.539 734C359.603 732.584 361.355 730.088 361.859 727.76C362.483 730.04 364.331 732.344 365.867 733.4L367.187 731.912ZM395.968 736.016V734.288H387.52V730.976H394.192V729.248H381.424V725.96H393.616V719.432H379.264V721.16H391.504V724.232H379.312V730.976H385.384V734.288H377.032V736.016H395.968ZM414.742 738.68V717.704H412.606V738.68H414.742ZM398.182 726.68C398.182 730.856 399.862 734.12 403.582 734.12C407.302 734.12 408.958 730.856 408.958 726.704C408.958 722.528 407.302 719.288 403.582 719.288C399.862 719.288 398.182 722.528 398.182 726.68ZM406.846 726.704C406.846 729.944 405.742 732.272 403.582 732.272C401.446 732.272 400.342 729.944 400.342 726.704C400.342 723.464 401.446 721.112 403.582 721.112C405.742 721.112 406.846 723.464 406.846 726.704ZM440.996 732.944V717.704H438.86V722.768H434.684V724.496H438.86V732.944H440.996ZM441.452 738.056V736.352H429.5V731.576H427.412V738.056H441.452ZM436.004 728.12C433.556 727.28 430.964 724.808 430.964 721.4V718.88H428.804V721.496C428.804 724.808 426.428 727.64 423.548 728.84L424.868 730.496C427.028 729.512 429.284 727.232 429.908 725.024C430.82 727.136 432.836 728.96 434.78 729.8L436.004 728.12ZM461.402 729.896V717.704H459.266V729.896H461.402ZM461.402 738.392V730.928H447.77V738.392H461.402ZM459.266 736.712H449.882V732.632H459.266V736.712ZM450.242 718.88C447.194 718.88 444.722 720.968 444.722 723.944C444.722 726.968 447.218 728.888 450.242 728.888C453.29 728.888 455.762 726.944 455.762 723.944C455.762 720.944 453.266 718.88 450.242 718.88ZM450.242 720.704C452.282 720.704 453.602 722.072 453.602 723.944C453.602 725.816 452.234 727.136 450.242 727.136C448.274 727.136 446.858 725.816 446.858 723.92C446.858 722.072 448.25 720.704 450.242 720.704ZM479.864 717.704V738.68H481.952V717.704H479.864ZM476.84 724.328C476.84 721.328 474.44 719.384 471.344 719.384C468.272 719.384 465.872 721.424 465.872 724.328C465.872 727.16 468.248 729.104 471.344 729.104C474.392 729.104 476.84 727.232 476.84 724.328ZM474.752 724.304C474.752 726.128 473.168 727.328 471.344 727.328C469.496 727.328 467.984 726.104 467.984 724.304C467.984 722.48 469.496 721.16 471.344 721.16C473.24 721.16 474.752 722.384 474.752 724.304ZM478.736 733.376L478.52 731.696C476.84 731.888 474.368 732.056 471.392 732.176C468.92 732.296 466.472 732.32 464.456 732.32L464.792 734.144C466.472 734.12 468.68 734.072 471.056 733.952C473.72 733.808 476.816 733.616 478.736 733.376ZM508.638 738.152V736.424H496.59V731.528H494.454V738.152H508.638ZM506.022 725.912V732.944H508.158V717.704H506.022V724.16H501.654V725.912H506.022ZM492.078 719.36V721.112H499.158C498.558 724.784 495.414 727.784 491.07 728.864L492.15 730.592C497.646 728.984 501.294 725.072 501.486 719.36H492.078Z" fill="#666666"/>
<path d="M107.472 782.44H109.248V762.472H107.472V782.44ZM113.862 782.44H115.638V762.472H113.862V782.44ZM120.252 782.44H122.028V762.472H120.252V782.44ZM125.226 780.544H127.554V778.192H125.226V780.544ZM147.23 776.344C144.95 774.952 142.766 772.096 142.766 767.8V765.904H146.63V764.2H136.598V765.904H140.678V767.872C140.678 771.976 138.758 775.144 136.142 776.824L137.486 778.288C139.406 776.992 141.254 774.616 141.71 772.408C142.286 774.496 144.494 776.896 145.958 777.856L147.23 776.344ZM150.086 781.648V762.184H148.07V769.24H144.95V770.992H148.07V781.648H150.086ZM154.238 782.68V761.704H152.198V782.68H154.238ZM167.58 780.232C171.18 780.232 173.46 778.288 173.46 775.432C173.46 772.936 171.924 771.76 169.836 771.376C171.66 770.752 172.884 769.552 172.884 767.608C172.884 765.04 170.916 763.576 167.988 763.576C166.548 763.576 164.676 764.152 163.692 764.776L164.004 766.456C164.988 765.904 166.236 765.352 167.532 765.352C169.452 765.352 170.7 766.024 170.7 767.944C170.7 769.672 169.308 770.68 167.268 770.704H165.852V772.456H167.412C169.788 772.456 171.3 773.392 171.3 775.384C171.3 777.376 169.86 778.504 167.292 778.504C166.092 778.504 164.46 778.048 163.572 777.448L163.14 779.08C164.052 779.704 165.684 780.232 167.58 780.232ZM191.656 772.288C191.656 769.96 188.992 768.592 184.888 768.592C180.76 768.592 178.072 769.96 178.072 772.288C178.072 774.376 180.28 775.672 183.76 775.888V778.504H175.384V780.208H194.32V778.504H185.896V775.912C189.424 775.72 191.656 774.4 191.656 772.288ZM189.4 772.288C189.4 773.656 187.264 774.28 184.888 774.28C182.512 774.28 180.328 773.656 180.328 772.288C180.328 770.896 182.512 770.248 184.888 770.248C187.24 770.248 189.4 770.896 189.4 772.288ZM193.384 767.656V765.952H176.296V767.656H193.384ZM188.584 764.392V762.664H181.072V764.392H188.584ZM216.998 761.704V782.68H219.086V761.704H216.998ZM213.974 768.328C213.974 765.328 211.574 763.384 208.478 763.384C205.406 763.384 203.006 765.424 203.006 768.328C203.006 771.16 205.382 773.104 208.478 773.104C211.526 773.104 213.974 771.232 213.974 768.328ZM211.886 768.304C211.886 770.128 210.302 771.328 208.478 771.328C206.63 771.328 205.118 770.104 205.118 768.304C205.118 766.48 206.63 765.16 208.478 765.16C210.374 765.16 211.886 766.384 211.886 768.304ZM215.87 777.376L215.654 775.696C213.974 775.888 211.502 776.056 208.526 776.176C206.054 776.296 203.606 776.32 201.59 776.32L201.926 778.144C203.606 778.12 205.814 778.072 208.19 777.952C210.854 777.808 213.95 777.616 215.87 777.376ZM241.484 769.6V767.824H238.34V761.704H236.228V776.944H238.34V769.6H241.484ZM239.036 782.008V780.28H227.18V775.432H225.068V782.008H239.036ZM228.044 763.216C224.804 763.216 222.428 765.448 222.428 768.544C222.428 771.616 224.804 773.704 228.068 773.704C231.284 773.704 233.66 771.616 233.66 768.52C233.66 765.448 231.284 763.216 228.044 763.216ZM228.044 765.016C230.132 765.016 231.476 766.48 231.476 768.52C231.476 770.536 230.132 771.904 228.068 771.904C226.028 771.904 224.612 770.512 224.612 768.496C224.612 766.48 226.004 765.016 228.044 765.016ZM243.937 769.792H246.265V767.44H243.937V769.792ZM243.937 778.528H246.265V776.2H243.937V778.528ZM274.578 771.808V770.056H271.314V761.704H269.202V782.68H271.314V771.808H274.578ZM267.474 775.984C264.522 774.16 262.17 770.848 262.17 766.912V763.504H259.986V767.008C259.986 770.872 257.754 774.52 254.586 776.512L255.906 778.096C258.282 776.512 260.37 773.848 261.09 771.304C261.882 773.728 264.33 776.344 266.202 777.568L267.474 775.984ZM293.232 782.68V761.704H291.192V769.888H288.624V762.16H286.608V781.648H288.624V771.64H291.192V782.68H293.232ZM285.456 776.392C285.36 775.816 285.264 775.216 285.144 774.64C283.704 775.048 280.512 775.264 278.472 775.264V764.032H276.336V777.064H278.352C280.92 777.016 283.944 776.752 285.456 776.392ZM313.229 782.68V761.704H311.093V782.68H313.229ZM296.669 770.68C296.669 774.856 298.349 778.12 302.069 778.12C305.789 778.12 307.445 774.856 307.445 770.704C307.445 766.528 305.789 763.288 302.069 763.288C298.349 763.288 296.669 766.528 296.669 770.68ZM305.333 770.704C305.333 773.944 304.229 776.272 302.069 776.272C299.933 776.272 298.829 773.944 298.829 770.704C298.829 767.464 299.933 765.112 302.069 765.112C304.229 765.112 305.333 767.464 305.333 770.704ZM335.795 771.808V770.056H332.531V761.704H330.419V782.68H332.531V771.808H335.795ZM328.691 775.984C325.739 774.16 323.387 770.848 323.387 766.912V763.504H321.203V767.008C321.203 770.872 318.971 774.52 315.803 776.512L317.123 778.096C319.499 776.512 321.587 773.848 322.307 771.304C323.099 773.728 325.547 776.344 327.419 777.568L328.691 775.984ZM360.081 765.472V763.768H344.241V765.472H351.033V765.736C351.033 769.168 346.665 772.048 343.377 772.552L344.433 774.304C347.697 773.488 351.225 771.112 352.137 768.616C353.217 771.064 356.649 773.44 359.889 774.304L360.945 772.624C357.801 772.048 353.265 769.12 353.265 765.736V765.472H360.081ZM361.617 780.016V778.288H353.169V773.368H351.033V778.288H342.681V780.016H361.617ZM380.391 782.68V761.704H378.255V782.68H380.391ZM363.831 770.68C363.831 774.856 365.511 778.12 369.231 778.12C372.951 778.12 374.607 774.856 374.607 770.704C374.607 766.528 372.951 763.288 369.231 763.288C365.511 763.288 363.831 766.528 363.831 770.68ZM372.495 770.704C372.495 773.944 371.391 776.272 369.231 776.272C367.095 776.272 365.991 773.944 365.991 770.704C365.991 767.464 367.095 765.112 369.231 765.112C371.391 765.112 372.495 767.464 372.495 770.704ZM400.797 782.68V761.704H398.661V769.072H393.981V770.872H398.661V782.68H400.797ZM396.117 776.104C393.165 774.28 390.813 770.968 390.813 767.032V763.504H388.629V767.128C388.629 770.992 386.397 774.64 383.229 776.632L384.573 778.192C386.925 776.632 389.013 773.968 389.733 771.4C390.525 773.848 392.973 776.464 394.845 777.688L396.117 776.104ZM426.571 778.84C426.571 776.632 424.243 775.288 420.331 775.096V773.248H428.779V771.496H409.843V773.248H418.195V775.12C414.331 775.312 412.075 776.632 412.075 778.84C412.075 781.24 414.763 782.632 419.299 782.632C423.835 782.632 426.571 781.24 426.571 778.84ZM427.891 768.64C424.987 768.4 421.291 766.864 420.571 764.44H426.955V762.712H411.667V764.44H418.099C417.427 766.84 414.019 768.4 410.779 768.664L411.715 770.32C415.291 769.864 418.411 768.088 419.299 766.12C420.403 768.04 423.619 769.864 426.931 770.32L427.891 768.64ZM419.299 776.8C422.347 776.8 424.387 777.472 424.387 778.864C424.387 780.232 422.371 780.904 419.299 780.904C416.251 780.904 414.259 780.232 414.259 778.864C414.259 777.472 416.251 776.8 419.299 776.8ZM447.457 773.896V761.704H445.321V773.896H447.457ZM447.457 782.392V774.928H433.825V782.392H447.457ZM445.321 780.712H435.937V776.632H445.321V780.712ZM436.297 762.88C433.249 762.88 430.777 764.968 430.777 767.944C430.777 770.968 433.273 772.888 436.297 772.888C439.345 772.888 441.817 770.944 441.817 767.944C441.817 764.944 439.321 762.88 436.297 762.88ZM436.297 764.704C438.337 764.704 439.657 766.072 439.657 767.944C439.657 769.816 438.289 771.136 436.297 771.136C434.329 771.136 432.913 769.816 432.913 767.92C432.913 766.072 434.305 764.704 436.297 764.704ZM465.918 761.704V782.68H468.006V761.704H465.918ZM462.894 768.328C462.894 765.328 460.494 763.384 457.398 763.384C454.326 763.384 451.926 765.424 451.926 768.328C451.926 771.16 454.302 773.104 457.398 773.104C460.446 773.104 462.894 771.232 462.894 768.328ZM460.806 768.304C460.806 770.128 459.222 771.328 457.398 771.328C455.55 771.328 454.038 770.104 454.038 768.304C454.038 766.48 455.55 765.16 457.398 765.16C459.294 765.16 460.806 766.384 460.806 768.304ZM464.79 777.376L464.574 775.696C462.894 775.888 460.422 776.056 457.446 776.176C454.974 776.296 452.526 776.32 450.51 776.32L450.846 778.144C452.526 778.12 454.734 778.072 457.11 777.952C459.774 777.808 462.87 777.616 464.79 777.376ZM494.692 782.152V780.424H482.644V775.528H480.508V782.152H494.692ZM492.076 769.912V776.944H494.213V761.704H492.076V768.16H487.708V769.912H492.076ZM478.132 763.36V765.112H485.212C484.612 768.784 481.468 771.784 477.124 772.864L478.204 774.592C483.7 772.984 487.348 769.072 487.54 763.36H478.132Z" fill="#666666"/>
<path d="M334.292 482.68V461.704H332.156V469.072H327.476V470.872H332.156V482.68H334.292ZM329.612 476.104C326.66 474.28 324.308 470.968 324.308 467.032V463.504H322.124V467.128C322.124 470.992 319.892 474.64 316.724 476.632L318.068 478.192C320.42 476.632 322.508 473.968 323.228 471.4C324.02 473.848 326.468 476.464 328.34 477.688L329.612 476.104ZM354.817 482.536V480.784H341.713V479.176H354.025V474.328H347.881V472.36H356.329V470.632H337.393V472.36H345.745V474.328H339.553V476.056H351.913V477.592H339.601V482.536H354.817ZM354.361 465.832C354.361 463.48 351.577 462.136 346.873 462.136C342.241 462.136 339.409 463.48 339.409 465.832C339.409 468.208 342.241 469.528 346.873 469.528C351.577 469.528 354.361 468.208 354.361 465.832ZM346.873 463.816C350.113 463.816 352.153 464.608 352.153 465.832C352.153 467.08 350.113 467.872 346.873 467.872C343.681 467.872 341.641 467.08 341.641 465.832C341.641 464.608 343.681 463.816 346.873 463.816ZM375.151 482.68V461.704H373.039V482.68H375.151ZM370.543 476.056C367.639 474.376 365.287 470.968 365.287 467.032V463.552H363.079V467.128C363.079 470.992 360.847 474.64 357.703 476.632L359.023 478.192C361.399 476.632 363.463 473.968 364.207 471.4C364.975 473.848 367.399 476.344 369.271 477.64L370.543 476.056ZM403.469 468.736V466.984H400.349V461.704H398.213V474.28H400.349V468.736H403.469ZM400.637 478.552C400.637 476.008 397.997 474.448 393.557 474.448C389.117 474.448 386.477 476.008 386.477 478.552C386.477 481.072 389.117 482.656 393.557 482.656C397.997 482.656 400.637 481.072 400.637 478.552ZM393.557 476.176C396.581 476.176 398.453 477.04 398.453 478.552C398.453 480.04 396.581 480.928 393.557 480.928C390.533 480.928 388.685 480.04 388.685 478.552C388.685 477.04 390.533 476.176 393.557 476.176ZM385.037 463.288V465.04H392.165C391.589 468.712 387.893 471.568 383.957 472.408L385.061 474.136C390.509 472.504 394.325 468.856 394.517 463.288H385.037ZM423.875 468.136V466.384H420.755V461.704H418.619V473.296H420.755V468.136H423.875ZM420.755 482.392V474.544H407.459V482.392H420.755ZM418.643 480.688H409.571V476.248H418.643V480.688ZM417.011 471.184L416.675 469.432C414.203 469.984 410.363 470.368 407.243 470.32V462.928H405.155V472.12H407.099C410.195 472.096 414.515 471.76 417.011 471.184ZM441.496 463.24H427.144V464.992H439.336C439.336 467.272 439.168 470.296 438.64 472.432H424.96V474.136H433.336V482.68H435.472V474.136H443.896V472.432H440.728C441.328 469.48 441.496 466.312 441.496 463.24ZM454.455 480.088H456.567V463.6H455.415L451.527 465.4V466.624L454.455 465.976V480.088ZM460.291 479.992H470.395V478.216H463.195L465.595 475.792C468.235 473.128 470.083 471.064 470.083 468.232C470.083 465.352 468.307 463.552 464.995 463.552C463.171 463.552 461.515 464.32 460.507 464.992L461.011 466.624C461.947 466 463.243 465.352 464.587 465.352C466.843 465.352 467.851 466.36 467.851 468.448C467.851 470.704 466.267 472.528 463.987 474.904L460.291 478.744V479.992ZM473.646 480.064H476.022L482.238 465.232V463.888H471.894V465.664H479.91L473.646 480.064ZM491.09 480.064H493.466L499.682 465.232V463.888H489.338V465.664H497.354L491.09 480.064ZM517.805 479.128C517.805 476.896 515.285 475.528 510.365 475.528C505.445 475.528 502.949 476.968 502.949 479.128C502.949 481.336 505.445 482.704 510.365 482.704C515.285 482.704 517.805 481.36 517.805 479.128ZM518.909 469.72C515.957 469.552 512.477 468.376 511.637 466.576H517.877V464.896H502.853V466.576H509.165C508.397 468.376 505.085 469.552 501.821 469.72L502.757 471.472C506.021 471.16 509.237 469.816 510.365 467.92C511.517 469.768 514.949 471.136 518.021 471.472L518.909 469.72ZM519.845 474.184V472.456H500.909V474.184H519.845ZM510.365 477.28C513.581 477.28 515.597 477.952 515.597 479.128C515.597 480.304 513.581 480.976 510.365 480.976C507.197 480.976 505.205 480.304 505.205 479.128C505.205 477.952 507.197 477.28 510.365 477.28ZM513.749 463.432V461.704H506.957V463.432H513.749ZM541.396 478.672L541.204 476.992C539.764 477.184 537.46 477.352 535.228 477.448V475.672C537.676 475.384 539.308 474.04 539.308 472.168C539.308 470.008 537.22 468.64 534.22 468.64C531.268 468.64 529.156 470.032 529.156 472.168C529.156 474.016 530.74 475.336 533.116 475.648V477.568C531.052 477.664 529.012 477.712 527.284 477.712L527.644 479.488C529.396 479.488 531.94 479.368 534.244 479.272C536.812 479.128 539.62 478.888 541.396 478.672ZM544.612 482.68V461.704H542.5V482.68H544.612ZM540.532 467.56V465.856H528.028V467.56H540.532ZM537.1 472.168C537.1 473.2 535.9 474.016 534.22 474.016C532.564 474.016 531.388 473.2 531.388 472.168C531.388 471.112 532.564 470.32 534.22 470.32C535.9 470.32 537.1 471.112 537.1 472.168ZM537.148 464.416V462.712H531.076V464.416H537.148ZM562.929 461.704V482.68H565.017V461.704H562.929ZM559.905 468.328C559.905 465.328 557.505 463.384 554.409 463.384C551.337 463.384 548.937 465.424 548.937 468.328C548.937 471.16 551.313 473.104 554.409 473.104C557.457 473.104 559.905 471.232 559.905 468.328ZM557.817 468.304C557.817 470.128 556.233 471.328 554.409 471.328C552.561 471.328 551.049 470.104 551.049 468.304C551.049 466.48 552.561 465.16 554.409 465.16C556.305 465.16 557.817 466.384 557.817 468.304ZM561.801 477.376L561.585 475.696C559.905 475.888 557.433 476.056 554.457 476.176C551.985 476.296 549.537 476.32 547.521 476.32L547.857 478.144C549.537 478.12 551.745 478.072 554.121 477.952C556.785 477.808 559.881 477.616 561.801 477.376ZM585.399 472.408V461.704H583.263V472.408H585.399ZM580.719 470.512C578.415 469.768 575.535 467.464 575.535 464.104V462.4H573.351V464.2C573.351 467.512 570.807 470.104 567.975 471.208L569.247 472.816C571.575 471.76 573.831 469.672 574.479 467.512C575.439 469.624 577.647 471.376 579.519 472.12L580.719 470.512ZM585.999 482.44V480.712H573.711V478.696H585.399V473.536H571.527V475.264H583.263V477.088H571.575V482.44H585.999Z" fill="#666666"/>
<path d="M334.03 430.672C334.03 428.08 331.342 426.424 326.758 426.424C322.198 426.424 319.534 428.08 319.534 430.672C319.534 433.216 322.198 434.896 326.758 434.896C331.342 434.896 334.03 433.216 334.03 430.672ZM317.398 416.92H321.862V417.088C321.862 420.256 319.606 422.824 316.606 423.928L318.046 425.848C320.206 425.032 322.486 422.944 323.11 420.856C324.046 422.848 326.086 424.528 327.886 425.248L329.23 423.304C326.758 422.512 324.382 420.136 324.382 416.992V416.92H328.654V414.88H317.398V416.92ZM336.91 420.832V418.792H333.742V413.512H331.27V426.16H333.742V420.832H336.91ZM331.51 430.672C331.51 432.064 329.758 432.904 326.758 432.904C323.782 432.904 322.054 432.064 322.054 430.672C322.054 429.232 323.782 428.416 326.758 428.416C329.758 428.416 331.51 429.232 331.51 430.672ZM356.236 423.208C353.02 422.608 348.508 419.632 348.508 416.008V414.736H345.94V416.008C345.94 419.68 341.716 422.56 338.212 423.112L339.412 425.104C342.652 424.336 346.204 421.888 347.188 419.224C348.292 421.864 351.772 424.288 354.964 425.104L356.236 423.208ZM356.86 432.208V430.216H348.388V424.96H345.94V430.216H337.54V432.208H356.86Z" fill="#2E2E2E"/>
</svg>
