<svg width="200" height="37" viewBox="0 0 200 37" fill="none" xmlns="http://www.w3.org/2000/svg">
<g clip-path="url(#clip0)">
<path opacity="0.56" d="M189.684 0.429727C177.481 2.61204 165.226 1.8787 152.996 1.64671C140.511 1.41078 128.022 1.60346 115.536 1.61329C102.95 1.62312 90.3657 1.63491 77.7801 1.64474C65.5222 1.65457 53.3032 2.75163 41.056 3.70123C27.5946 4.74717 14.1324 4.88282 0.729026 1.60346C0.204868 1.47566 -0.398078 12.7352 0.352495 13.0183C12.263 17.5068 24.4057 17.4989 36.4646 16.8914C48.5028 16.2859 60.5136 15.1593 72.5585 15.2164C97.8408 15.3343 123.124 15.0866 148.406 15.2852C162.014 15.3913 175.648 16.5985 189.229 14.1921C190.272 14.0072 190.159 0.345187 189.684 0.429727Z" fill="#5DC5BD" fill-opacity="0.3"/>
<path opacity="0.56" d="M199.724 17.6816C198.622 19.0815 196.693 18.2852 195.495 18.0001C193.263 17.4693 191.06 16.4823 188.843 15.7215C182.943 13.6984 176.838 13.4153 170.876 12.7567C157.117 11.2369 143.428 11.1642 129.664 12.562C115.863 13.9638 102.08 16.2838 88.265 17.0387C74.3682 17.7996 60.5626 15.9358 46.7097 13.8478C39.3467 12.739 31.9338 11.3215 24.5467 11.7619C17.7866 12.1629 11.1085 12.2593 4.35336 11.8366C4.00254 11.815 3.72553 18.0473 4.13358 18.4897C9.53356 24.3308 16.1112 23.1512 21.9989 22.9801C28.3924 22.7934 34.7644 23.6682 41.1397 24.6395C54.9835 26.7451 68.7899 29.3875 82.6825 29.2636C110.289 29.0179 137.75 22.3235 165.372 25.131C172.616 25.8663 179.971 26.3047 187.166 28.3238C189.47 28.9707 191.743 30.0461 194.044 30.7499C195.546 31.21 197.919 32.6059 199.296 30.5946C199.986 29.588 199.943 25.7876 199.996 24.2109C200.014 23.7371 199.91 17.4437 199.724 17.6816Z" fill="#5DC5BD" fill-opacity="0.3"/>
<path opacity="0.56" d="M196.031 19.5985C184.025 19.6772 172.176 13.5274 160.212 11.8759C146.881 10.0357 133.509 11.0364 120.176 12.2514C93.4592 14.6873 66.7288 14.3747 40.0424 18.4602C32.7399 19.5789 25.4489 21.2579 18.1837 23.1866C15.6318 23.8648 13.1196 25.0307 10.576 25.8269C8.05554 26.6153 5.25395 27.8815 2.77747 26.0609C2.65556 25.9705 1.93899 32.7691 2.53447 33.4316C6.6647 38.0302 11.9336 35.549 16.3185 34.4107C22.3803 32.8359 28.5209 32.0023 34.6109 31.0429C48.0723 28.9215 61.6141 28.1724 75.107 27.5178C88.4274 26.8729 101.727 26.8198 115.043 25.6264C128.252 24.4429 141.483 23.1866 154.701 24.378C161.725 25.011 168.682 26.5623 175.641 28.6404C182.247 30.6143 188.897 32.9362 195.58 33.1623C196.449 33.1937 196.674 19.5946 196.031 19.5985Z" fill="#5DC5BD" fill-opacity="0.3"/>
<path opacity="0.56" d="M180.663 24.7378C159.011 24.7456 137.411 21.9853 115.755 23.102C105.045 23.6525 94.3417 24.6316 83.6305 25.072C72.5991 25.5262 61.5603 25.3748 50.5273 25.3964C44.5733 25.4082 38.6193 25.418 32.6645 25.4986C26.475 25.5812 19.9396 24.7869 13.8479 27.3664C13.5427 27.4961 13.4241 32.0102 13.6912 32.1282C19.0389 34.4658 24.7499 34.0509 30.193 34.3714C35.5557 34.686 40.9167 35.034 46.2793 35.3348C57.1564 35.9442 68.0327 36.4928 78.9147 36.4456C100.596 36.3493 122.284 33.7678 143.964 35.2207C156.07 36.0327 168.141 37.0059 180.257 37.002C181.054 36.9981 181.237 24.7378 180.663 24.7378Z" fill="#5DC5BD" fill-opacity="0.3"/>
</g>
<defs>
<clipPath id="clip0">
<rect width="200" height="36.5704" fill="white" transform="translate(0 0.429573)"/>
</clipPath>
</defs>
</svg>
