<svg width="32" height="32" viewBox="0 0 32 32" fill="none" xmlns="http://www.w3.org/2000/svg">
<rect width="32" height="32" rx="16" fill="#379683"/>
<rect width="32" height="32" rx="16" fill="#3AA38E"/>
<rect width="32" height="32" rx="16" fill="url(#paint0_linear)"/>
<path d="M9.31066 13.6893L13.1893 9.81066C14.1343 8.86571 15.75 9.53496 15.75 10.8713L15.75 14.75C15.75 15.5784 15.0784 16.25 14.25 16.25L10.3713 16.25C9.03496 16.25 8.36571 14.6343 9.31066 13.6893Z" fill="white"/>
<path fill-rule="evenodd" clip-rule="evenodd" d="M16.2497 7.37158C15.8519 7.37158 15.4704 7.52962 15.1891 7.81092L6.81567 16.1843C6.53173 16.4683 6.36756 16.8553 6.39751 17.2557C6.75272 22.0061 10.7196 25.75 15.5608 25.75C19.0646 25.75 22.1104 23.789 23.6605 20.9047C24.2819 19.7484 24.6629 18.4438 24.7368 17.0576L24.7375 17.0444L24.7377 17.0406C24.7378 17.0375 24.7416 17.0361 24.7438 17.0383V17.0383C24.7461 17.0405 24.75 17.0389 24.75 17.0357L24.75 17.0332L24.75 17.0207L24.75 16.5901L24.75 16.5608L24.75 16.5315L24.75 12.0947L24.75 10.8716L24.75 8.87158C24.75 8.04315 24.0784 7.37158 23.25 7.37158H21.25H20.0269H16.2497ZM21.2426 16.8558L21.25 16.7097V16.5901C21.25 16.5901 21.2499 16.5901 21.2499 16.5901V16.5901C21.2499 16.5901 21.2499 16.5901 21.2499 16.5901L21.25 16.5792L21.25 16.5608L21.25 16.5424C21.25 16.5424 21.25 16.5424 21.25 16.5424V16.5424C21.25 16.5424 21.25 16.5424 21.25 16.5424V16.5315L21.25 12.3716C21.25 11.5432 20.5784 10.8716 19.75 10.8716L15.5608 10.8716H15.4128L15.2658 10.879C12.2624 11.0309 9.87162 13.5177 9.87162 16.5608C9.87162 19.7028 12.4188 22.25 15.5608 22.25C18.6038 22.25 21.0907 19.8592 21.2426 16.8558Z" fill="white"/>
<defs>
<linearGradient id="paint0_linear" x1="32" y1="16" x2="0" y2="16" gradientUnits="userSpaceOnUse">
<stop stop-color="#71CF98"/>
<stop offset="1" stop-color="#4AA570"/>
</linearGradient>
</defs>
</svg>
