<svg width="128" height="32" viewBox="0 0 128 32" fill="none" xmlns="http://www.w3.org/2000/svg">
<rect width="32" height="32" rx="16" fill="#379683"/>
<rect width="32" height="32" rx="16" fill="#3AA38E"/>
<rect width="32" height="32" rx="16" fill="url(#paint0_linear)"/>
<path d="M9.31066 13.6893L13.1893 9.81066C14.1343 8.86571 15.75 9.53496 15.75 10.8713L15.75 14.75C15.75 15.5784 15.0784 16.25 14.25 16.25L10.3713 16.25C9.03496 16.25 8.36571 14.6343 9.31066 13.6893Z" fill="white"/>
<path fill-rule="evenodd" clip-rule="evenodd" d="M16.2497 7.37158C15.8519 7.37158 15.4704 7.52962 15.1891 7.81092L6.81567 16.1843C6.53173 16.4683 6.36756 16.8553 6.39751 17.2557C6.75272 22.0061 10.7196 25.75 15.5608 25.75C19.0646 25.75 22.1104 23.789 23.6605 20.9047C24.2819 19.7484 24.6629 18.4438 24.7368 17.0576L24.7375 17.0444L24.7377 17.0406C24.7378 17.0375 24.7416 17.0361 24.7438 17.0383V17.0383C24.7461 17.0405 24.75 17.0389 24.75 17.0357L24.75 17.0332L24.75 17.0207L24.75 16.5901L24.75 16.5608L24.75 16.5315L24.75 12.0947L24.75 10.8716L24.75 8.87158C24.75 8.04315 24.0784 7.37158 23.25 7.37158H21.25H20.0269H16.2497ZM21.2426 16.8558L21.25 16.7097V16.5901C21.25 16.5901 21.2499 16.5901 21.2499 16.5901V16.5901C21.2499 16.5901 21.2499 16.5901 21.2499 16.5901L21.25 16.5792L21.25 16.5608L21.25 16.5424C21.25 16.5424 21.25 16.5424 21.25 16.5424V16.5424C21.25 16.5424 21.25 16.5424 21.25 16.5424V16.5315L21.25 12.3716C21.25 11.5432 20.5784 10.8716 19.75 10.8716L15.5608 10.8716H15.4128L15.2658 10.879C12.2624 11.0309 9.87162 13.5177 9.87162 16.5608C9.87162 19.7028 12.4188 22.25 15.5608 22.25C18.6038 22.25 21.0907 19.8592 21.2426 16.8558Z" fill="white"/>
<path d="M39.8989 15.8404C42.5363 15.5662 45.8277 14.1736 47.0092 12.0426C48.1908 14.1947 51.5033 15.524 54.1829 15.8193L55.3433 13.4985C52.1363 13.2031 49.0769 11.684 48.7393 9.32088H54.5204V7H39.5191V9.32088H45.258C44.9415 11.7051 41.9666 13.2453 38.7385 13.5407C39.1182 14.3213 39.5191 15.0598 39.8989 15.8404ZM48.444 26.2V19.4695H56.0607V17.0853H38V19.4695H45.4901V26.2H48.444Z" fill="#4AA570"/>
<path d="M59.3082 15.8404C61.9456 15.5662 65.237 14.1736 66.4186 12.0426C67.6001 14.1947 70.9126 15.524 73.5922 15.8193L74.7526 13.4985C71.5456 13.2031 68.4863 11.684 68.1487 9.32088H73.9298V7H58.9285V9.32088H64.6674C64.3509 11.7051 61.3759 13.2453 58.1478 13.5407C58.5276 14.3213 58.9285 15.0598 59.3082 15.8404ZM67.8533 26.2V19.4695H75.47V17.0853H57.4093V19.4695H64.8995V26.2H67.8533Z" fill="#4AA570"/>
<path d="M80 22.612H86.8794V20.9979H82.0529V11.188H80V16.9V22.612Z" fill="#4AA570"/>
<path d="M88.7841 22.612H96.024V20.9979H90.837V17.5347H94.786V15.9363H90.837V12.8021H95.9299V11.188H88.7841V22.612Z" fill="#4AA570"/>
<path d="M103.269 22.8C104.805 22.8 106.137 22.4552 106.999 22.1105V16.7981H102.877V18.3339H105.008V20.9352C104.585 21.0762 103.911 21.1859 103.253 21.1859C100.574 21.1859 99.9468 19.5092 99.9468 17.1272V16.6101C99.9468 14.4632 100.746 12.6611 103.441 12.6611C104.946 12.6611 105.839 13.0058 106.513 13.3036V11.6738C105.855 11.3134 104.852 11 103.379 11C100.417 11 97.7842 12.426 97.7842 16.7825V17.1429C97.7842 21.1546 99.9154 22.8 103.269 22.8Z" fill="#4AA570"/>
<path d="M113.238 13.617H113.285L114.884 18.1772H111.64L113.238 13.617ZM108.224 22.612H110.12L111.154 19.7129H115.401L116.435 22.612H118.551L114.492 11.188H112.392L108.224 22.612Z" fill="#4AA570"/>
<path d="M120.187 22.612H127.066V20.9979H122.239V11.188H120.187V22.612Z" fill="#4AA570"/>
<defs>
<linearGradient id="paint0_linear" x1="32" y1="16" x2="0" y2="16" gradientUnits="userSpaceOnUse">
<stop stop-color="#71CF98"/>
<stop offset="1" stop-color="#4AA570"/>
</linearGradient>
</defs>
</svg>
