<svg width="991" height="1335" viewBox="0 0 991 1335" fill="none" xmlns="http://www.w3.org/2000/svg">
<g clip-path="url(#clip0)">
<g filter="url(#filter0_dddddd)">
<path d="M96 109C96 97.9543 104.954 89 116 89H864.834C875.879 89 884.833 97.9543 884.833 109V1058C884.833 1069.05 875.879 1078 864.833 1078H116C104.954 1078 96 1069.05 96 1058V109Z" fill="white"/>
<path d="M96.5 109C96.5 98.2304 105.23 89.5 116 89.5H864.834C875.603 89.5 884.333 98.2304 884.333 109V1058C884.333 1068.77 875.603 1077.5 864.833 1077.5H116C105.23 1077.5 96.5 1068.77 96.5 1058V109Z" stroke="#E3E3E3"/>
</g>
<path opacity="0.56" d="M390.592 128.368V126.376H374.848V128.368H381.448C381.016 131.032 377.224 133.048 373.936 133.384L375.112 135.328C378.256 134.848 381.712 132.904 382.744 130.816C383.824 132.784 387.376 134.8 390.376 135.232L391.48 133.288C388.288 132.952 384.52 131.008 384.088 128.368H390.592ZM383.92 146.872V139.264H392.392V137.296H373.072V139.264H381.472V146.872H383.92ZM411.357 128.368V126.376H395.613V128.368H402.213C401.781 131.032 397.989 133.048 394.701 133.384L395.877 135.328C399.021 134.848 402.477 132.904 403.509 130.816C404.589 132.784 408.141 134.8 411.141 135.232L412.245 133.288C409.053 132.952 405.285 131.008 404.853 128.368H411.357ZM404.685 146.872V139.264H413.157V137.296H393.837V139.264H402.237V146.872H404.685ZM431.691 143.344C431.691 141.184 429.291 139.624 424.251 139.624C419.259 139.624 416.859 141.184 416.859 143.344C416.859 145.528 419.259 147.088 424.275 147.088C429.291 147.088 431.691 145.528 431.691 143.344ZM433.035 133.432C429.915 133.336 426.507 132.112 425.691 130.432H431.979V128.464H416.523V130.432H422.883C422.091 132.136 418.851 133.36 415.419 133.432L416.451 135.424C419.859 135.184 423.075 133.864 424.251 131.992C425.475 133.816 428.859 135.16 432.027 135.424L433.035 133.432ZM433.923 138.712V136.72H425.451V134.248H423.003V136.72H414.603V138.712H433.923ZM429.147 143.344C429.147 144.472 427.299 145.12 424.251 145.12C421.251 145.12 419.379 144.472 419.379 143.344C419.379 142.24 421.251 141.64 424.251 141.64C427.299 141.64 429.147 142.24 429.147 143.344ZM420.747 127.384H427.755V125.464H420.747V127.384ZM449.576 140.944C447.992 141.16 445.736 141.304 443.552 141.4V139.528C445.976 139.192 447.608 137.824 447.608 136C447.608 133.864 445.448 132.376 442.376 132.376C439.352 132.376 437.192 133.864 437.192 136C437.192 137.776 438.752 139.144 441.104 139.504V141.496C439.136 141.544 437.168 141.544 435.344 141.544L435.728 143.584C440.576 143.536 445.304 143.392 449.768 142.864L449.576 140.944ZM453.248 125.512H450.776V146.896H453.248V125.512ZM448.64 131.608V129.688H436.088V131.608H448.64ZM445.088 136C445.088 136.984 443.96 137.68 442.376 137.68C440.864 137.68 439.712 136.984 439.712 136C439.712 134.992 440.864 134.296 442.376 134.296C443.96 134.296 445.088 134.992 445.088 136ZM439.256 128.536H445.472V126.568H439.256V128.536ZM457.622 137.248H460.286V134.632H457.622V137.248ZM480.992 146.896V125.512H478.544V146.896H480.992ZM464.024 134.656C464.024 139.168 466.064 142.144 469.496 142.144C472.928 142.144 474.92 139.168 474.92 134.68C474.92 130.144 472.928 127.168 469.496 127.168C466.064 127.168 464.024 130.144 464.024 134.656ZM472.592 134.656C472.592 138.088 471.32 140.152 469.496 140.152C467.696 140.152 466.448 138.088 466.448 134.656C466.448 131.224 467.696 129.184 469.496 129.184C471.32 129.184 472.592 131.224 472.592 134.656ZM500.773 125.512H498.301V146.896H500.773V135.928H503.989V133.864H500.773V125.512ZM496.957 139.816C493.813 137.848 491.629 134.44 491.629 130.336V127.36H489.109V130.48C489.109 134.56 486.997 138.088 483.661 140.248L485.173 142.048C487.525 140.632 489.661 137.944 490.405 135.4C491.173 137.752 493.669 140.488 495.493 141.664L496.957 139.816ZM519.139 140.944C517.555 141.16 515.299 141.304 513.115 141.4V139.528C515.539 139.192 517.171 137.824 517.171 136C517.171 133.864 515.011 132.376 511.939 132.376C508.915 132.376 506.755 133.864 506.755 136C506.755 137.776 508.315 139.144 510.667 139.504V141.496C508.699 141.544 506.731 141.544 504.907 141.544L505.291 143.584C510.139 143.536 514.867 143.392 519.331 142.864L519.139 140.944ZM522.811 125.512H520.339V146.896H522.811V125.512ZM518.203 131.608V129.688H505.651V131.608H518.203ZM514.651 136C514.651 136.984 513.523 137.68 511.939 137.68C510.427 137.68 509.275 136.984 509.275 136C509.275 134.992 510.427 134.296 511.939 134.296C513.523 134.296 514.651 134.992 514.651 136ZM508.819 128.536H515.035V126.568H508.819V128.536ZM548.609 125.512H546.161V141.016H548.609V133.672H551.777V131.608H548.609V125.512ZM549.233 146.248V144.256H537.377V139.456H534.905V146.248H549.233ZM543.425 132.376C543.425 129.328 541.217 127.12 537.929 127.12C534.641 127.12 532.433 129.352 532.433 132.376C532.433 135.424 534.665 137.608 537.929 137.608C541.217 137.608 543.425 135.4 543.425 132.376ZM540.953 132.376C540.953 134.128 539.801 135.52 537.929 135.52C536.105 135.52 534.881 134.128 534.881 132.376C534.881 130.552 536.105 129.184 537.929 129.184C539.801 129.184 540.953 130.48 540.953 132.376ZM570.359 141.016V125.512H567.911V131.992H563.711V134.008H567.911V141.016H570.359ZM563.687 127.168H553.847V129.232H561.023C560.375 133.12 556.775 135.76 552.839 136.6L554.111 138.568C559.751 136.84 563.495 133.12 563.687 127.168ZM570.863 146.344V144.376H558.839V139.6H556.367V146.344H570.863ZM594.981 132.52V141.016H597.453V125.512H594.981V130.48H591.093V132.52H594.981ZM597.909 146.272V144.304H585.957V139.624H583.485V146.272H597.909ZM592.485 135.952C590.013 135.112 587.373 132.448 587.373 129.064V126.712H584.853V129.184C584.853 132.496 582.597 135.376 579.573 136.528L581.085 138.472C583.173 137.632 585.477 135.376 586.125 133.12C587.085 135.184 589.269 137.152 591.069 137.896L592.485 135.952ZM618.603 138.064V125.512H616.251V130.696H614.139V125.896H611.811V137.872H614.139V132.736H616.251V138.064H618.603ZM609.363 131.128H603.867V129.016H609.675V127.048H601.443V137.224L603.435 137.248C606.075 137.224 608.955 137.032 610.779 136.648L610.467 134.728C608.811 135.088 606.651 135.256 603.867 135.256V133.048H609.363V131.128ZM618.603 146.896V139.192H604.035V141.16H616.155V146.896H618.603Z" fill="#2E2E2E"/>
<rect x="96.5" y="180.5" width="788" height="119" stroke="#E3E3E3"/>
<rect x="96.5" y="299.5" width="788" height="119" stroke="#E3E3E3"/>
<rect x="96.5" y="418.5" width="788" height="119" stroke="#E3E3E3"/>
<path d="M96.5 537.5H884.5V656.5H96.5V537.5Z" stroke="#E3E3E3"/>
<path d="M96.5 840.5H884.5V959.5H96.5V840.5Z" stroke="#E3E3E3"/>
<path d="M262.744 249.896V228.512H260.392V237.008H258.28V228.944H255.952V248.888H258.28V239.072H260.392V249.896H262.744ZM255.304 243.104C252.904 241.712 251.2 238.664 251.2 234.416V233H254.704V231.032H245.032V233H248.8V234.488C248.8 238.736 247.096 241.832 244.264 243.704L245.8 245.36C247.648 244.208 249.496 241.76 249.976 239.648C250.552 241.688 252.424 243.968 253.864 244.88L255.304 243.104ZM282.31 229.4H267.958V237.848H282.31V229.4ZM276.334 249.92V242.72H284.806V240.728H265.486V242.72H273.886V249.92H276.334ZM279.862 235.856H270.43V231.392H279.862V235.856ZM304.275 249.896V228.512H301.923V237.008H299.811V228.944H297.483V248.888H299.811V239.072H301.923V249.896H304.275ZM296.835 243.104C294.435 241.712 292.731 238.664 292.731 234.416V233H296.235V231.032H286.563V233H290.331V234.488C290.331 238.736 288.627 241.832 285.795 243.704L287.331 245.36C289.179 244.208 291.027 241.76 291.507 239.648C292.083 241.688 293.955 243.968 295.395 244.88L296.835 243.104ZM326.337 247.136V245.168H321.345V240.872H318.897V245.168H314.385V240.872H311.937V245.168H307.017V247.136H326.337ZM324.441 239.816V237.824H321.417L322.113 233.6L319.713 233.192L319.089 237.824H314.337L314.049 233.144L311.577 233.456L311.985 237.824H308.817V239.816H324.441ZM324.465 232.184V230.216H308.793V232.184H324.465ZM353.407 238.352H334.087V240.32H353.407V238.352ZM352.543 235.016C349.519 234.824 345.055 232.544 345.055 229.376V228.752H342.487V229.376C342.487 232.544 338.479 234.632 334.999 234.992L336.055 236.936C339.223 236.432 342.727 234.608 343.759 232.256C344.815 234.608 348.511 236.504 351.463 236.96L352.543 235.016ZM351.175 245.984C351.175 243.632 348.463 242.072 343.735 242.072C339.031 242.072 336.343 243.632 336.343 245.984C336.343 248.36 339.031 249.896 343.759 249.896C348.463 249.896 351.175 248.36 351.175 245.984ZM348.631 245.984C348.631 247.232 346.759 247.904 343.735 247.904C340.735 247.904 338.863 247.232 338.863 245.984C338.863 244.76 340.735 244.04 343.735 244.04C346.759 244.04 348.631 244.76 348.631 245.984ZM372.445 244.016V228.512H369.997V244.016H372.445ZM372.949 249.272V247.304H360.757V242.552H358.309V249.272H372.949ZM366.445 235.328C366.445 232.28 364.237 230.096 360.973 230.096C357.685 230.096 355.453 232.304 355.453 235.352C355.453 238.376 357.709 240.56 360.973 240.56C364.237 240.56 366.445 238.376 366.445 235.328ZM363.997 235.328C363.997 237.08 362.845 238.472 360.973 238.472C359.149 238.472 357.925 237.08 357.925 235.328C357.925 233.504 359.149 232.136 360.973 232.136C362.845 232.136 363.997 233.456 363.997 235.328Z" fill="black" fill-opacity="0.68"/>
<circle cx="210" cy="240" r="22" fill="#F2F2F2"/>
<path opacity="0.6" d="M204 243.333L205.786 240.357C205.883 240.195 206.117 240.195 206.214 240.357L207.733 242.889C207.841 243.069 208.108 243.044 208.182 242.848L209.773 238.604C209.854 238.39 210.155 238.387 210.24 238.599L212.404 244.009C212.491 244.228 212.805 244.215 212.875 243.99L215.15 236.596C215.216 236.381 215.512 236.356 215.612 236.558L217.333 240" stroke="#585858" stroke-width="1.5" stroke-linecap="round" stroke-linejoin="round"/>
<path d="M262.504 483.696C262.504 481.128 259.84 479.448 255.208 479.448C250.6 479.448 247.96 481.128 247.96 483.696C247.96 486.216 250.6 487.896 255.208 487.896C259.84 487.896 262.504 486.216 262.504 483.696ZM245.464 469.92H249.904V470.112C249.904 473.28 247.624 475.848 244.624 476.952L246.112 478.872C248.248 478.056 250.552 475.968 251.176 473.88C252.088 475.872 254.2 477.552 255.952 478.248L257.32 476.304C254.824 475.536 252.448 473.184 252.448 469.992V469.92H256.72V467.88H245.464V469.92ZM256.384 473.736H259.864V479.376H262.336V466.512H259.864V471.696H256.384V473.736ZM255.208 481.464C258.232 481.464 259.984 482.28 259.984 483.696C259.984 485.088 258.232 485.904 255.208 485.904C252.256 485.904 250.504 485.088 250.504 483.696C250.504 482.28 252.256 481.464 255.208 481.464ZM285.334 475.056V473.016H282.262V466.512H279.814V482.448H282.262V475.056H285.334ZM282.934 487.344V485.376H270.886V481.08H268.414V487.344H282.934ZM278.542 476.904C277.03 477.12 273.982 477.336 271.822 477.408H271.774V473.016H269.35V477.504C267.79 477.528 266.182 477.504 264.934 477.504L265.294 479.544C269.902 479.496 274.702 479.304 278.758 478.752L278.542 476.904ZM277.15 468.072H266.422V470.064H274.678C274.702 471.888 274.486 473.976 274.174 475.272L276.526 475.632C277.006 473.808 277.126 471.288 277.15 468.072ZM296.883 478.536V467.832H294.411V471.36H289.467V467.856H286.995V478.536H296.883ZM303.843 466.512H301.395V469.92H297.939V471.912H301.395V474.624H297.939V476.64H301.395V482.04H303.843V466.512ZM304.347 487.272V485.304H292.371V480.696H289.899V487.272H304.347ZM294.411 476.568H289.467V473.304H294.411V476.568ZM324.801 483.672C324.801 481.056 322.113 479.4 317.457 479.4C312.849 479.4 310.209 481.056 310.209 483.672C310.209 486.24 312.849 487.896 317.457 487.896C322.113 487.896 324.801 486.24 324.801 483.672ZM317.937 468.024H308.121V470.064H315.201C314.457 473.736 311.049 476.256 307.089 477.192L308.433 479.184C314.025 477.336 317.649 473.76 317.937 468.024ZM324.633 479.232V466.512H322.161V470.256H318.249V472.248H322.161V474.504H317.961V476.496H322.161V479.232H324.633ZM322.257 483.672C322.257 485.064 320.505 485.904 317.457 485.904C314.505 485.904 312.729 485.064 312.729 483.672C312.729 482.256 314.505 481.416 317.457 481.416C320.505 481.416 322.257 482.256 322.257 483.672Z" fill="black" fill-opacity="0.68"/>
<circle cx="210" cy="478" r="22" fill="#F2F2F2"/>
<path opacity="0.6" fill-rule="evenodd" clip-rule="evenodd" d="M205 481V479.207C205 479.075 205.053 478.947 205.146 478.854L212.146 471.854C212.342 471.658 212.658 471.658 212.854 471.854L214.646 473.646C214.842 473.842 214.842 474.158 214.646 474.354L207.646 481.354C207.553 481.447 207.426 481.5 207.293 481.5H205.5C205.224 481.5 205 481.276 205 481ZM205 483.25C204.586 483.25 204.25 483.586 204.25 484C204.25 484.414 204.586 484.75 205 484.75H215C215.414 484.75 215.75 484.414 215.75 484C215.75 483.586 215.414 483.25 215 483.25H205Z" fill="#585858"/>
<path d="M256.288 593.776C256.288 590.8 253.816 588.688 250.792 588.688C247.744 588.688 245.32 590.848 245.32 593.776C245.32 596.8 247.792 598.72 250.792 598.72C253.864 598.72 256.288 596.8 256.288 593.776ZM253.888 593.752C253.888 595.504 252.616 596.824 250.792 596.824C248.968 596.824 247.696 595.528 247.696 593.752C247.696 592.096 248.944 590.728 250.792 590.728C252.712 590.728 253.888 592.072 253.888 593.752ZM259.864 587.512V599.536H262.312V587.512H259.864ZM262.336 608.632V600.688H248.344V608.632H262.336ZM259.888 606.664H250.816V602.608H259.888V606.664ZM277.414 591.976C277.414 589.648 275.206 587.992 272.11 587.992C269.038 587.992 266.758 589.648 266.758 591.928C266.758 594.328 269.038 595.864 272.11 595.864C275.206 595.864 277.414 594.304 277.414 591.976ZM276.742 601.72H280.918V604H283.366V587.512H280.918V599.92H276.742V601.72ZM283.75 608.344V606.376H270.718V602.056H268.27V608.344H283.75ZM274.006 602.92V598.888C275.854 598.768 277.726 598.6 279.55 598.384L279.382 596.56C277.486 596.776 275.23 596.944 272.35 597.04C269.998 597.136 267.67 597.16 265.246 597.16L265.582 599.2C267.574 599.176 269.542 599.128 271.534 599.032V602.92H274.006ZM274.99 591.976C274.99 593.08 273.886 593.992 272.11 593.992C270.334 593.992 269.206 593.08 269.206 591.976C269.206 590.848 270.334 589.888 272.11 589.888C273.886 589.888 274.99 590.848 274.99 591.976ZM303.147 599.824V589.024H300.699V592.48H291.123V589.048H288.675V599.824H294.651V604.216H286.251V606.184H305.571V604.216H297.099V599.824H303.147ZM300.699 597.856H291.123V594.424H300.699V597.856ZM317.865 608.92V601.144H326.337V599.2H307.017V601.144H315.417V608.92H317.865ZM325.521 595.096C322.065 594.76 318.009 592.144 318.009 589.072V587.992H315.417V589.072C315.417 592.144 311.745 594.664 307.953 595.096L309.033 597.112C312.273 596.536 315.753 594.472 316.689 592.096C317.769 594.472 321.225 596.56 324.393 597.088L325.521 595.096ZM346.303 593.224V591.28H333.919V593.224H346.303ZM345.175 597.76C345.175 595.552 343.015 594.04 340.159 594.04C337.255 594.04 335.095 595.552 335.095 597.76C335.095 600.016 337.279 601.48 340.159 601.48C343.015 601.48 345.175 600.016 345.175 597.76ZM342.823 597.76C342.823 598.912 341.599 599.584 340.159 599.584C338.647 599.584 337.447 598.912 337.447 597.76C337.447 596.632 338.647 595.912 340.159 595.912C341.599 595.912 342.823 596.632 342.823 597.76ZM337.015 589.96H343.279V587.992H337.015V589.96ZM350.695 587.512H348.223V603.328H350.695V596.248H353.863V594.208H350.695V587.512ZM351.319 608.32V606.352H339.487V602.584H337.015V608.32H351.319ZM371.797 598.984V596.992H359.845V591.136H371.677V589.144H357.373V598.984H363.253V604.216H354.853V606.184H374.173V604.216H365.701V598.984H371.797Z" fill="black" fill-opacity="0.68"/>
<path d="M262.312 911.896V890.512H259.864V911.896H262.312ZM245.344 899.656C245.344 904.168 247.384 907.144 250.816 907.144C254.248 907.144 256.24 904.168 256.24 899.68C256.24 895.144 254.248 892.168 250.816 892.168C247.384 892.168 245.344 895.144 245.344 899.656ZM253.912 899.656C253.912 903.088 252.64 905.152 250.816 905.152C249.016 905.152 247.768 903.088 247.768 899.656C247.768 896.224 249.016 894.184 250.816 894.184C252.64 894.184 253.912 896.224 253.912 899.656ZM282.094 890.512H279.622V911.896H282.094V900.928H285.31V898.864H282.094V890.512ZM278.278 904.816C275.134 902.848 272.95 899.44 272.95 895.336V892.36H270.43V895.48C270.43 899.56 268.318 903.088 264.982 905.248L266.494 907.048C268.846 905.632 270.982 902.944 271.726 900.4C272.494 902.752 274.99 905.488 276.814 906.664L278.278 904.816ZM307.7 897.52V906.016H310.172V890.512H307.7V895.48H303.812V897.52H307.7ZM310.628 911.272V909.304H298.676V904.624H296.204V911.272H310.628ZM305.204 900.952C302.732 900.112 300.092 897.448 300.092 894.064V891.712H297.572V894.184C297.572 897.496 295.316 900.376 292.292 901.528L293.804 903.472C295.892 902.632 298.196 900.376 298.844 898.12C299.804 900.184 301.988 902.152 303.788 902.896L305.204 900.952ZM324.89 896.776C324.89 893.8 322.418 891.688 319.394 891.688C316.346 891.688 313.922 893.848 313.922 896.776C313.922 899.8 316.394 901.72 319.394 901.72C322.466 901.72 324.89 899.8 324.89 896.776ZM322.49 896.752C322.49 898.504 321.218 899.824 319.394 899.824C317.57 899.824 316.298 898.528 316.298 896.752C316.298 895.096 317.546 893.728 319.394 893.728C321.314 893.728 322.49 895.072 322.49 896.752ZM328.466 890.512V902.536H330.914V890.512H328.466ZM330.938 911.632V903.688H316.946V911.632H330.938ZM328.49 909.664H319.418V905.608H328.49V909.664ZM335.575 902.248H338.239V899.632H335.575V902.248ZM358.441 907.984C358.441 905.824 356.161 904.336 352.201 904.12V902.296H360.673V900.328H341.353V902.296H349.753V904.12C345.841 904.384 343.609 905.824 343.609 907.984C343.609 910.384 346.345 911.896 351.025 911.896C355.705 911.896 358.441 910.384 358.441 907.984ZM359.665 897.256C356.785 897.064 353.233 895.504 352.465 893.128H358.729V891.136H343.345V893.128H349.633C348.961 895.504 345.769 897.016 342.385 897.256L343.465 899.176C346.993 898.792 349.993 897.136 351.025 894.928C352.177 896.992 355.393 898.792 358.585 899.176L359.665 897.256ZM355.897 907.984C355.897 909.28 354.001 909.904 351.001 909.904C348.025 909.904 346.129 909.28 346.129 907.984C346.129 906.736 348.025 906.04 351.001 906.04C353.977 906.04 355.897 906.736 355.897 907.984ZM373.686 896.776C373.686 893.8 371.214 891.688 368.19 891.688C365.142 891.688 362.718 893.848 362.718 896.776C362.718 899.8 365.19 901.72 368.19 901.72C371.262 901.72 373.686 899.8 373.686 896.776ZM371.286 896.752C371.286 898.504 370.014 899.824 368.19 899.824C366.366 899.824 365.094 898.528 365.094 896.752C365.094 895.096 366.342 893.728 368.19 893.728C370.11 893.728 371.286 895.072 371.286 896.752ZM377.262 890.512V902.536H379.71V890.512H377.262ZM379.734 911.632V903.688H365.742V911.632H379.734ZM377.286 909.664H368.214V905.608H377.286V909.664ZM384.372 902.248H387.036V899.632H384.372V902.248ZM408.174 911.896V890.512H405.822V899.224H403.71V890.944H401.382V910.888H403.71V901.264H405.822V911.896H408.174ZM399.99 902.896C399.99 900.376 398.118 898.696 395.382 898.696C392.646 898.696 390.774 900.328 390.774 902.896C390.774 905.248 392.646 907.048 395.382 907.048C398.118 907.048 399.99 905.392 399.99 902.896ZM389.958 897.64H400.59V895.6H389.958V897.64ZM397.734 902.896C397.734 904.144 396.75 905.08 395.382 905.08C394.014 905.08 393.03 904.192 393.03 902.896C393.03 901.552 394.014 900.664 395.382 900.664C396.75 900.664 397.734 901.552 397.734 902.896ZM392.478 894.16H398.262V892.096H392.478V894.16ZM422.483 896.776C422.483 893.8 420.011 891.688 416.987 891.688C413.939 891.688 411.515 893.848 411.515 896.776C411.515 899.8 413.987 901.72 416.987 901.72C420.059 901.72 422.483 899.8 422.483 896.776ZM420.083 896.752C420.083 898.504 418.811 899.824 416.987 899.824C415.163 899.824 413.891 898.528 413.891 896.752C413.891 895.096 415.139 893.728 416.987 893.728C418.907 893.728 420.083 895.072 420.083 896.752ZM426.059 890.512V902.536H428.507V890.512H426.059ZM428.531 911.632V903.688H414.539V911.632H428.531ZM426.083 909.664H417.011V905.608H426.083V909.664Z" fill="black" fill-opacity="0.68"/>
<path d="M262.24 1013.37V1011.38H246.496V1013.37H253.096C252.664 1016.03 248.872 1018.05 245.584 1018.38L246.76 1020.33C249.904 1019.85 253.36 1017.9 254.392 1015.82C255.472 1017.78 259.024 1019.8 262.024 1020.23L263.128 1018.29C259.936 1017.95 256.168 1016.01 255.736 1013.37H262.24ZM255.568 1031.87V1024.26H264.04V1022.3H244.72V1024.26H253.12V1031.87H255.568ZM283.006 1013.37V1011.38H267.262V1013.37H273.862C273.43 1016.03 269.638 1018.05 266.35 1018.38L267.526 1020.33C270.67 1019.85 274.126 1017.9 275.158 1015.82C276.238 1017.78 279.79 1019.8 282.79 1020.23L283.894 1018.29C280.702 1017.95 276.934 1016.01 276.502 1013.37H283.006ZM276.334 1031.87V1024.26H284.806V1022.3H265.486V1024.26H273.886V1031.87H276.334ZM303.339 1028.34C303.339 1026.18 300.939 1024.62 295.899 1024.62C290.907 1024.62 288.507 1026.18 288.507 1028.34C288.507 1030.53 290.907 1032.09 295.923 1032.09C300.939 1032.09 303.339 1030.53 303.339 1028.34ZM304.683 1018.43C301.563 1018.34 298.155 1017.11 297.339 1015.43H303.627V1013.46H288.171V1015.43H294.531C293.739 1017.14 290.499 1018.36 287.067 1018.43L288.099 1020.42C291.507 1020.18 294.723 1018.86 295.899 1016.99C297.123 1018.82 300.507 1020.16 303.675 1020.42L304.683 1018.43ZM305.571 1023.71V1021.72H297.099V1019.25H294.651V1021.72H286.251V1023.71H305.571ZM300.795 1028.34C300.795 1029.47 298.947 1030.12 295.899 1030.12C292.899 1030.12 291.027 1029.47 291.027 1028.34C291.027 1027.24 292.899 1026.64 295.899 1026.64C298.947 1026.64 300.795 1027.24 300.795 1028.34ZM292.395 1012.38H299.403V1010.46H292.395V1012.38ZM321.225 1025.94C319.641 1026.16 317.385 1026.3 315.201 1026.4V1024.53C317.625 1024.19 319.257 1022.82 319.257 1021C319.257 1018.86 317.097 1017.38 314.025 1017.38C311.001 1017.38 308.841 1018.86 308.841 1021C308.841 1022.78 310.401 1024.14 312.753 1024.5V1026.5C310.785 1026.54 308.817 1026.54 306.993 1026.54L307.377 1028.58C312.225 1028.54 316.953 1028.39 321.417 1027.86L321.225 1025.94ZM324.897 1010.51H322.425V1031.9H324.897V1010.51ZM320.289 1016.61V1014.69H307.737V1016.61H320.289ZM316.737 1021C316.737 1021.98 315.609 1022.68 314.025 1022.68C312.513 1022.68 311.361 1021.98 311.361 1021C311.361 1019.99 312.513 1019.3 314.025 1019.3C315.609 1019.3 316.737 1019.99 316.737 1021ZM310.905 1013.54H317.121V1011.57H310.905V1013.54ZM352.783 1020.21C349.567 1019.61 345.055 1016.63 345.055 1013.01V1011.74H342.487V1013.01C342.487 1016.68 338.263 1019.56 334.759 1020.11L335.959 1022.1C339.199 1021.34 342.751 1018.89 343.735 1016.22C344.839 1018.86 348.319 1021.29 351.511 1022.1L352.783 1020.21ZM353.407 1029.21V1027.22H344.935V1021.96H342.487V1027.22H334.087V1029.21H353.407ZM372.493 1031.63V1023.11H370.021V1025.44H360.997V1023.16H358.501V1031.63H372.493ZM355.813 1013.63H360.301C360.277 1016.8 357.973 1019.34 354.997 1020.45L356.485 1022.37C358.621 1021.53 360.925 1019.51 361.549 1017.38C362.485 1019.37 364.573 1021.1 366.349 1021.79L367.693 1019.82C365.221 1019.03 362.893 1016.75 362.821 1013.63H367.093V1011.69H355.813V1013.63ZM372.469 1022.01V1010.51H369.997V1022.01H372.469ZM370.021 1029.64H360.997V1027.36H370.021V1029.64Z" fill="black" fill-opacity="0.68"/>
<circle cx="210" cy="597" r="22" fill="#F2F2F2"/>
<path opacity="0.6" fill-rule="evenodd" clip-rule="evenodd" d="M215.334 593.667C216.438 593.667 217.334 594.562 217.334 595.667L217.334 596.333H214.667C213.562 596.333 212.667 597.229 212.667 598.333C212.667 599.438 213.562 600.333 214.667 600.333H217.334L217.334 601C217.334 602.105 216.438 603 215.334 603H204.667C203.562 603 202.667 602.105 202.667 601V593.333C202.667 592.229 203.562 591.333 204.667 591.333H213.334C214.07 591.333 214.667 591.93 214.667 592.667H204.834C204.557 592.667 204.334 592.891 204.334 593.167C204.334 593.443 204.557 593.667 204.834 593.667H215.334ZM214.667 597.333C214.115 597.333 213.667 597.781 213.667 598.333C213.667 598.886 214.115 599.333 214.667 599.333H217.334V597.333H214.667Z" fill="#585858"/>
<mask id="path-20-outside-1" maskUnits="userSpaceOnUse" x="210.285" y="594.5" width="9" height="11" fill="black">
<rect fill="white" x="210.285" y="594.5" width="9" height="11"/>
<path fill-rule="evenodd" clip-rule="evenodd" d="M216.859 599.549V598.406C216.859 597.339 216.02 596.5 214.953 596.5C213.886 596.5 213.047 597.339 213.047 598.406V599.549C212.666 599.549 212.285 599.93 212.285 600.311V603.361C212.285 603.742 212.666 604.123 213.047 604.123H216.859C217.24 604.123 217.621 603.742 217.621 603.361V600.311C217.621 599.93 217.24 599.549 216.859 599.549ZM216.097 599.549H213.81V598.406C213.81 597.796 214.343 597.262 214.953 597.262C215.563 597.262 216.097 597.796 216.097 598.406V599.549Z"/>
</mask>
<path fill-rule="evenodd" clip-rule="evenodd" d="M216.859 599.549V598.406C216.859 597.339 216.02 596.5 214.953 596.5C213.886 596.5 213.047 597.339 213.047 598.406V599.549C212.666 599.549 212.285 599.93 212.285 600.311V603.361C212.285 603.742 212.666 604.123 213.047 604.123H216.859C217.24 604.123 217.621 603.742 217.621 603.361V600.311C217.621 599.93 217.24 599.549 216.859 599.549ZM216.097 599.549H213.81V598.406C213.81 597.796 214.343 597.262 214.953 597.262C215.563 597.262 216.097 597.796 216.097 598.406V599.549Z" fill="white"/>
<path d="M216.859 599.549H215.659V600.749H216.859V599.549ZM213.047 599.549V600.749H214.247V599.549H213.047ZM216.097 599.549V600.749H217.297V599.549H216.097ZM213.81 599.549H212.61V600.749H213.81V599.549ZM218.059 599.549V598.406H215.659V599.549H218.059ZM218.059 598.406C218.059 596.676 216.683 595.3 214.953 595.3V597.7C215.358 597.7 215.659 598.001 215.659 598.406H218.059ZM214.953 595.3C213.223 595.3 211.847 596.676 211.847 598.406H214.247C214.247 598.001 214.549 597.7 214.953 597.7V595.3ZM211.847 598.406V599.549H214.247V598.406H211.847ZM213.047 598.349C212.467 598.349 211.986 598.627 211.675 598.939C211.363 599.25 211.085 599.731 211.085 600.311H213.485C213.485 600.511 213.397 600.61 213.372 600.636C213.346 600.661 213.247 600.749 213.047 600.749V598.349ZM211.085 600.311V603.361H213.485V600.311H211.085ZM211.085 603.361C211.085 603.941 211.363 604.422 211.675 604.733C211.986 605.045 212.467 605.323 213.047 605.323V602.923C213.247 602.923 213.346 603.011 213.372 603.036C213.397 603.062 213.485 603.161 213.485 603.361H211.085ZM213.047 605.323H216.859V602.923H213.047V605.323ZM216.859 605.323C217.44 605.323 217.92 605.045 218.231 604.733C218.543 604.422 218.821 603.941 218.821 603.361H216.421C216.421 603.161 216.509 603.062 216.534 603.036C216.56 603.011 216.659 602.923 216.859 602.923V605.323ZM218.821 603.361V600.311H216.421V603.361H218.821ZM218.821 600.311C218.821 599.731 218.543 599.25 218.231 598.939C217.92 598.627 217.44 598.349 216.859 598.349V600.749C216.659 600.749 216.56 600.661 216.534 600.636C216.509 600.61 216.421 600.511 216.421 600.311H218.821ZM216.097 598.349H213.81V600.749H216.097V598.349ZM215.01 599.549V598.406H212.61V599.549H215.01ZM215.01 598.406C215.01 598.429 215.004 598.445 215.002 598.452C214.999 598.457 214.998 598.457 215.001 598.454C215.004 598.451 215.005 598.452 214.999 598.454C214.993 598.457 214.977 598.462 214.953 598.462V596.062C213.681 596.062 212.61 597.133 212.61 598.406H215.01ZM214.953 598.462C214.929 598.462 214.914 598.457 214.907 598.454C214.902 598.452 214.902 598.451 214.905 598.454C214.908 598.457 214.907 598.457 214.905 598.452C214.902 598.445 214.897 598.429 214.897 598.406H217.297C217.297 597.133 216.226 596.062 214.953 596.062V598.462ZM214.897 598.406V599.549H217.297V598.406H214.897Z" fill="#969696" mask="url(#path-20-outside-1)"/>
<circle cx="210" cy="900" r="22" fill="#F2F2F2"/>
<circle opacity="0.7" cx="210" cy="896.5" r="3.5" fill="#585858"/>
<path opacity="0.6" fill-rule="evenodd" clip-rule="evenodd" d="M215.198 903.811C215.915 904.606 215.537 905.814 214.533 906.188C213.122 906.713 211.594 907 210 907C208.406 907 206.878 906.713 205.467 906.188C204.463 905.814 204.085 904.606 204.802 903.811C206.083 902.392 207.938 901.5 210 901.5C212.062 901.5 213.916 902.392 215.198 903.811Z" fill="#585858"/>
<circle cx="210" cy="1020" r="22" fill="#F2F2F2"/>
<g opacity="0.6">
<path d="M214.375 1017.33V1016.33C214.375 1015.23 213.48 1014.33 212.375 1014.33H206.062C204.958 1014.33 204.062 1015.23 204.062 1016.33V1023.67C204.062 1024.77 204.958 1025.67 206.062 1025.67H210.25" stroke="#585858" stroke-width="1.5" stroke-linecap="round" stroke-linejoin="round"/>
<ellipse cx="214.375" cy="1021.33" rx="2.40625" ry="2.33333" fill="white" stroke="#585858" stroke-width="1.8"/>
<path d="M214.375 1024.67C212.79 1024.67 212.017 1025.45 211.64 1026.22C211.275 1026.97 211.953 1027.67 212.781 1027.67H215.969C216.797 1027.67 217.475 1026.97 217.11 1026.22C216.733 1025.45 215.96 1024.67 214.375 1024.67Z" fill="white" stroke="#585858" stroke-width="1.8" stroke-linecap="round" stroke-linejoin="round"/>
<path d="M206.812 1017H211.625" stroke="#585858" stroke-width="1.5" stroke-linecap="round" stroke-linejoin="round"/>
<path d="M206.812 1019.33L209.563 1019.33" stroke="#585858" stroke-width="1.5" stroke-linecap="round" stroke-linejoin="round"/>
</g>
<path d="M261.544 356.632V348.136H259.096V350.584H249.664V348.16H247.192V356.632H253.12V359.008H244.72V360.976H264.04V359.008H255.568V356.632H261.544ZM261.784 368.248V366.28H249.784V362.392H247.312V368.248H261.784ZM259.096 354.688H249.664V352.504H259.096V354.688ZM283.126 368.632V360.736H269.206V368.632H283.126ZM266.23 350.824H270.67V351.064C270.67 354.256 268.39 356.8 265.39 357.928L266.878 359.848C269.014 359.032 271.318 356.944 271.942 354.832C272.854 356.848 274.966 358.528 276.718 359.248L278.086 357.28C275.59 356.488 273.214 354.16 273.214 350.992V350.824H277.486V348.784H266.23V350.824ZM283.102 359.632V347.512H280.654V352.768H277.174V354.808H280.654V359.632H283.102ZM280.678 366.664H271.678V362.632H280.678V366.664ZM303.843 368.896V347.512H301.395V368.896H303.843ZM286.875 356.656C286.875 361.168 288.915 364.144 292.347 364.144C295.779 364.144 297.771 361.168 297.771 356.68C297.771 352.144 295.779 349.168 292.347 349.168C288.915 349.168 286.875 352.144 286.875 356.656ZM295.443 356.656C295.443 360.088 294.171 362.152 292.347 362.152C290.547 362.152 289.299 360.088 289.299 356.656C289.299 353.224 290.547 351.184 292.347 351.184C294.171 351.184 295.443 353.224 295.443 356.656ZM307.761 351.088H312.201V351.808C312.201 354.952 309.921 357.688 306.921 358.792L308.385 360.712C310.545 359.92 312.849 357.688 313.473 355.6C314.385 357.592 316.449 359.416 318.225 360.112L319.593 358.144C317.097 357.376 314.745 354.856 314.745 351.736V351.088H319.017V349.072H307.761V351.088ZM324.609 363.04V347.512H322.161V353.248H318.705V355.312H322.161V363.04H324.609ZM325.089 368.272V366.304H313.113V361.576H310.665V368.272H325.089Z" fill="black" fill-opacity="0.68"/>
<circle cx="210" cy="359" r="22" fill="#F2F2F2"/>
<g opacity="0.6">
<path fill-rule="evenodd" clip-rule="evenodd" d="M210.972 366.358C212.671 365.149 216 362.352 216 359C216 355.686 213.314 353 210 353C206.686 353 204 355.686 204 359C204 362.352 207.329 365.149 209.028 366.358C209.615 366.776 210.385 366.776 210.972 366.358ZM210 361C211.105 361 212 360.105 212 359C212 357.895 211.105 357 210 357C208.895 357 208 357.895 208 359C208 360.105 208.895 361 210 361Z" fill="#585858"/>
</g>
<rect x="391" y="222" width="134" height="36" rx="6" fill="#4AA570"/>
<path d="M407.96 236.328C407.96 235.32 408.728 234.504 410.008 234.504C411.304 234.504 412.072 235.32 412.072 236.328C412.072 237.384 411.304 238.2 410.008 238.2C408.728 238.2 407.96 237.384 407.96 236.328ZM417.512 232.008H415.656V246.264H417.512V232.008ZM406.04 236.344C406.04 238.328 407.608 239.768 410.008 239.768C412.424 239.768 413.96 238.328 413.96 236.344C413.96 234.344 412.424 232.92 410.008 232.92C407.608 232.92 406.04 234.344 406.04 236.344ZM415.064 242.616L414.904 241.112C413.64 241.272 411.912 241.4 410.136 241.464C408.52 241.528 407.144 241.544 405.496 241.544L405.768 243.144C406.968 243.16 408.664 243.096 410.248 243.032C411.768 242.952 413.704 242.792 415.064 242.616ZM430.46 232.008H428.604V246.264H430.46V239.032H432.508V237.496H430.46V232.008ZM427.9 241.464C425.74 240.088 424.444 237.88 424.444 235.064V233.208H422.508V235.16C422.508 238.008 421.292 240.296 418.972 241.784C419.372 242.232 419.74 242.68 420.124 243.144C421.596 242.28 423.036 240.488 423.5 238.872C423.98 240.424 425.628 242.104 426.796 242.856C427.18 242.392 427.516 241.928 427.9 241.464ZM444.72 238.424V237.016H436.736V236.088H444.32V232.472H434.816V233.88H442.448V234.76H434.864V238.424H438.64V239.512H433.168V241.016H446.048V239.512H440.512V238.424H444.72ZM434.688 241.832V243.336H442.528V246.28H444.384V241.832H434.688ZM459.822 241.592C457.678 240.408 456.302 238.376 456.302 235.368V235H459.086V233.464H451.486V235H454.366V235.384C454.366 238.376 453.118 240.568 450.75 241.864L451.902 243.256C453.566 242.44 455.006 240.536 455.358 239.08C455.774 240.456 457.47 242.296 458.782 242.952L459.822 241.592ZM462.366 232.008H460.494V246.264H462.366V239.048H464.398V237.496H462.366V232.008ZM476.434 237.304V235.816H468.642V233.832H476.322V232.328H466.77V237.304H470.53V238.68H465.058V240.168H477.938V238.68H472.418V237.304H476.434ZM476.466 243.608C476.466 241.992 474.658 240.952 471.49 240.952C468.354 240.952 466.546 241.992 466.546 243.608C466.546 245.256 468.354 246.28 471.506 246.28C474.658 246.28 476.466 245.256 476.466 243.608ZM474.546 243.624C474.546 244.36 473.346 244.792 471.49 244.792C469.65 244.792 468.466 244.36 468.466 243.624C468.466 242.888 469.65 242.44 471.49 242.44C473.346 242.44 474.546 242.888 474.546 243.624ZM495.345 243.384C495.345 241.624 493.473 240.504 490.369 240.504C487.281 240.504 485.409 241.624 485.409 243.384C485.409 245.128 487.281 246.264 490.369 246.264C493.473 246.264 495.345 245.128 495.345 243.384ZM495.233 240.568V232.008H493.457V235.528H492.289V232.264H490.561V240.008H492.289V237.032H493.457V240.568H495.233ZM490.273 238.328C488.801 237.64 487.601 236.248 487.601 234.264V232.904H485.793V234.312C485.793 236.328 484.705 237.896 482.977 238.856L484.001 240.184C485.233 239.624 486.353 238.36 486.753 237.256C487.121 238.168 488.385 239.32 489.329 239.736L490.273 238.328ZM493.441 243.384C493.441 244.248 492.257 244.76 490.369 244.76C488.513 244.76 487.345 244.248 487.345 243.384C487.345 242.536 488.513 242.008 490.369 242.008C492.257 242.008 493.441 242.536 493.441 243.384ZM508.741 240.328V232.008H506.869V234.968H504.437V236.456H506.869V240.328H508.741ZM505.477 238.328C503.813 237.784 502.181 236.184 502.181 233.976V232.664H500.245V234.072C500.245 236.232 498.869 237.896 496.805 238.648L497.925 240.136C499.253 239.688 500.805 238.344 501.237 236.888C501.861 238.216 503.333 239.352 504.405 239.784L505.477 238.328ZM508.837 243.384C508.837 241.608 507.045 240.488 503.925 240.488C500.853 240.488 499.077 241.608 499.077 243.384C499.077 245.112 500.853 246.248 503.925 246.248C507.045 246.248 508.837 245.112 508.837 243.384ZM503.925 241.992C505.845 241.992 506.901 242.52 506.901 243.384C506.901 244.232 505.845 244.744 503.925 244.744C502.085 244.744 500.997 244.232 500.997 243.384C500.997 242.52 502.085 241.992 503.925 241.992Z" fill="white"/>
<rect x="344" y="340" width="134" height="36" rx="6" fill="#4AA570"/>
<path d="M360.96 354.328C360.96 353.32 361.728 352.504 363.008 352.504C364.304 352.504 365.072 353.32 365.072 354.328C365.072 355.384 364.304 356.2 363.008 356.2C361.728 356.2 360.96 355.384 360.96 354.328ZM370.512 350.008H368.656V364.264H370.512V350.008ZM359.04 354.344C359.04 356.328 360.608 357.768 363.008 357.768C365.424 357.768 366.96 356.328 366.96 354.344C366.96 352.344 365.424 350.92 363.008 350.92C360.608 350.92 359.04 352.344 359.04 354.344ZM368.064 360.616L367.904 359.112C366.64 359.272 364.912 359.4 363.136 359.464C361.52 359.528 360.144 359.544 358.496 359.544L358.768 361.144C359.968 361.16 361.664 361.096 363.248 361.032C364.768 360.952 366.704 360.792 368.064 360.616ZM383.46 350.008H381.604V364.264H383.46V357.032H385.508V355.496H383.46V350.008ZM380.9 359.464C378.74 358.088 377.444 355.88 377.444 353.064V351.208H375.508V353.16C375.508 356.008 374.292 358.296 371.972 359.784C372.372 360.232 372.74 360.68 373.124 361.144C374.596 360.28 376.036 358.488 376.5 356.872C376.98 358.424 378.628 360.104 379.796 360.856C380.18 360.392 380.516 359.928 380.9 359.464ZM397.72 356.424V355.016H389.736V354.088H397.32V350.472H387.816V351.88H395.448V352.76H387.864V356.424H391.64V357.512H386.168V359.016H399.048V357.512H393.512V356.424H397.72ZM387.688 359.832V361.336H395.528V364.28H397.384V359.832H387.688ZM412.822 359.592C410.678 358.408 409.302 356.376 409.302 353.368V353H412.086V351.464H404.486V353H407.366V353.384C407.366 356.376 406.118 358.568 403.75 359.864L404.902 361.256C406.566 360.44 408.006 358.536 408.358 357.08C408.774 358.456 410.47 360.296 411.782 360.952L412.822 359.592ZM415.366 350.008H413.494V364.264H415.366V357.048H417.398V355.496H415.366V350.008ZM429.434 355.304V353.816H421.642V351.832H429.322V350.328H419.77V355.304H423.53V356.68H418.058V358.168H430.938V356.68H425.418V355.304H429.434ZM429.466 361.608C429.466 359.992 427.658 358.952 424.49 358.952C421.354 358.952 419.546 359.992 419.546 361.608C419.546 363.256 421.354 364.28 424.506 364.28C427.658 364.28 429.466 363.256 429.466 361.608ZM427.546 361.624C427.546 362.36 426.346 362.792 424.49 362.792C422.65 362.792 421.466 362.36 421.466 361.624C421.466 360.888 422.65 360.44 424.49 360.44C426.346 360.44 427.546 360.888 427.546 361.624ZM448.345 361.384C448.345 359.624 446.473 358.504 443.369 358.504C440.281 358.504 438.409 359.624 438.409 361.384C438.409 363.128 440.281 364.264 443.369 364.264C446.473 364.264 448.345 363.128 448.345 361.384ZM448.233 358.568V350.008H446.457V353.528H445.289V350.264H443.561V358.008H445.289V355.032H446.457V358.568H448.233ZM443.273 356.328C441.801 355.64 440.601 354.248 440.601 352.264V350.904H438.793V352.312C438.793 354.328 437.705 355.896 435.977 356.856L437.001 358.184C438.233 357.624 439.353 356.36 439.753 355.256C440.121 356.168 441.385 357.32 442.329 357.736L443.273 356.328ZM446.441 361.384C446.441 362.248 445.257 362.76 443.369 362.76C441.513 362.76 440.345 362.248 440.345 361.384C440.345 360.536 441.513 360.008 443.369 360.008C445.257 360.008 446.441 360.536 446.441 361.384ZM461.741 358.328V350.008H459.869V352.968H457.437V354.456H459.869V358.328H461.741ZM458.477 356.328C456.813 355.784 455.181 354.184 455.181 351.976V350.664H453.245V352.072C453.245 354.232 451.869 355.896 449.805 356.648L450.925 358.136C452.253 357.688 453.805 356.344 454.237 354.888C454.861 356.216 456.333 357.352 457.405 357.784L458.477 356.328ZM461.837 361.384C461.837 359.608 460.045 358.488 456.925 358.488C453.853 358.488 452.077 359.608 452.077 361.384C452.077 363.112 453.853 364.248 456.925 364.248C460.045 364.248 461.837 363.112 461.837 361.384ZM456.925 359.992C458.845 359.992 459.901 360.52 459.901 361.384C459.901 362.232 458.845 362.744 456.925 362.744C455.085 362.744 453.997 362.232 453.997 361.384C453.997 360.52 455.085 359.992 456.925 359.992Z" fill="white"/>
<rect x="344" y="460" width="134" height="36" rx="6" fill="#4AA570"/>
<path d="M360.96 474.328C360.96 473.32 361.728 472.504 363.008 472.504C364.304 472.504 365.072 473.32 365.072 474.328C365.072 475.384 364.304 476.2 363.008 476.2C361.728 476.2 360.96 475.384 360.96 474.328ZM370.512 470.008H368.656V484.264H370.512V470.008ZM359.04 474.344C359.04 476.328 360.608 477.768 363.008 477.768C365.424 477.768 366.96 476.328 366.96 474.344C366.96 472.344 365.424 470.92 363.008 470.92C360.608 470.92 359.04 472.344 359.04 474.344ZM368.064 480.616L367.904 479.112C366.64 479.272 364.912 479.4 363.136 479.464C361.52 479.528 360.144 479.544 358.496 479.544L358.768 481.144C359.968 481.16 361.664 481.096 363.248 481.032C364.768 480.952 366.704 480.792 368.064 480.616ZM383.46 470.008H381.604V484.264H383.46V477.032H385.508V475.496H383.46V470.008ZM380.9 479.464C378.74 478.088 377.444 475.88 377.444 473.064V471.208H375.508V473.16C375.508 476.008 374.292 478.296 371.972 479.784C372.372 480.232 372.74 480.68 373.124 481.144C374.596 480.28 376.036 478.488 376.5 476.872C376.98 478.424 378.628 480.104 379.796 480.856C380.18 480.392 380.516 479.928 380.9 479.464ZM397.72 476.424V475.016H389.736V474.088H397.32V470.472H387.816V471.88H395.448V472.76H387.864V476.424H391.64V477.512H386.168V479.016H399.048V477.512H393.512V476.424H397.72ZM387.688 479.832V481.336H395.528V484.28H397.384V479.832H387.688ZM412.822 479.592C410.678 478.408 409.302 476.376 409.302 473.368V473H412.086V471.464H404.486V473H407.366V473.384C407.366 476.376 406.118 478.568 403.75 479.864L404.902 481.256C406.566 480.44 408.006 478.536 408.358 477.08C408.774 478.456 410.47 480.296 411.782 480.952L412.822 479.592ZM415.366 470.008H413.494V484.264H415.366V477.048H417.398V475.496H415.366V470.008ZM429.434 475.304V473.816H421.642V471.832H429.322V470.328H419.77V475.304H423.53V476.68H418.058V478.168H430.938V476.68H425.418V475.304H429.434ZM429.466 481.608C429.466 479.992 427.658 478.952 424.49 478.952C421.354 478.952 419.546 479.992 419.546 481.608C419.546 483.256 421.354 484.28 424.506 484.28C427.658 484.28 429.466 483.256 429.466 481.608ZM427.546 481.624C427.546 482.36 426.346 482.792 424.49 482.792C422.65 482.792 421.466 482.36 421.466 481.624C421.466 480.888 422.65 480.44 424.49 480.44C426.346 480.44 427.546 480.888 427.546 481.624ZM448.345 481.384C448.345 479.624 446.473 478.504 443.369 478.504C440.281 478.504 438.409 479.624 438.409 481.384C438.409 483.128 440.281 484.264 443.369 484.264C446.473 484.264 448.345 483.128 448.345 481.384ZM448.233 478.568V470.008H446.457V473.528H445.289V470.264H443.561V478.008H445.289V475.032H446.457V478.568H448.233ZM443.273 476.328C441.801 475.64 440.601 474.248 440.601 472.264V470.904H438.793V472.312C438.793 474.328 437.705 475.896 435.977 476.856L437.001 478.184C438.233 477.624 439.353 476.36 439.753 475.256C440.121 476.168 441.385 477.32 442.329 477.736L443.273 476.328ZM446.441 481.384C446.441 482.248 445.257 482.76 443.369 482.76C441.513 482.76 440.345 482.248 440.345 481.384C440.345 480.536 441.513 480.008 443.369 480.008C445.257 480.008 446.441 480.536 446.441 481.384ZM461.741 478.328V470.008H459.869V472.968H457.437V474.456H459.869V478.328H461.741ZM458.477 476.328C456.813 475.784 455.181 474.184 455.181 471.976V470.664H453.245V472.072C453.245 474.232 451.869 475.896 449.805 476.648L450.925 478.136C452.253 477.688 453.805 476.344 454.237 474.888C454.861 476.216 456.333 477.352 457.405 477.784L458.477 476.328ZM461.837 481.384C461.837 479.608 460.045 478.488 456.925 478.488C453.853 478.488 452.077 479.608 452.077 481.384C452.077 483.112 453.853 484.248 456.925 484.248C460.045 484.248 461.837 483.112 461.837 481.384ZM456.925 479.992C458.845 479.992 459.901 480.52 459.901 481.384C459.901 482.232 458.845 482.744 456.925 482.744C455.085 482.744 453.997 482.232 453.997 481.384C453.997 480.52 455.085 479.992 456.925 479.992Z" fill="white"/>
<rect x="391" y="581" width="134" height="36" rx="6" fill="#4AA570"/>
<path d="M407.96 595.328C407.96 594.32 408.728 593.504 410.008 593.504C411.304 593.504 412.072 594.32 412.072 595.328C412.072 596.384 411.304 597.2 410.008 597.2C408.728 597.2 407.96 596.384 407.96 595.328ZM417.512 591.008H415.656V605.264H417.512V591.008ZM406.04 595.344C406.04 597.328 407.608 598.768 410.008 598.768C412.424 598.768 413.96 597.328 413.96 595.344C413.96 593.344 412.424 591.92 410.008 591.92C407.608 591.92 406.04 593.344 406.04 595.344ZM415.064 601.616L414.904 600.112C413.64 600.272 411.912 600.4 410.136 600.464C408.52 600.528 407.144 600.544 405.496 600.544L405.768 602.144C406.968 602.16 408.664 602.096 410.248 602.032C411.768 601.952 413.704 601.792 415.064 601.616ZM430.46 591.008H428.604V605.264H430.46V598.032H432.508V596.496H430.46V591.008ZM427.9 600.464C425.74 599.088 424.444 596.88 424.444 594.064V592.208H422.508V594.16C422.508 597.008 421.292 599.296 418.972 600.784C419.372 601.232 419.74 601.68 420.124 602.144C421.596 601.28 423.036 599.488 423.5 597.872C423.98 599.424 425.628 601.104 426.796 601.856C427.18 601.392 427.516 600.928 427.9 600.464ZM444.72 597.424V596.016H436.736V595.088H444.32V591.472H434.816V592.88H442.448V593.76H434.864V597.424H438.64V598.512H433.168V600.016H446.048V598.512H440.512V597.424H444.72ZM434.688 600.832V602.336H442.528V605.28H444.384V600.832H434.688ZM459.822 600.592C457.678 599.408 456.302 597.376 456.302 594.368V594H459.086V592.464H451.486V594H454.366V594.384C454.366 597.376 453.118 599.568 450.75 600.864L451.902 602.256C453.566 601.44 455.006 599.536 455.358 598.08C455.774 599.456 457.47 601.296 458.782 601.952L459.822 600.592ZM462.366 591.008H460.494V605.264H462.366V598.048H464.398V596.496H462.366V591.008ZM476.434 596.304V594.816H468.642V592.832H476.322V591.328H466.77V596.304H470.53V597.68H465.058V599.168H477.938V597.68H472.418V596.304H476.434ZM476.466 602.608C476.466 600.992 474.658 599.952 471.49 599.952C468.354 599.952 466.546 600.992 466.546 602.608C466.546 604.256 468.354 605.28 471.506 605.28C474.658 605.28 476.466 604.256 476.466 602.608ZM474.546 602.624C474.546 603.36 473.346 603.792 471.49 603.792C469.65 603.792 468.466 603.36 468.466 602.624C468.466 601.888 469.65 601.44 471.49 601.44C473.346 601.44 474.546 601.888 474.546 602.624ZM495.345 602.384C495.345 600.624 493.473 599.504 490.369 599.504C487.281 599.504 485.409 600.624 485.409 602.384C485.409 604.128 487.281 605.264 490.369 605.264C493.473 605.264 495.345 604.128 495.345 602.384ZM495.233 599.568V591.008H493.457V594.528H492.289V591.264H490.561V599.008H492.289V596.032H493.457V599.568H495.233ZM490.273 597.328C488.801 596.64 487.601 595.248 487.601 593.264V591.904H485.793V593.312C485.793 595.328 484.705 596.896 482.977 597.856L484.001 599.184C485.233 598.624 486.353 597.36 486.753 596.256C487.121 597.168 488.385 598.32 489.329 598.736L490.273 597.328ZM493.441 602.384C493.441 603.248 492.257 603.76 490.369 603.76C488.513 603.76 487.345 603.248 487.345 602.384C487.345 601.536 488.513 601.008 490.369 601.008C492.257 601.008 493.441 601.536 493.441 602.384ZM508.741 599.328V591.008H506.869V593.968H504.437V595.456H506.869V599.328H508.741ZM505.477 597.328C503.813 596.784 502.181 595.184 502.181 592.976V591.664H500.245V593.072C500.245 595.232 498.869 596.896 496.805 597.648L497.925 599.136C499.253 598.688 500.805 597.344 501.237 595.888C501.861 597.216 503.333 598.352 504.405 598.784L505.477 597.328ZM508.837 602.384C508.837 600.608 507.045 599.488 503.925 599.488C500.853 599.488 499.077 600.608 499.077 602.384C499.077 604.112 500.853 605.248 503.925 605.248C507.045 605.248 508.837 604.112 508.837 602.384ZM503.925 600.992C505.845 600.992 506.901 601.52 506.901 602.384C506.901 603.232 505.845 603.744 503.925 603.744C502.085 603.744 500.997 603.232 500.997 602.384C500.997 601.52 502.085 600.992 503.925 600.992Z" fill="white"/>
<rect x="446" y="884" width="134" height="36" rx="6" fill="#4AA570"/>
<path d="M462.96 898.328C462.96 897.32 463.728 896.504 465.008 896.504C466.304 896.504 467.072 897.32 467.072 898.328C467.072 899.384 466.304 900.2 465.008 900.2C463.728 900.2 462.96 899.384 462.96 898.328ZM472.512 894.008H470.656V908.264H472.512V894.008ZM461.04 898.344C461.04 900.328 462.608 901.768 465.008 901.768C467.424 901.768 468.96 900.328 468.96 898.344C468.96 896.344 467.424 894.92 465.008 894.92C462.608 894.92 461.04 896.344 461.04 898.344ZM470.064 904.616L469.904 903.112C468.64 903.272 466.912 903.4 465.136 903.464C463.52 903.528 462.144 903.544 460.496 903.544L460.768 905.144C461.968 905.16 463.664 905.096 465.248 905.032C466.768 904.952 468.704 904.792 470.064 904.616ZM485.46 894.008H483.604V908.264H485.46V901.032H487.508V899.496H485.46V894.008ZM482.9 903.464C480.74 902.088 479.444 899.88 479.444 897.064V895.208H477.508V897.16C477.508 900.008 476.292 902.296 473.972 903.784C474.372 904.232 474.74 904.68 475.124 905.144C476.596 904.28 478.036 902.488 478.5 900.872C478.98 902.424 480.628 904.104 481.796 904.856C482.18 904.392 482.516 903.928 482.9 903.464ZM499.72 900.424V899.016H491.736V898.088H499.32V894.472H489.816V895.88H497.448V896.76H489.864V900.424H493.64V901.512H488.168V903.016H501.048V901.512H495.512V900.424H499.72ZM489.688 903.832V905.336H497.528V908.28H499.384V903.832H489.688ZM514.822 903.592C512.678 902.408 511.302 900.376 511.302 897.368V897H514.086V895.464H506.486V897H509.366V897.384C509.366 900.376 508.118 902.568 505.75 903.864L506.902 905.256C508.566 904.44 510.006 902.536 510.358 901.08C510.774 902.456 512.47 904.296 513.782 904.952L514.822 903.592ZM517.366 894.008H515.494V908.264H517.366V901.048H519.398V899.496H517.366V894.008ZM531.434 899.304V897.816H523.642V895.832H531.322V894.328H521.77V899.304H525.53V900.68H520.058V902.168H532.938V900.68H527.418V899.304H531.434ZM531.466 905.608C531.466 903.992 529.658 902.952 526.49 902.952C523.354 902.952 521.546 903.992 521.546 905.608C521.546 907.256 523.354 908.28 526.506 908.28C529.658 908.28 531.466 907.256 531.466 905.608ZM529.546 905.624C529.546 906.36 528.346 906.792 526.49 906.792C524.65 906.792 523.466 906.36 523.466 905.624C523.466 904.888 524.65 904.44 526.49 904.44C528.346 904.44 529.546 904.888 529.546 905.624ZM550.345 905.384C550.345 903.624 548.473 902.504 545.369 902.504C542.281 902.504 540.409 903.624 540.409 905.384C540.409 907.128 542.281 908.264 545.369 908.264C548.473 908.264 550.345 907.128 550.345 905.384ZM550.233 902.568V894.008H548.457V897.528H547.289V894.264H545.561V902.008H547.289V899.032H548.457V902.568H550.233ZM545.273 900.328C543.801 899.64 542.601 898.248 542.601 896.264V894.904H540.793V896.312C540.793 898.328 539.705 899.896 537.977 900.856L539.001 902.184C540.233 901.624 541.353 900.36 541.753 899.256C542.121 900.168 543.385 901.32 544.329 901.736L545.273 900.328ZM548.441 905.384C548.441 906.248 547.257 906.76 545.369 906.76C543.513 906.76 542.345 906.248 542.345 905.384C542.345 904.536 543.513 904.008 545.369 904.008C547.257 904.008 548.441 904.536 548.441 905.384ZM563.741 902.328V894.008H561.869V896.968H559.437V898.456H561.869V902.328H563.741ZM560.477 900.328C558.813 899.784 557.181 898.184 557.181 895.976V894.664H555.245V896.072C555.245 898.232 553.869 899.896 551.805 900.648L552.925 902.136C554.253 901.688 555.805 900.344 556.237 898.888C556.861 900.216 558.333 901.352 559.405 901.784L560.477 900.328ZM563.837 905.384C563.837 903.608 562.045 902.488 558.925 902.488C555.853 902.488 554.077 903.608 554.077 905.384C554.077 907.112 555.853 908.248 558.925 908.248C562.045 908.248 563.837 907.112 563.837 905.384ZM558.925 903.992C560.845 903.992 561.901 904.52 561.901 905.384C561.901 906.232 560.845 906.744 558.925 906.744C557.085 906.744 555.997 906.232 555.997 905.384C555.997 904.52 557.085 903.992 558.925 903.992Z" fill="white"/>
<rect x="391" y="1004" width="161" height="36" rx="6" fill="#4AA570"/>
<path d="M417.992 1020.33C415.832 1019.98 412.904 1018.12 412.904 1015.61V1014.74H410.952V1015.61C410.952 1018.15 408.2 1019.94 405.88 1020.28L406.728 1021.8C408.68 1021.37 411.176 1019.91 411.912 1017.99C412.728 1019.86 415.16 1021.35 417.112 1021.8L417.992 1020.33ZM418.36 1026.49V1025.02H412.824V1021.62H410.936V1025.02H405.48V1026.49H418.36ZM431.132 1028.09V1022.41H429.244V1023.82H423.612V1022.44H421.724V1028.09H431.132ZM419.964 1016.33H422.812C422.652 1018.3 421.324 1019.75 419.404 1020.44L420.524 1021.91C421.916 1021.42 423.388 1020.12 423.804 1018.71C424.444 1020.06 425.804 1021.08 426.876 1021.51L427.9 1020.04C426.38 1019.56 424.988 1018.26 424.764 1016.33H427.484V1014.82H419.964V1016.33ZM431.116 1021.69V1014.01H429.244V1021.69H431.116ZM429.244 1026.6H423.612V1025.27H429.244V1026.6ZM444.56 1020.44V1018.98H436.736V1018.2H443.952V1016.79H436.736V1015.99H444.432V1014.54H434.864V1020.44H438.64V1021.35H433.168V1022.86H446.048V1021.35H440.512V1020.44H444.56ZM444.592 1025.9C444.592 1024.42 443.072 1023.38 439.6 1023.38C436.16 1023.38 434.64 1024.42 434.64 1025.9C434.64 1027.35 436.16 1028.41 439.616 1028.41C443.072 1028.41 444.592 1027.35 444.592 1025.9ZM442.656 1025.9C442.656 1026.55 441.488 1026.92 439.6 1026.92C437.76 1026.92 436.576 1026.55 436.576 1025.9C436.576 1025.24 437.76 1024.84 439.6 1024.84C441.488 1024.84 442.656 1025.24 442.656 1025.9ZM455.923 1023.42C453.779 1022.31 452.419 1020.33 452.419 1017.32V1016.95H455.171V1015.46H447.603V1016.95H450.451V1017.34C450.451 1020.33 449.283 1022.54 446.883 1023.82L448.003 1025.21C449.667 1024.39 451.107 1022.49 451.443 1021.05C451.875 1022.42 453.619 1024.23 454.883 1024.87L455.923 1023.42ZM458.803 1028.26V1014.01H456.931V1028.26H458.803ZM472.663 1028.26V1014.01H470.775V1018.82H468.199V1020.41H470.775V1028.26H472.663ZM469.527 1023.69C467.383 1022.31 466.103 1020.1 466.103 1017.29V1015.21H464.183V1017.38C464.183 1020.22 462.935 1022.47 460.647 1023.96L461.767 1025.34C463.255 1024.54 464.711 1022.73 465.175 1021.1C465.655 1022.58 467.271 1024.38 468.455 1025.1L469.527 1023.69ZM487.51 1023.59C485.366 1022.41 483.99 1020.38 483.99 1017.37V1017H486.774V1015.46H479.174V1017H482.054V1017.38C482.054 1020.38 480.806 1022.57 478.438 1023.86L479.59 1025.26C481.254 1024.44 482.694 1022.54 483.046 1021.08C483.462 1022.46 485.158 1024.3 486.47 1024.95L487.51 1023.59ZM490.054 1014.01H488.182V1028.26H490.054V1021.05H492.086V1019.5H490.054V1014.01ZM504.122 1019.3V1017.82H496.33V1015.83H504.01V1014.33H494.458V1019.3H498.218V1020.68H492.746V1022.17H505.626V1020.68H500.106V1019.3H504.122ZM504.154 1025.61C504.154 1023.99 502.346 1022.95 499.178 1022.95C496.042 1022.95 494.234 1023.99 494.234 1025.61C494.234 1027.26 496.042 1028.28 499.194 1028.28C502.346 1028.28 504.154 1027.26 504.154 1025.61ZM502.234 1025.62C502.234 1026.36 501.034 1026.79 499.178 1026.79C497.338 1026.79 496.154 1026.36 496.154 1025.62C496.154 1024.89 497.338 1024.44 499.178 1024.44C501.034 1024.44 502.234 1024.89 502.234 1025.62ZM523.033 1025.38C523.033 1023.62 521.161 1022.5 518.057 1022.5C514.969 1022.5 513.097 1023.62 513.097 1025.38C513.097 1027.13 514.969 1028.26 518.057 1028.26C521.161 1028.26 523.033 1027.13 523.033 1025.38ZM522.921 1022.57V1014.01H521.145V1017.53H519.977V1014.26H518.249V1022.01H519.977V1019.03H521.145V1022.57H522.921ZM517.961 1020.33C516.489 1019.64 515.289 1018.25 515.289 1016.26V1014.9H513.481V1016.31C513.481 1018.33 512.393 1019.9 510.665 1020.86L511.689 1022.18C512.921 1021.62 514.041 1020.36 514.441 1019.26C514.809 1020.17 516.073 1021.32 517.017 1021.74L517.961 1020.33ZM521.129 1025.38C521.129 1026.25 519.945 1026.76 518.057 1026.76C516.201 1026.76 515.033 1026.25 515.033 1025.38C515.033 1024.54 516.201 1024.01 518.057 1024.01C519.945 1024.01 521.129 1024.54 521.129 1025.38ZM536.428 1022.33V1014.01H534.556V1016.97H532.124V1018.46H534.556V1022.33H536.428ZM533.164 1020.33C531.5 1019.78 529.868 1018.18 529.868 1015.98V1014.66H527.932V1016.07C527.932 1018.23 526.556 1019.9 524.492 1020.65L525.612 1022.14C526.94 1021.69 528.492 1020.34 528.924 1018.89C529.548 1020.22 531.02 1021.35 532.092 1021.78L533.164 1020.33ZM536.524 1025.38C536.524 1023.61 534.732 1022.49 531.612 1022.49C528.54 1022.49 526.764 1023.61 526.764 1025.38C526.764 1027.11 528.54 1028.25 531.612 1028.25C534.732 1028.25 536.524 1027.11 536.524 1025.38ZM531.612 1023.99C533.532 1023.99 534.588 1024.52 534.588 1025.38C534.588 1026.23 533.532 1026.74 531.612 1026.74C529.772 1026.74 528.684 1026.23 528.684 1025.38C528.684 1024.52 529.772 1023.99 531.612 1023.99Z" fill="white"/>
<rect x="560" y="1004" width="134" height="36" rx="6" fill="#5DC5BD"/>
<path d="M582.8 1017.72C582.8 1015.96 581.312 1014.68 579.072 1014.68C576.848 1014.68 575.376 1015.96 575.376 1017.72C575.376 1019.43 576.848 1020.68 579.072 1020.68C581.248 1020.68 582.8 1019.43 582.8 1017.72ZM586.352 1014.01H584.496V1028.26H586.352V1014.01ZM580.064 1027.85V1023.03C581.424 1022.95 582.848 1022.84 583.904 1022.7L583.744 1021.26C581.728 1021.46 578 1021.69 574.368 1021.69L574.64 1023.22C575.696 1023.22 576.8 1023.19 578.16 1023.13V1027.85H580.064ZM580.928 1017.7C580.928 1018.55 580.192 1019.14 579.072 1019.14C578 1019.14 577.248 1018.55 577.248 1017.7C577.248 1016.84 578.016 1016.2 579.072 1016.2C580.16 1016.2 580.928 1016.84 580.928 1017.7ZM598.244 1014.01V1022.04H600.1V1014.01H598.244ZM600.1 1028.09V1022.79H590.724V1028.09H600.1ZM598.244 1026.63H592.596V1024.23H598.244V1026.63ZM588.836 1018.22C588.836 1020.23 590.5 1021.53 592.596 1021.53C594.74 1021.53 596.372 1020.23 596.372 1018.22C596.372 1016.22 594.708 1014.78 592.596 1014.78C590.484 1014.78 588.836 1016.25 588.836 1018.22ZM590.628 1018.2C590.628 1017.18 591.396 1016.33 592.596 1016.33C593.828 1016.33 594.58 1017.14 594.58 1018.2C594.58 1019.29 593.732 1020.09 592.596 1020.09C591.412 1020.09 590.628 1019.3 590.628 1018.2ZM613.512 1025.38C613.512 1023.61 611.688 1022.52 608.536 1022.52C605.384 1022.52 603.576 1023.61 603.576 1025.38C603.576 1027.14 605.384 1028.25 608.536 1028.25C611.688 1028.25 613.512 1027.14 613.512 1025.38ZM602.36 1016.54H605.208C605.096 1018.55 603.768 1020.07 601.784 1020.79L602.888 1022.25C604.264 1021.77 605.768 1020.44 606.2 1019.05C606.824 1020.36 608.184 1021.43 609.288 1021.85L610.312 1020.38C608.744 1019.86 607.32 1018.54 607.16 1016.54H609.864V1015H602.36V1016.54ZM615.352 1018.95V1017.42H613.32V1014.01H611.432V1022.34H613.32V1018.95H615.352ZM608.536 1024.02C610.52 1024.02 611.624 1024.52 611.624 1025.38C611.624 1026.25 610.52 1026.76 608.536 1026.76C606.584 1026.76 605.464 1026.25 605.464 1025.38C605.464 1024.52 606.584 1024.02 608.536 1024.02ZM628.822 1023.59C626.678 1022.41 625.302 1020.38 625.302 1017.37V1017H628.086V1015.46H620.486V1017H623.366V1017.38C623.366 1020.38 622.118 1022.57 619.75 1023.86L620.902 1025.26C622.566 1024.44 624.006 1022.54 624.358 1021.08C624.774 1022.46 626.47 1024.3 627.782 1024.95L628.822 1023.59ZM631.366 1014.01H629.494V1028.26H631.366V1021.05H633.398V1019.5H631.366V1014.01ZM645.434 1019.3V1017.82H637.642V1015.83H645.322V1014.33H635.77V1019.3H639.53V1020.68H634.058V1022.17H646.938V1020.68H641.418V1019.3H645.434ZM645.466 1025.61C645.466 1023.99 643.658 1022.95 640.49 1022.95C637.354 1022.95 635.546 1023.99 635.546 1025.61C635.546 1027.26 637.354 1028.28 640.506 1028.28C643.658 1028.28 645.466 1027.26 645.466 1025.61ZM643.546 1025.62C643.546 1026.36 642.346 1026.79 640.49 1026.79C638.65 1026.79 637.466 1026.36 637.466 1025.62C637.466 1024.89 638.65 1024.44 640.49 1024.44C642.346 1024.44 643.546 1024.89 643.546 1025.62ZM664.345 1025.38C664.345 1023.62 662.473 1022.5 659.369 1022.5C656.281 1022.5 654.409 1023.62 654.409 1025.38C654.409 1027.13 656.281 1028.26 659.369 1028.26C662.473 1028.26 664.345 1027.13 664.345 1025.38ZM664.233 1022.57V1014.01H662.457V1017.53H661.289V1014.26H659.561V1022.01H661.289V1019.03H662.457V1022.57H664.233ZM659.273 1020.33C657.801 1019.64 656.601 1018.25 656.601 1016.26V1014.9H654.793V1016.31C654.793 1018.33 653.705 1019.9 651.977 1020.86L653.001 1022.18C654.233 1021.62 655.353 1020.36 655.753 1019.26C656.121 1020.17 657.385 1021.32 658.329 1021.74L659.273 1020.33ZM662.441 1025.38C662.441 1026.25 661.257 1026.76 659.369 1026.76C657.513 1026.76 656.345 1026.25 656.345 1025.38C656.345 1024.54 657.513 1024.01 659.369 1024.01C661.257 1024.01 662.441 1024.54 662.441 1025.38ZM677.741 1022.33V1014.01H675.869V1016.97H673.437V1018.46H675.869V1022.33H677.741ZM674.477 1020.33C672.813 1019.78 671.181 1018.18 671.181 1015.98V1014.66H669.245V1016.07C669.245 1018.23 667.869 1019.9 665.805 1020.65L666.925 1022.14C668.253 1021.69 669.805 1020.34 670.237 1018.89C670.861 1020.22 672.333 1021.35 673.405 1021.78L674.477 1020.33ZM677.837 1025.38C677.837 1023.61 676.045 1022.49 672.925 1022.49C669.853 1022.49 668.077 1023.61 668.077 1025.38C668.077 1027.11 669.853 1028.25 672.925 1028.25C676.045 1028.25 677.837 1027.11 677.837 1025.38ZM672.925 1023.99C674.845 1023.99 675.901 1024.52 675.901 1025.38C675.901 1026.23 674.845 1026.74 672.925 1026.74C671.085 1026.74 669.997 1026.23 669.997 1025.38C669.997 1024.52 671.085 1023.99 672.925 1023.99Z" fill="white"/>
<rect x="486" y="461" width="180" height="36" rx="6" fill="#5DC5BD"/>
<path d="M512.112 479.392V477.904H510.096L510.688 474.704L508.88 474.416L508.368 477.904H505.52L505.232 474.384L503.36 474.608L503.76 477.904H501.664V479.392H512.112ZM513.36 483.392V481.904H500.48V483.392H513.36ZM512.144 473.584V472.096H501.632V473.584H512.144ZM524.244 471.008V485.264H526.1V471.008H524.244ZM522.996 480.048C521.172 480.384 518.34 480.464 516.98 480.464V477.568H521.636V472.224H515.06V473.712H519.748V476.08H515.124V482H516.628C519.044 482 521.7 481.84 523.204 481.536L522.996 480.048ZM539.96 485.264V471.008H538.088V485.264H539.96ZM533.704 480.144H530.696V473.808H533.704V480.144ZM535.592 472.32H528.824V481.632H535.592V472.32ZM553.803 485.088V479.664H544.427V485.088H553.803ZM551.931 483.632H546.315V481.088H551.931V483.632ZM553.803 478.976V471.008H551.931V474.368H550.043V475.856H551.931V478.976H553.803ZM542.091 475.216C542.091 477.232 543.755 478.528 545.787 478.528C547.867 478.528 549.483 477.232 549.483 475.216C549.483 473.232 547.835 471.792 545.787 471.792C543.707 471.792 542.091 473.248 542.091 475.216ZM543.915 475.2C543.915 474.176 544.667 473.328 545.787 473.328C546.955 473.328 547.675 474.16 547.675 475.2C547.675 476.272 546.907 477.088 545.787 477.088C544.667 477.088 543.915 476.304 543.915 475.2ZM571.946 482.416C571.946 480.64 570.106 479.552 566.954 479.552C563.802 479.552 561.962 480.64 561.962 482.416C561.962 484.144 563.802 485.232 566.954 485.232C570.106 485.232 571.946 484.144 571.946 482.416ZM560.554 473.552H563.386C563.274 475.584 561.962 477.088 559.962 477.808C560.346 478.288 560.698 478.768 561.082 479.264C562.458 478.784 563.962 477.44 564.394 476.064C565.002 477.36 566.394 478.432 567.482 478.848C567.818 478.352 568.17 477.872 568.49 477.376C566.938 476.864 565.498 475.536 565.354 473.552H568.058V472.016H560.554V473.552ZM567.834 475.92H569.978V479.488H571.85V471.008H569.978V474.416H567.834V475.92ZM566.954 481.056C568.922 481.056 570.042 481.552 570.042 482.416C570.042 483.248 568.922 483.744 566.954 483.744C565.018 483.744 563.882 483.248 563.882 482.416C563.882 481.552 565.018 481.056 566.954 481.056ZM587.006 476.832V475.28H585.198V471.008H583.342V481.6H585.198V476.832H587.006ZM585.566 484.88V483.392H577.71V480.688H575.822V484.88H585.566ZM582.686 479.28L582.542 477.856C581.598 478 579.454 478.144 578.174 478.176V475.36H576.318V478.224C575.39 478.24 574.43 478.256 573.582 478.256L573.822 479.776C574.766 479.776 576.606 479.696 578.254 479.632C579.758 479.584 581.662 479.392 582.686 479.28ZM581.742 472.016H574.462V473.504H579.854C579.854 474.848 579.758 476.112 579.566 476.832L581.342 477.088C581.646 475.968 581.742 474.368 581.742 472.016ZM592.445 473.68H595.309V473.728C595.309 475.888 593.933 477.616 591.869 478.368L592.973 479.84C594.349 479.36 595.853 477.936 596.285 476.544C596.893 477.856 598.285 479.04 599.373 479.44L600.397 477.968C598.765 477.44 597.261 475.856 597.229 473.68H599.965V472.144H592.445V473.68ZM603.741 481.344V471.008H601.869V474.8H599.725V476.304H601.869V481.344H603.741ZM604.045 484.88V483.408H596.093V480.384H594.205V484.88H604.045ZM612.801 480.96C611.249 480.064 610.305 478.576 610.193 476.064H612.433V474.576H606.017V476.064H608.353C608.241 478.624 607.297 480.16 605.441 481.344L606.577 482.608C607.745 481.936 608.929 480.464 609.265 479.136C609.633 480.4 610.817 481.744 611.745 482.288L612.801 480.96ZM615.169 484.608V471.28H613.409V476.96H611.649V478.464H613.409V484.608H615.169ZM617.921 485.264V471.008H616.145V485.264H617.921ZM611.153 473.632V472.16H607.424V473.632H611.153ZM635.615 471.008H633.759V473.2H631.727V474.736H633.759V476.336H631.727V477.856H633.759V481.344H635.615V471.008ZM631.007 479.024V471.872H629.151V474.096H626.175V471.904H624.287V479.024H631.007ZM629.151 477.536H626.175V475.568H629.151V477.536ZM635.935 484.88V483.408H628.095V480.48H626.239V484.88H635.935ZM649.571 482.368C649.571 480.592 647.779 479.472 644.675 479.472C641.603 479.472 639.827 480.592 639.827 482.368C639.827 484.128 641.603 485.264 644.675 485.264C647.779 485.264 649.571 484.128 649.571 482.368ZM649.475 479.28V471.008H647.603V473.424H645.187V474.896H647.603V476.304H644.995V477.728H647.603V479.28H649.475ZM647.635 482.368C647.635 483.248 646.579 483.76 644.675 483.76C642.851 483.76 641.779 483.248 641.779 482.368C641.779 481.504 642.851 480.96 644.675 480.96C646.579 480.96 647.635 481.504 647.635 482.368ZM644.979 471.936H638.355V473.488H642.899C642.387 475.84 640.163 477.328 637.667 477.888L638.659 479.392C642.387 478.224 644.819 475.888 644.979 471.936Z" fill="white"/>
<g filter="url(#filter1_dddddd)">
<rect x="45" y="658" width="902" height="182" rx="6" fill="white"/>
</g>
<circle cx="911" cy="694" r="20" fill="#4AA570"/>
<path d="M903 691.8L909.698 699L919 689" stroke="white" stroke-width="3" stroke-linecap="round" stroke-linejoin="round"/>
<path d="M255.72 739.816V736.84H229.96V739.816H255.72ZM255.176 728.136C250.824 727.4 244.808 723.656 244.808 718.632V716.744H240.904V718.632C240.904 723.688 235.24 727.464 230.568 728.136L232.328 731.176C236.264 730.312 241.352 727.272 242.824 723.432C244.456 727.176 249.384 730.152 253.288 731.048L255.176 728.136ZM280.4 727.688V724.84H264.816V723.176H279.216V720.328H264.816V718.696H280.176V715.752H261.04V727.688H268.592V729.768H257.648V732.776H283.408V729.768H272.336V727.688H280.4ZM260.688 734.6V737.576H276.368V743.56H280.08V734.6H260.688ZM288.279 720.712C288.279 723.592 291.127 725.672 296.279 726.088V728.008H285.335V731.016H311.095V728.008H300.023V726.088C305.207 725.704 308.183 723.624 308.183 720.712C308.183 717.512 304.567 715.304 298.199 715.304C291.895 715.304 288.279 717.512 288.279 720.712ZM307.799 743.176V732.296H304.087V735.048H292.343V732.36H288.631V743.176H307.799ZM292.151 720.68C292.151 719.176 294.359 718.152 298.199 718.152C302.103 718.152 304.311 719.176 304.311 720.68C304.311 722.248 301.975 723.304 298.199 723.304C294.359 723.304 292.151 722.248 292.151 720.68ZM304.087 740.232H292.343V737.896H304.087V740.232ZM332.863 721.96V724.648H328.575V727.656H332.863V735.688H336.607V715.016H332.863V718.984H328.575V721.96H332.863ZM337.215 742.76V739.816H321.567V733.8H317.823V742.76H337.215ZM329.983 729.384C326.687 728.328 323.391 724.456 323.391 720.104V716.648H319.519V720.264C319.519 724.584 316.799 728.552 312.639 730.088L314.847 733.064C317.567 732.136 320.639 728.904 321.47 726.024C322.719 728.648 325.695 731.528 327.871 732.328L329.983 729.384ZM371.772 728.328V716.328H367.996V719.592H355.932V716.36H352.22V728.328H371.772ZM363.804 743.56V734.184H374.876V731.208H349.116V734.184H360.06V743.56H363.804ZM367.996 725.352H355.932V722.504H367.996V725.352ZM392.42 733H396.644V743.528H400.388V715.016H396.644V720.648H392.42L392.548 723.816H396.644V729.8H392.548L392.42 733ZM376.964 727.176C376.964 733.16 379.652 737.32 384.292 737.32C388.964 737.32 391.652 733.128 391.652 727.176C391.652 721.16 388.964 716.968 384.292 716.968C379.652 716.968 376.964 721.16 376.964 727.176ZM388.068 727.176C388.068 731.656 386.5 734.312 384.292 734.312C382.148 734.312 380.612 731.656 380.612 727.176C380.612 722.664 382.148 719.976 384.292 719.976C386.5 719.976 388.068 722.664 388.068 727.176ZM428.002 728.648V717.32H414.306V728.648H428.002ZM437.826 740.904C434.178 740.776 430.37 739.176 429.154 736.84H436.738V733.992H416.706V736.84H424.45C423.202 739.176 419.266 740.712 415.65 740.904L417.346 743.752C421.41 743.464 425.73 741.192 426.786 739.144C427.842 741.128 432.034 743.368 436.13 743.816L437.826 740.904ZM436.45 730.728V715.016H432.706V730.728H436.45ZM424.322 725.704H418.018V720.168H424.322V725.704ZM431.01 732.872V729.992H422.242V732.872H431.01Z" fill="black" fill-opacity="0.65"/>
<path d="M467.52 742.216V715.56H464.032V722.504H461.12V725.544H464.032V729.576H460.416V732.616H464.032V742.216H467.52ZM473.216 743.528V715.016H469.664V743.528H473.216ZM460.832 718.376H450.048V721.384H457.216C456.768 727.048 453.76 732.04 448.256 735.368L450.688 737.96C457.632 733.384 460.864 726.888 460.832 718.376ZM476.743 723.432C476.743 727.464 480.072 730.024 484.135 730.024C488.296 730.024 491.496 727.464 491.496 723.432C491.496 719.432 488.264 716.616 484.135 716.616C480.008 716.616 476.743 719.496 476.743 723.432ZM502.696 724.904H498.952V721.576H502.696V718.504H498.952V715.016H495.144V731.688H498.952V728.008H502.696V724.904ZM480.232 733.096V736.072H495.208V743.56H498.984V733.096H480.232ZM480.424 723.4C480.424 721.384 481.896 719.688 484.135 719.688C486.472 719.688 487.912 721.32 487.912 723.4C487.912 725.576 486.376 727.176 484.135 727.176C481.896 727.176 480.424 725.64 480.424 723.4ZM527.951 743.528V715.016H524.175V724.648H519.023V727.816H524.175V743.528H527.951ZM521.679 734.376C517.391 731.624 514.831 727.208 514.831 721.576V717.416H510.991V721.768C510.991 727.432 508.495 731.944 503.919 734.92L506.159 737.672C509.135 736.072 512.047 732.456 512.975 729.192C513.935 732.168 517.167 735.752 519.535 737.192L521.679 734.376ZM564.909 737.768C564.909 734.248 561.165 732.008 554.957 732.008C548.781 732.008 545.037 734.248 545.037 737.768C545.037 741.256 548.781 743.528 554.957 743.528C561.165 743.528 564.909 741.256 564.909 737.768ZM564.685 732.136V715.016H561.133V722.056H558.797V715.528H555.341V731.016H558.797V725.064H561.133V732.136H564.685ZM554.765 727.656C551.821 726.28 549.421 723.496 549.421 719.528V716.808H545.805V719.624C545.805 723.656 543.629 726.792 540.173 728.712L542.221 731.368C544.685 730.248 546.925 727.72 547.725 725.512C548.461 727.336 550.989 729.64 552.877 730.472L554.765 727.656ZM561.101 737.768C561.101 739.496 558.733 740.52 554.957 740.52C551.245 740.52 548.909 739.496 548.909 737.768C548.909 736.072 551.245 735.016 554.957 735.016C558.733 735.016 561.101 736.072 561.101 737.768ZM591.7 731.656V715.016H587.956V720.936H583.092V723.912H587.956V731.656H591.7ZM585.172 727.656C581.844 726.568 578.58 723.368 578.58 718.952V716.328H574.708V719.144C574.708 723.464 571.956 726.792 567.828 728.296L570.068 731.272C572.724 730.376 575.828 727.688 576.692 724.776C577.94 727.432 580.884 729.704 583.028 730.568L585.172 727.656ZM591.892 737.768C591.892 734.216 588.308 731.976 582.068 731.976C575.924 731.976 572.372 734.216 572.372 737.768C572.372 741.224 575.924 743.496 582.068 743.496C588.308 743.496 591.892 741.224 591.892 737.768ZM582.068 734.984C585.908 734.984 588.02 736.04 588.02 737.768C588.02 739.464 585.908 740.488 582.068 740.488C578.388 740.488 576.212 739.464 576.212 737.768C576.212 736.04 578.388 734.984 582.068 734.984Z" fill="#4AA570"/>
<path d="M45 662C45 659.791 46.7909 658 49 658H60V840H49C46.7909 840 45 838.209 45 836V662Z" fill="#4AA570"/>
<circle cx="149" cy="749" r="48" fill="#F2F2F2"/>
<path d="M126 773C126 773 141.25 724.053 173 726.06C173 726.06 169.063 732.463 159.124 734.532C159.124 734.532 163.751 735.098 167.5 733.842C167.5 733.842 165.25 741.124 153.001 742.125C153.001 742.125 159.751 743.883 162.751 742.878C162.751 742.878 161.937 748.306 149.466 751.004C148.727 751.162 143.749 752.412 147.748 752.916C147.748 752.916 153.497 753.923 155 753.419C155 753.419 150.076 760.822 137.998 760.195C136.81 760.133 136.246 760.195 136.246 760.195L126 773Z" fill="#4AA570"/>
<path opacity="0.4" d="M247.24 767.368V765.376H231.496V767.368H238.096C237.664 770.032 233.872 772.048 230.584 772.384L231.76 774.328C234.904 773.848 238.36 771.904 239.392 769.816C240.472 771.784 244.024 773.8 247.024 774.232L248.128 772.288C244.936 771.952 241.168 770.008 240.736 767.368H247.24ZM240.568 785.872V778.264H249.04V776.296H229.72V778.264H238.12V785.872H240.568ZM268.006 767.368V765.376H252.262V767.368H258.862C258.43 770.032 254.638 772.048 251.35 772.384L252.526 774.328C255.67 773.848 259.126 771.904 260.158 769.816C261.238 771.784 264.79 773.8 267.79 774.232L268.894 772.288C265.702 771.952 261.934 770.008 261.502 767.368H268.006ZM261.334 785.872V778.264H269.806V776.296H250.486V778.264H258.886V785.872H261.334ZM288.339 782.344C288.339 780.184 285.939 778.624 280.899 778.624C275.907 778.624 273.507 780.184 273.507 782.344C273.507 784.528 275.907 786.088 280.923 786.088C285.939 786.088 288.339 784.528 288.339 782.344ZM289.683 772.432C286.563 772.336 283.155 771.112 282.339 769.432H288.627V767.464H273.171V769.432H279.531C278.739 771.136 275.499 772.36 272.067 772.432L273.099 774.424C276.507 774.184 279.723 772.864 280.899 770.992C282.123 772.816 285.507 774.16 288.675 774.424L289.683 772.432ZM290.571 777.712V775.72H282.099V773.248H279.651V775.72H271.251V777.712H290.571ZM285.795 782.344C285.795 783.472 283.947 784.12 280.899 784.12C277.899 784.12 276.027 783.472 276.027 782.344C276.027 781.24 277.899 780.64 280.899 780.64C283.947 780.64 285.795 781.24 285.795 782.344ZM277.395 766.384H284.403V764.464H277.395V766.384ZM306.225 779.944C304.641 780.16 302.385 780.304 300.201 780.4V778.528C302.625 778.192 304.257 776.824 304.257 775C304.257 772.864 302.097 771.376 299.025 771.376C296.001 771.376 293.841 772.864 293.841 775C293.841 776.776 295.401 778.144 297.753 778.504V780.496C295.785 780.544 293.817 780.544 291.993 780.544L292.377 782.584C297.225 782.536 301.953 782.392 306.417 781.864L306.225 779.944ZM309.897 764.512H307.425V785.896H309.897V764.512ZM305.289 770.608V768.688H292.737V770.608H305.289ZM301.737 775C301.737 775.984 300.609 776.68 299.025 776.68C297.513 776.68 296.361 775.984 296.361 775C296.361 773.992 297.513 773.296 299.025 773.296C300.609 773.296 301.737 773.992 301.737 775ZM295.905 767.536H302.121V765.568H295.905V767.536ZM337.399 785.752V783.784H325.231V781.936H336.679V776.392H322.615V778.36H334.231V780.112H322.759V785.752H337.399ZM330.055 765.52H320.215V767.56H327.295C326.503 770.752 323.287 773.104 319.159 773.848L320.431 775.84C325.327 774.616 329.839 771.352 330.055 765.52ZM336.679 775.264V764.512H334.231V767.488H330.319V769.384H334.231V771.376H329.959V773.248H334.231V775.264H336.679ZM352.189 771.304C352.189 768.304 349.765 766.192 346.597 766.192C343.501 766.192 341.125 768.352 341.125 771.304C341.125 774.208 343.477 776.176 346.597 776.176C349.741 776.176 352.189 774.256 352.189 771.304ZM349.717 771.28C349.717 772.984 348.277 774.088 346.597 774.088C344.965 774.088 343.525 772.984 343.525 771.28C343.525 769.504 344.941 768.304 346.597 768.304C348.325 768.304 349.717 769.432 349.717 771.28ZM357.733 764.512H355.285V785.896H357.733V764.512ZM354.085 778.456C352.237 778.648 349.837 778.816 346.789 778.936C344.293 779.08 341.965 779.08 339.685 779.056L340.069 781.168C345.085 781.144 349.693 780.928 354.277 780.424L354.085 778.456Z" fill="black"/>
<rect x="630" y="708" width="160" height="40" rx="6" fill="#4AA570"/>
<path d="M647.7 723.16C647.7 721.9 648.66 720.88 650.26 720.88C651.88 720.88 652.84 721.9 652.84 723.16C652.84 724.48 651.88 725.5 650.26 725.5C648.66 725.5 647.7 724.48 647.7 723.16ZM659.64 717.76H657.32V735.58H659.64V717.76ZM645.3 723.18C645.3 725.66 647.26 727.46 650.26 727.46C653.28 727.46 655.2 725.66 655.2 723.18C655.2 720.68 653.28 718.9 650.26 718.9C647.26 718.9 645.3 720.68 645.3 723.18ZM656.58 731.02L656.38 729.14C654.8 729.34 652.64 729.5 650.42 729.58C648.4 729.66 646.68 729.68 644.62 729.68L644.96 731.68C646.46 731.7 648.58 731.62 650.56 731.54C652.46 731.44 654.88 731.24 656.58 731.02ZM675.825 717.76H673.505V735.58H675.825V726.54H678.385V724.62H675.825V717.76ZM672.625 729.58C669.925 727.86 668.305 725.1 668.305 721.58V719.26H665.885V721.7C665.885 725.26 664.365 728.12 661.465 729.98C661.965 730.54 662.425 731.1 662.905 731.68C664.745 730.6 666.545 728.36 667.125 726.34C667.725 728.28 669.785 730.38 671.245 731.32C671.725 730.74 672.145 730.16 672.625 729.58ZM693.649 725.78V724.02H683.669V722.86H693.149V718.34H681.269V720.1H690.809V721.2H681.329V725.78H686.049V727.14H679.209V729.02H695.309V727.14H688.389V725.78H693.649ZM681.109 730.04V731.92H690.909V735.6H693.229V730.04H681.109ZM712.528 729.74C709.848 728.26 708.128 725.72 708.128 721.96V721.5H711.608V719.58H702.108V721.5H705.708V721.98C705.708 725.72 704.148 728.46 701.188 730.08L702.628 731.82C704.708 730.8 706.508 728.42 706.948 726.6C707.468 728.32 709.588 730.62 711.228 731.44L712.528 729.74ZM715.708 717.76H713.368V735.58H715.708V726.56H718.248V724.62H715.708V717.76ZM733.293 724.38V722.52H723.553V720.04H733.153V718.16H721.213V724.38H725.913V726.1H719.073V727.96H735.173V726.1H728.273V724.38H733.293ZM733.333 732.26C733.333 730.24 731.073 728.94 727.113 728.94C723.193 728.94 720.933 730.24 720.933 732.26C720.933 734.32 723.193 735.6 727.133 735.6C731.073 735.6 733.333 734.32 733.333 732.26ZM730.933 732.28C730.933 733.2 729.433 733.74 727.113 733.74C724.813 733.74 723.333 733.2 723.333 732.28C723.333 731.36 724.813 730.8 727.113 730.8C729.433 730.8 730.933 731.36 730.933 732.28ZM756.931 731.98C756.931 729.78 754.591 728.38 750.711 728.38C746.851 728.38 744.511 729.78 744.511 731.98C744.511 734.16 746.851 735.58 750.711 735.58C754.591 735.58 756.931 734.16 756.931 731.98ZM756.791 728.46V717.76H754.571V722.16H753.111V718.08H750.951V727.76H753.111V724.04H754.571V728.46H756.791ZM750.591 725.66C748.751 724.8 747.251 723.06 747.251 720.58V718.88H744.991V720.64C744.991 723.16 743.631 725.12 741.471 726.32L742.751 727.98C744.291 727.28 745.691 725.7 746.191 724.32C746.651 725.46 748.231 726.9 749.411 727.42L750.591 725.66ZM754.551 731.98C754.551 733.06 753.071 733.7 750.711 733.7C748.391 733.7 746.931 733.06 746.931 731.98C746.931 730.92 748.391 730.26 750.711 730.26C753.071 730.26 754.551 730.92 754.551 731.98ZM773.676 728.16V717.76H771.336V721.46H768.296V723.32H771.336V728.16H773.676ZM769.596 725.66C767.516 724.98 765.476 722.98 765.476 720.22V718.58H763.056V720.34C763.056 723.04 761.336 725.12 758.756 726.06L760.156 727.92C761.816 727.36 763.756 725.68 764.296 723.86C765.076 725.52 766.916 726.94 768.256 727.48L769.596 725.66ZM773.796 731.98C773.796 729.76 771.556 728.36 767.656 728.36C763.816 728.36 761.596 729.76 761.596 731.98C761.596 734.14 763.816 735.56 767.656 735.56C771.556 735.56 773.796 734.14 773.796 731.98ZM767.656 730.24C770.056 730.24 771.376 730.9 771.376 731.98C771.376 733.04 770.056 733.68 767.656 733.68C765.356 733.68 763.996 733.04 763.996 731.98C763.996 730.9 765.356 730.24 767.656 730.24Z" fill="white"/>
<rect x="630" y="760" width="160" height="40" rx="6" fill="#5DC5BD"/>
<path d="M656.2 786.76V770.1H654.02V774.44H652.2V776.34H654.02V778.86H651.76V780.76H654.02V786.76H656.2ZM659.76 787.58V769.76H657.54V787.58H659.76ZM652.02 771.86H645.28V773.74H649.76C649.48 777.28 647.6 780.4 644.16 782.48L645.68 784.1C650.02 781.24 652.04 777.18 652.02 771.86ZM661.965 775.02C661.965 777.54 664.045 779.14 666.585 779.14C669.185 779.14 671.185 777.54 671.185 775.02C671.185 772.52 669.165 770.76 666.585 770.76C664.005 770.76 661.965 772.56 661.965 775.02ZM678.185 775.94H675.845V773.86H678.185V771.94H675.845V769.76H673.465V780.18H675.845V777.88H678.185V775.94ZM664.145 781.06V782.92H673.505V787.6H675.865V781.06H664.145ZM664.265 775C664.265 773.74 665.185 772.68 666.585 772.68C668.045 772.68 668.945 773.7 668.945 775C668.945 776.36 667.985 777.36 666.585 777.36C665.185 777.36 664.265 776.4 664.265 775ZM693.969 787.58V769.76H691.609V775.78H688.389V777.76H691.609V787.58H693.969ZM690.049 781.86C687.369 780.14 685.769 777.38 685.769 773.86V771.26H683.369V773.98C683.369 777.52 681.809 780.34 678.949 782.2L680.349 783.92C682.209 782.92 684.029 780.66 684.609 778.62C685.209 780.48 687.229 782.72 688.709 783.62L690.049 781.86ZM712.528 781.74C709.848 780.26 708.128 777.72 708.128 773.96V773.5H711.608V771.58H702.108V773.5H705.708V773.98C705.708 777.72 704.148 780.46 701.188 782.08L702.628 783.82C704.708 782.8 706.508 780.42 706.948 778.6C707.468 780.32 709.588 782.62 711.228 783.44L712.528 781.74ZM715.708 769.76H713.368V787.58H715.708V778.56H718.248V776.62H715.708V769.76ZM733.293 776.38V774.52H723.553V772.04H733.153V770.16H721.213V776.38H725.913V778.1H719.073V779.96H735.173V778.1H728.273V776.38H733.293ZM733.333 784.26C733.333 782.24 731.073 780.94 727.113 780.94C723.193 780.94 720.933 782.24 720.933 784.26C720.933 786.32 723.193 787.6 727.133 787.6C731.073 787.6 733.333 786.32 733.333 784.26ZM730.933 784.28C730.933 785.2 729.433 785.74 727.113 785.74C724.813 785.74 723.333 785.2 723.333 784.28C723.333 783.36 724.813 782.8 727.113 782.8C729.433 782.8 730.933 783.36 730.933 784.28ZM756.931 783.98C756.931 781.78 754.591 780.38 750.711 780.38C746.851 780.38 744.511 781.78 744.511 783.98C744.511 786.16 746.851 787.58 750.711 787.58C754.591 787.58 756.931 786.16 756.931 783.98ZM756.791 780.46V769.76H754.571V774.16H753.111V770.08H750.951V779.76H753.111V776.04H754.571V780.46H756.791ZM750.591 777.66C748.751 776.8 747.251 775.06 747.251 772.58V770.88H744.991V772.64C744.991 775.16 743.631 777.12 741.471 778.32L742.751 779.98C744.291 779.28 745.691 777.7 746.191 776.32C746.651 777.46 748.231 778.9 749.411 779.42L750.591 777.66ZM754.551 783.98C754.551 785.06 753.071 785.7 750.711 785.7C748.391 785.7 746.931 785.06 746.931 783.98C746.931 782.92 748.391 782.26 750.711 782.26C753.071 782.26 754.551 782.92 754.551 783.98ZM773.676 780.16V769.76H771.336V773.46H768.296V775.32H771.336V780.16H773.676ZM769.596 777.66C767.516 776.98 765.476 774.98 765.476 772.22V770.58H763.056V772.34C763.056 775.04 761.336 777.12 758.756 778.06L760.156 779.92C761.816 779.36 763.756 777.68 764.296 775.86C765.076 777.52 766.916 778.94 768.256 779.48L769.596 777.66ZM773.796 783.98C773.796 781.76 771.556 780.36 767.656 780.36C763.816 780.36 761.596 781.76 761.596 783.98C761.596 786.14 763.816 787.56 767.656 787.56C771.556 787.56 773.796 786.14 773.796 783.98ZM767.656 782.24C770.056 782.24 771.376 782.9 771.376 783.98C771.376 785.04 770.056 785.68 767.656 785.68C765.356 785.68 763.996 785.04 763.996 783.98C763.996 782.9 765.356 782.24 767.656 782.24Z" fill="white"/>
</g>
<defs>
<filter id="filter0_dddddd" x="16" y="89" width="948.833" height="1169" filterUnits="userSpaceOnUse" color-interpolation-filters="sRGB">
<feFlood flood-opacity="0" result="BackgroundImageFix"/>
<feColorMatrix in="SourceAlpha" type="matrix" values="0 0 0 0 0 0 0 0 0 0 0 0 0 0 0 0 0 0 127 0"/>
<feOffset dy="2.76726"/>
<feGaussianBlur stdDeviation="1.1069"/>
<feColorMatrix type="matrix" values="0 0 0 0 0 0 0 0 0 0 0 0 0 0 0 0 0 0 0.0196802 0"/>
<feBlend mode="normal" in2="BackgroundImageFix" result="effect1_dropShadow"/>
<feColorMatrix in="SourceAlpha" type="matrix" values="0 0 0 0 0 0 0 0 0 0 0 0 0 0 0 0 0 0 127 0"/>
<feOffset dy="6.6501"/>
<feGaussianBlur stdDeviation="2.66004"/>
<feColorMatrix type="matrix" values="0 0 0 0 0 0 0 0 0 0 0 0 0 0 0 0 0 0 0.0282725 0"/>
<feBlend mode="normal" in2="effect1_dropShadow" result="effect2_dropShadow"/>
<feColorMatrix in="SourceAlpha" type="matrix" values="0 0 0 0 0 0 0 0 0 0 0 0 0 0 0 0 0 0 127 0"/>
<feOffset dy="12.5216"/>
<feGaussianBlur stdDeviation="5.00862"/>
<feColorMatrix type="matrix" values="0 0 0 0 0 0 0 0 0 0 0 0 0 0 0 0 0 0 0.035 0"/>
<feBlend mode="normal" in2="effect2_dropShadow" result="effect3_dropShadow"/>
<feColorMatrix in="SourceAlpha" type="matrix" values="0 0 0 0 0 0 0 0 0 0 0 0 0 0 0 0 0 0 127 0"/>
<feOffset dy="22.3363"/>
<feGaussianBlur stdDeviation="8.93452"/>
<feColorMatrix type="matrix" values="0 0 0 0 0 0 0 0 0 0 0 0 0 0 0 0 0 0 0.0417275 0"/>
<feBlend mode="normal" in2="effect3_dropShadow" result="effect4_dropShadow"/>
<feColorMatrix in="SourceAlpha" type="matrix" values="0 0 0 0 0 0 0 0 0 0 0 0 0 0 0 0 0 0 127 0"/>
<feOffset dy="41.7776"/>
<feGaussianBlur stdDeviation="16.711"/>
<feColorMatrix type="matrix" values="0 0 0 0 0 0 0 0 0 0 0 0 0 0 0 0 0 0 0.0503198 0"/>
<feBlend mode="normal" in2="effect4_dropShadow" result="effect5_dropShadow"/>
<feColorMatrix in="SourceAlpha" type="matrix" values="0 0 0 0 0 0 0 0 0 0 0 0 0 0 0 0 0 0 127 0"/>
<feOffset dy="100"/>
<feGaussianBlur stdDeviation="40"/>
<feColorMatrix type="matrix" values="0 0 0 0 0 0 0 0 0 0 0 0 0 0 0 0 0 0 0.07 0"/>
<feBlend mode="normal" in2="effect5_dropShadow" result="effect6_dropShadow"/>
<feBlend mode="normal" in="SourceGraphic" in2="effect6_dropShadow" result="shape"/>
</filter>
<filter id="filter1_dddddd" x="-35" y="658" width="1062" height="362" filterUnits="userSpaceOnUse" color-interpolation-filters="sRGB">
<feFlood flood-opacity="0" result="BackgroundImageFix"/>
<feColorMatrix in="SourceAlpha" type="matrix" values="0 0 0 0 0 0 0 0 0 0 0 0 0 0 0 0 0 0 127 0"/>
<feOffset dy="2.76726"/>
<feGaussianBlur stdDeviation="1.1069"/>
<feColorMatrix type="matrix" values="0 0 0 0 0 0 0 0 0 0 0 0 0 0 0 0 0 0 0.0196802 0"/>
<feBlend mode="normal" in2="BackgroundImageFix" result="effect1_dropShadow"/>
<feColorMatrix in="SourceAlpha" type="matrix" values="0 0 0 0 0 0 0 0 0 0 0 0 0 0 0 0 0 0 127 0"/>
<feOffset dy="6.6501"/>
<feGaussianBlur stdDeviation="2.66004"/>
<feColorMatrix type="matrix" values="0 0 0 0 0 0 0 0 0 0 0 0 0 0 0 0 0 0 0.0282725 0"/>
<feBlend mode="normal" in2="effect1_dropShadow" result="effect2_dropShadow"/>
<feColorMatrix in="SourceAlpha" type="matrix" values="0 0 0 0 0 0 0 0 0 0 0 0 0 0 0 0 0 0 127 0"/>
<feOffset dy="12.5216"/>
<feGaussianBlur stdDeviation="5.00862"/>
<feColorMatrix type="matrix" values="0 0 0 0 0 0 0 0 0 0 0 0 0 0 0 0 0 0 0.035 0"/>
<feBlend mode="normal" in2="effect2_dropShadow" result="effect3_dropShadow"/>
<feColorMatrix in="SourceAlpha" type="matrix" values="0 0 0 0 0 0 0 0 0 0 0 0 0 0 0 0 0 0 127 0"/>
<feOffset dy="22.3363"/>
<feGaussianBlur stdDeviation="8.93452"/>
<feColorMatrix type="matrix" values="0 0 0 0 0 0 0 0 0 0 0 0 0 0 0 0 0 0 0.0417275 0"/>
<feBlend mode="normal" in2="effect3_dropShadow" result="effect4_dropShadow"/>
<feColorMatrix in="SourceAlpha" type="matrix" values="0 0 0 0 0 0 0 0 0 0 0 0 0 0 0 0 0 0 127 0"/>
<feOffset dy="41.7776"/>
<feGaussianBlur stdDeviation="16.711"/>
<feColorMatrix type="matrix" values="0 0 0 0 0 0 0 0 0 0 0 0 0 0 0 0 0 0 0.0503198 0"/>
<feBlend mode="normal" in2="effect4_dropShadow" result="effect5_dropShadow"/>
<feColorMatrix in="SourceAlpha" type="matrix" values="0 0 0 0 0 0 0 0 0 0 0 0 0 0 0 0 0 0 127 0"/>
<feOffset dy="100"/>
<feGaussianBlur stdDeviation="40"/>
<feColorMatrix type="matrix" values="0 0 0 0 0 0 0 0 0 0 0 0 0 0 0 0 0 0 0.07 0"/>
<feBlend mode="normal" in2="effect5_dropShadow" result="effect6_dropShadow"/>
<feBlend mode="normal" in="SourceGraphic" in2="effect6_dropShadow" result="shape"/>
</filter>
<clipPath id="clip0">
<rect width="991" height="1335" fill="white"/>
</clipPath>
</defs>
</svg>
