<svg width="862" height="909" viewBox="0 0 862 909" fill="none" xmlns="http://www.w3.org/2000/svg">
<path d="M0.5 20C0.5 9.23047 9.23045 0.5 20 0.5H842C852.77 0.5 861.5 9.23045 861.5 20V889C861.5 899.77 852.77 908.5 842 908.5H20C9.23047 908.5 0.5 899.77 0.5 889V20Z" fill="white" stroke="#E3E3E3"/>
<path d="M81.048 750.672L80.856 748.992C79.416 749.184 77.112 749.352 74.88 749.448V747.672C77.328 747.384 78.96 746.04 78.96 744.168C78.96 742.008 76.872 740.64 73.872 740.64C70.92 740.64 68.808 742.032 68.808 744.168C68.808 746.016 70.392 747.336 72.768 747.648V749.568C70.704 749.664 68.664 749.712 66.936 749.712L67.296 751.488C69.048 751.488 71.592 751.368 73.896 751.272C76.464 751.128 79.272 750.888 81.048 750.672ZM84.264 754.68V733.704H82.152V754.68H84.264ZM80.184 739.56V737.856H67.68V739.56H80.184ZM76.752 744.168C76.752 745.2 75.552 746.016 73.872 746.016C72.216 746.016 71.04 745.2 71.04 744.168C71.04 743.112 72.216 742.32 73.872 742.32C75.552 742.32 76.752 743.112 76.752 744.168ZM76.8 736.416V734.712H70.728V736.416H76.8ZM106.182 743.808V742.056H102.918V733.704H100.806V754.68H102.918V743.808H106.182ZM99.0776 747.984C96.1256 746.16 93.7736 742.848 93.7736 738.912V735.504H91.5896V739.008C91.5896 742.872 89.3576 746.52 86.1896 748.512L87.5096 750.096C89.8856 748.512 91.9736 745.848 92.6936 743.304C93.4856 745.728 95.9336 748.344 97.8056 749.568L99.0776 747.984ZM125.459 746.112V744.384H106.523V746.112H125.459ZM123.467 754.224V752.472H111.155V748.008H109.043V754.224H123.467ZM123.371 741.912V740.184H111.227V734.568H109.115V741.912H123.371ZM132.202 751.992H142.306V750.216H135.106L137.506 747.792C140.146 745.128 141.994 743.064 141.994 740.232C141.994 737.352 140.218 735.552 136.906 735.552C135.082 735.552 133.426 736.32 132.418 736.992L132.922 738.624C133.858 738 135.154 737.352 136.498 737.352C138.754 737.352 139.762 738.36 139.762 740.448C139.762 742.704 138.178 744.528 135.898 746.904L132.202 750.744V751.992ZM150.089 752.28C153.377 752.28 155.969 750.072 155.969 744.552V743.16C155.969 737.544 153.305 735.576 150.113 735.576C146.897 735.576 144.089 737.544 144.089 743.256V744.528C144.089 750.024 146.705 752.28 150.089 752.28ZM150.089 750.552C147.617 750.552 146.345 748.656 146.345 744.696V742.992C146.345 739.032 147.665 737.304 150.113 737.304C152.513 737.304 153.785 739.128 153.785 743.16V744.816C153.785 748.92 152.489 750.552 150.089 750.552ZM157.797 751.992H167.901V750.216H160.701L163.101 747.792C165.741 745.128 167.589 743.064 167.589 740.232C167.589 737.352 165.813 735.552 162.501 735.552C160.677 735.552 159.021 736.32 158.013 736.992L158.517 738.624C159.453 738 160.749 737.352 162.093 737.352C164.349 737.352 165.357 738.36 165.357 740.448C165.357 742.704 163.773 744.528 161.493 746.904L157.797 750.744V751.992ZM175.685 752.28C178.973 752.28 181.565 750.072 181.565 744.552V743.16C181.565 737.544 178.901 735.576 175.709 735.576C172.493 735.576 169.685 737.544 169.685 743.256V744.528C169.685 750.024 172.301 752.28 175.685 752.28ZM175.685 750.552C173.213 750.552 171.941 748.656 171.941 744.696V742.992C171.941 739.032 173.261 737.304 175.709 737.304C178.109 737.304 179.381 739.128 179.381 743.16V744.816C179.381 748.92 178.085 750.552 175.685 750.552ZM200.976 754.08V752.376H188.952V747.768H186.84V754.08H200.976ZM194.928 745.272C194.856 744.696 194.736 744.144 194.616 743.592C192.216 744.096 189.24 744.288 186.432 744.288V735.168H184.344V746.088C185.16 746.088 186.024 746.088 186.912 746.064C189.504 746.016 192.792 745.728 194.928 745.272ZM198.288 738.384V740.472H191.856V742.176H198.288V748.92H200.424V733.704H198.288V736.704H191.856V738.384H198.288ZM210.047 752.064H212.423L218.639 737.232V735.888H208.295V737.664H216.311L210.047 752.064ZM237.41 754.656V753.048H224.45V751.584H236.618V747.12H222.314V748.704H234.506V750.12H222.314V754.656H237.41ZM231.05 737.664C231.05 735.456 228.794 734.184 225.842 734.184C222.89 734.184 220.61 735.504 220.61 737.64C220.61 739.848 222.89 741.12 225.842 741.12C228.794 741.12 231.05 739.848 231.05 737.664ZM236.618 746.28V733.704H234.53V743.928H230.042V745.44H234.53V746.28H236.618ZM226.802 746.304V743.616C229.058 743.472 231.506 743.28 232.97 743.088L232.778 741.504C230.786 741.744 228.722 741.864 226.034 741.984C223.73 742.08 221.498 742.104 219.074 742.104L219.386 743.856C221.114 743.832 222.794 743.784 224.69 743.736V746.304H226.802ZM228.914 737.664C228.914 738.84 227.594 739.44 225.842 739.44C224.09 739.44 222.794 738.84 222.794 737.664C222.794 736.488 224.066 735.84 225.842 735.84C227.666 735.84 228.914 736.488 228.914 737.664ZM244.944 751.992H255.048V750.216H247.848L250.248 747.792C252.888 745.128 254.736 743.064 254.736 740.232C254.736 737.352 252.96 735.552 249.648 735.552C247.824 735.552 246.168 736.32 245.16 736.992L245.664 738.624C246.6 738 247.896 737.352 249.24 737.352C251.496 737.352 252.504 738.36 252.504 740.448C252.504 742.704 250.92 744.528 248.64 746.904L244.944 750.744V751.992ZM256.781 751.992H266.885V750.216H259.685L262.085 747.792C264.725 745.128 266.573 743.064 266.573 740.232C266.573 737.352 264.797 735.552 261.485 735.552C259.661 735.552 258.005 736.32 256.997 736.992L257.501 738.624C258.437 738 259.733 737.352 261.077 737.352C263.333 737.352 264.341 738.36 264.341 740.448C264.341 742.704 262.757 744.528 260.477 746.904L256.781 750.744V751.992ZM285.298 744.384V733.704H283.162V744.384H285.298ZM286.042 754.536V752.784H273.778V750.72H285.298V745.464H271.594V747.192H283.162V749.136H271.666V754.536H286.042ZM274.042 734.4C271.018 734.4 268.666 736.392 268.666 739.2C268.666 742.056 271.09 743.832 274.042 743.832C277.042 743.832 279.394 741.984 279.394 739.176C279.394 736.344 277.042 734.4 274.042 734.4ZM274.042 736.224C276.034 736.224 277.306 737.448 277.306 739.176C277.306 740.808 276.01 742.056 274.042 742.056C272.17 742.056 270.754 740.88 270.754 739.176C270.754 737.448 272.218 736.224 274.042 736.224ZM311.336 741.936C308.192 741.6 304.184 739.608 303.848 736.944H310.472V735.192H294.992V736.944H301.592C301.28 739.608 297.416 741.672 294.104 742.032L295.112 743.712C298.448 743.184 301.784 741.192 302.696 739.224C303.728 741.12 307.184 743.136 310.376 743.64L311.336 741.936ZM303.728 754.68V747.336H312.176V745.608H293.24V747.336H301.592V754.68H303.728ZM331.142 741.936C327.998 741.6 323.99 739.608 323.654 736.944H330.278V735.192H314.798V736.944H321.398C321.086 739.608 317.222 741.672 313.91 742.032L314.918 743.712C318.254 743.184 321.59 741.192 322.502 739.224C323.534 741.12 326.99 743.136 330.182 743.64L331.142 741.936ZM323.534 754.68V747.336H331.982V745.608H313.046V747.336H321.398V754.68H323.534ZM349.556 751.176C349.556 748.896 347.132 747.528 342.308 747.528C337.508 747.528 335.084 748.968 335.084 751.176C335.084 753.408 337.508 754.824 342.308 754.824C347.132 754.824 349.556 753.432 349.556 751.176ZM350.852 741.792C347.828 741.624 344.228 740.376 343.508 738.504H349.82V736.824H334.796V738.504H341.156C340.46 740.376 337.1 741.624 333.764 741.792L334.7 743.544C337.964 743.232 341.18 741.864 342.308 739.992C343.46 741.84 346.892 743.208 349.964 743.544L350.852 741.792ZM351.788 746.568V744.84H343.34V742.176H341.204V744.84H332.852V746.568H351.788ZM342.308 749.28C345.452 749.28 347.396 749.976 347.396 751.176C347.396 752.4 345.452 753.072 342.308 753.072C339.212 753.072 337.268 752.4 337.268 751.176C337.268 749.976 339.212 749.28 342.308 749.28ZM345.692 735.624V733.92H338.9V735.624H345.692ZM366.793 750.672L366.601 748.992C365.161 749.184 362.857 749.352 360.625 749.448V747.672C363.073 747.384 364.705 746.04 364.705 744.168C364.705 742.008 362.617 740.64 359.617 740.64C356.665 740.64 354.553 742.032 354.553 744.168C354.553 746.016 356.137 747.336 358.513 747.648V749.568C356.449 749.664 354.409 749.712 352.681 749.712L353.041 751.488C354.793 751.488 357.337 751.368 359.641 751.272C362.209 751.128 365.017 750.888 366.793 750.672ZM370.009 754.68V733.704H367.897V754.68H370.009ZM365.929 739.56V737.856H353.425V739.56H365.929ZM362.497 744.168C362.497 745.2 361.297 746.016 359.617 746.016C357.961 746.016 356.785 745.2 356.785 744.168C356.785 743.112 357.961 742.32 359.617 742.32C361.297 742.32 362.497 743.112 362.497 744.168ZM362.545 736.416V734.712H356.473V736.416H362.545ZM393.792 739.584V737.928H382.224V736.224H394.272V734.496H380.088V743.04H394.368V741.36H382.224V739.584H393.792ZM379.992 748.248V749.952H392.136V754.776H394.272V748.248H379.992ZM396.744 746.52V744.792H377.808V746.52H396.744ZM407.981 744.168V734.64H405.869V737.736H400.589V734.664H398.453V744.168H407.981ZM415.565 754.536V752.784H403.277V750.768H414.821V745.632H401.141V747.336H412.685V749.16H401.165V754.536H415.565ZM414.821 733.704H412.685V736.56H409.085V738.24H412.685V740.448H409.085V742.128H412.685V744.624H414.821V733.704ZM405.869 742.464H400.589V739.416H405.869V742.464ZM435.347 754.56V752.832H423.179V750.744H434.627V745.464H420.899V747.168H432.491V749.16H421.067V754.56H435.347ZM428.147 734.784H418.595V736.56H425.747C424.955 739.776 421.859 742.272 417.539 743.232L418.691 744.912C423.707 743.52 427.787 740.28 428.147 734.784ZM428.387 738.36H432.491V740.544H428.123V742.2H432.491V744.336H434.627V733.704H432.491V736.704H428.387V738.36ZM452.489 733.704V754.68H454.577V733.704H452.489ZM449.465 740.328C449.465 737.328 447.065 735.384 443.969 735.384C440.897 735.384 438.497 737.424 438.497 740.328C438.497 743.16 440.873 745.104 443.969 745.104C447.017 745.104 449.465 743.232 449.465 740.328ZM447.377 740.304C447.377 742.128 445.793 743.328 443.969 743.328C442.121 743.328 440.609 742.104 440.609 740.304C440.609 738.48 442.121 737.16 443.969 737.16C445.865 737.16 447.377 738.384 447.377 740.304ZM451.361 749.376L451.145 747.696C449.465 747.888 446.993 748.056 444.017 748.176C441.545 748.296 439.097 748.32 437.081 748.32L437.417 750.144C439.097 750.12 441.305 750.072 443.681 749.952C446.345 749.808 449.441 749.616 451.361 749.376ZM462.022 735.36C458.902 735.36 457.414 738.504 457.414 742.68C457.414 746.88 458.902 750.072 462.022 750.072C464.926 750.072 466.438 747.36 466.63 743.64H468.67V753.696H470.686V734.112H468.67V741.888H466.63C466.462 738.12 464.95 735.36 462.022 735.36ZM464.566 742.704C464.566 745.992 463.726 748.248 462.022 748.248C460.366 748.248 459.502 745.992 459.502 742.704C459.502 739.44 460.366 737.16 462.022 737.16C463.726 737.16 464.566 739.44 464.566 742.704ZM474.742 754.68V733.704H472.726V754.68H474.742ZM497.444 733.704V754.68H499.532V733.704H497.444ZM494.42 740.328C494.42 737.328 492.02 735.384 488.924 735.384C485.852 735.384 483.452 737.424 483.452 740.328C483.452 743.16 485.828 745.104 488.924 745.104C491.972 745.104 494.42 743.232 494.42 740.328ZM492.332 740.304C492.332 742.128 490.748 743.328 488.924 743.328C487.076 743.328 485.564 742.104 485.564 740.304C485.564 738.48 487.076 737.16 488.924 737.16C490.82 737.16 492.332 738.384 492.332 740.304ZM496.316 749.376L496.1 747.696C494.42 747.888 491.948 748.056 488.972 748.176C486.5 748.296 484.052 748.32 482.036 748.32L482.372 750.144C484.052 750.12 486.26 750.072 488.636 749.952C491.3 749.808 494.396 749.616 496.316 749.376ZM521.522 744.216V742.44H518.186V733.704H516.05V754.68H518.186V744.216H521.522ZM511.25 736.8V735.072H504.986V736.8H511.25ZM514.298 740.4V738.696H501.866V740.4H514.298ZM513.122 746.016C513.122 743.496 511.154 741.576 508.178 741.576C505.202 741.576 503.21 743.544 503.21 746.016C503.21 748.536 505.202 750.408 508.178 750.408C511.154 750.408 513.122 748.488 513.122 746.016ZM511.034 746.016C511.034 747.552 509.906 748.632 508.178 748.632C506.522 748.632 505.346 747.552 505.346 746.016C505.346 744.456 506.546 743.352 508.178 743.352C509.81 743.352 511.034 744.456 511.034 746.016ZM536.864 739.944V745.08H533.024L533 746.856H536.864V754.68H538.976V733.704H536.864V738.144H533L533.024 739.944H536.864ZM521.936 742.608C521.936 746.76 523.568 750.024 527.168 750.024C530.792 750.024 532.376 746.76 532.376 742.632C532.376 738.456 530.792 735.192 527.168 735.192C523.568 735.192 521.936 738.456 521.936 742.608ZM530.336 742.632C530.336 745.848 529.256 748.2 527.168 748.2C525.104 748.2 524.048 745.848 524.048 742.632C524.048 739.368 525.104 737.016 527.168 737.016C529.256 737.016 530.336 739.368 530.336 742.632ZM554.91 748.416V743.544C557.046 743.4 559.11 743.256 560.67 743.016C560.574 742.488 560.502 741.912 560.43 741.384C559.71 741.48 558.966 741.528 558.174 741.6C558.534 739.848 558.726 737.568 558.726 735.144H548.622V736.872H556.59C556.59 738.816 556.374 740.52 556.086 741.768C555.39 741.816 554.646 741.864 553.854 741.864C551.574 741.96 549.222 742.008 546.75 742.008L547.086 743.784C548.91 743.76 550.806 743.736 552.798 743.664V748.416H554.91ZM557.646 746.568H562.182V749.64H564.294V733.704H562.182V744.96H557.646V746.568ZM564.798 754.152V752.4H551.814V747.72H549.678V754.152H564.798ZM580.092 747.288C577.548 747.768 573.492 747.936 570.564 747.936H569.94V743.184H577.788V735.6H567.732V737.328H575.676V741.48H567.828V749.736H570.444C574.692 749.688 578.124 749.4 580.308 749.04L580.092 747.288ZM581.916 733.704V754.68H584.052V733.704H581.916ZM598.913 748.224C595.937 746.568 593.657 743.4 593.657 739.344V737.64H598.289V735.888H586.745V737.64H591.473V739.368C591.473 743.352 589.193 746.904 585.953 748.752L587.321 750.312C589.841 748.752 591.929 746.064 592.577 743.688C593.249 746.016 595.625 748.632 597.665 749.784L598.913 748.224ZM606.041 743.856V742.08H602.753V733.704H600.641V754.68H602.753V743.856H606.041ZM611.351 735.36C608.231 735.36 606.743 738.504 606.743 742.68C606.743 746.88 608.231 750.072 611.351 750.072C614.255 750.072 615.767 747.36 615.959 743.64H617.999V753.696H620.015V734.112H617.999V741.888H615.959C615.791 738.12 614.279 735.36 611.351 735.36ZM613.895 742.704C613.895 745.992 613.055 748.248 611.351 748.248C609.695 748.248 608.831 745.992 608.831 742.704C608.831 739.44 609.695 737.16 611.351 737.16C613.055 737.16 613.895 739.44 613.895 742.704ZM624.071 754.68V733.704H622.055V754.68H624.071ZM643.877 754.68V733.704H641.837V754.68H643.877ZM639.725 753.648V734.184H637.709V742.2H634.637V743.928H637.709V753.648H639.725ZM634.973 736.224H626.717V737.976H632.861C632.501 742.248 630.125 746.28 625.805 748.8L627.245 750.36C632.405 746.928 634.901 742.44 634.973 736.224ZM654.315 747.792V737.664H662.115V735.912H652.203V749.568H654.555C658.371 749.544 661.971 749.304 664.155 748.848L663.915 747.12C661.803 747.576 657.939 747.792 655.179 747.792H654.315ZM667.515 733.704H665.403V754.68H667.515V743.664H670.779V741.888H667.515V733.704ZM690.056 745.464V743.736H671.12V745.464H690.056ZM687.752 754.392V747.504H673.424V754.392H687.752ZM685.64 752.712H675.56V749.184H685.64V752.712ZM687.8 738.216C687.8 735.816 685.16 734.232 680.576 734.232C676.016 734.232 673.376 735.816 673.376 738.216C673.376 740.616 676.016 742.224 680.576 742.224C685.16 742.224 687.8 740.616 687.8 738.216ZM685.592 738.216C685.592 739.584 683.624 740.496 680.576 740.496C677.504 740.496 675.608 739.584 675.608 738.216C675.608 736.848 677.504 735.936 680.576 735.936C683.672 735.936 685.592 736.848 685.592 738.216ZM710.462 744.24V742.488H707.246V733.704H705.134V754.68H707.246V744.24H710.462ZM704.006 749.544L703.742 747.888C701.966 748.152 699.686 748.296 697.022 748.416V741.84H694.958V748.488C693.422 748.536 691.718 748.536 690.446 748.536L690.758 750.312C692.462 750.312 694.67 750.264 696.782 750.168C698.942 750.048 702.014 749.832 704.006 749.544ZM702.638 735.816H691.694V737.544H700.502C700.502 740.328 700.31 743.376 699.902 745.176L701.942 745.44C702.422 743.376 702.638 739.608 702.638 735.816ZM735.396 740.52V738.768H732.276V733.704H730.14V744.984H732.276V740.52H735.396ZM732.852 754.416V752.832H721.116V750.984H731.964V749.4H721.116V747.672H732.396V746.064H719.004V754.416H732.852ZM716.868 734.976V736.752H724.092C723.468 740.088 719.916 743.184 715.86 743.904L716.94 745.656C721.884 744.36 726.252 740.712 726.444 734.976H716.868ZM754.818 746.112V744.384H735.882V746.112H754.818ZM752.562 754.056V752.352H740.442V747.96H738.33V754.056H752.562ZM752.682 738.48C752.682 735.888 749.946 734.352 745.338 734.352C740.778 734.352 738.042 735.888 738.042 738.48C738.042 741.072 740.754 742.632 745.338 742.632C749.922 742.632 752.682 741.072 752.682 738.48ZM745.338 736.08C748.434 736.08 750.45 736.992 750.45 738.48C750.45 739.968 748.434 740.88 745.338 740.88C742.29 740.88 740.322 739.968 740.322 738.48C740.322 736.992 742.29 736.08 745.338 736.08ZM778.744 754.68V733.704H776.704V741.888H774.136V734.16H772.12V753.648H774.136V743.64H776.704V754.68H778.744ZM770.968 748.392C770.872 747.816 770.776 747.216 770.656 746.64C769.216 747.048 766.024 747.264 763.984 747.264V736.032H761.848V749.064H763.864C766.432 749.016 769.456 748.752 770.968 748.392ZM83.592 778.168C83.592 775.768 80.952 774.256 76.368 774.256C71.808 774.256 69.144 775.768 69.144 778.168C69.144 779.56 69.984 780.64 71.592 781.312V784.216H66.912V785.944H85.848V784.216H81.072V781.36C82.704 780.688 83.592 779.584 83.592 778.168ZM83.832 790.864C83.832 788.464 81.024 787.096 76.368 787.096C71.736 787.096 68.952 788.464 68.952 790.864C68.952 793.264 71.736 794.656 76.368 794.656C81.024 794.656 83.832 793.264 83.832 790.864ZM81.432 778.168C81.432 779.608 79.44 780.4 76.368 780.4C73.272 780.4 71.328 779.608 71.328 778.168C71.328 776.728 73.272 775.936 76.368 775.936C79.488 775.936 81.432 776.728 81.432 778.168ZM76.368 788.8C79.488 788.8 81.6 789.496 81.6 790.888C81.6 792.232 79.512 792.928 76.368 792.928C73.272 792.928 71.208 792.232 71.208 790.888C71.208 789.496 73.272 788.8 76.368 788.8ZM76.368 782.104C77.328 782.104 78.192 782.032 78.96 781.912V784.216H73.704V781.888C74.496 782.032 75.384 782.104 76.368 782.104ZM101.982 773.704V794.68H104.07V773.704H101.982ZM98.9576 780.328C98.9576 777.328 96.5576 775.384 93.4616 775.384C90.3896 775.384 87.9896 777.424 87.9896 780.328C87.9896 783.16 90.3656 785.104 93.4616 785.104C96.5096 785.104 98.9576 783.232 98.9576 780.328ZM96.8696 780.304C96.8696 782.128 95.2856 783.328 93.4616 783.328C91.6136 783.328 90.1016 782.104 90.1016 780.304C90.1016 778.48 91.6136 777.16 93.4616 777.16C95.3576 777.16 96.8696 778.384 96.8696 780.304ZM100.854 789.376L100.638 787.696C98.9576 787.888 96.4856 788.056 93.5096 788.176C91.0376 788.296 88.5896 788.32 86.5736 788.32L86.9096 790.144C88.5896 790.12 90.7976 790.072 93.1736 789.952C95.8376 789.808 98.9336 789.616 100.854 789.376ZM130.228 784.336C127.012 783.712 122.428 780.592 122.428 777.088V775.456H120.244V777.088C120.244 780.616 115.924 783.664 112.492 784.264L113.572 785.992C116.98 785.104 120.484 782.44 121.324 780.064C122.308 782.416 125.788 785.08 129.076 786.016L130.228 784.336ZM130.804 791.848V790.12H111.868V791.848H130.804ZM148.234 782.872V781.168H136.186V779.536H147.826V777.88H136.186V776.272H148.138V774.568H134.05V782.872H140.05V784.84H131.674V786.568H150.61V784.84H142.186V782.872H148.234ZM133.858 788.272V790H146.002V794.776H148.138V788.272H133.858ZM168.159 778.072C168.159 775.6 165.495 774.16 160.935 774.16C156.399 774.16 153.735 775.6 153.735 778.072C153.735 780.28 155.967 781.696 159.831 781.912V783.496H151.479V785.248H170.415V783.496H161.967V781.912C165.879 781.72 168.159 780.304 168.159 778.072ZM167.967 794.416V786.472H165.831V788.776H156.063V786.496H153.951V794.416H167.967ZM165.999 778.048C165.999 779.464 164.007 780.256 160.935 780.256C157.839 780.256 155.919 779.464 155.919 778.048C155.919 776.632 157.839 775.84 160.935 775.84C164.055 775.84 165.999 776.632 165.999 778.048ZM165.831 792.712H156.063V790.456H165.831V792.712ZM182.733 782.872H186.357V788.896H188.493V773.704H186.357V776.776H182.733V778.504H186.357V781.12H182.733V782.872ZM183.501 784.384C181.053 783.52 178.461 780.952 178.461 777.544V774.904H176.301V777.64C176.301 780.928 173.925 783.856 171.045 785.056L172.365 786.736C174.525 785.728 176.781 783.352 177.405 781.12C178.317 783.232 180.309 785.176 182.277 786.04L183.501 784.384ZM188.949 794.08V792.352H177.021V787.576H174.909V794.08H188.949ZM210.026 784.384V782.656H191.09V784.384H210.026ZM208.442 794.536V792.784H195.362V790.984H207.65V786.16H193.202V787.888H205.538V789.4H193.25V794.536H208.442ZM207.842 777.712C207.842 775.336 205.13 773.992 200.57 773.992C196.058 773.992 193.346 775.336 193.346 777.712C193.346 780.064 196.058 781.408 200.57 781.408C205.13 781.408 207.842 780.064 207.842 777.712ZM200.57 775.696C203.69 775.696 205.658 776.512 205.658 777.712C205.658 778.888 203.69 779.704 200.57 779.704C197.498 779.704 195.554 778.888 195.554 777.712C195.554 776.512 197.498 775.696 200.57 775.696ZM232.849 783.76V774.496H230.737V777.472H220.657V774.496H218.521V783.76H232.849ZM226.729 794.704V787.888H235.177V786.136H216.241V787.888H224.593V794.704H226.729ZM230.737 782.056H220.657V779.2H230.737V782.056ZM251.118 779.944V785.08H247.278L247.254 786.856H251.118V794.68H253.23V773.704H251.118V778.144H247.254L247.278 779.944H251.118ZM236.19 782.608C236.19 786.76 237.822 790.024 241.422 790.024C245.046 790.024 246.63 786.76 246.63 782.632C246.63 778.456 245.046 775.192 241.422 775.192C237.822 775.192 236.19 778.456 236.19 782.608ZM244.59 782.632C244.59 785.848 243.51 788.2 241.422 788.2C239.358 788.2 238.302 785.848 238.302 782.632C238.302 779.368 239.358 777.016 241.422 777.016C243.51 777.016 244.59 779.368 244.59 782.632ZM275.388 784.216V782.44H272.052V773.704H269.916V794.68H272.052V784.216H275.388ZM265.116 776.8V775.072H258.852V776.8H265.116ZM268.164 780.4V778.696H255.732V780.4H268.164ZM266.988 786.016C266.988 783.496 265.02 781.576 262.044 781.576C259.068 781.576 257.076 783.544 257.076 786.016C257.076 788.536 259.068 790.408 262.044 790.408C265.02 790.408 266.988 788.488 266.988 786.016ZM264.9 786.016C264.9 787.552 263.772 788.632 262.044 788.632C260.388 788.632 259.212 787.552 259.212 786.016C259.212 784.456 260.412 783.352 262.044 783.352C263.676 783.352 264.9 784.456 264.9 786.016ZM292.866 794.68V773.704H290.73V794.68H292.866ZM286.722 775.936H276.618V777.736H284.418C284.034 782.248 280.626 786.64 275.682 789.016L276.978 790.624C282.714 787.504 286.602 782.608 286.722 775.936ZM314.399 792.016V790.288H305.951V786.976H312.623V785.248H299.855V781.96H312.047V775.432H297.695V777.16H309.935V780.232H297.743V786.976H303.815V790.288H295.463V792.016H314.399ZM338.542 794.56V792.832H326.374V790.744H337.822V785.464H324.094V787.168H335.686V789.16H324.262V794.56H338.542ZM331.342 774.784H321.79V776.56H328.942C328.15 779.776 325.054 782.272 320.734 783.232L321.886 784.912C326.902 783.52 330.982 780.28 331.342 774.784ZM331.582 778.36H335.686V780.544H331.318V782.2H335.686V784.336H337.822V773.704H335.686V776.704H331.582V778.36ZM357.747 790.624C357.747 788.128 355.203 786.544 350.667 786.544C346.179 786.544 343.611 788.128 343.611 790.624C343.611 793.144 346.179 794.68 350.667 794.68C355.203 794.68 357.747 793.144 357.747 790.624ZM340.899 777.136H345.627V777.88C345.627 780.808 342.987 783.544 340.251 784.528L341.451 786.208C343.611 785.32 346.059 783.112 346.731 781.12C347.595 783.016 349.755 784.864 351.627 785.608L352.803 783.904C350.427 783.184 347.787 780.808 347.787 777.832V777.136H352.371V775.408H340.899V777.136ZM350.667 788.296C353.787 788.296 355.587 789.16 355.587 790.624C355.587 792.088 353.787 792.952 350.667 792.952C347.595 792.952 345.771 792.088 345.771 790.624C345.771 789.16 347.595 788.296 350.667 788.296ZM355.491 780.736V786.712H357.627V773.704H355.491V778.984H351.579V780.736H355.491ZM379.761 784.216V782.44H376.425V773.704H374.289V794.68H376.425V784.216H379.761ZM369.489 776.8V775.072H363.225V776.8H369.489ZM372.537 780.4V778.696H360.105V780.4H372.537ZM371.361 786.016C371.361 783.496 369.393 781.576 366.417 781.576C363.441 781.576 361.449 783.544 361.449 786.016C361.449 788.536 363.441 790.408 366.417 790.408C369.393 790.408 371.361 788.488 371.361 786.016ZM369.273 786.016C369.273 787.552 368.145 788.632 366.417 788.632C364.761 788.632 363.585 787.552 363.585 786.016C363.585 784.456 364.785 783.352 366.417 783.352C368.049 783.352 369.273 784.456 369.273 786.016ZM390.878 779.848C390.878 776.896 388.454 774.856 385.55 774.856C382.622 774.856 380.222 776.92 380.222 779.848C380.222 782.824 382.646 784.696 385.55 784.696C388.478 784.696 390.878 782.8 390.878 779.848ZM397.238 785.608V773.704H395.102V776.368H391.55C391.55 776.968 391.574 777.568 391.574 778.144H395.102V781.144H391.574C391.574 781.768 391.55 782.344 391.55 782.968H395.102V785.608H397.238ZM388.766 779.848C388.766 781.696 387.47 783.016 385.55 783.016C383.654 783.016 382.31 781.696 382.31 779.824C382.31 778.024 383.654 776.632 385.55 776.632C387.542 776.632 388.766 778 388.766 779.848ZM397.91 794.776L399.23 793.264C397.19 792.52 395.174 790.192 395.174 787.6V786.496H393.086V787.672C393.086 790.24 391.334 792.496 389.006 793.624L390.35 795.04C392.078 794.248 393.686 792.328 394.166 790.816C394.67 792.28 396.518 794.104 397.886 794.776H397.91ZM390.374 791.488C388.838 790.888 387.446 789.448 387.446 787.384V786.496H385.334V787.504C385.334 790.096 383.366 792.328 381.182 793.312L382.43 794.8C384.182 793.984 386.03 791.992 386.51 790.408C386.966 791.416 388.022 792.448 388.958 792.904L390.374 791.488ZM402.836 787.792V777.664H410.636V775.912H400.724V789.568H403.076C406.892 789.544 410.492 789.304 412.676 788.848L412.436 787.12C410.324 787.576 406.46 787.792 403.7 787.792H402.836ZM416.036 773.704H413.924V794.68H416.036V783.664H419.3V781.888H416.036V773.704ZM419.786 792.544H422.114V790.192H419.786V792.544ZM447.19 794.68V773.704H445.054V794.68H447.19ZM430.63 782.68C430.63 786.856 432.31 790.12 436.03 790.12C439.75 790.12 441.406 786.856 441.406 782.704C441.406 778.528 439.75 775.288 436.03 775.288C432.31 775.288 430.63 778.528 430.63 782.68ZM439.294 782.704C439.294 785.944 438.19 788.272 436.03 788.272C433.894 788.272 432.79 785.944 432.79 782.704C432.79 779.464 433.894 777.112 436.03 777.112C438.19 777.112 439.294 779.464 439.294 782.704ZM454.683 775.36C451.563 775.36 450.075 778.504 450.075 782.68C450.075 786.88 451.563 790.072 454.683 790.072C457.587 790.072 459.099 787.36 459.291 783.64H461.331V793.696H463.347V774.112H461.331V781.888H459.291C459.123 778.12 457.611 775.36 454.683 775.36ZM457.227 782.704C457.227 785.992 456.387 788.248 454.683 788.248C453.027 788.248 452.163 785.992 452.163 782.704C452.163 779.44 453.027 777.16 454.683 777.16C456.387 777.16 457.227 779.44 457.227 782.704ZM467.403 794.68V773.704H465.387V794.68H467.403ZM493.202 784.336C489.986 783.712 485.402 780.592 485.402 777.088V775.456H483.218V777.088C483.218 780.616 478.898 783.664 475.466 784.264L476.546 785.992C479.954 785.104 483.458 782.44 484.298 780.064C485.282 782.416 488.762 785.08 492.05 786.016L493.202 784.336ZM493.778 791.848V790.12H474.842V791.848H493.778ZM511.207 782.872V781.168H499.159V779.536H510.799V777.88H499.159V776.272H511.111V774.568H497.023V782.872H503.023V784.84H494.647V786.568H513.583V784.84H505.159V782.872H511.207ZM496.831 788.272V790H508.975V794.776H511.111V788.272H496.831ZM531.133 778.072C531.133 775.6 528.469 774.16 523.909 774.16C519.373 774.16 516.709 775.6 516.709 778.072C516.709 780.28 518.941 781.696 522.805 781.912V783.496H514.453V785.248H533.389V783.496H524.941V781.912C528.853 781.72 531.133 780.304 531.133 778.072ZM530.941 794.416V786.472H528.805V788.776H519.037V786.496H516.925V794.416H530.941ZM528.973 778.048C528.973 779.464 526.981 780.256 523.909 780.256C520.813 780.256 518.893 779.464 518.893 778.048C518.893 776.632 520.813 775.84 523.909 775.84C527.029 775.84 528.973 776.632 528.973 778.048ZM528.805 792.712H519.037V790.456H528.805V792.712ZM545.707 782.872H549.331V788.896H551.467V773.704H549.331V776.776H545.707V778.504H549.331V781.12H545.707V782.872ZM546.475 784.384C544.027 783.52 541.435 780.952 541.435 777.544V774.904H539.275V777.64C539.275 780.928 536.899 783.856 534.019 785.056L535.339 786.736C537.499 785.728 539.755 783.352 540.379 781.12C541.291 783.232 543.283 785.176 545.251 786.04L546.475 784.384ZM551.923 794.08V792.352H539.995V787.576H537.883V794.08H551.923ZM576.017 783.76V774.496H573.905V777.472H563.825V774.496H561.689V783.76H576.017ZM569.897 794.704V787.888H578.345V786.136H559.409V787.888H567.761V794.704H569.897ZM573.905 782.056H563.825V779.2H573.905V782.056ZM594.286 779.944V785.08H590.446L590.422 786.856H594.286V794.68H596.398V773.704H594.286V778.144H590.422L590.446 779.944H594.286ZM579.358 782.608C579.358 786.76 580.99 790.024 584.59 790.024C588.214 790.024 589.798 786.76 589.798 782.632C589.798 778.456 588.214 775.192 584.59 775.192C580.99 775.192 579.358 778.456 579.358 782.608ZM587.758 782.632C587.758 785.848 586.678 788.2 584.59 788.2C582.526 788.2 581.47 785.848 581.47 782.632C581.47 779.368 582.526 777.016 584.59 777.016C586.678 777.016 587.758 779.368 587.758 782.632ZM604.012 775.36C600.892 775.36 599.404 778.504 599.404 782.68C599.404 786.88 600.892 790.072 604.012 790.072C606.916 790.072 608.428 787.36 608.62 783.64H610.66V793.696H612.676V774.112H610.66V781.888H608.62C608.452 778.12 606.94 775.36 604.012 775.36ZM606.556 782.704C606.556 785.992 605.716 788.248 604.012 788.248C602.356 788.248 601.492 785.992 601.492 782.704C601.492 779.44 602.356 777.16 604.012 777.16C605.716 777.16 606.556 779.44 606.556 782.704ZM616.732 794.68V773.704H614.716V794.68H616.732ZM643.586 782.08V780.304H640.466V773.704H638.378V789.4H640.466V782.08H643.586ZM641.21 794.152V792.424H629.21V788.032H627.098V794.152H641.21ZM637.202 785.632L636.962 784C635.354 784.24 632.618 784.456 630.266 784.528V780.088H628.154V784.576C626.642 784.624 624.938 784.624 623.738 784.624L624.05 786.4C625.634 786.4 628.25 786.352 630.506 786.232C632.546 786.16 635.45 785.896 637.202 785.632ZM635.498 775.288H625.178V777.016H633.362C633.362 779.224 633.218 781 632.834 782.296L634.898 782.632C635.354 780.928 635.498 778.696 635.498 775.288ZM663.32 782.536V780.736H660.176V773.704H658.064V789.16H660.176V782.536H663.32ZM660.896 794.056V792.352H649.016V788.56H646.904V794.056H660.896ZM652.952 776.08V774.352H646.856V776.08H652.952ZM656.168 779.224V777.52H643.856V779.224H656.168ZM654.992 783.976C654.992 781.6 652.88 780.208 650.024 780.208C647.192 780.208 645.08 781.6 645.08 783.976C645.08 786.304 647.216 787.72 650.024 787.72C652.88 787.72 654.992 786.28 654.992 783.976ZM652.88 783.976C652.88 785.248 651.56 786.016 650.024 786.016C648.512 786.016 647.192 785.248 647.192 783.976C647.192 782.632 648.512 781.912 650.024 781.912C651.56 781.912 652.88 782.632 652.88 783.976ZM682.806 793.648V774.184H680.79V779.416H678.102V781.144H680.79V784.672H677.622V786.4H680.79V793.648H682.806ZM686.838 794.68V773.704H684.798V794.68H686.838ZM677.934 776.224H669.678V777.976H675.822C675.462 782.248 673.086 786.28 668.766 788.8L670.206 790.36C675.366 786.928 677.862 782.44 677.934 776.224ZM694.716 774.88C691.644 774.88 689.148 776.944 689.148 779.92C689.148 782.944 691.668 784.864 694.716 784.864C697.812 784.864 700.284 782.92 700.284 779.92C700.284 776.92 697.788 774.88 694.716 774.88ZM708.252 781.264H705.132V778.672H708.252V776.92H705.132V773.704H702.996V786.04H705.132V783.04H708.252V781.264ZM705.132 794.704V787.12H691.548V788.824H703.02V794.704H705.132ZM694.716 776.68C696.804 776.68 698.124 778.072 698.124 779.92C698.124 781.816 696.756 783.136 694.716 783.136C692.748 783.136 691.332 781.816 691.332 779.896C691.332 778.072 692.724 776.68 694.716 776.68ZM713.346 794.44H715.146C713.01 792.04 711.234 788.296 711.234 784.672V784.048C711.234 780.304 713.01 776.848 715.146 774.472H713.346C711.066 776.704 709.122 780.016 709.122 784.24V784.648C709.122 788.848 711.066 792.208 713.346 794.44ZM732.722 794.68V773.704H730.586V794.68H732.722ZM716.162 782.68C716.162 786.856 717.842 790.12 721.562 790.12C725.282 790.12 726.938 786.856 726.938 782.704C726.938 778.528 725.282 775.288 721.562 775.288C717.842 775.288 716.162 778.528 716.162 782.68ZM724.826 782.704C724.826 785.944 723.722 788.272 721.562 788.272C719.426 788.272 718.322 785.944 718.322 782.704C718.322 779.464 719.426 777.112 721.562 777.112C723.722 777.112 724.826 779.464 724.826 782.704ZM754.76 784.216V782.44H751.424V773.704H749.288V794.68H751.424V784.216H754.76ZM744.488 776.8V775.072H738.224V776.8H744.488ZM747.536 780.4V778.696H735.104V780.4H747.536ZM746.36 786.016C746.36 783.496 744.392 781.576 741.416 781.576C738.44 781.576 736.448 783.544 736.448 786.016C736.448 788.536 738.44 790.408 741.416 790.408C744.392 790.408 746.36 788.488 746.36 786.016ZM744.272 786.016C744.272 787.552 743.144 788.632 741.416 788.632C739.76 788.632 738.584 787.552 738.584 786.016C738.584 784.456 739.784 783.352 741.416 783.352C743.048 783.352 744.272 784.456 744.272 786.016ZM764.598 779.584H766.398L766.614 775.288H764.358L764.598 779.584ZM760.926 779.584H762.702L762.942 775.288H760.71L760.926 779.584ZM784.293 782.896V774.4H782.157V777.088H772.389V774.424H770.277V782.896H776.157V785.296H767.805V787.024H786.741V785.296H778.293V782.896H784.293ZM784.485 794.032V792.304H772.317V788.344H770.181V794.032H784.485ZM782.157 781.144H772.389V778.816H782.157V781.144ZM80.592 833.648V814.184H78.576V819.416H75.888V821.144H78.576V824.672H75.408V826.4H78.576V833.648H80.592ZM84.624 834.68V813.704H82.584V834.68H84.624ZM75.72 816.224H67.464V817.976H73.608C73.248 822.248 70.872 826.28 66.552 828.8L67.992 830.36C73.152 826.928 75.648 822.44 75.72 816.224ZM92.5016 814.88C89.4296 814.88 86.9336 816.944 86.9336 819.92C86.9336 822.944 89.4536 824.864 92.5016 824.864C95.5976 824.864 98.0696 822.92 98.0696 819.92C98.0696 816.92 95.5736 814.88 92.5016 814.88ZM106.038 821.264H102.918V818.672H106.038V816.92H102.918V813.704H100.782V826.04H102.918V823.04H106.038V821.264ZM102.918 834.704V827.12H89.3336V828.824H100.806V834.704H102.918ZM92.5016 816.68C94.5896 816.68 95.9096 818.072 95.9096 819.92C95.9096 821.816 94.5416 823.136 92.5016 823.136C90.5336 823.136 89.1176 821.816 89.1176 819.896C89.1176 818.072 90.5096 816.68 92.5016 816.68ZM110.747 819.584H112.547L112.763 815.288H110.507L110.747 819.584ZM107.075 819.584H108.851L109.091 815.288H106.859L107.075 819.584ZM113.306 834.44H115.13C117.41 832.208 119.378 828.872 119.378 824.648V824.24C119.378 820.04 117.41 816.704 115.13 814.472H113.306C115.49 816.872 117.242 820.616 117.242 824.216V824.864C117.242 828.608 115.49 832.064 113.306 834.44ZM139.571 824.384V822.656H120.634V824.384H139.571ZM137.987 834.536V832.784H124.906V830.984H137.195V826.16H122.746V827.888H135.083V829.4H122.794V834.536H137.987ZM137.387 817.712C137.387 815.336 134.675 813.992 130.115 813.992C125.602 813.992 122.89 815.336 122.89 817.712C122.89 820.064 125.602 821.408 130.115 821.408C134.675 821.408 137.387 820.064 137.387 817.712ZM130.115 815.696C133.235 815.696 135.203 816.512 135.203 817.712C135.203 818.888 133.235 819.704 130.115 819.704C127.043 819.704 125.099 818.888 125.099 817.712C125.099 816.512 127.043 815.696 130.115 815.696ZM156.225 828.704C153.993 827.48 151.977 825.032 151.977 820.976V820.688H155.817V818.96H145.929V820.688H149.889V821.048C149.889 825.056 148.041 827.696 145.425 829.328L146.769 830.744C148.617 829.616 150.441 827.288 150.945 825.2C151.521 827.216 153.417 829.28 154.977 830.24L156.225 828.704ZM157.401 824.528V833.648H159.393V814.184H157.401V822.8H154.401V824.528H157.401ZM163.497 834.68V813.704H161.457V834.68H163.497ZM148.185 817.112H153.705V815.36H148.185V817.112ZM183.518 834.56V832.832H171.35V830.744H182.798V825.464H169.07V827.168H180.662V829.16H169.238V834.56H183.518ZM176.318 814.784H166.766V816.56H173.918C173.126 819.776 170.03 822.272 165.71 823.232L166.862 824.912C171.878 823.52 175.958 820.28 176.318 814.784ZM176.558 818.36H180.662V820.544H176.294V822.2H180.662V824.336H182.798V813.704H180.662V816.704H176.558V818.36ZM204.932 824.216V822.44H201.596V813.704H199.46V834.68H201.596V824.216H204.932ZM194.66 816.8V815.072H188.396V816.8H194.66ZM197.708 820.4V818.696H185.276V820.4H197.708ZM196.532 826.016C196.532 823.496 194.564 821.576 191.588 821.576C188.612 821.576 186.62 823.544 186.62 826.016C186.62 828.536 188.612 830.408 191.588 830.408C194.564 830.408 196.532 828.488 196.532 826.016ZM194.444 826.016C194.444 827.552 193.316 828.632 191.588 828.632C189.932 828.632 188.756 827.552 188.756 826.016C188.756 824.456 189.956 823.352 191.588 823.352C193.22 823.352 194.444 824.456 194.444 826.016ZM224.138 831.632V829.88H214.538V822.824H212.402V829.88H205.202V831.632H224.138ZM221.69 815.648H207.146V817.376H219.506V819.896C219.506 822.368 219.218 825.296 218.762 827.096C219.458 827.192 220.13 827.312 220.802 827.432C221.402 824.888 221.642 822.224 221.69 818.864V815.648ZM224.647 835.232H226.423L227.911 830.384H225.487L224.647 835.232ZM251.739 822.896V814.4H249.603V817.088H239.835V814.424H237.723V822.896H243.603V825.296H235.251V827.024H254.187V825.296H245.739V822.896H251.739ZM251.931 834.032V832.304H239.763V828.344H237.627V834.032H251.931ZM249.603 821.144H239.835V818.816H249.603V821.144ZM274.082 833.648V814.184H272.066V819.416H269.378V821.144H272.066V824.672H268.898V826.4H272.066V833.648H274.082ZM278.114 834.68V813.704H276.074V834.68H278.114ZM269.21 816.224H260.954V817.976H267.098C266.738 822.248 264.362 826.28 260.042 828.8L261.482 830.36C266.642 826.928 269.138 822.44 269.21 816.224ZM285.991 814.88C282.919 814.88 280.423 816.944 280.423 819.92C280.423 822.944 282.943 824.864 285.991 824.864C289.087 824.864 291.559 822.92 291.559 819.92C291.559 816.92 289.063 814.88 285.991 814.88ZM299.527 821.264H296.407V818.672H299.527V816.92H296.407V813.704H294.271V826.04H296.407V823.04H299.527V821.264ZM296.407 834.704V827.12H282.823V828.824H294.295V834.704H296.407ZM285.991 816.68C288.079 816.68 289.399 818.072 289.399 819.92C289.399 821.816 288.031 823.136 285.991 823.136C284.023 823.136 282.607 821.816 282.607 819.896C282.607 818.072 283.999 816.68 285.991 816.68ZM318.949 824.384V822.656H300.013V824.384H318.949ZM317.365 834.536V832.784H304.285V830.984H316.573V826.16H302.125V827.888H314.461V829.4H302.173V834.536H317.365ZM316.765 817.712C316.765 815.336 314.053 813.992 309.493 813.992C304.981 813.992 302.269 815.336 302.269 817.712C302.269 820.064 304.981 821.408 309.493 821.408C314.053 821.408 316.765 820.064 316.765 817.712ZM309.493 815.696C312.613 815.696 314.581 816.512 314.581 817.712C314.581 818.888 312.613 819.704 309.493 819.704C306.421 819.704 304.477 818.888 304.477 817.712C304.477 816.512 306.421 815.696 309.493 815.696ZM342.371 828.944V813.704H340.235V828.944H342.371ZM337.859 824.024C335.387 823.16 332.603 820.544 332.603 817.136V814.88H330.443V817.232C330.443 820.544 328.019 823.52 325.163 824.72L326.459 826.376C328.619 825.392 330.899 822.968 331.547 820.736C332.435 822.872 334.691 824.864 336.635 825.68L337.859 824.024ZM342.827 834.08V832.352H330.827V827.528H328.691V834.08H342.827ZM360.233 813.704V834.68H362.321V813.704H360.233ZM357.209 820.328C357.209 817.328 354.809 815.384 351.713 815.384C348.641 815.384 346.241 817.424 346.241 820.328C346.241 823.16 348.617 825.104 351.713 825.104C354.761 825.104 357.209 823.232 357.209 820.328ZM355.121 820.304C355.121 822.128 353.537 823.328 351.713 823.328C349.865 823.328 348.353 822.104 348.353 820.304C348.353 818.48 349.865 817.16 351.713 817.16C353.609 817.16 355.121 818.384 355.121 820.304ZM359.105 829.376L358.889 827.696C357.209 827.888 354.737 828.056 351.761 828.176C349.289 828.296 346.841 828.32 344.825 828.32L345.161 830.144C346.841 830.12 349.049 830.072 351.425 829.952C354.089 829.808 357.185 829.616 359.105 829.376ZM379.846 820.136V826.52H381.982V813.704H379.846V818.408H375.814V820.136H379.846ZM382.15 830.624C382.15 828.128 379.606 826.544 375.07 826.544C370.582 826.544 368.014 828.128 368.014 830.624C368.014 833.12 370.582 834.68 375.07 834.68C379.606 834.68 382.15 833.12 382.15 830.624ZM375.07 828.248C378.19 828.248 379.99 829.16 379.99 830.624C379.99 832.088 378.19 832.976 375.07 832.976C371.998 832.976 370.174 832.088 370.174 830.624C370.174 829.16 371.998 828.248 375.07 828.248ZM376.798 823.472C374.398 822.632 371.854 820.208 371.854 816.896V814.88H369.694V816.992C369.694 820.28 367.462 822.8 364.438 824.096L365.758 825.752C368.014 824.72 370.15 822.68 370.798 820.496C371.638 822.584 373.678 824.288 375.55 825.128L376.798 823.472ZM401.908 824.408V813.704H399.772V824.408H401.908ZM397.228 822.512C394.924 821.768 392.044 819.464 392.044 816.104V814.4H389.86V816.2C389.86 819.512 387.316 822.104 384.484 823.208L385.756 824.816C388.084 823.76 390.34 821.672 390.988 819.512C391.948 821.624 394.156 823.376 396.028 824.12L397.228 822.512ZM402.508 834.44V832.712H390.22V830.696H401.908V825.536H388.036V827.264H399.772V829.088H388.084V834.44H402.508ZM409.378 815.36C406.258 815.36 404.77 818.504 404.77 822.68C404.77 826.88 406.258 830.072 409.378 830.072C412.282 830.072 413.794 827.36 413.986 823.64H416.026V833.696H418.042V814.112H416.026V821.888H413.986C413.818 818.12 412.306 815.36 409.378 815.36ZM411.922 822.704C411.922 825.992 411.082 828.248 409.378 828.248C407.722 828.248 406.858 825.992 406.858 822.704C406.858 819.44 407.722 817.16 409.378 817.16C411.082 817.16 411.922 819.44 411.922 822.704ZM422.098 834.68V813.704H420.082V834.68H422.098ZM449.072 823.712V821.912H446.12V813.704H444.032V834.68H446.12V823.712H449.072ZM436.016 828.584L435.752 826.928C434.456 827.264 433.28 827.384 432.2 827.384V817.616H435.368V815.888H430.088V829.136C432.752 829.136 434.312 828.992 436.016 828.584ZM443.096 828.632L442.808 826.976C441.464 827.264 440.12 827.384 438.68 827.384V817.616H442.136V815.888H436.592V829.136C439.4 829.136 441.32 829.016 443.096 828.632ZM461.774 827.24C458.966 827.792 455.246 827.984 452.222 827.96V823.184H459.758V815.6H450.038V817.328H457.646V821.48H450.11V829.712H452.63C455.942 829.712 459.734 829.4 461.99 829.016L461.774 827.24ZM465.542 813.704H463.43V834.68H465.542V823.784H468.806V822.032H465.542V813.704ZM491.796 834.68V813.704H489.66V834.68H491.796ZM475.236 822.68C475.236 826.856 476.916 830.12 480.636 830.12C484.356 830.12 486.012 826.856 486.012 822.704C486.012 818.528 484.356 815.288 480.636 815.288C476.916 815.288 475.236 818.528 475.236 822.68ZM483.9 822.704C483.9 825.944 482.796 828.272 480.636 828.272C478.5 828.272 477.396 825.944 477.396 822.704C477.396 819.464 478.5 817.112 480.636 817.112C482.796 817.112 483.9 819.464 483.9 822.704ZM512.25 831.008C512.25 828.752 509.586 827.384 505.146 827.384C500.706 827.384 498.018 828.752 498.018 831.008C498.018 833.288 500.706 834.656 505.146 834.656C509.586 834.656 512.25 833.288 512.25 831.008ZM512.01 827.456V813.704H509.97V819.632H507.666V814.088H505.65V826.712H507.666V821.384H509.97V827.456H512.01ZM504.138 823.448C504.138 821.408 502.506 820.064 499.626 820.064C496.746 820.064 495.09 821.408 495.09 823.448C495.09 825.464 496.746 826.784 499.626 826.784C502.506 826.784 504.138 825.464 504.138 823.448ZM505.146 829.04C508.194 829.04 510.09 829.808 510.09 831.008C510.09 832.232 508.194 833 505.146 833C502.074 833 500.178 832.232 500.178 831.008C500.178 829.808 502.074 829.04 505.146 829.04ZM504.954 819.296V817.592H494.178V819.296H504.954ZM502.098 823.448C502.098 824.384 501.186 825.032 499.626 825.032C498.066 825.032 497.13 824.384 497.13 823.448C497.13 822.512 498.066 821.864 499.626 821.864C501.186 821.864 502.098 822.512 502.098 823.448ZM502.218 816.32V814.616H496.722V816.32H502.218ZM533.639 824.216V822.44H530.303V813.704H528.167V834.68H530.303V824.216H533.639ZM523.367 816.8V815.072H517.103V816.8H523.367ZM526.415 820.4V818.696H513.983V820.4H526.415ZM525.239 826.016C525.239 823.496 523.271 821.576 520.295 821.576C517.319 821.576 515.327 823.544 515.327 826.016C515.327 828.536 517.319 830.408 520.295 830.408C523.271 830.408 525.239 828.488 525.239 826.016ZM523.151 826.016C523.151 827.552 522.023 828.632 520.295 828.632C518.639 828.632 517.463 827.552 517.463 826.016C517.463 824.456 518.663 823.352 520.295 823.352C521.927 823.352 523.151 824.456 523.151 826.016ZM551.117 834.68V813.704H548.981V834.68H551.117ZM544.973 815.936H534.869V817.736H542.669C542.285 822.248 538.877 826.64 533.933 829.016L535.229 830.624C540.965 827.504 544.853 822.608 544.973 815.936ZM572.65 832.016V830.288H564.202V826.976H570.874V825.248H558.106V821.96H570.298V815.432H555.946V817.16H568.186V820.232H555.994V826.976H562.066V830.288H553.714V832.016H572.65ZM598.209 822.536V820.736H595.065V813.704H592.953V829.16H595.065V822.536H598.209ZM595.785 834.056V832.352H583.905V828.56H581.793V834.056H595.785ZM587.841 816.08V814.352H581.745V816.08H587.841ZM591.057 819.224V817.52H578.745V819.224H591.057ZM589.881 823.976C589.881 821.6 587.769 820.208 584.913 820.208C582.081 820.208 579.969 821.6 579.969 823.976C579.969 826.304 582.105 827.72 584.913 827.72C587.769 827.72 589.881 826.28 589.881 823.976ZM587.769 823.976C587.769 825.248 586.449 826.016 584.913 826.016C583.401 826.016 582.081 825.248 582.081 823.976C582.081 822.632 583.401 821.912 584.913 821.912C586.449 821.912 587.769 822.632 587.769 823.976ZM601.67 827.792V817.664H609.47V815.912H599.558V829.568H601.91C605.726 829.544 609.326 829.304 611.51 828.848L611.27 827.12C609.158 827.576 605.294 827.792 602.534 827.792H601.67ZM614.87 813.704H612.758V834.68H614.87V823.664H618.134V821.888H614.87V813.704ZM618.62 832.544H620.948V830.192H618.62V832.544Z" fill="#666666"/>
<path opacity="0.56" d="M376.126 50.08C373.006 48.352 370.726 45.208 370.726 40.864V39.736H375.07V37.744H363.718V39.736H368.182V40.864C368.182 45.16 366.046 48.616 362.638 50.512L364.174 52.336C366.766 50.92 368.902 48.088 369.454 45.808C370.126 48.016 372.718 50.752 374.71 51.856L376.126 50.08ZM379.726 35.512H377.254V56.896H379.726V45.952H382.966V43.888H379.726V35.512ZM400.9 43.408V41.416H388.9V38.104H400.732V36.088H386.428V43.408H392.284V45.64H383.884V47.632H403.204V45.64H394.732V43.408H400.9ZM400.972 53.008C400.972 50.656 398.26 49.12 393.532 49.12C388.828 49.12 386.14 50.656 386.14 53.008C386.14 55.408 388.828 56.92 393.556 56.92C398.26 56.92 400.972 55.408 400.972 53.008ZM398.428 53.032C398.428 54.256 396.556 54.928 393.532 54.928C390.532 54.928 388.66 54.256 388.66 53.032C388.66 51.808 390.532 51.088 393.532 51.088C396.556 51.088 398.428 51.808 398.428 53.032ZM429.194 52.672C429.194 50.104 426.458 48.424 421.802 48.424C417.194 48.424 414.434 50.104 414.434 52.672C414.434 55.192 417.194 56.872 421.802 56.872C426.458 56.872 429.194 55.192 429.194 52.672ZM428.978 48.544V35.512H426.626V40.864H424.562V35.896H422.234V47.632H424.562V42.928H426.626V48.544H428.978ZM421.706 45.232C419.714 44.248 417.554 42.184 417.554 39.088V36.832H415.178V39.16C415.178 42.232 413.306 44.632 410.834 46L412.25 47.728C414.122 46.792 415.85 44.824 416.426 43.12C417.002 44.608 419.018 46.384 420.458 47.056L421.706 45.232ZM426.65 52.672C426.65 54.064 424.802 54.904 421.802 54.904C418.802 54.904 416.978 54.064 416.978 52.672C416.978 51.256 418.802 50.44 421.802 50.44C424.802 50.44 426.65 51.256 426.65 52.672ZM449.336 48.088V35.512H446.888V40.024H442.976V42.04H446.888V48.088H449.336ZM449.528 52.672C449.528 50.104 446.888 48.4 442.232 48.4C437.624 48.4 434.984 50.104 434.984 52.672C434.984 55.192 437.624 56.896 442.232 56.896C446.888 56.896 449.528 55.192 449.528 52.672ZM446.984 52.672C446.984 54.064 445.256 54.928 442.232 54.928C439.28 54.928 437.528 54.064 437.528 52.672C437.528 51.256 439.28 50.392 442.232 50.392C445.256 50.392 446.984 51.256 446.984 52.672ZM444.344 45.208C441.92 44.368 439.304 41.896 439.304 38.56V36.52H436.784V38.656C436.784 41.968 434.6 44.536 431.528 45.76L433.016 47.656C435.176 46.816 437.408 44.776 438.056 42.568C438.992 44.632 441.176 46.384 442.928 47.128L444.344 45.208ZM475.542 36.64H461.334V44.272H475.542V36.64ZM469.734 52.288V48.352H478.11V46.36H458.79V48.352H467.286V52.288H469.734ZM475.854 56.272V54.328H463.758V50.224H461.286V56.272H475.854ZM473.07 42.304H463.806V38.608H473.07V42.304ZM497.172 56.896V35.512H494.724V42.88H490.548V44.944H494.724V56.896H497.172ZM492.564 50.2C489.42 48.232 487.284 44.824 487.284 40.72V37.336H484.764V40.864C484.764 44.944 482.676 48.472 479.364 50.632L480.9 52.408C483.204 51.016 485.34 48.328 486.084 45.784C486.852 48.136 489.252 50.872 491.076 52.024L492.564 50.2Z" fill="#2E2E2E"/>
<path d="M0 87H862" stroke="#E3E3E3"/>
<path d="M326.12 156.752V154.128H300.36V156.752H326.12ZM325.448 145.296C321.16 144.528 314.984 140.528 314.984 135.632V133.744H311.56V135.632C311.56 140.56 305.736 144.432 301.096 145.168L302.696 147.856C307.016 146.8 311.912 143.568 313.224 140.048C314.696 143.504 319.528 146.736 323.72 147.856L325.448 145.296ZM350.223 144.336V141.776H334.287V139.792H349.039V137.264H334.287V135.376H350.031V132.752H330.991V144.336H338.767V146.864H327.567V149.52H353.327V146.864H342.031V144.336H350.223ZM330.575 151.6V154.224H346.703V160.624H349.967V151.6H330.575ZM377.527 137.616C377.527 134.32 373.911 132.24 367.639 132.24C361.399 132.24 357.783 134.32 357.783 137.616C357.783 140.56 360.727 142.544 365.975 142.896V145.136H354.775V147.76H380.535V145.136H369.239V142.928C374.519 142.608 377.527 140.592 377.527 137.616ZM377.207 160.176V149.328H373.943V152.272H361.399V149.392H358.103V160.176H377.207ZM374.135 137.584C374.135 139.344 371.639 140.4 367.639 140.4C363.575 140.4 361.143 139.344 361.143 137.584C361.143 135.856 363.575 134.8 367.639 134.8C371.735 134.8 374.135 135.856 374.135 137.584ZM373.943 157.552H361.399V154.832H373.943V157.552ZM402.174 138.704V141.776H397.598V144.464H402.174V152.688H405.47V132.016H402.174V136.08H397.598V138.704H402.174ZM406.078 159.728V157.104H390.174V150.832H386.846V159.728H406.078ZM398.846 146.512C395.55 145.424 392.03 141.616 392.03 137.104V133.616H388.67V137.232C388.67 141.648 385.662 145.712 381.662 147.28L383.646 149.872C386.462 148.72 389.502 145.456 390.398 142.512C391.646 145.232 394.526 148.048 396.958 149.072L398.846 146.512ZM439.676 144.912V133.04H436.412V136.528H423.548V133.104H420.316V144.912H439.676ZM431.58 160.56V150.96H442.876V148.304H417.116V150.96H428.316V160.56H431.58ZM436.412 142.256H423.548V139.12H436.412V142.256ZM459.94 149.744H464.516V160.528H467.812V132.016H464.516V137.936H459.94L460.004 140.592H464.516V147.12H460.004L459.94 149.744ZM444.612 144.176C444.612 150.192 447.364 154.224 451.78 154.224C456.196 154.224 458.98 150.192 458.98 144.208C458.98 138.16 456.196 134.128 451.78 134.128C447.364 134.128 444.612 138.16 444.612 144.176ZM455.812 144.176C455.812 148.752 454.18 151.6 451.78 151.6C449.412 151.6 447.812 148.752 447.812 144.176C447.812 139.632 449.412 136.784 451.78 136.784C454.18 136.784 455.812 139.632 455.812 144.176ZM497.953 159.184V132.592H494.849V139.632H491.649V142.192H494.849V146.768H490.945V149.36H494.849V159.184H497.953ZM503.489 160.528V132.016H500.353V160.528H503.489ZM491.393 135.44H480.577V138.128H488.161C487.777 143.856 484.545 149.136 478.881 152.496L481.057 154.768C487.873 150.256 491.329 143.984 491.393 135.44ZM521.481 140.368C521.481 136.368 518.185 133.616 514.153 133.616C510.121 133.616 506.857 136.432 506.857 140.368C506.857 144.4 510.153 146.928 514.153 146.928C518.217 146.928 521.481 144.4 521.481 140.368ZM533.001 142.128H528.809V138.32H533.001V135.632H528.809V132.016H525.513V148.72H528.809V144.784H533.001V142.128ZM510.249 150.192V152.784H525.545V160.56H528.841V150.192H510.249ZM518.249 140.336C518.249 142.672 516.585 144.432 514.153 144.432C511.721 144.432 510.057 142.736 510.057 140.336C510.057 138.128 511.689 136.336 514.153 136.336C516.713 136.336 518.249 138.096 518.249 140.336ZM557.36 160.528V132.016H554.096V141.84H548.528V144.592H554.096V160.528H557.36ZM551.216 151.6C547.024 148.976 544.176 144.432 544.176 138.96V134.448H540.816V139.152C540.816 144.592 538.032 149.296 533.616 152.176L535.664 154.544C538.736 152.688 541.584 149.104 542.576 145.712C543.6 148.848 546.8 152.496 549.232 154.032L551.216 151.6Z" fill="#2E2E2E"/>
<path d="M86.7 301.22V299.58H70.6V301.22H86.7ZM86.28 294.06C83.6 293.58 79.74 291.08 79.74 288.02V286.84H77.6V288.02C77.6 291.1 73.96 293.52 71.06 293.98L72.06 295.66C74.76 295 77.82 292.98 78.64 290.78C79.56 292.94 82.58 294.96 85.2 295.66L86.28 294.06ZM101.765 293.46V291.86H91.8047V290.62H101.025V289.04H91.8047V287.86H101.645V286.22H89.7447V293.46H94.6047V295.04H87.6047V296.7H103.705V295.04H96.6447V293.46H101.765ZM89.4847 298V299.64H99.5647V303.64H101.605V298H89.4847ZM118.829 289.26C118.829 287.2 116.569 285.9 112.649 285.9C108.749 285.9 106.489 287.2 106.489 289.26C106.489 291.1 108.329 292.34 111.609 292.56V293.96H104.609V295.6H120.709V293.96H113.649V292.58C116.949 292.38 118.829 291.12 118.829 289.26ZM118.629 303.36V296.58H116.589V298.42H108.749V296.62H106.689V303.36H118.629ZM116.709 289.24C116.709 290.34 115.149 291 112.649 291C110.109 291 108.589 290.34 108.589 289.24C108.589 288.16 110.109 287.5 112.649 287.5C115.209 287.5 116.709 288.16 116.709 289.24ZM116.589 301.72H108.749V300.02H116.589V301.72ZM134.234 289.94V291.86H131.374V293.54H134.234V298.68H136.294V285.76H134.234V288.3H131.374V289.94H134.234ZM136.674 303.08V301.44H126.734V297.52H124.654V303.08H136.674ZM132.154 294.82C130.094 294.14 127.894 291.76 127.894 288.94V286.76H125.794V289.02C125.794 291.78 123.914 294.32 121.414 295.3L122.654 296.92C124.414 296.2 126.314 294.16 126.874 292.32C127.654 294.02 129.454 295.78 130.974 296.42L132.154 294.82ZM157.673 293.82V286.4H155.633V288.58H147.593V286.44H145.573V293.82H157.673ZM152.613 303.6V297.6H159.673V295.94H143.573V297.6H150.573V303.6H152.613ZM155.633 292.16H147.593V290.2H155.633V292.16ZM170.337 296.84H173.197V303.58H175.257V285.76H173.197V289.46H170.337L170.377 291.12H173.197V295.2H170.377L170.337 296.84ZM160.757 293.36C160.757 297.12 162.477 299.64 165.237 299.64C167.997 299.64 169.737 297.12 169.737 293.38C169.737 289.6 167.997 287.08 165.237 287.08C162.477 287.08 160.757 289.6 160.757 293.36ZM167.757 293.36C167.757 296.22 166.737 298 165.237 298C163.757 298 162.757 296.22 162.757 293.36C162.757 290.52 163.757 288.74 165.237 288.74C166.737 288.74 167.757 290.52 167.757 293.36ZM188.422 297.9C185.822 296.46 183.922 293.84 183.922 290.22V289.28H187.542V287.62H178.082V289.28H181.802V290.22C181.802 293.8 180.022 296.68 177.182 298.26L178.462 299.78C180.622 298.6 182.402 296.24 182.862 294.34C183.422 296.18 185.582 298.46 187.242 299.38L188.422 297.9ZM191.422 285.76H189.362V303.58H191.422V294.46H194.122V292.74H191.422V285.76ZM203.621 303.24H205.361C203.521 301.2 202.021 298.06 202.021 294.94V294.4C202.021 291.2 203.521 288.3 205.361 286.28H203.621C201.701 288.14 200.001 290.96 200.001 294.58V294.92C200.001 298.54 201.701 301.4 203.621 303.24ZM220.522 303.58V285.76H218.482V303.58H220.522ZM206.382 293.38C206.382 297.14 208.082 299.62 210.942 299.62C213.802 299.62 215.462 297.14 215.462 293.4C215.462 289.62 213.802 287.14 210.942 287.14C208.082 287.14 206.382 289.62 206.382 293.38ZM213.522 293.38C213.522 296.24 212.462 297.96 210.942 297.96C209.442 297.96 208.402 296.24 208.402 293.38C208.402 290.52 209.442 288.82 210.942 288.82C212.462 288.82 213.522 290.52 213.522 293.38ZM232.186 296.24C232.186 294.06 230.486 292.44 227.946 292.44C225.386 292.44 223.666 294.12 223.666 296.24C223.666 298.44 225.386 300.04 227.946 300.04C230.486 300.04 232.186 298.38 232.186 296.24ZM230.166 296.24C230.166 297.48 229.326 298.36 227.946 298.36C226.646 298.36 225.726 297.48 225.726 296.24C225.726 294.98 226.646 294.12 227.946 294.12C229.226 294.12 230.166 294.98 230.166 296.24ZM233.086 291.58V289.92H222.726V291.58H233.086ZM225.246 288.48H230.646V286.8H225.246V288.48ZM236.706 285.76H234.646V303.58H236.706V294.8H239.466V293.08H236.706V285.76ZM248.465 290.76H250.885V288.28H249.745C249.785 287.42 250.205 286.84 250.965 286.64V285.46C249.405 285.8 248.465 287 248.465 288.5V290.76ZM245.565 290.76H247.945V288.28H246.865C246.885 287.42 247.305 286.84 248.065 286.64V285.46C246.525 285.8 245.565 287 245.565 288.5V290.76ZM263.611 298.62C262.291 298.8 260.411 298.92 258.591 299V297.44C260.611 297.16 261.971 296.02 261.971 294.5C261.971 292.72 260.171 291.48 257.611 291.48C255.091 291.48 253.291 292.72 253.291 294.5C253.291 295.98 254.591 297.12 256.551 297.42V299.08C254.911 299.12 253.271 299.12 251.751 299.12L252.071 300.82C256.111 300.78 260.051 300.66 263.771 300.22L263.611 298.62ZM266.671 285.76H264.611V303.58H266.671V285.76ZM262.831 290.84V289.24H252.371V290.84H262.831ZM259.871 294.5C259.871 295.32 258.931 295.9 257.611 295.9C256.351 295.9 255.391 295.32 255.391 294.5C255.391 293.66 256.351 293.08 257.611 293.08C258.931 293.08 259.871 293.66 259.871 294.5ZM255.011 288.28H260.191V286.64H255.011V288.28ZM282.616 285.76H280.556V303.58H282.616V294.44H285.296V292.72H282.616V285.76ZM279.436 297.68C276.816 296.04 274.996 293.2 274.996 289.78V287.3H272.896V289.9C272.896 293.3 271.136 296.24 268.356 298.04L269.616 299.54C271.576 298.36 273.356 296.12 273.976 294C274.616 295.96 276.696 298.24 278.216 299.22L279.436 297.68ZM288.34 286.24H285.94V288.72H287.06C287.02 289.6 286.6 290.16 285.84 290.36V291.58C287.4 291.22 288.34 290 288.34 288.5V286.24ZM291.24 286.24H288.86V288.72H289.96C289.92 289.6 289.5 290.16 288.76 290.36V291.58C290.3 291.22 291.24 290 291.24 288.5V286.24ZM292.327 303.24H294.067C296.007 301.4 297.687 298.56 297.687 294.92V294.58C297.687 290.98 296.007 288.14 294.067 286.28H292.327C294.167 288.32 295.667 291.46 295.667 294.56V295.1C295.667 298.3 294.167 301.22 292.327 303.24Z" fill="#2E2E2E"/>
<path d="M86.7 522.22V520.58H70.6V522.22H86.7ZM86.28 515.06C83.6 514.58 79.74 512.08 79.74 509.02V507.84H77.6V509.02C77.6 512.1 73.96 514.52 71.06 514.98L72.06 516.66C74.76 516 77.82 513.98 78.64 511.78C79.56 513.94 82.58 515.96 85.2 516.66L86.28 515.06ZM101.765 514.46V512.86H91.8047V511.62H101.025V510.04H91.8047V508.86H101.645V507.22H89.7447V514.46H94.6047V516.04H87.6047V517.7H103.705V516.04H96.6447V514.46H101.765ZM89.4847 519V520.64H99.5647V524.64H101.605V519H89.4847ZM118.829 510.26C118.829 508.2 116.569 506.9 112.649 506.9C108.749 506.9 106.489 508.2 106.489 510.26C106.489 512.1 108.329 513.34 111.609 513.56V514.96H104.609V516.6H120.709V514.96H113.649V513.58C116.949 513.38 118.829 512.12 118.829 510.26ZM118.629 524.36V517.58H116.589V519.42H108.749V517.62H106.689V524.36H118.629ZM116.709 510.24C116.709 511.34 115.149 512 112.649 512C110.109 512 108.589 511.34 108.589 510.24C108.589 509.16 110.109 508.5 112.649 508.5C115.209 508.5 116.709 509.16 116.709 510.24ZM116.589 522.72H108.749V521.02H116.589V522.72ZM134.234 510.94V512.86H131.374V514.54H134.234V519.68H136.294V506.76H134.234V509.3H131.374V510.94H134.234ZM136.674 524.08V522.44H126.734V518.52H124.654V524.08H136.674ZM132.154 515.82C130.094 515.14 127.894 512.76 127.894 509.94V507.76H125.794V510.02C125.794 512.78 123.914 515.32 121.414 516.3L122.654 517.92C124.414 517.2 126.314 515.16 126.874 513.32C127.654 515.02 129.454 516.78 130.974 517.42L132.154 515.82ZM156.193 512.6V519.68H158.253V506.76H156.193V510.9H152.953V512.6H156.193ZM158.633 524.06V522.42H148.673V518.52H146.613V524.06H158.633ZM154.113 515.46C152.053 514.76 149.853 512.54 149.853 509.72V507.76H147.753V509.82C147.753 512.58 145.873 514.98 143.353 515.94L144.613 517.56C146.353 516.86 148.273 514.98 148.813 513.1C149.613 514.82 151.433 516.46 152.933 517.08L154.113 515.46ZM175.577 517.22V506.76H173.617V511.08H171.857V507.08H169.917V517.06H171.857V512.78H173.617V517.22H175.577ZM167.877 511.44H163.297V509.68H168.137V508.04H161.277V516.52L162.937 516.54C165.137 516.52 167.537 516.36 169.057 516.04L168.797 514.44C167.417 514.74 165.617 514.88 163.297 514.88V513.04H167.877V511.44ZM175.577 524.58V518.16H163.437V519.8H173.537V524.58H175.577ZM184.762 519.04V515.12C186.262 515.02 187.782 514.9 189.282 514.7L189.142 513.18C188.442 513.28 187.722 513.34 186.882 513.42C187.162 511.96 187.362 510.1 187.362 507.92H179.042V509.56H185.302C185.302 511 185.142 512.5 184.902 513.54L183.282 513.6C181.322 513.68 179.382 513.7 177.362 513.7L177.642 515.38C179.342 515.36 181.022 515.32 182.722 515.26V519.04H184.762ZM192.482 520.32V506.76H190.422V516.24H186.702V517.74H190.422V520.32H192.482ZM192.822 524.1V522.46H181.942V518.64H179.902V524.1H192.822ZM205.427 518.9C202.827 517.46 200.927 514.84 200.927 511.22V510.28H204.547V508.62H195.087V510.28H198.807V511.22C198.807 514.8 197.027 517.68 194.187 519.26L195.467 520.78C197.627 519.6 199.407 517.24 199.867 515.34C200.427 517.18 202.587 519.46 204.247 520.38L205.427 518.9ZM208.427 506.76H206.367V524.58H208.427V515.46H211.127V513.74H208.427V506.76ZM220.625 524.24H222.365C220.525 522.2 219.025 519.06 219.025 515.94V515.4C219.025 512.2 220.525 509.3 222.365 507.28H220.625C218.705 509.14 217.005 511.96 217.005 515.58V515.92C217.005 519.54 218.705 522.4 220.625 524.24ZM237.526 524.58V506.76H235.486V524.58H237.526ZM223.386 514.38C223.386 518.14 225.086 520.62 227.946 520.62C230.806 520.62 232.466 518.14 232.466 514.4C232.466 510.62 230.806 508.14 227.946 508.14C225.086 508.14 223.386 510.62 223.386 514.38ZM230.526 514.38C230.526 517.24 229.466 518.96 227.946 518.96C226.446 518.96 225.406 517.24 225.406 514.38C225.406 511.52 226.446 509.82 227.946 509.82C229.466 509.82 230.526 511.52 230.526 514.38ZM249.191 517.24C249.191 515.06 247.491 513.44 244.951 513.44C242.391 513.44 240.671 515.12 240.671 517.24C240.671 519.44 242.391 521.04 244.951 521.04C247.491 521.04 249.191 519.38 249.191 517.24ZM247.171 517.24C247.171 518.48 246.331 519.36 244.951 519.36C243.651 519.36 242.731 518.48 242.731 517.24C242.731 515.98 243.651 515.12 244.951 515.12C246.231 515.12 247.171 515.98 247.171 517.24ZM250.091 512.58V510.92H239.731V512.58H250.091ZM242.251 509.48H247.651V507.8H242.251V509.48ZM253.711 506.76H251.651V524.58H253.711V515.8H256.471V514.08H253.711V506.76ZM265.47 511.76H267.89V509.28H266.75C266.79 508.42 267.21 507.84 267.97 507.64V506.46C266.41 506.8 265.47 508 265.47 509.5V511.76ZM262.57 511.76H264.95V509.28H263.87C263.89 508.42 264.31 507.84 265.07 507.64V506.46C263.53 506.8 262.57 508 262.57 509.5V511.76ZM275.956 519.04V515.12C277.456 515.02 278.976 514.9 280.476 514.7L280.336 513.18C279.636 513.28 278.916 513.34 278.076 513.42C278.356 511.96 278.556 510.1 278.556 507.92H270.236V509.56H276.496C276.496 511 276.336 512.5 276.096 513.54L274.476 513.6C272.516 513.68 270.576 513.7 268.556 513.7L268.836 515.38C270.536 515.36 272.216 515.32 273.916 515.26V519.04H275.956ZM283.676 520.32V506.76H281.616V516.24H277.896V517.74H281.616V520.32H283.676ZM284.016 524.1V522.46H273.136V518.64H271.096V524.1H284.016ZM296.76 518.18C294.46 518.62 290.96 518.74 288.84 518.74V514.88H294.88V508.32H286.72V509.96H292.84V513.24H286.8V520.44L289 520.42C292.22 520.4 295.02 520.22 296.98 519.86L296.76 518.18ZM300.44 524.58V506.76H298.4V524.58H300.44ZM313.625 518.9C311.025 517.46 309.125 514.84 309.125 511.22V510.28H312.745V508.62H303.285V510.28H307.005V511.22C307.005 514.8 305.225 517.68 302.385 519.26L303.665 520.78C305.825 519.6 307.605 517.24 308.065 515.34C308.625 517.18 310.785 519.46 312.445 520.38L313.625 518.9ZM316.625 506.76H314.565V524.58H316.625V515.46H319.325V513.74H316.625V506.76ZM322.35 507.24H319.95V509.72H321.07C321.03 510.6 320.61 511.16 319.85 511.36V512.58C321.41 512.22 322.35 511 322.35 509.5V507.24ZM325.25 507.24H322.87V509.72H323.97C323.93 510.6 323.51 511.16 322.77 511.36V512.58C324.31 512.22 325.25 511 325.25 509.5V507.24ZM326.336 524.24H328.076C330.016 522.4 331.696 519.56 331.696 515.92V515.58C331.696 511.98 330.016 509.14 328.076 507.28H326.336C328.176 509.32 329.676 512.46 329.676 515.56V516.1C329.676 519.3 328.176 522.22 326.336 524.24Z" fill="#2E2E2E"/>
<path d="M419.66 214.88V212.84H416.54V207.512H414.068V220.112H416.54V214.88H419.66ZM416.804 224.648C416.804 222.08 414.212 220.376 409.556 220.376C404.924 220.376 402.356 222.08 402.356 224.648C402.356 227.144 404.924 228.848 409.556 228.848C414.212 228.848 416.804 227.144 416.804 224.648ZM409.556 222.368C412.532 222.368 414.284 223.232 414.284 224.648C414.284 226.016 412.532 226.88 409.556 226.88C406.604 226.88 404.876 226.016 404.876 224.648C404.876 223.256 406.604 222.368 409.556 222.368ZM412.172 217.952L411.812 216.008C408.86 216.632 405.956 216.68 403.124 216.68V211.064H410.132V209.096H400.676V218.648L402.908 218.672C406.748 218.648 410.036 218.408 412.172 217.952ZM436.945 207.512H434.473V228.896H436.945V217.928H440.161V215.864H436.945V207.512ZM433.129 221.816C429.985 219.848 427.801 216.44 427.801 212.336V209.36H425.281V212.48C425.281 216.56 423.169 220.088 419.833 222.248L421.345 224.048C423.697 222.632 425.833 219.944 426.577 217.4C427.345 219.752 429.841 222.488 431.665 223.664L433.129 221.816ZM453.751 222.08C450.631 220.352 448.351 217.208 448.351 212.864V211.736H452.695V209.744H441.343V211.736H445.807V212.864C445.807 217.16 443.671 220.616 440.263 222.512L441.799 224.336C444.391 222.92 446.527 220.088 447.079 217.808C447.751 220.016 450.343 222.752 452.335 223.856L453.751 222.08ZM457.351 207.512H454.879V228.896H457.351V217.952H460.591V215.888H457.351V207.512Z" fill="#2E2E2E"/>
<rect x="71.5" y="332.5" width="237" height="120" fill="#EDF2FD" stroke="#E3E3E3"/>
<rect x="71.5" y="332.5" width="719" height="40" stroke="#E3E3E3"/>
<rect x="71.5" y="372.5" width="719" height="40" stroke="#E3E3E3"/>
<rect x="71.5" y="412.5" width="719" height="40" stroke="#E3E3E3"/>
<path d="M104.68 345.526V344.032H92.872V345.526H97.822C97.498 347.524 94.654 349.036 92.188 349.288L93.07 350.746C95.428 350.386 98.02 348.928 98.794 347.362C99.604 348.838 102.268 350.35 104.518 350.674L105.346 349.216C102.952 348.964 100.126 347.506 99.802 345.526H104.68ZM99.676 359.404V353.698H106.03V352.222H91.54V353.698H97.84V359.404H99.676ZM120.056 352.762V343.402H118.202V352.762H120.056ZM109.256 353.608V355.066H118.22V359.44H120.074V353.608H109.256ZM116.546 350.404C114.692 349.792 112.712 347.92 112.712 345.418V344.05H110.822V345.49C110.822 347.974 109.184 349.9 106.88 350.8L108.014 352.258C109.688 351.556 111.308 350.062 111.794 348.424C112.478 349.936 114.134 351.286 115.466 351.826L116.546 350.404ZM132.804 354.958C131.616 355.12 129.924 355.228 128.286 355.3V353.896C130.104 353.644 131.328 352.618 131.328 351.25C131.328 349.648 129.708 348.532 127.404 348.532C125.136 348.532 123.516 349.648 123.516 351.25C123.516 352.582 124.686 353.608 126.45 353.878V355.372C124.974 355.408 123.498 355.408 122.13 355.408L122.418 356.938C126.054 356.902 129.6 356.794 132.948 356.398L132.804 354.958ZM135.558 343.384H133.704V359.422H135.558V343.384ZM132.102 347.956V346.516H122.688V347.956H132.102ZM129.438 351.25C129.438 351.988 128.592 352.51 127.404 352.51C126.27 352.51 125.406 351.988 125.406 351.25C125.406 350.494 126.27 349.972 127.404 349.972C128.592 349.972 129.438 350.494 129.438 351.25ZM125.064 345.652H129.726V344.176H125.064V345.652ZM149.909 343.384H148.055V359.422H149.909V351.196H152.321V349.648H149.909V343.384ZM147.047 354.112C144.689 352.636 143.051 350.08 143.051 347.002V344.77H141.161V347.11C141.161 350.17 139.577 352.816 137.075 354.436L138.209 355.786C139.973 354.724 141.575 352.708 142.133 350.8C142.709 352.564 144.581 354.616 145.949 355.498L147.047 354.112Z" fill="#2E2E2E"/>
<path d="M105.058 399.422V383.384H103.276V389.756H101.656V383.708H99.91V398.648H101.656V391.304H103.276V399.422H105.058ZM98.794 393.572C97.588 393.842 95.932 393.968 93.934 393.968V386.804C95.302 386.804 96.724 386.822 98.11 386.822V385.328H92.062V395.498H93.682C95.626 395.498 97.696 395.354 99.028 395.048L98.794 393.572ZM121.334 397.352V395.876H117.59V392.654H115.754V395.876H112.37V392.654H110.534V395.876H106.844V397.352H121.334ZM119.912 391.862V390.368H117.644L118.166 387.2L116.366 386.894L115.898 390.368H112.334L112.118 386.858L110.264 387.092L110.57 390.368H108.194V391.862H119.912ZM119.93 386.138V384.662H108.176V386.138H119.93ZM135.342 399.422V383.384H133.506V399.422H135.342ZM122.616 390.242C122.616 393.626 124.146 395.858 126.72 395.858C129.294 395.858 130.788 393.626 130.788 390.26C130.788 386.858 129.294 384.626 126.72 384.626C124.146 384.626 122.616 386.858 122.616 390.242ZM129.042 390.242C129.042 392.816 128.088 394.364 126.72 394.364C125.37 394.364 124.434 392.816 124.434 390.242C124.434 387.668 125.37 386.138 126.72 386.138C128.088 386.138 129.042 387.668 129.042 390.242ZM149.909 383.384H148.055V399.422H149.909V391.196H152.321V389.648H149.909V383.384ZM147.047 394.112C144.689 392.636 143.051 390.08 143.051 387.002V384.77H141.161V387.11C141.161 390.17 139.577 392.816 137.075 394.436L138.209 395.786C139.973 394.724 141.575 392.708 142.133 390.8C142.709 392.564 144.581 394.616 145.949 395.498L147.047 394.112Z" fill="#2E2E2E"/>
<path d="M104.68 424.526V423.032H92.872V424.526H97.822C97.498 426.524 94.654 428.036 92.188 428.288L93.07 429.746C95.428 429.386 98.02 427.928 98.794 426.362C99.604 427.838 102.268 429.35 104.518 429.674L105.346 428.216C102.952 427.964 100.126 426.506 99.802 424.526H104.68ZM99.676 438.404V432.698H106.03V431.222H91.54V432.698H97.84V438.404H99.676ZM120.866 429.656C118.454 429.206 115.07 426.974 115.07 424.256V423.302H113.144V424.256C113.144 427.01 109.976 429.17 107.348 429.584L108.248 431.078C110.678 430.502 113.342 428.666 114.08 426.668C114.908 428.648 117.518 430.466 119.912 431.078L120.866 429.656ZM121.334 436.406V434.912H114.98V430.97H113.144V434.912H106.844V436.406H121.334Z" fill="#2E2E2E"/>
<path d="M347.397 349.378V347.83H345.057V343.384H343.203V354.976H345.057V349.378H347.397ZM345.525 358.918V357.424H336.741V353.878H334.905V358.918H345.525ZM341.493 350.188C339.765 350.566 337.389 350.692 334.995 350.692V346.228H340.269V344.752H333.159V352.186H334.833C337.713 352.186 340.125 351.988 341.781 351.628L341.493 350.188ZM362.701 348.802V347.272H360.361V343.384H358.507V352.438H360.361V348.802H362.701ZM355.825 351.574V344.194H353.989V346.498H350.209V344.23H348.355V351.574H355.825ZM353.989 350.098H350.209V347.956H353.989V350.098ZM360.361 359.224V353.284H350.101V359.224H360.361ZM358.507 357.748H351.955V354.724H358.507V357.748Z" fill="#2E2E2E"/>
<path d="M347.593 388.91V387.38H345.253V383.384H343.399V392.798H345.253V388.91H347.593ZM334.777 393.626V395.102H343.399V399.44H345.271V393.626H334.777ZM340.717 391.808V384.338H338.881V386.75H335.119V384.374H333.265V391.808H340.717ZM338.881 390.332H335.119V388.19H338.881V390.332ZM361.619 399.422V383.384H359.855V389.756H358.271V383.708H356.525V398.666H358.271V391.304H359.855V399.422H361.619ZM356.129 394.166C354.221 393.014 352.961 390.53 352.961 387.47V384.968H351.179V387.488C351.179 390.782 349.685 393.32 347.723 394.598L348.839 395.858C350.387 394.886 351.665 393.104 352.079 391.358C352.547 393.032 353.915 394.724 355.031 395.444L356.129 394.166ZM376.491 393.23V391.736H367.113V389.54H376.023V384.5H365.205V385.976H374.187V388.046H365.259V393.23H369.705V395.912H363.405V397.388H377.895V395.912H371.541V393.23H376.491ZM391.903 399.422V383.384H390.067V399.422H391.903ZM379.177 390.242C379.177 393.626 380.707 395.858 383.281 395.858C385.855 395.858 387.349 393.626 387.349 390.26C387.349 386.858 385.855 384.626 383.281 384.626C380.707 384.626 379.177 386.858 379.177 390.242ZM385.603 390.242C385.603 392.816 384.649 394.364 383.281 394.364C381.931 394.364 380.995 392.816 380.995 390.242C380.995 387.668 381.931 386.138 383.281 386.138C384.649 386.138 385.603 387.668 385.603 390.242Z" fill="#2E2E2E"/>
<path d="M345.752 439.422V423.384H343.916V428.91H340.784V430.458H343.916V439.422H345.752ZM342.296 434.4C339.938 432.924 338.336 430.368 338.336 427.29V424.752H336.446V427.398C336.446 430.458 334.88 433.104 332.396 434.724L333.548 436.056C335.276 435.012 336.878 432.996 337.436 431.088C338.012 432.852 339.812 434.904 341.18 435.768L342.296 434.4ZM361.02 439.314V437.838H351.552V436.686H360.426V432.834H355.98V431.61H362.334V430.116H347.844V431.61H354.144V432.834H349.626V434.31H358.59V435.336H349.698V439.314H361.02ZM355.116 423.546C351.588 423.546 349.5 424.734 349.5 426.39C349.5 428.046 351.588 429.234 355.116 429.234C358.662 429.234 360.768 428.046 360.768 426.39C360.768 424.734 358.662 423.546 355.116 423.546ZM355.116 425.022C357.438 425.022 358.842 425.526 358.842 426.39C358.842 427.254 357.438 427.776 355.116 427.776C352.794 427.776 351.408 427.254 351.408 426.39C351.408 425.526 352.794 425.022 355.116 425.022ZM376.36 439.422V423.384H374.524V439.422H376.36ZM372.922 434.328C370.582 432.852 369.088 430.368 369.088 427.29V424.77H367.18V427.398C367.18 430.458 365.596 433.104 363.112 434.724L364.246 436.074C366.01 435.012 367.612 432.996 368.152 431.088C368.746 432.852 370.456 434.832 371.824 435.714L372.922 434.328ZM395.727 426.624C395.727 424.842 393.711 423.6 390.147 423.6C386.619 423.6 384.603 424.842 384.603 426.624C384.603 427.65 385.233 428.478 386.421 429.018V431.124H382.911V432.6H397.401V431.124H393.837V429.054C395.061 428.514 395.727 427.668 395.727 426.624ZM395.727 436.47C395.727 434.652 393.675 433.554 390.147 433.554C386.655 433.554 384.603 434.652 384.603 436.47C384.603 438.324 386.655 439.404 390.165 439.404C393.675 439.404 395.727 438.324 395.727 436.47ZM393.819 426.624C393.819 427.632 392.397 428.244 390.147 428.244C387.861 428.244 386.493 427.632 386.493 426.624C386.493 425.634 387.861 425.004 390.147 425.004C392.451 425.004 393.819 425.634 393.819 426.624ZM393.819 436.488C393.819 437.442 392.397 437.928 390.147 437.928C387.915 437.928 386.493 437.442 386.493 436.488C386.493 435.552 387.915 435.012 390.147 435.012C392.379 435.012 393.819 435.552 393.819 436.488ZM390.165 429.666C390.831 429.666 391.443 429.648 392.001 429.558V431.124H388.257V429.54C388.833 429.648 389.481 429.666 390.165 429.666ZM410.671 423.384H408.817V435.012H410.671V429.612H413.047V428.064H410.671V423.384ZM411.139 438.936V437.442H402.265V433.842H400.411V438.936H411.139ZM407.503 431.07C405.649 430.458 403.687 428.46 403.687 425.922V424.284H401.779V425.994C401.779 428.496 400.087 430.62 397.837 431.502L398.953 432.978C400.555 432.33 402.265 430.62 402.751 428.946C403.453 430.494 405.091 431.934 406.441 432.51L407.503 431.07ZM426.084 424.302H415.356V425.814H424.23C424.212 427.668 424.086 429.72 423.78 431.142H413.52V432.636H419.82V439.422H421.656V432.636H428.01V431.142H425.544C425.94 429.234 426.084 426.984 426.084 424.302ZM446.476 439.422V423.384H444.64V439.422H446.476ZM433.75 430.242C433.75 433.626 435.28 435.858 437.854 435.858C440.428 435.858 441.922 433.626 441.922 430.26C441.922 426.858 440.428 424.626 437.854 424.626C435.28 424.626 433.75 426.858 433.75 430.242ZM440.176 430.242C440.176 432.816 439.222 434.364 437.854 434.364C436.504 434.364 435.568 432.816 435.568 430.242C435.568 427.668 436.504 426.138 437.854 426.138C439.222 426.138 440.176 427.668 440.176 430.242ZM462.105 439.422V423.384H460.341V429.756H458.649V423.708H456.921V438.648H458.649V431.304H460.341V439.422H462.105ZM454.905 431.034V429.54H450.891V426.768H455.265V425.274H449.037V435.57C451.881 435.57 454.005 435.588 456.075 435.138L455.823 433.698C454.113 434.04 452.385 434.076 450.891 434.076V431.034H454.905ZM472.837 426.732C472.837 424.986 471.181 423.744 468.859 423.744C466.555 423.744 464.845 424.986 464.845 426.696C464.845 428.496 466.555 429.648 468.859 429.648C471.181 429.648 472.837 428.478 472.837 426.732ZM472.333 434.04H475.465V435.75H477.301V423.384H475.465V432.69H472.333V434.04ZM477.589 439.008V437.532H467.815V434.292H465.979V439.008H477.589ZM470.281 434.94V431.916C471.667 431.826 473.071 431.7 474.439 431.538L474.313 430.17C472.891 430.332 471.199 430.458 469.039 430.53C467.275 430.602 465.529 430.62 463.711 430.62L463.963 432.15C465.457 432.132 466.933 432.096 468.427 432.024V434.94H470.281ZM471.019 426.732C471.019 427.56 470.191 428.244 468.859 428.244C467.527 428.244 466.681 427.56 466.681 426.732C466.681 425.886 467.527 425.166 468.859 425.166C470.191 425.166 471.019 425.886 471.019 426.732ZM492.281 433.23V431.736H482.903V429.54H491.813V424.5H480.995V425.976H489.977V428.046H481.049V433.23H485.495V435.912H479.195V437.388H493.685V435.912H487.331V433.23H492.281ZM501.334 437.316H503.206V424.932H502.216L499.174 426.3V427.398L501.334 426.93V437.316ZM505.923 437.244H513.627V435.732H508.443L510.099 434.076C511.827 432.258 513.465 430.53 513.465 428.388C513.465 426.192 512.097 424.86 509.505 424.86C508.119 424.86 506.877 425.382 506.085 425.868L506.463 427.29C507.147 426.84 508.155 426.39 509.073 426.39C510.693 426.39 511.503 427.056 511.503 428.604C511.503 430.224 510.207 431.664 508.515 433.446L505.923 436.146V437.244ZM515.957 437.28H518.045L522.617 426.246V425.112H514.733V426.606H520.565L515.957 437.28ZM522.885 432.06H528.249V430.53H522.885V432.06ZM530.717 437.316H532.589V424.932H531.599L528.557 426.3V427.398L530.717 426.93V437.316Z" fill="#2E2E2E"/>
<line x1="308.5" y1="332" x2="308.5" y2="453" stroke="#E3E3E3"/>
<rect x="71.5" y="553.5" width="237" height="120" fill="#EDF2FD" stroke="#E3E3E3"/>
<rect x="71.5" y="553.5" width="719" height="40" stroke="#E3E3E3"/>
<rect x="71.5" y="593.5" width="719" height="40" stroke="#E3E3E3"/>
<rect x="71.5" y="633.5" width="719" height="40" stroke="#E3E3E3"/>
<path d="M104.752 573.816V564.384H102.916V567.768H99.982V569.28H102.916V573.816H104.752ZM104.896 577.254C104.896 575.328 102.916 574.05 99.424 574.05C95.968 574.05 93.988 575.328 93.988 577.254C93.988 579.144 95.968 580.422 99.424 580.422C102.916 580.422 104.896 579.144 104.896 577.254ZM102.988 577.254C102.988 578.298 101.692 578.946 99.424 578.946C97.21 578.946 95.896 578.298 95.896 577.254C95.896 576.192 97.21 575.544 99.424 575.544C101.692 575.544 102.988 576.192 102.988 577.254ZM101.008 571.656C99.19 571.026 97.228 569.172 97.228 566.67V565.14H95.338V566.742C95.338 569.226 93.7 571.152 91.396 572.07L92.512 573.492C94.132 572.862 95.806 571.332 96.292 569.676C96.994 571.224 98.632 572.538 99.946 573.096L101.008 571.656ZM120.164 577.254C120.164 575.292 118.166 574.032 114.674 574.032C111.218 574.032 109.238 575.292 109.238 577.254C109.238 579.162 111.218 580.422 114.674 580.422C118.166 580.422 120.164 579.162 120.164 577.254ZM114.89 572.79V565.572H107.546V572.79H114.89ZM118.202 568.272V570.09H115.718V571.602H118.202V573.87H120.038V564.384H118.202V566.76H115.736V568.272H118.202ZM118.274 577.254C118.274 578.298 116.96 578.928 114.674 578.928C112.442 578.928 111.128 578.298 111.128 577.254C111.128 576.174 112.442 575.544 114.674 575.544C116.96 575.544 118.274 576.174 118.274 577.254ZM113.036 571.35H109.382V567.012H113.036V571.35Z" fill="#2E2E2E"/>
<path d="M105.22 617.254C105.22 615.328 103.168 614.068 99.676 614.068C96.22 614.068 94.15 615.328 94.15 617.254C94.15 619.144 96.22 620.404 99.676 620.404C103.168 620.404 105.22 619.144 105.22 617.254ZM105.058 614.158V604.384H103.294V608.398H101.746V604.672H100V613.474H101.746V609.946H103.294V614.158H105.058ZM99.604 611.674C98.11 610.936 96.49 609.388 96.49 607.066V605.374H94.708V607.12C94.708 609.424 93.304 611.224 91.45 612.25L92.512 613.546C93.916 612.844 95.212 611.368 95.644 610.09C96.076 611.206 97.588 612.538 98.668 613.042L99.604 611.674ZM103.312 617.254C103.312 618.298 101.926 618.928 99.676 618.928C97.426 618.928 96.058 618.298 96.058 617.254C96.058 616.192 97.426 615.58 99.676 615.58C101.926 615.58 103.312 616.192 103.312 617.254ZM114.008 607.768H118.202V609.1H114.008V610.558H118.202V616.012H120.038V604.384H118.202V606.31H114.008V607.768ZM115.502 611.638C113.774 612.034 111.722 612.178 109.508 612.178V605.464H107.672V613.744H109.274C111.308 613.726 114.116 613.528 115.772 613.132L115.502 611.638ZM120.434 619.972V618.496H111.434V615.04H109.58V619.972H120.434ZM136.134 620.44V619.072H126.648V618.136H135.558V614.644H124.776V616.012H133.686V616.894H124.812V620.44H136.134ZM131.058 607.066C131.058 605.41 129.348 604.42 127.17 604.42C124.956 604.42 123.21 605.446 123.21 607.03C123.21 608.668 124.956 609.694 127.17 609.694C129.348 609.694 131.058 608.668 131.058 607.066ZM130.464 613.456H133.704V614.032H135.558V604.384H133.704V612.178H130.464V613.456ZM127.926 614.032V611.764C129.528 611.674 131.112 611.53 132.696 611.35L132.57 609.964C131.13 610.126 129.438 610.27 127.296 610.36C125.532 610.414 123.786 610.432 121.968 610.432L122.22 611.944C123.498 611.944 124.794 611.908 126.072 611.854V614.032H127.926ZM129.258 607.048C129.258 607.84 128.376 608.308 127.17 608.308C125.928 608.308 125.082 607.84 125.082 607.048C125.082 606.256 125.928 605.77 127.17 605.77C128.394 605.77 129.258 606.256 129.258 607.048ZM146.075 608.632C146.075 606.454 144.329 604.96 141.989 604.96C139.649 604.96 137.903 606.49 137.903 608.632C137.903 610.81 139.721 612.16 141.989 612.16C144.329 612.16 146.075 610.756 146.075 608.632ZM144.257 608.614C144.257 609.712 143.357 610.63 141.989 610.63C140.693 610.63 139.721 609.784 139.721 608.614C139.721 607.426 140.747 606.49 141.989 606.49C143.393 606.49 144.257 607.408 144.257 608.614ZM151.187 620.296V618.838H142.079V617.47H150.665V613.294H140.153V614.788H148.829V616.102H140.225V620.296H151.187ZM150.647 612.466V604.384H148.811V612.466H150.647Z" fill="#2E2E2E"/>
<path d="M104.68 645.526V644.032H92.872V645.526H97.822C97.498 647.524 94.654 649.036 92.188 649.288L93.07 650.746C95.428 650.386 98.02 648.928 98.794 647.362C99.604 648.838 102.268 650.35 104.518 650.674L105.346 649.216C102.952 648.964 100.126 647.506 99.802 645.526H104.68ZM99.676 659.404V653.698H106.03V652.222H91.54V653.698H97.84V659.404H99.676ZM120.866 650.656C118.454 650.206 115.07 647.974 115.07 645.256V644.302H113.144V645.256C113.144 648.01 109.976 650.17 107.348 650.584L108.248 652.078C110.678 651.502 113.342 649.666 114.08 647.668C114.908 649.648 117.518 651.466 119.912 652.078L120.866 650.656ZM121.334 657.406V655.912H114.98V651.97H113.144V655.912H106.844V657.406H121.334Z" fill="#2E2E2E"/>
<path d="M346.143 580.422V564.384H344.307V580.422H346.143ZM333.417 571.242C333.417 574.626 334.947 576.858 337.521 576.858C340.095 576.858 341.589 574.626 341.589 571.26C341.589 567.858 340.095 565.626 337.521 565.626C334.947 565.626 333.417 567.858 333.417 571.242ZM339.843 571.242C339.843 573.816 338.889 575.364 337.521 575.364C336.171 575.364 335.235 573.816 335.235 571.242C335.235 568.668 336.171 567.138 337.521 567.138C338.889 567.138 339.843 568.668 339.843 571.242ZM358.279 575.202C355.921 573.924 354.193 571.53 354.193 568.29V567.516H357.451V566.058H348.937V567.516H352.285V568.308C352.285 571.548 350.683 574.086 348.127 575.526L349.297 576.876C351.205 575.868 352.825 573.744 353.239 572.016C353.761 573.672 355.705 575.724 357.199 576.552L358.279 575.202ZM361.465 580.422V564.384H359.629V580.422H361.465ZM375.797 570.792C375.797 569.478 374.141 568.47 370.811 568.47C367.481 568.47 365.825 569.478 365.825 570.792C365.825 572.142 367.481 573.15 370.811 573.15C374.141 573.15 375.797 572.142 375.797 570.792ZM371.837 577.506V575.328H378.047V573.834H363.557V575.328H369.983V577.506H371.837ZM376.391 580.044V578.55H367.265V576.21H365.411V580.044H376.391ZM377.147 568.002V566.562H364.457V568.002H377.147ZM373.871 570.81C373.871 571.404 372.809 571.782 370.811 571.782C368.813 571.782 367.751 571.404 367.751 570.81C367.751 570.216 368.813 569.802 370.811 569.802C372.809 569.802 373.871 570.216 373.871 570.81ZM368.003 565.914H373.619V564.474H368.003V565.914Z" fill="#2E2E2E"/>
<path d="M335.369 618.316H337.241V605.932H336.251L333.209 607.3V608.398L335.369 607.93V618.316ZM343.756 605.86C341.128 605.86 339.724 607.786 339.724 610.126C339.724 612.466 341.326 613.924 343.396 613.924C344.71 613.924 345.682 613.384 346.33 612.736C346.204 615.976 345.016 616.93 343.162 616.93C342.226 616.93 341.182 616.624 340.66 616.318L340.282 617.704C340.84 618.064 342.01 618.46 343.252 618.46C346.204 618.46 348.202 616.57 348.202 612.052V611.224C348.202 607.786 346.618 605.86 343.756 605.86ZM343.792 607.318C345.574 607.318 346.33 608.704 346.33 610.846V611.17C345.862 611.782 344.908 612.502 343.882 612.502C342.55 612.502 341.542 611.728 341.542 609.964C341.542 608.398 342.37 607.318 343.792 607.318ZM353.523 605.86C350.895 605.86 349.491 607.786 349.491 610.126C349.491 612.466 351.093 613.924 353.163 613.924C354.477 613.924 355.449 613.384 356.097 612.736C355.971 615.976 354.783 616.93 352.929 616.93C351.993 616.93 350.949 616.624 350.427 616.318L350.049 617.704C350.607 618.064 351.777 618.46 353.019 618.46C355.971 618.46 357.969 616.57 357.969 612.052V611.224C357.969 607.786 356.385 605.86 353.523 605.86ZM353.559 607.318C355.341 607.318 356.097 608.704 356.097 610.846V611.17C355.629 611.782 354.675 612.502 353.649 612.502C352.317 612.502 351.309 611.728 351.309 609.964C351.309 608.398 352.137 607.318 353.559 607.318ZM364.888 618.334H366.67V615.832H368.578V614.392H366.67V605.95H365.302L359.344 614.644V615.832H364.888V618.334ZM361.27 614.392L364.906 609.064V614.392H361.27ZM376.413 607.768H380.607V609.1H376.413V610.558H380.607V616.012H382.443V604.384H380.607V606.31H376.413V607.768ZM377.907 611.638C376.179 612.034 374.127 612.178 371.913 612.178V605.464H370.077V613.744H371.679C373.713 613.726 376.521 613.528 378.177 613.132L377.907 611.638ZM382.839 619.972V618.496H373.839V615.04H371.985V619.972H382.839ZM394.699 618.334H396.481V615.832H398.389V614.392H396.481V605.95H395.113L389.155 614.644V615.832H394.699V618.334ZM391.081 614.392L394.717 609.064V614.392H391.081ZM413.046 620.44V619.072H403.56V618.136H412.47V614.644H401.688V616.012H410.598V616.894H401.724V620.44H413.046ZM407.97 607.066C407.97 605.41 406.26 604.42 404.082 604.42C401.868 604.42 400.122 605.446 400.122 607.03C400.122 608.668 401.868 609.694 404.082 609.694C406.26 609.694 407.97 608.668 407.97 607.066ZM407.376 613.456H410.616V614.032H412.47V604.384H410.616V612.178H407.376V613.456ZM404.838 614.032V611.764C406.44 611.674 408.024 611.53 409.608 611.35L409.482 609.964C408.042 610.126 406.35 610.27 404.208 610.36C402.444 610.414 400.698 610.432 398.88 610.432L399.132 611.944C400.41 611.944 401.706 611.908 402.984 611.854V614.032H404.838ZM406.17 607.048C406.17 607.84 405.288 608.308 404.082 608.308C402.84 608.308 401.994 607.84 401.994 607.048C401.994 606.256 402.84 605.77 404.082 605.77C405.306 605.77 406.17 606.256 406.17 607.048ZM419.291 618.244H426.995V616.732H421.811L423.467 615.076C425.195 613.258 426.833 611.53 426.833 609.388C426.833 607.192 425.465 605.86 422.873 605.86C421.487 605.86 420.245 606.382 419.453 606.868L419.831 608.29C420.515 607.84 421.523 607.39 422.441 607.39C424.061 607.39 424.871 608.056 424.871 609.604C424.871 611.224 423.575 612.664 421.883 614.446L419.291 617.146V618.244ZM428.636 618.244H436.34V616.732H431.156L432.812 615.076C434.54 613.258 436.178 611.53 436.178 609.388C436.178 607.192 434.81 605.86 432.218 605.86C430.832 605.86 429.59 606.382 428.798 606.868L429.176 608.29C429.86 607.84 430.868 607.39 431.786 607.39C433.406 607.39 434.216 608.056 434.216 609.604C434.216 611.224 432.92 612.664 431.228 614.446L428.636 617.146V618.244ZM446.135 608.632C446.135 606.454 444.389 604.96 442.049 604.96C439.709 604.96 437.963 606.49 437.963 608.632C437.963 610.81 439.781 612.16 442.049 612.16C444.389 612.16 446.135 610.756 446.135 608.632ZM444.317 608.614C444.317 609.712 443.417 610.63 442.049 610.63C440.753 610.63 439.781 609.784 439.781 608.614C439.781 607.426 440.807 606.49 442.049 606.49C443.453 606.49 444.317 607.408 444.317 608.614ZM451.247 620.296V618.838H442.139V617.47H450.725V613.294H440.213V614.788H448.889V616.102H440.285V620.296H451.247ZM450.707 612.466V604.384H448.871V612.466H450.707Z" fill="#2E2E2E"/>
<path d="M345.752 660.422V644.384H343.916V649.91H340.784V651.458H343.916V660.422H345.752ZM342.296 655.4C339.938 653.924 338.336 651.368 338.336 648.29V645.752H336.446V648.398C336.446 651.458 334.88 654.104 332.396 655.724L333.548 657.056C335.276 656.012 336.878 653.996 337.436 652.088C338.012 653.852 339.812 655.904 341.18 656.768L342.296 655.4ZM361.02 660.314V658.838H351.552V657.686H360.426V653.834H355.98V652.61H362.334V651.116H347.844V652.61H354.144V653.834H349.626V655.31H358.59V656.336H349.698V660.314H361.02ZM355.116 644.546C351.588 644.546 349.5 645.734 349.5 647.39C349.5 649.046 351.588 650.234 355.116 650.234C358.662 650.234 360.768 649.046 360.768 647.39C360.768 645.734 358.662 644.546 355.116 644.546ZM355.116 646.022C357.438 646.022 358.842 646.526 358.842 647.39C358.842 648.254 357.438 648.776 355.116 648.776C352.794 648.776 351.408 648.254 351.408 647.39C351.408 646.526 352.794 646.022 355.116 646.022ZM376.36 660.422V644.384H374.524V660.422H376.36ZM372.922 655.328C370.582 653.852 369.088 651.368 369.088 648.29V645.77H367.18V648.398C367.18 651.458 365.596 654.104 363.112 655.724L364.246 657.074C366.01 656.012 367.612 653.996 368.152 652.088C368.746 653.852 370.456 655.832 371.824 656.714L372.922 655.328ZM395.727 647.624C395.727 645.842 393.711 644.6 390.147 644.6C386.619 644.6 384.603 645.842 384.603 647.624C384.603 648.65 385.233 649.478 386.421 650.018V652.124H382.911V653.6H397.401V652.124H393.837V650.054C395.061 649.514 395.727 648.668 395.727 647.624ZM395.727 657.47C395.727 655.652 393.675 654.554 390.147 654.554C386.655 654.554 384.603 655.652 384.603 657.47C384.603 659.324 386.655 660.404 390.165 660.404C393.675 660.404 395.727 659.324 395.727 657.47ZM393.819 647.624C393.819 648.632 392.397 649.244 390.147 649.244C387.861 649.244 386.493 648.632 386.493 647.624C386.493 646.634 387.861 646.004 390.147 646.004C392.451 646.004 393.819 646.634 393.819 647.624ZM393.819 657.488C393.819 658.442 392.397 658.928 390.147 658.928C387.915 658.928 386.493 658.442 386.493 657.488C386.493 656.552 387.915 656.012 390.147 656.012C392.379 656.012 393.819 656.552 393.819 657.488ZM390.165 650.666C390.831 650.666 391.443 650.648 392.001 650.558V652.124H388.257V650.54C388.833 650.648 389.481 650.666 390.165 650.666ZM410.671 644.384H408.817V656.012H410.671V650.612H413.047V649.064H410.671V644.384ZM411.139 659.936V658.442H402.265V654.842H400.411V659.936H411.139ZM407.503 652.07C405.649 651.458 403.687 649.46 403.687 646.922V645.284H401.779V646.994C401.779 649.496 400.087 651.62 397.837 652.502L398.953 653.978C400.555 653.33 402.265 651.62 402.751 649.946C403.453 651.494 405.091 652.934 406.441 653.51L407.503 652.07ZM426.084 645.302H415.356V646.814H424.23C424.212 648.668 424.086 650.72 423.78 652.142H413.52V653.636H419.82V660.422H421.656V653.636H428.01V652.142H425.544C425.94 650.234 426.084 647.984 426.084 645.302ZM446.476 660.422V644.384H444.64V660.422H446.476ZM433.75 651.242C433.75 654.626 435.28 656.858 437.854 656.858C440.428 656.858 441.922 654.626 441.922 651.26C441.922 647.858 440.428 645.626 437.854 645.626C435.28 645.626 433.75 647.858 433.75 651.242ZM440.176 651.242C440.176 653.816 439.222 655.364 437.854 655.364C436.504 655.364 435.568 653.816 435.568 651.242C435.568 648.668 436.504 647.138 437.854 647.138C439.222 647.138 440.176 648.668 440.176 651.242ZM462.105 660.422V644.384H460.341V650.756H458.649V644.708H456.921V659.648H458.649V652.304H460.341V660.422H462.105ZM454.905 652.034V650.54H450.891V647.768H455.265V646.274H449.037V656.57C451.881 656.57 454.005 656.588 456.075 656.138L455.823 654.698C454.113 655.04 452.385 655.076 450.891 655.076V652.034H454.905ZM472.837 647.732C472.837 645.986 471.181 644.744 468.859 644.744C466.555 644.744 464.845 645.986 464.845 647.696C464.845 649.496 466.555 650.648 468.859 650.648C471.181 650.648 472.837 649.478 472.837 647.732ZM472.333 655.04H475.465V656.75H477.301V644.384H475.465V653.69H472.333V655.04ZM477.589 660.008V658.532H467.815V655.292H465.979V660.008H477.589ZM470.281 655.94V652.916C471.667 652.826 473.071 652.7 474.439 652.538L474.313 651.17C472.891 651.332 471.199 651.458 469.039 651.53C467.275 651.602 465.529 651.62 463.711 651.62L463.963 653.15C465.457 653.132 466.933 653.096 468.427 653.024V655.94H470.281ZM471.019 647.732C471.019 648.56 470.191 649.244 468.859 649.244C467.527 649.244 466.681 648.56 466.681 647.732C466.681 646.886 467.527 646.166 468.859 646.166C470.191 646.166 471.019 646.886 471.019 647.732ZM492.281 654.23V652.736H482.903V650.54H491.813V645.5H480.995V646.976H489.977V649.046H481.049V654.23H485.495V656.912H479.195V658.388H493.685V656.912H487.331V654.23H492.281ZM499.426 658.244H507.13V656.732H501.946L503.602 655.076C505.33 653.258 506.968 651.53 506.968 649.388C506.968 647.192 505.6 645.86 503.008 645.86C501.622 645.86 500.38 646.382 499.588 646.868L499.966 648.29C500.65 647.84 501.658 647.39 502.576 647.39C504.196 647.39 505.006 648.056 505.006 649.604C505.006 651.224 503.71 652.664 502.018 654.446L499.426 657.146V658.244ZM513.399 658.46C515.937 658.46 517.971 656.822 517.971 652.592V651.674C517.971 647.408 515.901 645.86 513.435 645.86C510.951 645.86 508.773 647.39 508.773 651.746V652.61C508.773 656.768 510.807 658.46 513.399 658.46ZM513.399 656.984C511.653 656.984 510.753 655.598 510.753 652.664V651.548C510.753 648.632 511.671 647.336 513.417 647.336C515.145 647.336 516.045 648.686 516.045 651.656V652.772C516.045 655.778 515.145 656.984 513.399 656.984ZM524.625 658.46C527.163 658.46 529.197 656.822 529.197 652.592V651.674C529.197 647.408 527.127 645.86 524.661 645.86C522.177 645.86 519.999 647.39 519.999 651.746V652.61C519.999 656.768 522.033 658.46 524.625 658.46ZM524.625 656.984C522.879 656.984 521.979 655.598 521.979 652.664V651.548C521.979 648.632 522.897 647.336 524.643 647.336C526.371 647.336 527.271 648.686 527.271 651.656V652.772C527.271 655.778 526.371 656.984 524.625 656.984ZM530.865 653.06H536.229V651.53H530.865V653.06ZM537.281 658.244H544.985V656.732H539.801L541.457 655.076C543.185 653.258 544.823 651.53 544.823 649.388C544.823 647.192 543.455 645.86 540.863 645.86C539.477 645.86 538.235 646.382 537.443 646.868L537.821 648.29C538.505 647.84 539.513 647.39 540.431 647.39C542.051 647.39 542.861 648.056 542.861 649.604C542.861 651.224 541.565 652.664 539.873 654.446L537.281 657.146V658.244Z" fill="#2E2E2E"/>
<line x1="308.5" y1="553" x2="308.5" y2="674" stroke="#E3E3E3"/>
</svg>
