<svg width="182" height="182" viewBox="0 0 182 182" fill="none" xmlns="http://www.w3.org/2000/svg">
<path d="M91 182C141.258 182 182 141.258 182 91C182 40.7421 141.258 0 91 0C40.7421 0 0 40.7421 0 91C0 141.258 40.7421 182 91 182Z" fill="url(#paint0_linear)"/>
<path d="M84.29 122.74L91.29 101.51L79.08 57.8401C78.9597 57.4015 78.6991 57.0143 78.3378 56.738C77.9766 56.4617 77.5348 56.3114 77.08 56.3101C76.6378 56.3102 76.2068 56.4493 75.8479 56.7077C75.489 56.9661 75.2204 57.3307 75.08 57.7501L68 80.0901V80.1801L80.25 122.65C80.3759 123.077 80.6343 123.453 80.9879 123.724C81.3414 123.995 81.7719 124.146 82.2171 124.156C82.6623 124.166 83.0992 124.034 83.4646 123.78C83.83 123.525 84.105 123.161 84.25 122.74H84.29Z" fill="white"/>
<path d="M77 52.1H58.49C57.1566 52.0956 55.8564 52.5158 54.7776 53.2997C53.6989 54.0835 52.8977 55.1904 52.49 56.46C52.49 56.46 29.49 124.28 29.07 125.51C28.9538 125.83 28.9168 126.173 28.9621 126.511C29.0074 126.848 29.1337 127.17 29.3302 127.448C29.5267 127.726 29.7876 127.952 30.0906 128.108C30.3935 128.263 30.7296 128.343 31.07 128.34H45.07C45.5084 128.347 45.9378 128.216 46.297 127.964C46.6562 127.713 46.9268 127.354 47.07 126.94C47.07 126.94 71.07 56.28 71.07 56.3C71.5025 55.0725 72.3051 54.0093 73.3672 53.257C74.4292 52.5048 75.6985 52.1006 77 52.1V52.1Z" fill="white"/>
<path d="M146.88 128.88C152.13 127.19 154.05 122.56 152.46 118.17C146.08 100.56 128.63 52 128.63 52C128.168 50.8705 127.473 49.8512 126.591 49.0087C125.708 48.1662 124.658 47.5194 123.508 47.1107C122.359 46.702 121.136 46.5406 119.919 46.637C118.703 46.7333 117.521 47.0853 116.45 47.67L85.3698 65.12L90.3698 82.45L105.9 73.08L88.2398 124.08C87.8152 125.318 87.0147 126.394 85.9499 127.155C84.8851 127.917 83.6091 128.328 82.2998 128.33H100.76C102.093 128.334 103.393 127.914 104.472 127.13C105.551 126.346 106.352 125.24 106.76 123.97V123.97L121.05 78.79C121.05 78.79 134.49 119.7 135.77 123.68C136.148 124.758 136.738 125.749 137.504 126.596C138.271 127.443 139.198 128.129 140.233 128.613C141.267 129.097 142.388 129.37 143.529 129.416C144.671 129.462 145.81 129.28 146.88 128.88V128.88Z" fill="white"/>
<defs>
<linearGradient id="paint0_linear" x1="0" y1="91" x2="182" y2="91" gradientUnits="userSpaceOnUse">
<stop stop-color="#6D6D6D"/>
<stop offset="0.37" stop-color="#747474"/>
<stop offset="0.9" stop-color="#878787"/>
<stop offset="1" stop-color="#8B8B8B"/>
</linearGradient>
</defs>
</svg>
